<?xml version="1.0" encoding="utf-8"?>
<!-- Generator: Adobe Illustrator 15.0.0, SVG Export Plug-In . SVG Version: 6.00 Build 0)  -->
<!DOCTYPE svg PUBLIC "-//W3C//DTD SVG 1.1//EN" "http://www.w3.org/Graphics/SVG/1.1/DTD/svg11.dtd">
<svg version="1.1" id="Layer_1" xmlns="http://www.w3.org/2000/svg" xmlns:xlink="http://www.w3.org/1999/xlink" x="0px" y="0px"
	 width="250px" height="250px" viewBox="0 0 250 250" enable-background="new 0 0 250 250" xml:space="preserve">
<g>
	<g>
		<defs>
			<path id="SVGID_26_" d="M125,250L125,250C55.964,250,0,194.036,0,125l0,0C0,55.964,55.964,0,125,0l0,0
				c69.036,0,125,55.964,125,125l0,0C250,194.036,194.036,250,125,250z"/>
		</defs>
		<clipPath id="SVGID_1_">
			<use xlink:href="#SVGID_26_"  overflow="visible"/>
		</clipPath>
		<rect clip-path="url(#SVGID_1_)" fill="#E2DECF" width="250" height="250"/>
		<g clip-path="url(#SVGID_1_)">
			<path fill="#DEAF8C" d="M94.699,106.917c0,8.68-4.569,15.718-10.208,15.718c-5.637,0-9.911-10.768-9.911-19.449
				s4.273-11.987,9.911-11.987C90.13,91.199,94.699,98.237,94.699,106.917z"/>
			<path fill="#D8AA89" d="M155.304,106.917c0,8.68,4.57,15.718,10.208,15.718s9.911-10.768,9.911-19.449
				s-4.273-11.987-9.911-11.987S155.304,98.237,155.304,106.917z"/>
			<rect x="105.828" y="153.874" fill="#E2B493" width="38.376" height="48.972"/>
			<path fill="#D3A989" d="M144.204,153.874v22.41c-15.08-2.558-28.458-10.103-38.376-20.874v-1.536H144.204z"/>
			<path fill="#ECBE9D" d="M168.51,98.329c0,28.322-19.483,63.683-43.508,63.683s-43.508-35.36-43.508-63.683
				s19.483-51.286,43.508-51.286S168.51,70.007,168.51,98.329z"/>
			<path fill="#D9AD8D" d="M168.51,98.329c0,28.322-19.483,63.683-43.508,63.683V47.043C149.026,47.043,168.51,70.007,168.51,98.329
				z"/>
			<path fill="#696969" d="M204.471,250H45.527c0,0,5.143-47.484,10.023-53.474c1.226-1.498,2.849-2.937,4.764-4.308
				c14.448-10.305,45.511-16.761,45.511-16.761c0.166,10.48,9.674,15.722,19.192,15.722c9.51,0,19.027-5.241,19.183-15.722
				c0,0,39.813,8.283,50.246,21.068C199.327,202.516,204.471,250,204.471,250z"/>
			<path fill="#606060" d="M204.474,250h-79.452v-58.82c9.508,0,19.027-5.241,19.183-15.722c0,0,39.813,8.283,50.246,21.068
				C199.33,202.516,204.474,250,204.474,250z"/>
			<g>
				<defs>
					<path id="SVGID_3_" d="M204.471,250H45.527c0,0,5.143-47.484,10.023-53.474c1.226-1.498,2.849-2.937,4.764-4.308
						c14.448-10.305,45.511-16.761,45.511-16.761c0.166,10.48,9.674,15.722,19.192,15.722c9.51,0,19.027-5.241,19.183-15.722
						c0,0,39.813,8.283,50.246,21.068C199.327,202.516,204.471,250,204.471,250z"/>
				</defs>
				<clipPath id="SVGID_2_">
					<use xlink:href="#SVGID_3_"  overflow="visible"/>
				</clipPath>
			</g>
			<path fill="#535556" d="M178.753,57.398c-1.343-3.132-3.568-5.88-6.354-7.843c1.38-1.237,2.366-2.907,2.782-4.712
				c-2.909,0.204-5.862-0.206-8.608-1.193c0.612-1.856,0.774-3.858,0.469-5.788c-1.747,1.82-4.11,3.018-6.601,3.415
				c-2.351-1.909-4.722-3.444-6.867-4.456c-1.249-0.59-2.524-1.083-3.815-1.503c-3.802-2.985-6.932-6.825-9.041-11.176
				c-1.179,1.719-1.514,3.99-0.881,5.976c-4.066-1.756-7.993-3.841-11.726-6.227c-0.35,1.705-0.051,3.535,0.824,5.041
				c-5.763,1.23-12.079-0.505-16.403-4.508c-0.392,2.015,0.209,4.2,1.578,5.73c-3.953-0.47-7.73-2.307-10.54-5.126
				c-0.956,3.124-1.052,6.494-0.332,9.678c-3.487-1.109-5.772-3.587-6.297-8.5c0,0-3.215,4.314-7.194,10.215
				c-1.143-1.279-1.817-3.117-2.334-4.813c-2.784,2.324-4.718,5.643-5.367,9.211c-0.874-1.079-1.75-2.159-2.624-3.238
				c-3.072,5.829-4.32,12.602-3.526,19.142c0.141,1.158,0.369,2.334,0.732,3.45c-3.636,14.034,1.644,33.469,1.644,33.469
				s2.063-1.916,4.169-2.174c2.104-0.259,2.759,16.339,2.759,16.339h2.444c0,0,0.337-8.545,3.16-14.098
				c1.105-2.174,4.192-6.374,3.342-9.168c-1.063-3.486-1.154-5.982-1.154-5.982s-0.719-7.684,4.52-13.75
				c2.381-2.758,8.302,5.148,23.128,0.287c17.035-5.584,24.456-8.344,32.125-3.402c7.291,4.699,8.771,17.838,6.503,21.889
				c-2.269,4.051,1.092,10.128,1.092,10.128c2.188,5.833,3.16,14.098,3.16,14.098h2.443c0,0,0.656-16.598,2.761-16.339
				c2.104,0.258,4.169,2.174,4.169,2.174s2.422-11.28,2.018-22.869c0.608-1.395,0.977-2.912,1.136-4.427
				c0.312-2.967-0.088-5.958-0.487-8.914C176.622,57.422,177.688,57.411,178.753,57.398z"/>
		</g>
	</g>
</g>
</svg>
