<?xml version="1.0" encoding="utf-8"?>
<!-- Generator: Adobe Illustrator 15.0.0, SVG Export Plug-In . SVG Version: 6.00 Build 0)  -->
<!DOCTYPE svg PUBLIC "-//W3C//DTD SVG 1.1//EN" "http://www.w3.org/Graphics/SVG/1.1/DTD/svg11.dtd">
<svg version="1.1" id="Layer_1" xmlns="http://www.w3.org/2000/svg" xmlns:xlink="http://www.w3.org/1999/xlink" x="0px" y="0px"
	 width="98.508px" height="108.514px" viewBox="0.746 -14.257 98.508 108.514"
	 enable-background="new 0.746 -14.257 98.508 108.514" xml:space="preserve">
<g>
	
		<linearGradient id="SVGID_1_" gradientUnits="userSpaceOnUse" x1="-432.3643" y1="740.0498" x2="-432.5059" y2="731.9446" gradientTransform="matrix(-1 0 0 1 -402.291 -691)">
		<stop  offset="0" style="stop-color:#736056"/>
		<stop  offset="1" style="stop-color:#5D4E43"/>
	</linearGradient>
	<polygon fill="url(#SVGID_1_)" points="31.523,51.109 31.523,40.478 28.766,38.884 28.766,49.517 	"/>
	
		<linearGradient id="SVGID_2_" gradientUnits="userSpaceOnUse" x1="-436.335" y1="746.8467" x2="-435.2058" y2="736.1038" gradientTransform="matrix(-1 0 0 1 -402.291 -691)">
		<stop  offset="0" style="stop-color:#736056"/>
		<stop  offset="1" style="stop-color:#5D4E43"/>
	</linearGradient>
	<polygon fill="url(#SVGID_2_)" points="31.523,51.109 31.523,40.478 34.283,38.884 34.283,49.517 	"/>
	<polygon fill="#977A67" points="31.523,51.109 31.523,48.48 34.283,46.888 34.283,49.517 	"/>
</g>
<g>
	<polygon fill="#E0C8B6" points="81,22.295 78.412,22.295 70.366,26.94 30.833,46.94 20.027,40.703 30.833,34.465 70.366,34.465 
		78.412,19.109 81,19.109 83.758,20.703 	"/>
	
		<linearGradient id="SVGID_3_" gradientUnits="userSpaceOnUse" x1="-481.7095" y1="718.7217" x2="-481.9548" y2="704.6639" gradientTransform="matrix(-1 0 0 1 -402.291 -691)">
		<stop  offset="0" style="stop-color:#736056"/>
		<stop  offset="1" style="stop-color:#5D4E43"/>
	</linearGradient>
	<polygon fill="url(#SVGID_3_)" points="81,22.295 81,11.663 78.24,10.07 78.24,20.703 	"/>
	<polygon fill="#977A67" points="81,22.295 81,11.663 83.758,10.07 83.758,20.703 	"/>
	
		<linearGradient id="SVGID_4_" gradientUnits="userSpaceOnUse" x1="-485.0981" y1="709.9355" x2="-484.5016" y2="704.2601" gradientTransform="matrix(-1 0 0 1 -402.291 -691)">
		<stop  offset="0" style="stop-color:#736056"/>
		<stop  offset="1" style="stop-color:#5D4E43"/>
	</linearGradient>
	<polygon fill="url(#SVGID_4_)" points="81,19.666 81,11.663 83.758,10.07 83.758,18.073 	"/>
</g>
<polygon fill="#F1ECE5" points="64.941,26.975 26.286,4.656 59.043,-14.257 97.7,8.062 "/>
<polygon fill="#ECDDD1" points="59.043,-11.263 92.516,8.062 64.941,23.98 31.47,4.656 "/>
<polygon fill="#A88F87" points="58.007,-8.591 59.043,-9.188 90.717,9.098 89.682,9.696 "/>
<linearGradient id="SVGID_5_" gradientUnits="userSpaceOnUse" x1="-459.5244" y1="719.75" x2="-473.7247" y2="652.9432" gradientTransform="matrix(-1 0 0 1 -402.291 -691)">
	<stop  offset="0" style="stop-color:#B6A49C"/>
	<stop  offset="1" style="stop-color:#9E8F88"/>
</linearGradient>
<polygon fill="url(#SVGID_5_)" points="31.47,4.656 59.043,-11.263 92.516,8.062 90.717,9.098 59.043,-9.188 33.267,5.693 "/>
<polygon fill="#DED5CB" points="31.47,4.656 59.043,-11.263 59.043,-9.188 33.267,5.693 "/>
<polygon fill="#B6A49C" points="58.007,-8.591 59.043,-11.263 59.043,-9.188 "/>
<rect x="49.101" y="69.607" fill="#B9A8A2" width="15.84" height="12.197"/>
<linearGradient id="SVGID_6_" gradientUnits="userSpaceOnUse" x1="-441.9722" y1="776.5947" x2="-445.2927" y2="764.2023" gradientTransform="matrix(-1 0 0 1 -402.291 -691)">
	<stop  offset="0" style="stop-color:#B9A8A2"/>
	<stop  offset="1" style="stop-color:#9C8E8A"/>
</linearGradient>
<rect x="29.514" y="65.951" fill="url(#SVGID_6_)" width="26.453" height="16.447"/>
<rect x="85.537" y="66.607" fill="#B9A8A2" width="2.688" height="2.65"/>
<polygon fill="#DCCEC0" points="64.941,82.387 97.7,63.475 97.7,0 64.941,18.913 "/>
<polygon fill="#AD9B95" points="86.67,69.26 92.852,65.689 93.613,63.729 93.613,49.37 94.314,48.967 94.314,48.068 93.613,48.473 
	87.514,51.997 87.514,51.997 86.813,52.4 86.046,54.361 86.046,55.261 86.67,54.9 "/>
<polygon fill="#86BCC2" points="64.941,81.805 97.7,62.893 97.7,60.271 64.941,79.186 "/>
<linearGradient id="SVGID_7_" gradientUnits="userSpaceOnUse" x1="-488.6338" y1="756.9453" x2="-489.9556" y2="756.9453" gradientTransform="matrix(-1 0 0 1 -402.291 -691)">
	<stop  offset="0" style="stop-color:#67878E"/>
	<stop  offset="1" style="stop-color:#436971"/>
</linearGradient>
<polygon fill="url(#SVGID_7_)" points="93.613,62.629 86.67,66.641 86.67,69.26 92.852,65.689 93.613,63.729 "/>
<polygon fill="#B6A49C" points="64.941,20.005 97.7,1.093 97.7,-0.582 64.941,18.331 "/>
<linearGradient id="SVGID_8_" gradientUnits="userSpaceOnUse" x1="-458.793" y1="720.2939" x2="-470.244" y2="705.6373" gradientTransform="matrix(-1 0 0 1 -402.291 -691)">
	<stop  offset="0" style="stop-color:#AB9A93"/>
	<stop  offset="1" style="stop-color:#9E8F88"/>
</linearGradient>
<polygon fill="url(#SVGID_8_)" points="64.941,81.805 26.286,59.486 26.286,4.656 64.941,26.975 "/>
<linearGradient id="SVGID_9_" gradientUnits="userSpaceOnUse" x1="-470.9033" y1="732.6816" x2="-481.3755" y2="719.2779" gradientTransform="matrix(-1 0 0 1 -402.291 -691)">
	<stop  offset="0" style="stop-color:#AB9A93"/>
	<stop  offset="1" style="stop-color:#9E8F88"/>
</linearGradient>
<polygon fill="url(#SVGID_9_)" points="64.941,81.805 60.971,79.511 60.971,16.038 64.941,18.331 "/>
<linearGradient id="SVGID_10_" gradientUnits="userSpaceOnUse" x1="-470.231" y1="757.1094" x2="-460.4374" y2="757.1094" gradientTransform="matrix(-1 0 0 1 -402.291 -691)">
	<stop  offset="0" style="stop-color:#B6A49C"/>
	<stop  offset="1" style="stop-color:#9E8F88"/>
</linearGradient>
<polygon fill="url(#SVGID_10_)" points="64.941,81.805 60.971,79.511 60.971,50.415 64.941,52.708 "/>
<linearGradient id="SVGID_11_" gradientUnits="userSpaceOnUse" x1="-456.2588" y1="773.6836" x2="-451.8476" y2="763.2915" gradientTransform="matrix(-1 0 0 1 -402.291 -691)">
	<stop  offset="0" style="stop-color:#67878E"/>
	<stop  offset="1" style="stop-color:#436971"/>
</linearGradient>
<polygon fill="url(#SVGID_11_)" points="60.971,79.511 26.286,59.486 26.286,37.14 60.971,57.165 "/>
<linearGradient id="SVGID_12_" gradientUnits="userSpaceOnUse" x1="-468.748" y1="770.3486" x2="-462.6584" y2="770.3486" gradientTransform="matrix(-1 0 0 1 -402.291 -691)">
	<stop  offset="0" style="stop-color:#67878E"/>
	<stop  offset="1" style="stop-color:#436971"/>
</linearGradient>
<polygon fill="url(#SVGID_12_)" points="64.941,81.805 60.971,79.511 60.971,76.893 64.941,79.186 "/>
<polygon fill="#DCCEC0" points="64.941,18.999 99.254,-0.812 99.254,-2.667 64.941,17.144 "/>
<linearGradient id="SVGID_13_" gradientUnits="userSpaceOnUse" x1="-463.0781" y1="711.5264" x2="-455.9494" y2="729.1707" gradientTransform="matrix(-1 0 0 1 -402.291 -691)">
	<stop  offset="0" style="stop-color:#B6A49C"/>
	<stop  offset="1" style="stop-color:#9E8F88"/>
</linearGradient>
<polygon fill="url(#SVGID_13_)" points="64.941,18.999 59.813,16.038 59.813,14.183 64.941,17.144 "/>
<polygon fill="#F1ECE5" points="59.813,14.183 64.941,17.144 99.254,-2.667 94.126,-5.629 "/>
<linearGradient id="SVGID_14_" gradientUnits="userSpaceOnUse" x1="-503.1958" y1="766.6104" x2="-488.2517" y2="750.0134" gradientTransform="matrix(-1 0 0 1 -402.291 -691)">
	<stop  offset="0" style="stop-color:#67878E"/>
	<stop  offset="1" style="stop-color:#436971"/>
</linearGradient>
<polygon fill="url(#SVGID_14_)" points="87.445,52.934 87.445,68.811 88.227,69.26 88.227,53.382 "/>
<polygon fill="#DCCEC0" points="88.227,52.482 93.967,49.169 93.967,64.146 88.227,67.463 "/>
<linearGradient id="SVGID_15_" gradientUnits="userSpaceOnUse" x1="-496.6157" y1="755.9316" x2="-491.7895" y2="735.0269" gradientTransform="matrix(-1 0 0 1 -402.291 -691)">
	<stop  offset="0" style="stop-color:#B6A49C"/>
	<stop  offset="1" style="stop-color:#9E8F88"/>
</linearGradient>
<polygon fill="url(#SVGID_15_)" points="88.477,53.835 88.477,52.314 93.967,49.145 93.967,64.146 93.202,64.59 93.202,51.105 "/>
<polygon fill="#533B40" points="89.003,54.178 92.495,52.161 92.495,61.7 89.003,63.717 "/>
<polygon fill="#6E565A" points="92.111,61.922 89.003,63.717 89.003,54.489 92.111,52.693 "/>
<linearGradient id="SVGID_16_" gradientUnits="userSpaceOnUse" x1="-503.7119" y1="760.6309" x2="-497.2531" y2="748.9788" gradientTransform="matrix(-1 0 0 1 -402.291 -691)">
	<stop  offset="0" style="stop-color:#67878E"/>
	<stop  offset="1" style="stop-color:#436971"/>
</linearGradient>
<polygon fill="url(#SVGID_16_)" points="93.967,50.066 93.967,64.146 94.743,64.598 94.743,49.617 "/>
<polygon fill="#B5E2EB" points="89.003,67.913 88.227,67.463 93.967,64.146 94.743,64.598 "/>
<polygon fill="#67878E" points="93.189,64.598 93.967,64.146 94.743,64.598 "/>
<linearGradient id="SVGID_17_" gradientUnits="userSpaceOnUse" x1="-496.0933" y1="753.0615" x2="-493.6259" y2="741.4534" gradientTransform="matrix(-1 0 0 1 -402.291 -691)">
	<stop  offset="0" style="stop-color:#B6A49C"/>
	<stop  offset="1" style="stop-color:#9E8F88"/>
</linearGradient>
<polygon fill="url(#SVGID_17_)" points="92.495,52.161 92.495,61.7 92.882,61.925 92.882,51.938 "/>
<linearGradient id="SVGID_18_" gradientUnits="userSpaceOnUse" x1="-492.8032" y1="753.4502" x2="-490.8825" y2="749.5122" gradientTransform="matrix(-1 0 0 1 -402.291 -691)">
	<stop  offset="0" style="stop-color:#F1ECE5"/>
	<stop  offset="1" style="stop-color:#C6B6A2"/>
</linearGradient>
<polygon fill="url(#SVGID_18_)" points="89.003,64.165 88.613,63.941 92.495,61.7 92.882,61.925 "/>
<linearGradient id="SVGID_19_" gradientUnits="userSpaceOnUse" x1="-495.2524" y1="755.126" x2="-494.267" y2="750.4902" gradientTransform="matrix(-1 0 0 1 -402.291 -691)">
	<stop  offset="0" style="stop-color:#B6A49C"/>
	<stop  offset="1" style="stop-color:#9E8F88"/>
</linearGradient>
<polygon fill="url(#SVGID_19_)" points="92.105,61.925 92.495,61.7 92.882,61.925 "/>
<path fill="#86BCC2" d="M87.525,53.787v-0.898l0.699-0.404l0,0l7.297-4.212l0.701-0.404v0.897l-0.701,0.405v15.877l-7.297,4.214
	V53.382L87.525,53.787L87.525,53.787z M89.003,67.913l5.74-3.315V49.618l-5.74,3.315V67.913z"/>
<polygon fill="#816C6F" points="89.451,59.206 89.451,58.107 91.657,56.833 91.657,57.932 "/>
<g>
	<path fill="#AD9B95" d="M76.906,73.307l6.121-3.533l0.765-1.963V56.434l0.7-1.797V53.74l-3.764,2.172l-3.059,1.766l0,0
		l-0.697,0.403l-0.767,1.961v0.899l0.7-0.404C76.906,68.068,76.906,70.415,76.906,73.307z"/>
	
		<linearGradient id="SVGID_20_" gradientUnits="userSpaceOnUse" x1="-470.6191" y1="797.9756" x2="-507.6032" y2="684.15" gradientTransform="matrix(-1 0 0 1 -402.291 -691)">
		<stop  offset="0" style="stop-color:#67878E"/>
		<stop  offset="1" style="stop-color:#436971"/>
	</linearGradient>
	<polygon fill="url(#SVGID_20_)" points="76.906,73.307 83.027,69.771 83.545,68.443 76.906,72.275 	"/>
	
		<linearGradient id="SVGID_21_" gradientUnits="userSpaceOnUse" x1="-492.2524" y1="769.4014" x2="-478.9869" y2="754.6684" gradientTransform="matrix(-1 0 0 1 -402.291 -691)">
		<stop  offset="0" style="stop-color:#67878E"/>
		<stop  offset="1" style="stop-color:#436971"/>
	</linearGradient>
	<polygon fill="url(#SVGID_21_)" points="77.672,58.576 77.672,71.346 78.449,71.793 78.449,59.025 	"/>
	<path fill="#6E565A" d="M83.016,56.32v11.15c0,0.092-0.049,0.178-0.131,0.225l-3.636,2.254c-0.08,0.047-0.177,0.047-0.259,0
		c-0.082-0.049-0.129-0.131-0.129-0.227v-11.15c0-0.096,0.051-0.176,0.129-0.225l3.635-2.255c0.079-0.048,0.178-0.046,0.26,0
		C82.967,56.143,83.016,56.227,83.016,56.32z"/>
	<polygon fill="#533B40" points="83.016,67.473 82.885,67.695 82.689,67.811 82.238,67.811 82.238,57.479 79.078,59.303 
		78.861,58.572 78.871,58.506 79.964,57.874 82.238,56.561 82.238,56.323 82.625,56.096 82.885,56.096 82.926,56.164 82.95,56.15 
		83.016,56.32 	"/>
	<polygon fill="#B5E2EB" points="76.973,58.081 84.492,53.74 85.27,54.188 77.749,58.531 	"/>
	
		<linearGradient id="SVGID_22_" gradientUnits="userSpaceOnUse" x1="-481.2876" y1="749.4082" x2="-472.2564" y2="751.3279" gradientTransform="matrix(-1 0 0 1 -402.291 -691)">
		<stop  offset="0" style="stop-color:#67878E"/>
		<stop  offset="1" style="stop-color:#436971"/>
	</linearGradient>
	<polygon fill="url(#SVGID_22_)" points="76.973,58.081 76.973,58.979 77.749,59.43 77.749,58.531 	"/>
	
		<linearGradient id="SVGID_23_" gradientUnits="userSpaceOnUse" x1="-482.9487" y1="761.5518" x2="-488.7414" y2="743.7237" gradientTransform="matrix(-1 0 0 1 -402.291 -691)">
		<stop  offset="0" style="stop-color:#67878E"/>
		<stop  offset="1" style="stop-color:#436971"/>
	</linearGradient>
	<polygon fill="url(#SVGID_23_)" points="83.016,56.391 83.016,67.361 83.792,67.811 83.792,55.941 	"/>
	<polygon fill="#B5E2EB" points="79.227,70.445 78.449,69.997 83.016,67.361 83.792,67.811 	"/>
	<polygon fill="#67878E" points="82.236,67.811 83.016,67.361 83.792,67.811 	"/>
	<path fill="#86BCC2" d="M77.749,59.43v-0.896l0.7-0.403v-0.002l3.058-1.764l3.763-2.175v0.897l-0.699,0.404V68.26l-6.119,3.533
		V59.025L77.749,59.43L77.749,59.43z M79.227,70.445l4.565-2.635V55.941l-0.147,0.084l-4.418,2.551V70.445z"/>
</g>
<g>
	<path fill="#AD9B95" d="M67.131,78.948l6.12-3.533l0.767-1.961V62.075l0.698-1.793v-0.898l-3.762,2.173l-3.06,1.764v0.004
		l-0.699,0.402l-0.766,1.961v0.898l0.699-0.404C67.131,73.711,67.131,76.061,67.131,78.948z"/>
	
		<linearGradient id="SVGID_24_" gradientUnits="userSpaceOnUse" x1="-460.8457" y1="803.6143" x2="-497.8242" y2="689.806" gradientTransform="matrix(-1 0 0 1 -402.291 -691)">
		<stop  offset="0" style="stop-color:#67878E"/>
		<stop  offset="1" style="stop-color:#436971"/>
	</linearGradient>
	<polygon fill="url(#SVGID_24_)" points="67.131,78.948 73.251,75.415 73.77,74.088 67.131,77.92 	"/>
	
		<linearGradient id="SVGID_25_" gradientUnits="userSpaceOnUse" x1="-482.4751" y1="775.043" x2="-469.2098" y2="760.3105" gradientTransform="matrix(-1 0 0 1 -402.291 -691)">
		<stop  offset="0" style="stop-color:#67878E"/>
		<stop  offset="1" style="stop-color:#436971"/>
	</linearGradient>
	<polygon fill="url(#SVGID_25_)" points="67.896,64.219 67.896,76.986 68.673,77.438 68.673,64.669 	"/>
	<path fill="#6E565A" d="M73.238,61.963v11.151c0,0.093-0.049,0.177-0.129,0.226l-3.635,2.252c-0.082,0.049-0.179,0.049-0.261,0
		c-0.084-0.048-0.13-0.128-0.13-0.225v-11.15c0-0.097,0.053-0.177,0.13-0.225l3.636-2.253c0.08-0.05,0.178-0.048,0.26,0
		C73.191,61.786,73.238,61.87,73.238,61.963z"/>
	<polygon fill="#533B40" points="73.238,73.114 73.109,73.34 72.913,73.454 72.462,73.454 72.462,63.122 69.302,64.945 
		69.086,64.217 69.096,64.148 70.188,63.52 72.462,62.206 72.462,61.966 72.852,61.739 73.109,61.739 73.148,61.811 73.176,61.793 
		73.238,61.963 	"/>
	<polygon fill="#B5E2EB" points="67.195,63.727 74.716,59.384 75.495,59.833 67.973,64.174 	"/>
	
		<linearGradient id="SVGID_26_" gradientUnits="userSpaceOnUse" x1="-471.5078" y1="755.0527" x2="-462.497" y2="756.9681" gradientTransform="matrix(-1 0 0 1 -402.291 -691)">
		<stop  offset="0" style="stop-color:#67878E"/>
		<stop  offset="1" style="stop-color:#436971"/>
	</linearGradient>
	<polygon fill="url(#SVGID_26_)" points="67.195,63.727 67.195,64.624 67.973,65.072 67.973,64.174 	"/>
	
		<linearGradient id="SVGID_27_" gradientUnits="userSpaceOnUse" x1="-473.1738" y1="767.1943" x2="-478.9678" y2="749.3616" gradientTransform="matrix(-1 0 0 1 -402.291 -691)">
		<stop  offset="0" style="stop-color:#67878E"/>
		<stop  offset="1" style="stop-color:#436971"/>
	</linearGradient>
	<polygon fill="url(#SVGID_27_)" points="73.238,62.032 73.238,73.006 74.018,73.454 74.018,61.584 	"/>
	<polygon fill="#B5E2EB" points="69.451,76.091 68.675,75.641 73.238,73.006 74.018,73.454 	"/>
	<polygon fill="#67878E" points="72.462,73.454 73.238,73.006 74.018,73.454 	"/>
	<path fill="#86BCC2" d="M67.973,65.072v-0.898l0.7-0.402l0,0l3.058-1.766l3.767-2.173v0.897l-0.701,0.403v12.769l-6.121,3.535
		V64.669L67.973,65.072L67.973,65.072z M69.451,76.091l4.566-2.637v-11.87l-0.148,0.086l-4.418,2.549V76.091z"/>
</g>
<polygon fill="#F1ECE5" points="35.43,65.16 0.746,45.136 26.286,30.391 60.971,50.415 "/>
<linearGradient id="SVGID_28_" gradientUnits="userSpaceOnUse" x1="-444.0659" y1="732.9873" x2="-448.3778" y2="725.2086" gradientTransform="matrix(-1 0 0 1 -402.291 -691)">
	<stop  offset="0" style="stop-color:#B6A49C"/>
	<stop  offset="1" style="stop-color:#9E8F88"/>
</linearGradient>
<polygon fill="url(#SVGID_28_)" points="23.419,32.046 26.286,30.391 26.286,30.391 52.273,45.396 52.273,45.396 60.971,50.415 
	56.998,52.708 51.723,52.708 50.365,53.49 48.511,53.49 43.381,50.529 49.408,47.05 "/>
<polygon fill="#ECDDD1" points="26.286,33.385 55.785,50.415 35.43,62.166 5.932,45.136 "/>
<polygon fill="#A88F87" points="50.44,47.33 55.785,50.415 46.866,55.564 46.438,55.564 41.309,52.604 47.334,49.124 23.178,35.178 
	26.045,33.522 50.201,47.468 "/>
<polygon fill="#A88F87" points="25.25,36.057 26.286,35.458 53.988,51.452 52.952,52.051 "/>
<linearGradient id="SVGID_29_" gradientUnits="userSpaceOnUse" x1="-438.8203" y1="728.5439" x2="-436.2366" y2="733.2051" gradientTransform="matrix(-1 0 0 1 -402.291 -691)">
	<stop  offset="0" style="stop-color:#B6A49C"/>
	<stop  offset="1" style="stop-color:#9E8F88"/>
</linearGradient>
<polygon fill="url(#SVGID_29_)" points="5.932,45.136 26.286,33.385 55.785,50.415 53.988,51.452 26.286,35.458 7.729,46.172 "/>
<polygon fill="#DED5CB" points="5.932,45.136 26.286,33.385 26.286,35.458 7.729,46.172 "/>
<linearGradient id="SVGID_30_" gradientUnits="userSpaceOnUse" x1="-463.71" y1="774.249" x2="-458.0933" y2="764.5207" gradientTransform="matrix(-1 0 0 1 -402.291 -691)">
	<stop  offset="0" style="stop-color:#B6A49C"/>
	<stop  offset="1" style="stop-color:#9E8F88"/>
</linearGradient>
<polygon fill="url(#SVGID_30_)" points="55.967,82.398 53.588,81.023 53.588,61.089 55.967,62.463 "/>
<linearGradient id="SVGID_31_" gradientUnits="userSpaceOnUse" x1="-445.8511" y1="758.9443" x2="-464.8689" y2="780.0657" gradientTransform="matrix(-1 0 0 1 -402.291 -691)">
	<stop  offset="0" style="stop-color:#67878E"/>
	<stop  offset="1" style="stop-color:#436971"/>
</linearGradient>
<polygon fill="url(#SVGID_31_)" points="55.967,82.398 53.588,81.023 53.588,78.404 55.967,79.779 "/>
<g>
	<path fill="#696363" d="M37.306,87.361c1.699,0.688,3.399,1.378,5.096,2.063c0.718,0,1.438,0,2.156,0l8.877-5.125l-15.31-8.837
		l-2.783,1.605l-1.836-1.063l-2.947,1.451L23,81.826l6.13,3.538L37.306,87.361z"/>
	<path fill="#696363" d="M37.185,75.71l-8.451,4.88l1.359,0.784h0.613l8.453-4.88l-1.361-0.784l-0.305,0.177L37.185,75.71
		L37.185,75.71z M44.127,87.923c-0.368-0.211-1.922-0.729-2.731-0.729c-0.808,0-0.798,0.384-0.195,0.729
		c0.602,0.349,1.283,0.545,1.981,0.664l-0.298,0.172l1.674,0.968h0.613l9.396-5.425l-1.676-0.966l-0.305,0.178l-0.309-0.178
		l-8.051,4.646C44.195,87.964,44.494,88.135,44.127,87.923L44.127,87.923z M34.184,82.046c0.7,0.403,0.614,0.733-0.195,0.733
		c-0.808,0-2.031-0.33-2.731-0.733c-0.698-0.403-0.611-0.729,0.197-0.729C32.261,81.314,33.485,81.643,34.184,82.046L34.184,82.046z
		 M33.812,82.869l7.097,4.096l-0.259,0.15h-0.613l-7.097-4.098l0.259-0.148H33.812z"/>
	<polygon fill="#735120" points="50.303,78.555 41.427,83.68 41.427,86.445 50.303,81.32 	"/>
	<path d="M43.745,88.012c-0.229,0.133-0.544,0.113-0.895-0.089s-0.667-0.549-0.895-0.944c-0.23-0.396-0.372-0.846-0.372-1.248
		c0-0.403,0.141-0.688,0.372-0.819c0.336-0.194,0.561-0.325,0.898-0.521c0.229-0.134,0.546-0.113,0.896,0.088
		c0.349,0.203,0.667,0.549,0.895,0.945c0.229,0.398,0.372,0.846,0.372,1.248c0,0.406-0.143,0.689-0.372,0.822
		C44.305,87.689,44.085,87.816,43.745,88.012z"/>
	<path fill="#132829" d="M42.851,84.997c0.7,0.405,1.266,1.388,1.266,2.194c0,0.808-0.566,1.137-1.266,0.729
		c-0.7-0.403-1.267-1.387-1.267-2.192C41.584,84.922,42.15,84.593,42.851,84.997z"/>
	
		<linearGradient id="SVGID_32_" gradientUnits="userSpaceOnUse" x1="-434.8179" y1="772.4561" x2="-435.6462" y2="770.9618" gradientTransform="matrix(-1 0 0 1 -402.291 -691)">
		<stop  offset="0" style="stop-color:#B6A49C"/>
		<stop  offset="1" style="stop-color:#926F3A"/>
	</linearGradient>
	<polygon fill="url(#SVGID_32_)" points="38.317,74.579 39.676,75.363 31.225,80.243 29.864,79.457 	"/>
	<polygon fill="#F1ECE5" points="53.409,82.203 55.085,83.171 45.69,88.596 44.015,87.628 	"/>
	<polygon fill="#B4A39C" points="47.085,87.488 45.735,88.27 45.735,87.979 44.665,87.979 44.665,88.003 45.207,88.314 
		45.735,88.314 47.127,87.512 	"/>
	
		<linearGradient id="SVGID_33_" gradientUnits="userSpaceOnUse" x1="-447.0732" y1="779.085" x2="-447.2678" y2="778.7481" gradientTransform="matrix(-1 0 0 1 -402.291 -691)">
		<stop  offset="0" style="stop-color:#B6A49C"/>
		<stop  offset="1" style="stop-color:#926F3A"/>
	</linearGradient>
	<polygon fill="url(#SVGID_33_)" points="45.171,88.296 44.015,87.628 45.69,86.66 45.69,88.296 	"/>
	<polygon fill="#735120" points="39.417,73.357 31.484,77.938 31.484,80.706 39.417,76.126 	"/>
	<path d="M33.803,82.135c-0.229,0.133-0.546,0.113-0.896-0.089c-0.348-0.202-0.667-0.549-0.895-0.944
		c-0.229-0.397-0.372-0.846-0.372-1.248c0-0.404,0.143-0.688,0.372-0.821c0.338-0.194,0.563-0.323,0.9-0.519
		c0.229-0.135,0.545-0.115,0.895,0.086c0.35,0.202,0.666,0.549,0.896,0.947c0.229,0.396,0.37,0.846,0.37,1.249
		s-0.141,0.688-0.37,0.819C34.362,81.813,34.141,81.939,33.803,82.135z"/>
	<path fill="#132829" d="M32.906,79.12c0.7,0.403,1.268,1.386,1.268,2.194c0,0.808-0.568,1.135-1.268,0.729
		c-0.698-0.401-1.267-1.386-1.267-2.192C31.64,79.043,32.208,78.716,32.906,79.12z"/>
	
		<linearGradient id="SVGID_34_" gradientUnits="userSpaceOnUse" x1="-444.2827" y1="766.1875" x2="-439.1434" y2="775.0892" gradientTransform="matrix(-1 0 0 1 -402.291 -691)">
		<stop  offset="0" style="stop-color:#AC8352"/>
		<stop  offset="1" style="stop-color:#876630"/>
	</linearGradient>
	<path fill="url(#SVGID_34_)" d="M30.384,75.781l11.73,6.773l3.576,3.584v2.155l-1.417-0.817v-0.332
		c0-0.906-0.638-2.012-1.423-2.465c-0.786-0.453-1.424-0.087-1.424,0.82v0.941L34.33,82.35v-0.945c0-0.905-0.638-2.01-1.424-2.465
		c-0.784-0.453-1.422-0.086-1.422,0.821v0.333l-1.101-0.637L30.384,75.781L30.384,75.781z"/>
	<polygon fill="#E7C070" points="54.566,81.016 45.69,86.141 45.69,88.296 54.566,83.171 	"/>
	<path fill="#926F3A" d="M45.69,87.027l0.225-0.578l1.392-0.805v1.275l-0.222,0.564l-1.395,0.81V87.027L45.69,87.027z
		 M52.695,83.043l0.255-0.656l1.392-0.802v1.276l-0.22,0.563l-1.427,0.823V83.043z"/>
	<polygon fill="#9F7A46" points="33.842,70.984 39.971,74.523 42.114,82.553 30.384,75.781 	"/>
	<polygon fill="#533B40" points="34.616,71.95 32.34,76.91 41.566,82.236 39.585,74.82 	"/>
	<polygon fill="#FCE781" points="54.566,81.016 45.69,86.141 42.114,82.553 50.991,77.43 	"/>
	<polygon fill="#EDCB75" points="47.532,70.16 39.971,74.523 42.114,82.553 50.991,77.43 	"/>
	<polygon fill="#9F7A46" points="47.532,70.16 39.971,74.523 41.5,80.252 49.999,75.346 	"/>
	<polygon fill="#FCE781" points="47.532,70.16 39.971,74.523 33.842,70.984 41.402,66.619 	"/>
	<polygon fill="#DCCEC0" points="55.085,83.171 45.69,88.596 45.69,89.207 55.085,83.784 	"/>
	
		<linearGradient id="SVGID_35_" gradientUnits="userSpaceOnUse" x1="-439.1392" y1="776.9404" x2="-440.5452" y2="774.5051" gradientTransform="matrix(-1 0 0 1 -402.291 -691)">
		<stop  offset="0" style="stop-color:#696363"/>
		<stop  offset="1" style="stop-color:#9E8F88"/>
	</linearGradient>
	<path fill="url(#SVGID_35_)" d="M44.015,87.628v0.612l1.675,0.967v-0.611L44.015,87.628L44.015,87.628z M29.864,79.457v0.613
		l1.359,0.785v-0.612L29.864,79.457L29.864,79.457z M34.071,82.5l7.097,4.098v-0.613l-7.097-4.098V82.5z"/>
	
		<linearGradient id="SVGID_36_" gradientUnits="userSpaceOnUse" x1="-433.9961" y1="771.6533" x2="-432.59" y2="770.937" gradientTransform="matrix(-1 0 0 1 -402.291 -691)">
		<stop  offset="0" style="stop-color:#696363"/>
		<stop  offset="1" style="stop-color:#9E8F88"/>
	</linearGradient>
	<polygon fill="url(#SVGID_36_)" points="31.484,80.094 31.224,80.243 31.224,80.855 31.484,80.706 	"/>
	
		<linearGradient id="SVGID_37_" gradientUnits="userSpaceOnUse" x1="-443.8232" y1="777.2168" x2="-442.2585" y2="777.2168" gradientTransform="matrix(-1 0 0 1 -402.291 -691)">
		<stop  offset="0" style="stop-color:#696363"/>
		<stop  offset="1" style="stop-color:#9E8F88"/>
	</linearGradient>
	<polygon fill="url(#SVGID_37_)" points="41.427,85.835 41.168,85.984 41.168,86.598 41.427,86.445 	"/>
	
		<linearGradient id="SVGID_38_" gradientUnits="userSpaceOnUse" x1="-439.8823" y1="775.1348" x2="-440.4688" y2="774.119" gradientTransform="matrix(-1 0 0 1 -402.291 -691)">
		<stop  offset="0" style="stop-color:#B6A49C"/>
		<stop  offset="1" style="stop-color:#926F3A"/>
	</linearGradient>
	<polygon fill="url(#SVGID_38_)" points="34.33,81.736 41.427,85.835 41.168,85.984 34.071,81.887 	"/>
	<polygon fill="#9F7A46" points="41.47,81.882 41.47,81.882 41.518,82.061 41.566,82.236 32.34,76.91 32.469,76.835 32.599,76.76 
		32.728,76.686 41.423,81.705 	"/>
	<polygon fill="#876630" points="32.728,76.686 34.841,72.08 34.616,71.95 32.34,76.91 	"/>
	<polygon fill="#132829" points="52.95,82.387 47.305,85.646 47.305,86.922 52.95,83.664 	"/>
	<polygon fill="#DCCEC0" points="47.566,85.795 46.175,86.6 46.175,87.876 47.566,87.072 	"/>
	
		<linearGradient id="SVGID_39_" gradientUnits="userSpaceOnUse" x1="-448.4609" y1="778.1621" x2="-448.0025" y2="778.1621" gradientTransform="matrix(-1 0 0 1 -402.291 -691)">
		<stop  offset="0" style="stop-color:#B6A49C"/>
		<stop  offset="1" style="stop-color:#926F3A"/>
	</linearGradient>
	<polygon fill="url(#SVGID_39_)" points="45.914,86.449 46.175,86.6 46.175,87.876 45.914,87.727 	"/>
	<polygon fill="#F1ECE5" points="47.307,85.646 45.914,86.449 46.175,86.6 47.566,85.795 	"/>
	<polygon fill="#DCCEC0" points="54.602,81.732 53.209,82.537 53.209,83.814 54.602,83.011 	"/>
	
		<linearGradient id="SVGID_40_" gradientUnits="userSpaceOnUse" x1="-455.4941" y1="774.1006" x2="-455.1985" y2="774.1006" gradientTransform="matrix(-1 0 0 1 -402.291 -691)">
		<stop  offset="0" style="stop-color:#B6A49C"/>
		<stop  offset="1" style="stop-color:#926F3A"/>
	</linearGradient>
	<polygon fill="url(#SVGID_40_)" points="52.95,82.387 53.209,82.537 53.209,83.814 52.95,83.664 	"/>
	<polygon fill="#F1ECE5" points="54.342,81.585 52.95,82.387 53.209,82.537 54.602,81.732 	"/>
	
		<linearGradient id="SVGID_41_" gradientUnits="userSpaceOnUse" x1="-437.9258" y1="771.0332" x2="-437.6866" y2="771.0416" gradientTransform="matrix(-1 0 0 1 -402.291 -691)">
		<stop  offset="0" style="stop-color:#926F3A"/>
		<stop  offset="1" style="stop-color:#9E8F88"/>
	</linearGradient>
	<polygon fill="url(#SVGID_41_)" points="35.569,79.852 35.375,79.963 35.375,80.227 35.569,80.113 	"/>
	
		<linearGradient id="SVGID_42_" gradientUnits="userSpaceOnUse" x1="-443.2739" y1="728.0205" x2="-433.6367" y2="806.509" gradientTransform="matrix(-1 0 0 1 -402.291 -691)">
		<stop  offset="0" style="stop-color:#B6A49C"/>
		<stop  offset="1" style="stop-color:#9E8F88"/>
	</linearGradient>
	<polygon fill="url(#SVGID_42_)" points="35.18,79.586 36.225,80.189 36.225,80.452 35.375,79.961 35.375,80.227 35.18,80.113 
		35.18,79.738 35.18,79.738 	"/>
	
		<linearGradient id="SVGID_43_" gradientUnits="userSpaceOnUse" x1="-438.3833" y1="771.2656" x2="-438.8856" y2="771.2656" gradientTransform="matrix(-1 0 0 1 -402.291 -691)">
		<stop  offset="0" style="stop-color:#9E8F88"/>
		<stop  offset="1" style="stop-color:#926F3A"/>
	</linearGradient>
	<polygon fill="url(#SVGID_43_)" points="36.42,80.077 36.225,80.189 36.225,80.452 36.42,80.34 	"/>
	
		<linearGradient id="SVGID_44_" gradientUnits="userSpaceOnUse" x1="-438.0381" y1="770.9268" x2="-438.2959" y2="770.4616" gradientTransform="matrix(-1 0 0 1 -402.291 -691)">
		<stop  offset="0" style="stop-color:#B6A49C"/>
		<stop  offset="1" style="stop-color:#926F3A"/>
	</linearGradient>
	<polygon fill="url(#SVGID_44_)" points="35.375,79.475 36.42,80.077 36.225,80.189 35.18,79.586 	"/>
	<polygon fill="#9F7A46" points="47.532,70.16 39.971,74.523 33.842,70.984 41.402,66.619 	"/>
	
		<linearGradient id="SVGID_45_" gradientUnits="userSpaceOnUse" x1="-442.6689" y1="778.8887" x2="-447.9236" y2="775.8549" gradientTransform="matrix(-1 0 0 1 -402.291 -691)">
		<stop  offset="0" style="stop-color:#B6A49C"/>
		<stop  offset="1" style="stop-color:#9E8F88"/>
	</linearGradient>
	<path fill="url(#SVGID_45_)" d="M42.851,85.713c0.357,0.206,0.646,0.709,0.646,1.122c0,0.412-0.29,0.58-0.646,0.373
		c-0.357-0.205-0.647-0.709-0.647-1.122C42.204,85.674,42.493,85.508,42.851,85.713z"/>
	
		<linearGradient id="SVGID_46_" gradientUnits="userSpaceOnUse" x1="-443.25" y1="774.4326" x2="-446.045" y2="778.9054" gradientTransform="matrix(-1 0 0 1 -402.291 -691)">
		<stop  offset="0" style="stop-color:#696363"/>
		<stop  offset="1" style="stop-color:#9E8F88"/>
	</linearGradient>
	<path fill="url(#SVGID_46_)" d="M42.851,85.879c0.277,0.161,0.502,0.553,0.502,0.872c0,0.321-0.225,0.45-0.502,0.289
		c-0.279-0.159-0.502-0.55-0.502-0.87C42.349,85.852,42.572,85.721,42.851,85.879z"/>
	
		<linearGradient id="SVGID_47_" gradientUnits="userSpaceOnUse" x1="-443.9956" y1="778.123" x2="-446.4562" y2="776.7024" gradientTransform="matrix(-1 0 0 1 -402.291 -691)">
		<stop  offset="0" style="stop-color:#B6A49C"/>
		<stop  offset="1" style="stop-color:#9E8F88"/>
	</linearGradient>
	<path fill="url(#SVGID_47_)" d="M42.851,86.055c0.194,0.112,0.352,0.387,0.352,0.608c0,0.226-0.157,0.313-0.352,0.204
		c-0.195-0.112-0.352-0.387-0.352-0.609C42.499,86.036,42.656,85.943,42.851,86.055z"/>
	
		<linearGradient id="SVGID_48_" gradientUnits="userSpaceOnUse" x1="-432.7231" y1="773.0117" x2="-437.9828" y2="769.9752" gradientTransform="matrix(-1 0 0 1 -402.291 -691)">
		<stop  offset="0" style="stop-color:#B6A49C"/>
		<stop  offset="1" style="stop-color:#9E8F88"/>
	</linearGradient>
	<path fill="url(#SVGID_48_)" d="M32.906,79.834c0.359,0.208,0.648,0.71,0.648,1.122c0,0.413-0.29,0.581-0.648,0.373
		c-0.357-0.205-0.646-0.707-0.646-1.119C32.26,79.797,32.549,79.629,32.906,79.834z"/>
	
		<linearGradient id="SVGID_49_" gradientUnits="userSpaceOnUse" x1="-433.3062" y1="768.5557" x2="-436.0999" y2="773.0269" gradientTransform="matrix(-1 0 0 1 -402.291 -691)">
		<stop  offset="0" style="stop-color:#696363"/>
		<stop  offset="1" style="stop-color:#9E8F88"/>
	</linearGradient>
	<path fill="url(#SVGID_49_)" d="M32.906,80.002c0.279,0.161,0.504,0.551,0.504,0.87c0,0.321-0.225,0.452-0.504,0.291
		c-0.277-0.16-0.502-0.55-0.502-0.871C32.404,79.973,32.629,79.842,32.906,80.002z"/>
	
		<linearGradient id="SVGID_50_" gradientUnits="userSpaceOnUse" x1="-434.0527" y1="772.2432" x2="-436.5091" y2="770.825" gradientTransform="matrix(-1 0 0 1 -402.291 -691)">
		<stop  offset="0" style="stop-color:#B6A49C"/>
		<stop  offset="1" style="stop-color:#9E8F88"/>
	</linearGradient>
	<path fill="url(#SVGID_50_)" d="M32.906,80.178c0.195,0.11,0.352,0.385,0.352,0.607c0,0.225-0.157,0.314-0.352,0.203
		c-0.193-0.112-0.35-0.385-0.35-0.609C32.556,80.156,32.713,80.064,32.906,80.178z"/>
	<polygon fill="#B4A39C" points="54.122,83.427 52.693,84.25 52.77,84.254 54.163,83.45 	"/>
	<polygon fill="#786264" points="47.336,70.79 40.494,74.742 42.396,81.873 43.822,81.049 45.133,78.611 45.305,78.704 
		44.144,80.863 47.73,78.793 48.941,76.542 49.113,76.634 48.05,78.609 50.406,77.248 	"/>
	<polygon fill="#533B40" points="47.336,70.79 40.494,74.742 41.904,80.021 49.61,75.57 	"/>
</g>
<linearGradient id="SVGID_51_" gradientUnits="userSpaceOnUse" x1="-427.8652" y1="725.7939" x2="-428.5692" y2="725.868" gradientTransform="matrix(-1 0 0 1 -402.291 -691)">
	<stop  offset="0" style="stop-color:#B6A49C"/>
	<stop  offset="1" style="stop-color:#9E8F88"/>
</linearGradient>
<polygon fill="url(#SVGID_51_)" points="24.975,36.215 26.011,33.542 26.286,33.385 26.286,35.458 "/>
<polygon fill="#86BCC2" points="54.413,47.967 38.878,56.938 38.878,76.966 54.413,67.997 "/>
<linearGradient id="SVGID_52_" gradientUnits="userSpaceOnUse" x1="-549.3423" y1="863.2744" x2="-325.7075" y2="614.9025" gradientTransform="matrix(-1 0 0 1 -402.291 -691)">
	<stop  offset="0" style="stop-color:#67878E"/>
	<stop  offset="1" style="stop-color:#436971"/>
</linearGradient>
<polygon fill="url(#SVGID_52_)" points="54.413,47.967 38.878,56.938 38.878,73.561 52.986,65.412 52.986,68.818 54.413,67.997 "/>
<path fill="#6E565A" d="M53.895,48.864l-4.486,2.592v4.419l4.486-2.59V48.864L53.895,48.864z M53.895,53.884v4.204l-4.486,2.592
	v-4.203L53.895,53.884L53.895,53.884z M53.895,58.688l-4.486,2.592v4.205l4.486-2.59V58.688L53.895,58.688z M53.895,63.492v4.203
	l-4.486,2.592v-4.205L53.895,63.492L53.895,63.492z M39.396,76.066l4.487-2.59v-4.205l-4.487,2.59V76.066L39.396,76.066z
	 M39.396,71.264v-4.205l4.487-2.592v4.207L39.396,71.264L39.396,71.264z M39.396,66.461l4.487-2.592v-4.205l-4.487,2.59V66.461
	L39.396,66.461z M39.396,61.654v-4.418l4.487-2.592v4.42L39.396,61.654L39.396,61.654z M44.401,54.346v4.42l4.487-2.591v-4.419
	L44.401,54.346L44.401,54.346z M48.888,56.773v4.205l-4.487,2.592v-4.205L48.888,56.773L48.888,56.773z M48.888,61.579l-4.487,2.59
	v4.205l4.487-2.591V61.579L48.888,61.579z M48.888,70.587l-4.487,2.59v-4.204l4.487-2.591V70.587z"/>
<path fill="#533B40" d="M39.396,73.259l4.487-2.59v-1.396l-4.487,2.59V73.259L39.396,73.259z M53.895,63.492l-4.486,2.59v1.396
	l3.58-2.066v2.809l0.906-0.522V63.492L53.895,63.492z M44.401,68.973v1.396l4.487-2.59v-1.397L44.401,68.973z"/>
<polygon fill="#F1ECE5" points="35.43,61.484 31.459,59.189 56.998,44.445 60.971,46.738 "/>
<linearGradient id="SVGID_53_" gradientUnits="userSpaceOnUse" x1="-456.5742" y1="740.0781" x2="-461.1153" y2="734.4704" gradientTransform="matrix(-1 0 0 1 -402.291 -691)">
	<stop  offset="0" style="stop-color:#BCABA4"/>
	<stop  offset="1" style="stop-color:#A69792"/>
</linearGradient>
<polygon fill="url(#SVGID_53_)" points="49.942,48.52 56.998,44.445 60.971,46.738 56.998,49.032 55.396,49.032 54.041,49.814 
	52.186,49.814 "/>
<polygon fill="#DCCEC0" points="35.43,94.257 40.432,91.368 40.432,71.432 55.967,62.463 55.967,82.398 60.971,79.511 
	60.971,46.738 35.43,61.484 "/>
<linearGradient id="SVGID_54_" gradientUnits="userSpaceOnUse" x1="-459.29" y1="755.2725" x2="-465.4714" y2="755.2725" gradientTransform="matrix(-1 0 0 1 -402.291 -691)">
	<stop  offset="0" style="stop-color:#B6A49C"/>
	<stop  offset="1" style="stop-color:#9E8F88"/>
</linearGradient>
<polygon fill="url(#SVGID_54_)" points="56.998,81.805 60.971,79.511 60.971,46.738 56.998,49.031 "/>
<path fill="#86BCC2" d="M35.43,94.257v-2.62l5.001-2.889v2.62L35.43,94.257L35.43,94.257z M55.967,79.779l5.004-2.887v2.616
	l-5.004,2.89V79.779z"/>
<linearGradient id="SVGID_55_" gradientUnits="userSpaceOnUse" x1="-459.29" y1="770.3496" x2="-464.5952" y2="770.3496" gradientTransform="matrix(-1 0 0 1 -402.291 -691)">
	<stop  offset="0" style="stop-color:#67878E"/>
	<stop  offset="1" style="stop-color:#436971"/>
</linearGradient>
<polygon fill="url(#SVGID_55_)" points="60.971,79.511 60.971,76.893 56.998,79.186 56.998,81.805 "/>
<polygon fill="#B5E2EB" points="86.746,52.438 95.443,47.417 96.223,47.866 87.525,52.889 "/>
<linearGradient id="SVGID_56_" gradientUnits="userSpaceOnUse" x1="-491.0674" y1="743.7637" x2="-482.0101" y2="745.6889" gradientTransform="matrix(-1 0 0 1 -402.291 -691)">
	<stop  offset="0" style="stop-color:#67878E"/>
	<stop  offset="1" style="stop-color:#436971"/>
</linearGradient>
<polygon fill="url(#SVGID_56_)" points="86.746,52.438 86.746,53.337 87.525,53.787 87.525,52.889 "/>
<linearGradient id="SVGID_57_" gradientUnits="userSpaceOnUse" x1="-428.3325" y1="746.3486" x2="-415.4836" y2="769.5286" gradientTransform="matrix(-1 0 0 1 -402.291 -691)">
	<stop  offset="0" style="stop-color:#B6A49C"/>
	<stop  offset="1" style="stop-color:#9E8F88"/>
</linearGradient>
<polygon fill="url(#SVGID_57_)" points="35.43,94.257 0.746,74.23 0.746,45.136 31.459,62.866 31.459,59.189 35.43,61.484 
	35.43,65.16 "/>
<g>
	<polygon fill="#A08F88" points="24.284,68.525 24.284,72.227 23.507,72.675 23.507,68.075 	"/>
	<polygon fill="#C2B2AC" points="31.459,76.369 24.284,72.227 23.507,72.675 31.459,77.268 	"/>
	<polygon fill="#B6A49C" points="24.284,68.525 24.284,72.227 31.459,76.369 31.459,72.668 	"/>
	<polygon fill="#533B40" points="24.802,68.824 24.802,71.927 31.459,75.771 31.459,72.668 	"/>
</g>
<g>
	<polygon fill="#A08F88" points="14.338,62.782 14.338,66.482 13.561,66.934 13.561,62.334 	"/>
	<polygon fill="#C2B2AC" points="21.513,70.626 14.338,66.482 13.561,66.934 21.513,71.523 	"/>
	<polygon fill="#B6A49C" points="14.338,62.782 14.338,66.482 21.513,70.626 21.513,66.925 	"/>
	<polygon fill="#533B40" points="14.856,63.083 14.856,66.186 21.513,70.027 21.513,66.925 	"/>
</g>
<g>
	<polygon fill="#A08F88" points="4.392,57.04 4.392,60.741 3.615,61.191 3.615,56.592 	"/>
	<polygon fill="#C2B2AC" points="11.567,64.885 4.392,60.741 3.615,61.191 11.567,65.782 	"/>
	<polygon fill="#B6A49C" points="4.392,57.04 4.392,60.741 11.567,64.885 11.567,61.184 	"/>
	<polygon fill="#533B40" points="4.91,57.34 4.91,60.441 11.567,64.287 11.567,61.184 	"/>
</g>
<linearGradient id="SVGID_58_" gradientUnits="userSpaceOnUse" x1="-424.3354" y1="766.7969" x2="-420.2419" y2="774.1819" gradientTransform="matrix(-1 0 0 1 -402.291 -691)">
	<stop  offset="0" style="stop-color:#67878E"/>
	<stop  offset="1" style="stop-color:#436971"/>
</linearGradient>
<polygon fill="url(#SVGID_58_)" points="35.43,94.257 0.746,74.23 0.746,71.611 35.43,91.637 "/>
<g>
	
		<linearGradient id="SVGID_59_" gradientUnits="userSpaceOnUse" x1="-1169.8257" y1="-915.1675" x2="-1168.7831" y2="-913.3615" gradientTransform="matrix(-1 0 0 -1 -1088.1914 -875.1777)">
		<stop  offset="0" style="stop-color:#B6A49C"/>
		<stop  offset="1" style="stop-color:#9E8F88"/>
	</linearGradient>
	<path fill="url(#SVGID_59_)" d="M66.064,48.569l29.003-16.745l0.85-2.18v0.123v-0.999L66.915,45.515l-0.851,2.177
		C66.064,51.769,66.064,44.496,66.064,48.569z"/>
	<g>
		
			<linearGradient id="SVGID_60_" gradientUnits="userSpaceOnUse" x1="-1187.0459" y1="-906.7227" x2="-1179.415" y2="-884.5615" gradientTransform="matrix(-1 0 0 -1 -1088.1914 -875.1777)">
			<stop  offset="0" style="stop-color:#8B7973"/>
			<stop  offset="1" style="stop-color:#66544D"/>
		</linearGradient>
		<polygon fill="url(#SVGID_60_)" points="95.054,15.748 95.054,28.27 95.917,28.769 95.917,15.25 		"/>
		
			<linearGradient id="SVGID_61_" gradientUnits="userSpaceOnUse" x1="-1171.4028" y1="-988.1924" x2="-1199.0441" y2="-791.5143" gradientTransform="matrix(-1 0 0 -1 -1088.1914 -875.1777)">
			<stop  offset="0" style="stop-color:#B6A49C"/>
			<stop  offset="1" style="stop-color:#9E8F88"/>
		</linearGradient>
		<polygon fill="url(#SVGID_61_)" points="94.188,28.769 95.054,28.27 95.917,28.769 		"/>
		<polygon fill="#533B40" points="94.477,16.08 94.477,27.937 66.915,43.85 66.915,31.994 		"/>
		<polygon fill="#6E565A" points="66.915,32.625 94.202,16.871 94.202,28.094 66.915,43.85 		"/>
		
			<linearGradient id="SVGID_62_" gradientUnits="userSpaceOnUse" x1="-1156.2437" y1="-921.3789" x2="-1154.8613" y2="-921.3789" gradientTransform="matrix(-1 0 0 -1 -1088.1914 -875.1777)">
			<stop  offset="0" style="stop-color:#B6A49C"/>
			<stop  offset="1" style="stop-color:#9E8F88"/>
		</linearGradient>
		<polygon fill="url(#SVGID_62_)" points="66.915,45.515 66.915,46.389 67.779,46.888 67.779,46.013 		"/>
		<polygon fill="#DCCEC0" points="67.779,46.888 96.781,30.144 96.781,29.268 67.779,46.013 		"/>
		<polygon fill="#F1ECE5" points="66.915,45.515 66.915,44.516 94.202,28.761 95.918,28.769 96.781,29.268 67.779,46.013 		"/>
		<path fill="#86BCC2" d="M95.054,28.27V15.748l-0.577,0.334v3.487l-4.16,2.402v-3.488l-0.576,0.333v3.487l-4.161,2.403v-3.487
			l-0.575,0.332v3.488l-4.161,2.402v-3.488l-0.576,0.333v3.488l-4.163,2.402v-3.488l-0.574,0.333v3.487l-4.162,2.403v-3.488
			l-0.576,0.334v3.488l-3.872,2.236v0.666l3.872-2.237v7.703c0.194-0.111,0.385-0.222,0.576-0.333v-7.704l4.162-2.402v7.704
			c0.192-0.111,0.385-0.222,0.574-0.333v-7.703l4.163-2.402v7.702c0.192-0.11,0.384-0.221,0.576-0.333v-7.703l4.161-2.402v7.703
			c0.191-0.111,0.384-0.223,0.575-0.334v-7.701l4.161-2.403v7.702c0.193-0.111,0.384-0.222,0.576-0.333v-7.702l4.16-2.402v7.703
			L66.915,43.85v0.666L95.054,28.27z"/>
		<linearGradient id="SVGID_63_" gradientUnits="userSpaceOnUse" x1="70.7881" y1="23.0688" x2="95.0537" y2="23.0688">
			<stop  offset="0" style="stop-color:#67878E"/>
			<stop  offset="1" style="stop-color:#436971"/>
		</linearGradient>
		<path fill="url(#SVGID_63_)" d="M95.054,28.27l-0.853,0.493v-0.667l0.274-0.158v-7.703l-0.274,0.158v-0.666l0.274-0.158v-3.487
			l0.577-0.334L95.054,28.27L95.054,28.27z M90.315,19.115l-0.576,0.333v-0.633l0.576-0.333V19.115L90.315,19.115z M85.578,21.851
			l-0.575,0.332v-0.632l0.575-0.332V21.851L85.578,21.851z M80.841,24.586l-0.576,0.334v-0.632l0.576-0.333V24.586L80.841,24.586z
			 M76.102,27.322l-0.575,0.333v-0.632l0.575-0.333V27.322L76.102,27.322z M70.788,30.39v-0.632l0.576-0.334v0.633L70.788,30.39z"/>
	</g>
</g>
</svg>
