<?xml version="1.0" encoding="utf-8"?>
<!-- Generator: Adobe Illustrator 15.0.0, SVG Export Plug-In . SVG Version: 6.00 Build 0)  -->
<!DOCTYPE svg PUBLIC "-//W3C//DTD SVG 1.1//EN" "http://www.w3.org/Graphics/SVG/1.1/DTD/svg11.dtd">
<svg version="1.1" id="Layer_1" xmlns="http://www.w3.org/2000/svg" xmlns:xlink="http://www.w3.org/1999/xlink" x="0px" y="0px"
	 width="90.693px" height="114.354px" viewBox="4.998 23.234 90.693 114.354" enable-background="new 4.998 23.234 90.693 114.354"
	 xml:space="preserve">
<g>
	<g>
		<path fill-rule="evenodd" clip-rule="evenodd" fill="#E0C8B6" d="M85.052,113.626l1.31,0.757h-2.62L85.052,113.626z"/>
		<g>
			<polygon fill-rule="evenodd" clip-rule="evenodd" fill="#F1ECE5" points="46.785,23.234 4.998,47.359 46.17,71.214 
				87.957,47.088 			"/>
			<g>
				<polygon fill-rule="evenodd" clip-rule="evenodd" fill="#B6A49C" points="12.711,48.539 10.668,47.359 46.785,26.508 
					80.617,46.124 78.574,47.303 46.785,28.866 				"/>
				<polygon fill-rule="evenodd" clip-rule="evenodd" fill="#DED5CB" points="12.711,48.539 10.668,47.359 46.785,26.508 
					46.785,28.866 				"/>
				<polygon fill-rule="evenodd" clip-rule="evenodd" fill="#ECDDD1" points="12.711,48.539 46.785,28.866 78.574,47.303 
					44.5,66.977 				"/>
				<polygon fill-rule="evenodd" clip-rule="evenodd" fill="#A88F87" points="77.395,47.984 45.605,29.547 46.785,28.866 
					78.574,47.304 				"/>
				<polygon fill-rule="evenodd" clip-rule="evenodd" fill="#B6A49C" points="45.605,29.547 46.785,26.508 46.785,28.866 				"/>
			</g>
			<polygon fill-rule="evenodd" clip-rule="evenodd" fill="#DCCEC0" points="46.17,137.588 56.203,131.795 56.203,105.526 
				70.903,105.526 70.903,123.308 79.821,118.159 79.811,116.651 85.052,113.626 86.362,114.383 87.957,113.462 87.957,42.588 
				46.17,66.714 			"/>
			<polygon fill-rule="evenodd" clip-rule="evenodd" fill="#B4A19B" points="80.585,60.013 81.654,59.396 81.654,59.945 
				81.654,60.305 83.144,56.462 83.511,56.248 83.511,56.672 81.654,61.463 81.654,61.597 81.654,62.147 81.654,62.698 
				81.654,63.249 81.654,63.8 81.654,64.35 81.654,64.9 81.654,65.451 81.654,66.001 81.654,66.552 81.654,67.103 81.654,67.652 
				81.654,68.203 81.654,68.754 81.654,69.305 81.654,69.854 81.654,70.405 81.654,70.956 81.654,71.506 81.654,72.057 
				81.654,72.607 81.654,73.158 81.654,73.709 81.654,74.259 81.654,74.515 83.144,70.671 83.511,70.458 83.511,70.882 
				81.654,75.673 81.654,75.91 81.654,76.461 81.654,77.012 81.654,77.562 81.654,78.112 81.654,78.663 81.654,79.213 
				81.654,79.764 81.654,80.314 81.654,80.865 81.654,81.415 81.654,81.966 81.654,82.517 81.654,83.067 81.654,83.617 
				81.654,84.168 81.654,84.719 81.654,85.269 81.654,85.819 81.654,86.37 81.654,86.921 81.654,87.471 81.654,88.021 
				81.654,88.572 81.654,88.725 83.144,84.881 83.511,84.668 83.511,85.091 81.654,89.883 81.654,90.224 81.654,90.773 
				81.654,91.324 81.654,91.875 81.654,92.426 81.654,92.927 81.654,94.628 73.058,116.786 71.99,117.403 71.99,111.812 
				76.09,101.242 76.09,71.602 			"/>
			<path fill-rule="evenodd" clip-rule="evenodd" fill="#B4A19B" d="M46.17,122.264l1.178-3.036l8.855-5.112v15.605l-10.033,5.793
				V122.264L46.17,122.264z M70.903,105.628l8.49-4.901l-0.001,1.429l-7.086,18.268l-1.403,0.811V105.628z"/>
			<polygon fill-rule="evenodd" clip-rule="evenodd" fill="#B4A19B" points="86.361,82.783 86.361,49.297 81.133,52.315 
				80.715,53.388 80.715,86.874 85.943,83.855 			"/>
			
				<linearGradient id="SVGID_1_" gradientUnits="userSpaceOnUse" x1="433.8708" y1="69.1816" x2="434.9223" y2="69.1816" gradientTransform="matrix(-1 0 0 1 515.8687 0)">
				<stop  offset="0" style="stop-color:#89776F"/>
				<stop  offset="1" style="stop-color:#796961"/>
			</linearGradient>
			<polygon fill-rule="evenodd" clip-rule="evenodd" fill="url(#SVGID_1_)" points="81.133,85.802 81.558,86.048 81.558,52.562 
				81.133,52.315 			"/>
			<polygon fill-rule="evenodd" clip-rule="evenodd" fill="#F4D8BC" points="86.361,49.297 86.787,49.543 81.558,52.562 
				81.133,52.315 			"/>
			<polygon fill-rule="evenodd" clip-rule="evenodd" fill="#CFB7A0" points="81.558,86.048 86.787,83.028 86.787,49.543 
				81.558,52.562 			"/>
			<path fill-rule="evenodd" clip-rule="evenodd" fill="#89776F" d="M81.558,86.048V59.111l0.938-0.543v0.551v0.359l1.491-3.844
				l0.367-0.213v0.424l-1.858,4.791v0.134v0.551v0.551v0.551v0.55v0.551v0.551v0.55v0.551v0.551v0.551v0.55v0.551v0.551v0.55v0.551
				v0.551v0.55v0.551v0.551v0.551v0.551v0.55v0.551v0.256l1.491-3.844l0.367-0.214v0.424l-1.858,4.792v0.237v0.551v0.551v0.55v0.551
				v0.551v0.55v0.551v0.551v0.55v0.551v0.551v0.551v0.55v0.551v0.551v0.551v0.55v0.551v0.513L81.558,86.048L81.558,86.048z
				 M84.271,84.48l0.084-0.216v-0.424l-0.367,0.214l-0.295,0.761L84.271,84.48z"/>
			<polygon fill-rule="evenodd" clip-rule="evenodd" fill="#B4A19B" points="80.283,66.831 80.283,78.525 75.24,81.437 
				75.24,69.743 			"/>
			
				<linearGradient id="SVGID_2_" gradientUnits="userSpaceOnUse" x1="418.7664" y1="113.0127" x2="443.2315" y2="52.4592" gradientTransform="matrix(-1 0 0 1 515.8687 0)">
				<stop  offset="0" style="stop-color:#B6A49C"/>
				<stop  offset="1" style="stop-color:#9E8F88"/>
			</linearGradient>
			<polygon fill-rule="evenodd" clip-rule="evenodd" fill="url(#SVGID_2_)" points="80.282,66.831 80.283,78.525 81.133,79.016 
				81.133,66.341 			"/>
			<polygon fill-rule="evenodd" clip-rule="evenodd" fill="#8C614D" points="75.24,70.364 76.248,69.782 75.24,72.383 			"/>
			<polygon fill-rule="evenodd" clip-rule="evenodd" fill="#533B40" points="79.716,67.158 79.716,78.197 75.24,80.782 
				75.24,69.743 			"/>
			<polygon fill-rule="evenodd" clip-rule="evenodd" fill="#6E565A" points="75.24,70.364 76.248,69.782 75.24,72.383 			"/>
			<polygon fill-rule="evenodd" clip-rule="evenodd" fill="#B4A19B" points="75.239,84.941 80.296,82.021 81.133,79.877 
				81.133,79.998 81.133,79.016 75.24,82.418 75.239,82.419 			"/>
			
				<linearGradient id="SVGID_3_" gradientUnits="userSpaceOnUse" x1="371.8474" y1="134.6045" x2="446.9737" y2="77.9928" gradientTransform="matrix(-1 0 0 1 515.8687 0)">
				<stop  offset="0" style="stop-color:#B6A49C"/>
				<stop  offset="1" style="stop-color:#9E8F88"/>
			</linearGradient>
			<polygon fill-rule="evenodd" clip-rule="evenodd" fill="url(#SVGID_3_)" points="75.24,82.418 75.24,83.28 76.09,83.771 
				76.09,82.909 			"/>
			<polygon fill-rule="evenodd" clip-rule="evenodd" fill="#DCCEC0" points="76.09,83.771 81.982,80.368 81.982,79.507 
				76.09,82.909 			"/>
			<polygon fill-rule="evenodd" clip-rule="evenodd" fill="#B4A19B" points="77.777,82.797 81.982,80.368 81.982,79.507 
				77.777,81.936 			"/>
			<polygon fill-rule="evenodd" clip-rule="evenodd" fill="#F1ECE5" points="75.246,82.446 75.24,81.437 79.445,79.008 
				81.133,79.016 81.982,79.507 76.09,82.909 			"/>
			
				<linearGradient id="SVGID_4_" gradientUnits="userSpaceOnUse" x1="448.7126" y1="161.9951" x2="421.4458" y2="-32.0186" gradientTransform="matrix(-1 0 0 1 515.8687 0)">
				<stop  offset="0" style="stop-color:#B6A49C"/>
				<stop  offset="1" style="stop-color:#9E8F88"/>
			</linearGradient>
			<path fill-rule="evenodd" clip-rule="evenodd" fill="url(#SVGID_4_)" d="M80.283,78.525c0.566,0.327,1.133,0.654,1.699,0.981
				l-4.205,2.429h-2.531v-0.503C76.925,80.464,78.603,79.494,80.283,78.525z"/>
			<polygon fill-rule="evenodd" clip-rule="evenodd" fill="#B4A19B" points="75.24,89.204 75.24,55.718 70.01,58.737 69.592,59.81 
				69.592,93.296 74.821,90.276 			"/>
			
				<linearGradient id="SVGID_5_" gradientUnits="userSpaceOnUse" x1="444.8601" y1="75.6035" x2="446.6584" y2="75.6035" gradientTransform="matrix(-1 0 0 1 515.8687 0)">
				<stop  offset="0" style="stop-color:#89776F"/>
				<stop  offset="1" style="stop-color:#796961"/>
			</linearGradient>
			<polygon fill-rule="evenodd" clip-rule="evenodd" fill="url(#SVGID_5_)" points="70.01,92.224 70.435,92.47 70.435,58.983 
				70.01,58.737 			"/>
			<polygon fill-rule="evenodd" clip-rule="evenodd" fill="#F4D8BC" points="75.24,55.718 75.665,55.964 70.435,58.983 
				70.01,58.737 			"/>
			<polygon fill-rule="evenodd" clip-rule="evenodd" fill="#CFB7A0" points="70.435,92.47 75.665,89.45 75.665,55.964 
				70.435,58.982 			"/>
			<polygon fill-rule="evenodd" clip-rule="evenodd" fill="#B4A19B" points="69.16,73.253 69.16,84.946 64.117,87.857 
				64.117,76.164 			"/>
			
				<linearGradient id="SVGID_6_" gradientUnits="userSpaceOnUse" x1="429.8894" y1="119.4355" x2="454.3554" y2="58.88" gradientTransform="matrix(-1 0 0 1 515.8687 0)">
				<stop  offset="0" style="stop-color:#B6A49C"/>
				<stop  offset="1" style="stop-color:#9E8F88"/>
			</linearGradient>
			<polygon fill-rule="evenodd" clip-rule="evenodd" fill="url(#SVGID_6_)" points="69.16,73.253 69.16,84.946 70.01,85.438 
				70.01,72.762 			"/>
			<polygon fill-rule="evenodd" clip-rule="evenodd" fill="#DCCEC0" points="64.117,76.786 67.885,74.61 67.885,85.683 
				64.117,87.857 			"/>
			<polygon fill-rule="evenodd" clip-rule="evenodd" fill="#533B40" points="68.594,73.58 68.594,84.619 64.117,87.203 
				64.117,76.164 			"/>
			<polygon fill-rule="evenodd" clip-rule="evenodd" fill="#6E565A" points="64.117,76.786 67.885,74.61 67.885,85.028 
				64.117,87.203 			"/>
			<polygon fill-rule="evenodd" clip-rule="evenodd" fill="#B4A19B" points="64.117,91.363 69.174,88.443 70.01,86.299 
				70.01,86.419 70.01,85.438 64.117,88.84 64.117,88.841 			"/>
			
				<linearGradient id="SVGID_7_" gradientUnits="userSpaceOnUse" x1="382.9304" y1="141.0557" x2="458.0995" y2="84.4117" gradientTransform="matrix(-1 0 0 1 515.8687 0)">
				<stop  offset="0" style="stop-color:#B6A49C"/>
				<stop  offset="1" style="stop-color:#9E8F88"/>
			</linearGradient>
			<polygon fill-rule="evenodd" clip-rule="evenodd" fill="url(#SVGID_7_)" points="64.117,88.84 64.117,89.701 64.968,90.192 
				64.968,89.331 			"/>
			<polygon fill-rule="evenodd" clip-rule="evenodd" fill="#DCCEC0" points="64.968,90.192 70.861,86.79 70.861,85.929 
				64.968,89.331 			"/>
			<polygon fill-rule="evenodd" clip-rule="evenodd" fill="#F1ECE5" points="64.124,88.867 64.117,87.857 68.324,85.43 
				70.01,85.438 70.861,85.929 64.968,89.331 			"/>
			
				<linearGradient id="SVGID_8_" gradientUnits="userSpaceOnUse" x1="458.2957" y1="168.1191" x2="431.1715" y2="-24.8787" gradientTransform="matrix(-1 0 0 1 515.8687 0)">
				<stop  offset="0" style="stop-color:#B6A49C"/>
				<stop  offset="1" style="stop-color:#9E8F88"/>
			</linearGradient>
			<polygon fill-rule="evenodd" clip-rule="evenodd" fill="url(#SVGID_8_)" points="67.885,85.683 69.16,84.946 70.435,85.683 			
				"/>
			<polygon fill-rule="evenodd" clip-rule="evenodd" fill="#B4A19B" points="64.117,95.626 64.117,62.14 58.888,65.158 
				58.469,66.23 58.469,99.717 63.699,96.698 			"/>
			
				<linearGradient id="SVGID_9_" gradientUnits="userSpaceOnUse" x1="455.9822" y1="82.0244" x2="457.7805" y2="82.0244" gradientTransform="matrix(-1 0 0 1 515.8687 0)">
				<stop  offset="0" style="stop-color:#89776F"/>
				<stop  offset="1" style="stop-color:#796961"/>
			</linearGradient>
			<polygon fill-rule="evenodd" clip-rule="evenodd" fill="url(#SVGID_9_)" points="58.888,98.645 59.313,98.891 59.313,65.404 
				58.888,65.158 			"/>
			<polygon fill-rule="evenodd" clip-rule="evenodd" fill="#F4D8BC" points="64.117,62.14 64.543,62.385 59.313,65.404 
				58.888,65.158 			"/>
			<polygon fill-rule="evenodd" clip-rule="evenodd" fill="#CFB7A0" points="59.313,98.891 64.543,95.871 64.543,62.385 
				59.313,65.404 			"/>
			<polygon fill-rule="evenodd" clip-rule="evenodd" fill="#B4A19B" points="58.038,79.674 58.038,91.367 52.995,94.279 
				52.995,82.585 			"/>
			
				<linearGradient id="SVGID_10_" gradientUnits="userSpaceOnUse" x1="441.0095" y1="125.8584" x2="465.4766" y2="65.3003" gradientTransform="matrix(-1 0 0 1 515.8687 0)">
				<stop  offset="0" style="stop-color:#B6A49C"/>
				<stop  offset="1" style="stop-color:#9E8F88"/>
			</linearGradient>
			<polygon fill-rule="evenodd" clip-rule="evenodd" fill="url(#SVGID_10_)" points="58.037,79.674 58.038,91.367 58.888,91.858 
				58.888,79.183 			"/>
			<polygon fill-rule="evenodd" clip-rule="evenodd" fill="#DCCEC0" points="52.995,83.207 56.761,81.032 56.761,92.104 
				52.995,94.279 			"/>
			<polygon fill-rule="evenodd" clip-rule="evenodd" fill="#533B40" points="57.47,80.001 57.47,91.04 52.995,93.625 52.995,82.585 
							"/>
			<polygon fill-rule="evenodd" clip-rule="evenodd" fill="#6E565A" points="52.995,83.207 56.761,81.032 56.761,91.449 
				52.995,93.625 			"/>
			<polygon fill-rule="evenodd" clip-rule="evenodd" fill="#B4A19B" points="52.994,97.784 58.052,94.864 58.888,92.72 
				58.888,92.841 58.888,91.858 52.995,95.261 52.994,95.262 			"/>
			
				<linearGradient id="SVGID_11_" gradientUnits="userSpaceOnUse" x1="394.0535" y1="147.4766" x2="469.2223" y2="90.8328" gradientTransform="matrix(-1 0 0 1 515.8687 0)">
				<stop  offset="0" style="stop-color:#B6A49C"/>
				<stop  offset="1" style="stop-color:#9E8F88"/>
			</linearGradient>
			<polygon fill-rule="evenodd" clip-rule="evenodd" fill="url(#SVGID_11_)" points="52.995,95.261 52.996,96.123 53.845,96.613 
				53.845,95.752 			"/>
			<polygon fill-rule="evenodd" clip-rule="evenodd" fill="#DCCEC0" points="53.845,96.613 59.738,93.211 59.738,92.35 
				53.845,95.752 			"/>
			<polygon fill-rule="evenodd" clip-rule="evenodd" fill="#F1ECE5" points="53.002,95.289 52.995,94.279 57.201,91.851 
				58.888,91.858 59.738,92.35 53.845,95.752 			"/>
			
				<linearGradient id="SVGID_12_" gradientUnits="userSpaceOnUse" x1="469.4285" y1="174.6211" x2="442.2781" y2="-18.5636" gradientTransform="matrix(-1 0 0 1 515.8687 0)">
				<stop  offset="0" style="stop-color:#B6A49C"/>
				<stop  offset="1" style="stop-color:#9E8F88"/>
			</linearGradient>
			<polygon fill-rule="evenodd" clip-rule="evenodd" fill="url(#SVGID_12_)" points="56.761,92.104 58.038,91.367 59.313,92.104 			
				"/>
			<polygon fill-rule="evenodd" clip-rule="evenodd" fill="#B4A19B" points="52.995,102.047 52.995,68.561 47.765,71.58 
				47.347,72.652 47.347,106.139 52.576,103.119 			"/>
			
				<linearGradient id="SVGID_13_" gradientUnits="userSpaceOnUse" x1="467.1033" y1="88.4463" x2="468.9057" y2="88.4463" gradientTransform="matrix(-1 0 0 1 515.8687 0)">
				<stop  offset="0" style="stop-color:#89776F"/>
				<stop  offset="1" style="stop-color:#796961"/>
			</linearGradient>
			<polygon fill-rule="evenodd" clip-rule="evenodd" fill="url(#SVGID_13_)" points="47.765,105.066 48.191,105.312 48.191,71.826 
				47.765,71.58 			"/>
			<polygon fill-rule="evenodd" clip-rule="evenodd" fill="#F4D8BC" points="52.995,68.561 53.42,68.807 48.191,71.826 
				47.765,71.58 			"/>
			<polygon fill-rule="evenodd" clip-rule="evenodd" fill="#B4A19B" points="51.943,116.574 79.811,89.389 47.765,107.89 
				47.347,108.963 47.347,136.908 47.765,136.651 51.935,116.593 			"/>
			<g>
				<polygon fill-rule="evenodd" clip-rule="evenodd" fill="#3D2606" points="58.086,115.739 65.546,111.433 65.546,124.108 
					58.086,128.415 				"/>
				<polygon fill-rule="evenodd" clip-rule="evenodd" fill="#533B40" points="58.653,116.066 64.978,112.414 64.978,123.781 
					58.653,127.434 				"/>
			</g>
			<polygon fill-rule="evenodd" clip-rule="evenodd" fill="#89776F" points="47.765,136.651 48.191,136.897 48.191,108.136 
				47.765,107.89 			"/>
			<polygon fill-rule="evenodd" clip-rule="evenodd" fill="#3D2606" points="85.052,86.363 85.052,113.626 79.811,116.651 
				79.811,89.388 			"/>
			<polygon fill-rule="evenodd" clip-rule="evenodd" fill="#8C614D" points="48.855,119.648 59.633,113.426 59.633,128.314 
				48.855,134.537 			"/>
			<polygon fill-rule="evenodd" clip-rule="evenodd" fill="#3D2606" points="48.855,119.648 59.633,113.426 59.633,127.74 
				48.855,133.963 			"/>
			<polygon fill-rule="evenodd" clip-rule="evenodd" fill="#6E565A" points="49.422,119.977 59.066,114.408 59.066,127.986 
				49.422,133.555 			"/>
			<polygon fill-rule="evenodd" clip-rule="evenodd" fill="#533B40" points="49.422,119.977 59.066,114.408 59.066,127.986 
				49.422,133.555 			"/>
			
				<linearGradient id="SVGID_14_" gradientUnits="userSpaceOnUse" x1="405.3123" y1="161.123" x2="443.1655" y2="67.433" gradientTransform="matrix(-1 0 0 1 515.8687 0)">
				<stop  offset="0" style="stop-color:#B6A49C"/>
				<stop  offset="1" style="stop-color:#9E8F88"/>
			</linearGradient>
			<polygon fill-rule="evenodd" clip-rule="evenodd" fill="url(#SVGID_14_)" points="85.051,86.363 85.052,113.626 86.361,114.383 
				86.361,85.606 			"/>
			<polygon fill-rule="evenodd" clip-rule="evenodd" fill="#8C614D" points="79.811,90.347 83.761,88.065 83.761,114.37 
				79.811,116.651 			"/>
			<path fill-rule="evenodd" clip-rule="evenodd" fill="#533B40" d="M84.177,86.867l-4.366,2.521v10.298l4.366-2.521V86.867
				L84.177,86.867z M84.177,113.121l-4.366,2.521v-14.529l4.366-2.521V113.121z"/>
			<path fill-rule="evenodd" clip-rule="evenodd" fill="#6E565A" d="M80.392,90.012v0.402v0.152l0.277-0.715L80.392,90.012
				L80.392,90.012z M81.248,89.518l2.514-1.452v9.339l-3.95,2.281v-1.72l0.581-1.497v-1.7v-0.501v-0.551v-0.551v-0.551v-0.55v-0.341
				L81.248,89.518L81.248,89.518z M79.811,101.113v14.529l3.95-2.281V98.832L79.811,101.113z"/>
			<polygon fill-rule="evenodd" clip-rule="evenodd" fill="#F4D8BC" points="79.811,89.389 80.236,89.635 48.191,108.136 
				47.765,107.89 			"/>
			<polygon fill-rule="evenodd" clip-rule="evenodd" fill="#89776F" points="79.811,89.389 80.236,89.635 76.933,91.541 
				76.082,91.541 			"/>
			<path fill-rule="evenodd" clip-rule="evenodd" fill="#CFB7A0" d="M48.191,136.897v-28.762l32.045-18.501v28.761L48.191,136.897
				L48.191,136.897z M60.484,113.951L60.484,113.951l-11.203,6.468v14.363l6.996-4.039l0,0l4.207-2.429v1.485l7.46-4.307v-1.485
				l11.203-6.469v-14.363l-11.203,6.469l0,0L60.484,113.951z"/>
			<polygon fill-rule="evenodd" clip-rule="evenodd" fill="#89776F" points="80.236,99.629 80.236,89.635 76.933,91.541 
				76.933,100.416 76.236,102.21 74.914,105.62 78.777,103.39 			"/>
			
				<linearGradient id="SVGID_15_" gradientUnits="userSpaceOnUse" x1="451.4626" y1="127.9688" x2="451.5863" y2="120.8829" gradientTransform="matrix(-1 0 0 1 515.8687 0)">
				<stop  offset="0" style="stop-color:#89776F"/>
				<stop  offset="1" style="stop-color:#796961"/>
			</linearGradient>
			<path fill-rule="evenodd" clip-rule="evenodd" fill="url(#SVGID_15_)" d="M48.191,118.401v15.605l1.09-0.629v-0.283v-12.676
				l11.203-6.468l0,0c6.221-3.592,12.441-7.184,18.663-10.775v0.961l1.089-2.808V99.9L48.191,118.401z"/>
			<polygon fill-rule="evenodd" clip-rule="evenodd" fill="#8C614D" points="67.944,110.841 78.722,104.618 78.722,117.294 
				67.944,123.517 			"/>
			<polygon fill-rule="evenodd" clip-rule="evenodd" fill="#3D2606" points="78.297,104.863 78.722,104.618 78.722,117.294 
				78.297,117.539 			"/>
			<polygon fill-rule="evenodd" clip-rule="evenodd" fill="#6E565A" points="68.511,111.168 78.155,105.6 78.155,116.966 
				68.511,122.534 			"/>
			<g>
				<polygon fill-rule="evenodd" clip-rule="evenodd" fill="#3D2606" points="67.944,110.841 78.355,104.829 72.306,120.423 
					67.944,122.942 				"/>
				<polygon fill-rule="evenodd" clip-rule="evenodd" fill="#533B40" points="68.511,111.168 78.028,105.673 72.347,120.319 
					68.511,122.534 				"/>
			</g>
			<polygon fill-rule="evenodd" clip-rule="evenodd" fill="#3D2606" points="67.944,110.841 65.97,109.701 65.97,122.377 
				67.944,123.517 			"/>
			<polygon fill-rule="evenodd" clip-rule="evenodd" fill="#533B40" points="67.377,111.168 66.538,110.684 66.538,122.05 
				67.377,122.534 			"/>
			
				<linearGradient id="SVGID_16_" gradientUnits="userSpaceOnUse" x1="436.1482" y1="113.4482" x2="437.9465" y2="113.4482" gradientTransform="matrix(-1 0 0 1 515.8687 0)">
				<stop  offset="0" style="stop-color:#89776F"/>
				<stop  offset="1" style="stop-color:#796961"/>
			</linearGradient>
			<polygon fill-rule="evenodd" clip-rule="evenodd" fill="url(#SVGID_16_)" points="78.722,117.294 79.147,117.539 79.147,109.604 
				78.722,109.358 			"/>
			<polygon fill-rule="evenodd" clip-rule="evenodd" fill="#F1ECE5" points="48.191,118.401 80.236,99.9 87.472,104.078 
				55.427,122.579 			"/>
			
				<linearGradient id="SVGID_17_" gradientUnits="userSpaceOnUse" x1="432.4128" y1="95.3975" x2="439.7622" y2="108.127" gradientTransform="matrix(-1 0 0 1 515.8687 0)">
				<stop  offset="0" style="stop-color:#B6A49C"/>
				<stop  offset="1" style="stop-color:#9E8F88"/>
			</linearGradient>
			<polygon fill-rule="evenodd" clip-rule="evenodd" fill="url(#SVGID_17_)" points="76.236,102.21 80.101,99.979 83.099,101.71 
				82.031,102.327 76.439,102.327 			"/>
			<polygon fill-rule="evenodd" clip-rule="evenodd" fill="#DCCEC0" points="55.427,124.007 87.472,105.506 87.472,104.078 
				55.427,122.579 			"/>
			
				<linearGradient id="SVGID_18_" gradientUnits="userSpaceOnUse" x1="459.6384" y1="113.5459" x2="468.9409" y2="129.6582" gradientTransform="matrix(-1 0 0 1 515.8687 0)">
				<stop  offset="0" style="stop-color:#B6A49C"/>
				<stop  offset="1" style="stop-color:#9E8F88"/>
			</linearGradient>
			<polygon fill-rule="evenodd" clip-rule="evenodd" fill="url(#SVGID_18_)" points="55.427,124.007 48.191,119.83 48.191,118.401 
				55.427,122.579 			"/>
			
				<linearGradient id="SVGID_19_" gradientUnits="userSpaceOnUse" x1="466.033" y1="50.4683" x2="514.5357" y2="134.4775" gradientTransform="matrix(-1 0 0 1 515.8687 0)">
				<stop  offset="0" style="stop-color:#B6A49C"/>
				<stop  offset="1" style="stop-color:#9E8F88"/>
			</linearGradient>
			<path fill-rule="evenodd" clip-rule="evenodd" fill="url(#SVGID_19_)" d="M4.998,47.359v66.375l41.172,23.854
				c0-19.819,0-46.159,0-66.374L4.998,47.359z"/>
			
				<linearGradient id="SVGID_20_" gradientUnits="userSpaceOnUse" x1="468.2742" y1="54.2251" x2="494.1354" y2="104.9807" gradientTransform="matrix(-1 0 0 1 515.8687 0)">
				<stop  offset="0" style="stop-color:#89776F"/>
				<stop  offset="1" style="stop-color:#796961"/>
			</linearGradient>
			<path fill-rule="evenodd" clip-rule="evenodd" fill="url(#SVGID_20_)" d="M4.998,57.26v56.475l41.172,23.854
				c0-19.819,0-36.259,0-56.475L4.998,57.26z"/>
			
				<linearGradient id="SVGID_21_" gradientUnits="userSpaceOnUse" x1="444.4226" y1="120.6426" x2="454.5252" y2="127.9825" gradientTransform="matrix(-1 0 0 1 515.8687 0)">
				<stop  offset="0" style="stop-color:#89776F"/>
				<stop  offset="1" style="stop-color:#796961"/>
			</linearGradient>
			<polygon fill-rule="evenodd" clip-rule="evenodd" fill="url(#SVGID_21_)" points="65.546,124.108 67.944,125.493 67.944,124.008 
				65.546,122.622 			"/>
			<polygon fill-rule="evenodd" clip-rule="evenodd" fill="#F4D8BC" points="65.97,122.377 65.546,122.623 67.944,124.008 
				79.147,117.539 78.722,117.294 67.944,123.516 			"/>
			<polygon fill-rule="evenodd" clip-rule="evenodd" fill="#89776F" points="65.97,122.377 65.546,122.623 67.094,123.517 
				67.944,123.517 67.944,123.516 			"/>
			<path fill-rule="evenodd" clip-rule="evenodd" fill="#F4D8BC" d="M60.484,128.314c-3.731,2.159-7.469,4.312-11.203,6.468v-0.492
				l10.352-5.976l0,0v-0.491C59.916,127.986,60.199,128.15,60.484,128.314z"/>
			
				<linearGradient id="SVGID_22_" gradientUnits="userSpaceOnUse" x1="444.696" y1="131.8848" x2="451.4556" y2="117.3888" gradientTransform="matrix(-1 0 0 1 515.8687 0)">
				<stop  offset="0" style="stop-color:#89776F"/>
				<stop  offset="1" style="stop-color:#796961"/>
			</linearGradient>
			<polygon fill-rule="evenodd" clip-rule="evenodd" fill="url(#SVGID_22_)" points="65.545,118.165 65.97,117.92 65.97,122.377 
				65.545,122.622 			"/>
			
				<linearGradient id="SVGID_23_" gradientUnits="userSpaceOnUse" x1="457.3972" y1="110.8203" x2="467.1535" y2="127.7187" gradientTransform="matrix(-1 0 0 1 515.8687 0)">
				<stop  offset="0" style="stop-color:#B6A49C"/>
				<stop  offset="1" style="stop-color:#9E8F88"/>
			</linearGradient>
			<polygon fill-rule="evenodd" clip-rule="evenodd" fill="url(#SVGID_23_)" points="57.99,120.038 58.416,119.792 57.836,119.637 
				57.99,119.547 49.942,117.391 49.361,117.727 			"/>
			<polygon fill-rule="evenodd" clip-rule="evenodd" fill="#89776F" points="49.942,117.391 52.097,109.344 52.097,108.851 
				51.673,109.096 49.361,117.727 			"/>
			
				<rect x="54.798" y="108.126" transform="matrix(-0.8658 0.5004 -0.5004 -0.8658 159.9688 185.9836)" fill-rule="evenodd" clip-rule="evenodd" fill="#8C614D" width="0.492" height="12.636"/>
			<polygon fill-rule="evenodd" clip-rule="evenodd" fill="#3D2606" points="57.565,119.793 57.99,120.038 51.673,109.096 
				51.674,109.587 			"/>
			
				<linearGradient id="SVGID_24_" gradientUnits="userSpaceOnUse" x1="432.7429" y1="96.5859" x2="442.4957" y2="113.4783" gradientTransform="matrix(-1 0 0 1 515.8687 0)">
				<stop  offset="0" style="stop-color:#B6A49C"/>
				<stop  offset="1" style="stop-color:#9E8F88"/>
			</linearGradient>
			<polygon fill-rule="evenodd" clip-rule="evenodd" fill="url(#SVGID_24_)" points="82.646,105.801 83.072,105.556 82.491,105.399 
				82.646,105.31 74.597,103.153 74.016,103.489 			"/>
			<polygon fill-rule="evenodd" clip-rule="evenodd" fill="#89776F" points="74.597,103.153 76.754,95.106 76.754,94.613 
				76.328,94.859 74.016,103.489 			"/>
			
				<rect x="79.454" y="93.889" transform="matrix(-0.8666 0.4989 -0.4989 -0.8666 198.767 147.2875)" fill-rule="evenodd" clip-rule="evenodd" fill="#8C614D" width="0.491" height="12.636"/>
			<polygon fill-rule="evenodd" clip-rule="evenodd" fill="#3D2606" points="82.22,105.556 82.646,105.801 76.328,94.859 
				76.329,95.35 			"/>
			
				<linearGradient id="SVGID_25_" gradientUnits="userSpaceOnUse" x1="440.9617" y1="101.332" x2="450.7145" y2="118.2244" gradientTransform="matrix(-1 0 0 1 515.8687 0)">
				<stop  offset="0" style="stop-color:#B6A49C"/>
				<stop  offset="1" style="stop-color:#9E8F88"/>
			</linearGradient>
			<polygon fill-rule="evenodd" clip-rule="evenodd" fill="url(#SVGID_25_)" points="74.428,110.547 74.853,110.302 74.273,110.146 
				74.427,110.056 66.38,107.899 65.799,108.235 			"/>
			<polygon fill-rule="evenodd" clip-rule="evenodd" fill="#89776F" points="66.38,107.899 68.536,99.853 68.536,99.359 
				68.111,99.604 65.799,108.235 			"/>
			
				<rect x="71.237" y="98.636" transform="matrix(-0.8662 0.4998 -0.4998 -0.8662 185.8501 160.1332)" fill-rule="evenodd" clip-rule="evenodd" fill="#8C614D" width="0.49" height="12.635"/>
			<polygon fill-rule="evenodd" clip-rule="evenodd" fill="#3D2606" points="74.004,110.302 74.428,110.547 68.111,99.604 
				68.111,100.096 			"/>
			
				<linearGradient id="SVGID_26_" gradientUnits="userSpaceOnUse" x1="449.1775" y1="106.0762" x2="458.9338" y2="122.9745" gradientTransform="matrix(-1 0 0 1 515.8687 0)">
				<stop  offset="0" style="stop-color:#B6A49C"/>
				<stop  offset="1" style="stop-color:#9E8F88"/>
			</linearGradient>
			<polygon fill-rule="evenodd" clip-rule="evenodd" fill="url(#SVGID_26_)" points="66.211,115.293 66.636,115.048 66.054,114.892 
				66.211,114.802 58.162,112.646 57.58,112.981 			"/>
			<polygon fill-rule="evenodd" clip-rule="evenodd" fill="#89776F" points="58.162,112.646 60.318,104.599 60.318,104.105 
				59.892,104.351 57.58,112.981 			"/>
			
				<rect x="63.019" y="103.381" transform="matrix(-0.8666 0.4989 -0.4989 -0.8666 172.8232 173.2052)" fill-rule="evenodd" clip-rule="evenodd" fill="#8C614D" width="0.491" height="12.636"/>
			<polygon fill-rule="evenodd" clip-rule="evenodd" fill="#3D2606" points="65.785,115.048 66.211,115.293 59.892,104.351 
				59.893,104.842 			"/>
			<polygon fill-rule="evenodd" clip-rule="evenodd" fill="#F1ECE5" points="83.661,35.47 41.874,59.596 47.019,62.567 
				88.806,38.441 			"/>
			<polygon fill-rule="evenodd" clip-rule="evenodd" fill="#B4A19B" points="47.019,64.073 46.17,64.564 46.17,68.375 87.12,44.732 
				87.462,43.855 47.019,67.204 			"/>
			<polygon fill-rule="evenodd" clip-rule="evenodd" fill="#DCCEC0" points="47.019,67.204 88.806,43.079 88.806,38.441 
				47.019,62.567 			"/>
			
				<linearGradient id="SVGID_27_" gradientUnits="userSpaceOnUse" x1="409.5017" y1="-9.3936" x2="540.9744" y2="218.3239" gradientTransform="matrix(-1 0 0 1 515.8687 0)">
				<stop  offset="0" style="stop-color:#B6A49C"/>
				<stop  offset="1" style="stop-color:#9E8F88"/>
			</linearGradient>
			<polygon fill-rule="evenodd" clip-rule="evenodd" fill="url(#SVGID_27_)" points="41.874,59.596 41.874,64.233 41.874,135.107 
				46.17,137.588 46.17,66.714 47.019,67.204 47.019,62.567 46.17,62.076 			"/>
			<g>
				<g>
					<g>
						<polygon fill-rule="evenodd" clip-rule="evenodd" fill="#562F2D" points="86.565,85.116 86.198,85.328 83.989,84.054 
							84.356,83.841 						"/>
						<polygon fill-rule="evenodd" clip-rule="evenodd" fill="#240004" points="86.565,85.116 86.198,85.328 85.48,84.914 
							86.215,84.914 						"/>
					</g>
					<polygon fill-rule="evenodd" clip-rule="evenodd" fill="#240004" points="86.198,85.753 86.198,85.328 83.989,84.053 
						83.988,84.477 					"/>
				</g>
				<g>
					<g>
						<polygon fill-rule="evenodd" clip-rule="evenodd" fill="#562F2D" points="86.565,70.906 86.198,71.119 83.989,69.844 
							84.356,69.631 						"/>
						<polygon fill-rule="evenodd" clip-rule="evenodd" fill="#240004" points="86.565,70.906 86.198,71.119 85.48,70.705 
							86.215,70.705 						"/>
					</g>
					<polygon fill-rule="evenodd" clip-rule="evenodd" fill="#240004" points="86.198,71.543 86.198,71.119 83.989,69.844 
						83.988,70.268 					"/>
				</g>
				<g>
					<g>
						<polygon fill-rule="evenodd" clip-rule="evenodd" fill="#562F2D" points="86.565,56.697 86.198,56.909 83.989,55.634 
							84.356,55.422 						"/>
						<polygon fill-rule="evenodd" clip-rule="evenodd" fill="#240004" points="86.565,56.697 86.198,56.909 85.48,56.495 
							86.215,56.495 						"/>
					</g>
					<polygon fill-rule="evenodd" clip-rule="evenodd" fill="#240004" points="86.198,57.333 86.198,56.909 83.989,55.634 
						83.988,56.058 					"/>
				</g>
				<polygon fill-rule="evenodd" clip-rule="evenodd" fill="#E6DF89" points="90.435,57.417 85.847,54.768 86.916,54.15 
					91.506,56.8 				"/>
				<polygon fill-rule="evenodd" clip-rule="evenodd" fill="#A2AA59" points="90.435,57.417 90.436,87.058 91.506,86.44 
					91.506,56.8 				"/>
				<polygon fill-rule="evenodd" clip-rule="evenodd" fill="#E6DF89" points="94.623,89.475 90.436,87.058 91.506,86.44 
					95.691,88.857 				"/>
				<polygon fill-rule="evenodd" clip-rule="evenodd" fill="#DCCEC0" points="94.623,89.475 94.623,93.365 95.691,92.748 
					95.691,88.857 				"/>
			</g>
			<polygon fill-rule="evenodd" clip-rule="evenodd" fill="#CFB7A0" points="48.191,105.313 53.42,102.293 53.42,68.807 
				48.191,71.826 			"/>
			<polygon fill-rule="evenodd" clip-rule="evenodd" fill="#89776F" points="75.246,84.609 75.665,84.368 75.665,82.678 
				75.246,83.748 			"/>
			<polygon fill-rule="evenodd" clip-rule="evenodd" fill="#89776F" points="64.124,91.029 64.543,90.787 64.543,89.098 
				64.124,90.168 			"/>
			<polygon fill-rule="evenodd" clip-rule="evenodd" fill="#89776F" points="53.002,97.448 53.42,97.206 53.42,95.517 
				53.002,96.587 			"/>
			<polygon fill-rule="evenodd" clip-rule="evenodd" fill="#89776F" points="78.722,117.294 79.147,117.539 78.297,117.539 			"/>
			<g>
				<path fill-rule="evenodd" clip-rule="evenodd" fill="#6F7939" d="M94.625,89.476l-4.188-2.418V57.417l-4.59-2.649
					c0,11.744,0,23.487,0,35.231l8.777,5.068V89.476z"/>
			</g>
			<polygon fill-rule="evenodd" clip-rule="evenodd" fill="#A2AA59" points="94.623,89.475 94.623,95.067 95.691,94.45 
				95.691,88.857 			"/>
		</g>
	</g>
	<g>
		<g>
			<path fill="#F7EA06" d="M88.594,58.047c0.37,0.214,0.74,0.53,1.11,0.95l-0.265,0.604c-0.141-0.162-0.28-0.31-0.428-0.453
				c-0.14-0.139-0.28-0.25-0.421-0.331c-0.306-0.177-0.536-0.177-0.703-0.009c-0.166,0.161-0.251,0.48-0.252,0.95
				c-0.003,0.968,0.31,1.641,0.947,2.009c0.268,0.155,0.588,0.259,0.971,0.333l-0.002,0.77c-0.313-0.026-0.665-0.156-1.047-0.376
				c-0.556-0.321-0.978-0.755-1.27-1.313c-0.286-0.548-0.432-1.19-0.43-1.909c0.002-0.455,0.072-0.811,0.214-1.074
				c0.148-0.253,0.354-0.399,0.628-0.424C87.916,57.752,88.229,57.837,88.594,58.047z"/>
		</g>
		<g>
			<polygon fill="#F7EA06" points="87.947,69.167 87.937,72.77 89.476,73.658 89.473,74.421 87.125,73.064 87.136,68.699 			"/>
		</g>
		<g>
			<path fill="#F7EA06" d="M89.52,64.873c0.313,0.57,0.464,1.208,0.462,1.935c-0.002,0.727-0.157,1.188-0.472,1.396
				c-0.313,0.208-0.762,0.148-1.342-0.187c-0.581-0.336-1.027-0.792-1.34-1.361c-0.312-0.569-0.463-1.215-0.461-1.941
				c0.003-0.727,0.157-1.188,0.471-1.396c0.314-0.201,0.762-0.134,1.349,0.206C88.769,63.858,89.216,64.314,89.52,64.873z
				 M88.171,67.239c0.646,0.373,0.965,0.065,0.968-0.918c0.003-0.983-0.314-1.659-0.953-2.027c-0.325-0.188-0.563-0.199-0.729-0.046
				c-0.16,0.157-0.245,0.476-0.246,0.96c-0.001,0.492,0.074,0.903,0.239,1.241C87.609,66.79,87.851,67.054,88.171,67.239"/>
		</g>
		<g enable-background="new    ">
			<g>
				<path fill="#F7EA06" d="M88.763,83.535c0.566,1.311,0.94,2.166,1.112,2.553l-0.894-0.517l-0.902-2.196l-0.428-0.247
					l-0.004,1.673l-0.805-0.464l0.013-4.365l1.104,0.637c0.518,0.299,0.9,0.63,1.143,0.983c0.248,0.363,0.375,0.76,0.373,1.2
					c0,0.257-0.064,0.447-0.187,0.576C89.161,83.5,88.988,83.554,88.763,83.535z M88.479,82.701c0.121-0.025,0.179-0.146,0.18-0.359
					c0.001-0.205-0.063-0.389-0.185-0.547c-0.121-0.157-0.312-0.313-0.574-0.464l-0.242-0.14l-0.003,1.181l0.255,0.147
					C88.166,82.667,88.356,82.727,88.479,82.701"/>
			</g>
			<g>
				<path fill="#F7EA06" d="M89.488,76.288c0.312,0.563,0.464,1.209,0.461,1.935c-0.002,0.719-0.156,1.188-0.471,1.396
					s-0.762,0.141-1.342-0.194c-0.581-0.336-1.027-0.784-1.34-1.354c-0.312-0.568-0.463-1.215-0.461-1.941
					c0.002-0.726,0.157-1.195,0.471-1.396c0.314-0.2,0.762-0.134,1.349,0.206C88.736,75.273,89.182,75.723,89.488,76.288z
					 M88.138,78.646c0.646,0.373,0.965,0.072,0.968-0.91c0.003-0.983-0.314-1.659-0.953-2.027c-0.325-0.188-0.563-0.199-0.729-0.054
					c-0.16,0.157-0.244,0.477-0.245,0.968c-0.002,0.484,0.074,0.896,0.239,1.24C87.577,78.198,87.819,78.462,88.138,78.646"/>
			</g>
		</g>
	</g>
	<g>
		<g>
			<path fill="#F7EA06" d="M88.02,86.862l-0.011,3.493l-0.229-0.133l0.006-2.253c0.001-0.257,0.009-0.531,0.022-0.825l-0.68,2.701
				l-0.179-0.103l-0.648-3.477l-0.013-0.007c0.012,0.25,0.018,0.546,0.017,0.884l-0.007,2.224l-0.21-0.122l0.01-3.492l0.338,0.196
				l0.604,3.229l0.014,0.008l0.627-2.518L88.02,86.862z"/>
		</g>
		<g enable-background="new    ">
			<g>
				<path fill="#F7EA06" d="M89.036,87.434l0.749,3.946l-0.229-0.133l-0.24-1.256l-0.778-0.449l-0.239,0.979l-0.23-0.133
					l0.776-3.064L89.036,87.434z M88.621,89.23l0.626,0.361l-0.221-1.216c-0.032-0.15-0.063-0.337-0.095-0.553
					c-0.019,0.136-0.045,0.289-0.084,0.45L88.621,89.23"/>
			</g>
			<g>
				<polygon fill="#F7EA06" points="91.065,88.621 91.064,88.98 90.452,88.626 90.443,91.76 90.219,91.631 90.228,88.497 
					89.615,88.144 89.616,87.784 				"/>
			</g>
		</g>
		<g>
			<path fill="#F7EA06" d="M91.985,89.1c0.204,0.118,0.383,0.288,0.536,0.509l-0.098,0.297c-0.146-0.21-0.293-0.354-0.439-0.438
				c-0.218-0.125-0.384-0.096-0.506,0.09c-0.122,0.188-0.187,0.495-0.188,0.943c-0.001,0.455,0.056,0.84,0.176,1.159
				c0.115,0.316,0.287,0.54,0.504,0.665c0.141,0.081,0.294,0.126,0.467,0.137l-0.001,0.36c-0.135,0.011-0.301-0.041-0.499-0.155
				c-0.287-0.166-0.504-0.445-0.656-0.842c-0.159-0.408-0.233-0.893-0.232-1.472c0.001-0.36,0.04-0.653,0.118-0.88
				c0.07-0.231,0.18-0.374,0.321-0.439C91.627,88.967,91.794,88.989,91.985,89.1z"/>
		</g>
		<g>
			<polygon fill="#F7EA06" points="94.13,90.391 94.12,93.883 93.896,93.754 93.901,92.109 92.88,91.521 92.876,93.164 
				92.651,93.035 92.662,89.543 92.885,89.672 92.881,91.153 93.902,91.743 93.906,90.262 			"/>
		</g>
	</g>
</g>
</svg>
