<?xml version="1.0" encoding="utf-8"?>
<!-- Generator: Adobe Illustrator 15.0.0, SVG Export Plug-In . SVG Version: 6.00 Build 0)  -->
<!DOCTYPE svg PUBLIC "-//W3C//DTD SVG 1.1//EN" "http://www.w3.org/Graphics/SVG/1.1/DTD/svg11.dtd">
<svg version="1.1" id="Layer_1" xmlns="http://www.w3.org/2000/svg" xmlns:xlink="http://www.w3.org/1999/xlink" x="0px" y="0px"
	 width="100.69px" height="160.822px" viewBox="0 0 100.69 160.822" enable-background="new 0 0 100.69 160.822"
	 xml:space="preserve">
<linearGradient id="SVGID_1_" gradientUnits="userSpaceOnUse" x1="16.4316" y1="114.8027" x2="16.1204" y2="96.974" gradientTransform="matrix(-1 0 0 1 75.4297 0)">
	<stop  offset="0" style="stop-color:#736056"/>
	<stop  offset="1" style="stop-color:#5D4E43"/>
</linearGradient>
<polygon fill-rule="evenodd" clip-rule="evenodd" fill="url(#SVGID_1_)" points="61.004,107.921 61.004,94.438 57.505,92.418 
	57.505,105.901 "/>
<linearGradient id="SVGID_2_" gradientUnits="userSpaceOnUse" x1="11.9883" y1="106.7227" x2="12.9465" y2="97.6054" gradientTransform="matrix(-1 0 0 1 75.4297 0)">
	<stop  offset="0" style="stop-color:#736056"/>
	<stop  offset="1" style="stop-color:#5D4E43"/>
</linearGradient>
<polygon fill-rule="evenodd" clip-rule="evenodd" fill="url(#SVGID_2_)" points="61.004,107.921 61.004,94.438 64.503,92.418 
	64.503,105.901 "/>
<polygon fill-rule="evenodd" clip-rule="evenodd" fill="#FFE6A8" points="47.303,25.845 61.004,33.755 74.706,25.845 61.004,17.934 
	"/>
<linearGradient id="SVGID_3_" gradientUnits="userSpaceOnUse" x1="17.2588" y1="61.8984" x2="-2.9319" y2="64.3775" gradientTransform="matrix(-1 0 0 1 75.4297 0)">
	<stop  offset="0" style="stop-color:#B17A64"/>
	<stop  offset="1" style="stop-color:#895A45"/>
</linearGradient>
<polygon fill-rule="evenodd" clip-rule="evenodd" fill="url(#SVGID_3_)" points="74.706,25.845 61.004,33.755 61.004,100.329 
	74.707,92.418 "/>
<linearGradient id="SVGID_4_" gradientUnits="userSpaceOnUse" x1="6.1611" y1="27.478" x2="35.1241" y2="95.7105" gradientTransform="matrix(-1 0 0 1 75.4297 0)">
	<stop  offset="0" style="stop-color:#B17A64"/>
	<stop  offset="1" style="stop-color:#895A45"/>
</linearGradient>
<polygon fill-rule="evenodd" clip-rule="evenodd" fill="url(#SVGID_4_)" points="47.303,25.845 61.004,33.755 61.004,100.329 
	47.302,92.418 "/>
<linearGradient id="SVGID_5_" gradientUnits="userSpaceOnUse" x1="9.8613" y1="11.374" x2="11.2011" y2="30.5341" gradientTransform="matrix(-1 0 0 1 75.4297 0)">
	<stop  offset="0" style="stop-color:#B17A64"/>
	<stop  offset="1" style="stop-color:#FAB685"/>
</linearGradient>
<polygon fill-rule="evenodd" clip-rule="evenodd" fill="url(#SVGID_5_)" points="68.408,29.48 74.706,25.845 61.004,17.934 
	54.706,21.57 "/>
<linearGradient id="SVGID_6_" gradientUnits="userSpaceOnUse" x1="26.4355" y1="66.918" x2="54.3067" y2="126.6878" gradientTransform="matrix(-1 0 0 1 75.4297 0)">
	<stop  offset="0" style="stop-color:#FAB685"/>
	<stop  offset="1" style="stop-color:#B17A64"/>
</linearGradient>
<polygon fill-rule="evenodd" clip-rule="evenodd" fill="url(#SVGID_6_)" points="68.408,29.48 61.004,33.755 61.004,48.571 "/>
<polygon fill-rule="evenodd" clip-rule="evenodd" fill="#F1ECE5" points="0,23.297 40.354,0 90.907,28.961 50.555,52.259 "/>
<linearGradient id="SVGID_7_" gradientUnits="userSpaceOnUse" x1="20.1787" y1="34.2959" x2="14.4928" y2="37.8488" gradientTransform="matrix(-1 0 0 1 75.4297 0)">
	<stop  offset="0" style="stop-color:#B6A49C"/>
	<stop  offset="1" style="stop-color:#9E8F88"/>
</linearGradient>
<polygon fill-rule="evenodd" clip-rule="evenodd" fill="url(#SVGID_7_)" points="85.531,32.064 50.555,52.258 45.157,49.142 
	80.134,28.947 "/>
<polygon fill-rule="evenodd" clip-rule="evenodd" fill="#ECDDD1" points="6.576,23.297 40.354,3.797 84.332,28.961 50.555,48.462 
	"/>
<polygon fill-rule="evenodd" clip-rule="evenodd" fill="#A88F87" points="39.038,7.186 40.354,6.427 81.329,29.858 83.148,28.808 
	83.873,29.226 50.555,48.462 49.831,48.044 80.015,30.617 "/>
<polygon fill-rule="evenodd" clip-rule="evenodd" fill="#DCCEC0" points="6.576,23.297 40.354,3.797 40.354,6.427 8.855,24.612 "/>
<linearGradient id="SVGID_8_" gradientUnits="userSpaceOnUse" x1="-59.6777" y1="-109.6533" x2="256.7398" y2="438.3981" gradientTransform="matrix(-1 0 0 1 75.4297 0)">
	<stop  offset="0" style="stop-color:#B6A49C"/>
	<stop  offset="1" style="stop-color:#9E8F88"/>
</linearGradient>
<polygon fill-rule="evenodd" clip-rule="evenodd" fill="url(#SVGID_8_)" points="40.354,3.797 84.332,28.961 82.054,30.276 
	40.354,6.427 39.038,7.186 "/>
<polygon fill-rule="evenodd" clip-rule="evenodd" fill="#DCCEC0" points="53.996,160.822 94.348,137.525 94.348,34.645 
	53.996,57.941 "/>
<polygon fill-rule="evenodd" clip-rule="evenodd" fill="#C4A98F" points="53.996,160.822 94.348,137.525 94.348,108.841 
	53.996,132.138 "/>
<linearGradient id="SVGID_9_" gradientUnits="userSpaceOnUse" x1="-1.4897" y1="138.166" x2="9.476" y2="119.916" gradientTransform="matrix(-1 0 0 1 75.4297 0)">
	<stop  offset="0" style="stop-color:#8B7973"/>
	<stop  offset="1" style="stop-color:#66544D"/>
</linearGradient>
<polygon fill-rule="evenodd" clip-rule="evenodd" fill="url(#SVGID_9_)" points="94.348,115.41 94.348,108.841 53.996,132.138 
	53.996,150.381 54.912,149.852 54.912,159.866 65.75,153.609 66.721,151.121 66.721,143.034 68.573,141.965 68.573,152.406 
	77.368,147.329 77.368,136.888 80.652,134.991 80.652,145.005 91.489,138.747 92.46,136.26 92.46,121.216 92.031,121.367 "/>
<g>
	
		<linearGradient id="SVGID_10_" gradientUnits="userSpaceOnUse" x1="3.5146" y1="117.9512" x2="6.0852" y2="115.3806" gradientTransform="matrix(-1 0 0 1 75.4297 0)">
		<stop  offset="0" style="stop-color:#8B7973"/>
		<stop  offset="1" style="stop-color:#66544D"/>
	</linearGradient>
	<polygon fill-rule="evenodd" clip-rule="evenodd" fill="url(#SVGID_10_)" points="94.348,108.841 94.348,106.349 53.996,129.646 
		53.996,134.066 93.378,111.329 	"/>
	<polygon fill-rule="evenodd" clip-rule="evenodd" fill="#F1ECE5" points="53.996,129.646 94.349,106.349 95.334,106.919 
		54.982,130.216 	"/>
	<polygon fill-rule="evenodd" clip-rule="evenodd" fill="#DCCEC0" points="54.982,132.708 95.334,109.411 95.334,106.919 
		54.982,130.216 	"/>
</g>
<polygon fill-rule="evenodd" clip-rule="evenodd" fill="#B4A19B" points="94.348,37.137 94.348,34.645 53.995,57.941 53.995,62.361 
	93.378,39.624 "/>
<polygon fill-rule="evenodd" clip-rule="evenodd" fill="#F1ECE5" points="53.995,54.244 94.349,30.948 95.334,31.517 54.982,54.814 
	"/>
<polygon fill-rule="evenodd" clip-rule="evenodd" fill="#DCCEC0" points="54.982,61.004 95.334,37.706 95.334,31.517 54.982,54.814 
	"/>
<polygon fill-rule="evenodd" clip-rule="evenodd" fill="#F1ECE5" points="50.555,41.501 90.907,18.204 96.32,21.33 55.968,44.626 
	"/>
<polygon fill-rule="evenodd" clip-rule="evenodd" fill="#DCCEC0" points="55.968,55.384 96.32,32.086 96.32,21.33 55.968,44.626 "/>
<polygon fill-rule="evenodd" clip-rule="evenodd" fill="#B4A19B" points="55.968,51.753 54.981,52.322 54.981,56.741 94.363,34.003 
	94.761,32.986 55.968,55.384 "/>
<polygon fill-rule="evenodd" clip-rule="evenodd" fill="#B6A49C" points="69.545,130.568 69.545,151.846 70.53,152.414 
	70.53,131.138 "/>
<polygon fill-rule="evenodd" clip-rule="evenodd" fill="#DCCEC0" points="70.53,131.138 77.812,126.935 77.813,145.933 
	70.53,150.136 "/>
<linearGradient id="SVGID_11_" gradientUnits="userSpaceOnUse" x1="-1.8447" y1="147.2168" x2="4.3035" y2="120.5858" gradientTransform="matrix(-1 0 0 1 75.4297 0)">
	<stop  offset="0" style="stop-color:#B6A49C"/>
	<stop  offset="1" style="stop-color:#9E8F88"/>
</linearGradient>
<polygon fill-rule="evenodd" clip-rule="evenodd" fill="url(#SVGID_11_)" points="70.849,130.954 70.849,130.925 77.813,126.903 
	77.813,136.44 77.813,145.933 76.842,146.492 76.842,137 70.53,140.644 70.53,131.138 "/>
<polygon fill-rule="evenodd" clip-rule="evenodd" fill="#533B40" points="71.518,133.287 75.945,130.73 75.945,142.828 
	71.518,145.386 "/>
<polygon fill-rule="evenodd" clip-rule="evenodd" fill="#6E565A" points="75.46,143.108 71.518,145.386 71.518,133.681 
	75.46,131.404 "/>
<polygon fill-rule="evenodd" clip-rule="evenodd" fill="#533B40" points="71.518,140.266 71.518,133.681 75.46,131.404 
	75.46,137.988 "/>
<linearGradient id="SVGID_12_" gradientUnits="userSpaceOnUse" x1="1.0151" y1="127.6182" x2="4.9855" y2="118.7005" gradientTransform="matrix(-1 0 0 1 75.4297 0)">
	<stop  offset="0" style="stop-color:#F1ECE5"/>
	<stop  offset="1" style="stop-color:#C6B6A2"/>
</linearGradient>
<polygon fill-rule="evenodd" clip-rule="evenodd" fill="url(#SVGID_12_)" points="69.545,130.568 78.8,125.227 79.785,125.795 
	70.53,131.138 "/>
<linearGradient id="SVGID_13_" gradientUnits="userSpaceOnUse" x1="-9.9087" y1="154.123" x2="2.7412" y2="122.8136" gradientTransform="matrix(-1 0 0 1 75.4297 0)">
	<stop  offset="0" style="stop-color:#B6A49C"/>
	<stop  offset="1" style="stop-color:#9E8F88"/>
</linearGradient>
<polygon fill-rule="evenodd" clip-rule="evenodd" fill="url(#SVGID_13_)" points="77.812,128.072 77.813,145.933 78.8,146.502 
	78.8,127.504 "/>
<linearGradient id="SVGID_14_" gradientUnits="userSpaceOnUse" x1="1.2109" y1="147.4053" x2="4.6247" y2="140.4061" gradientTransform="matrix(-1 0 0 1 75.4297 0)">
	<stop  offset="0" style="stop-color:#F1ECE5"/>
	<stop  offset="1" style="stop-color:#C6B6A2"/>
</linearGradient>
<polygon fill-rule="evenodd" clip-rule="evenodd" fill="url(#SVGID_14_)" points="71.518,150.706 70.53,150.136 77.813,145.933 
	78.8,146.502 "/>
<polygon fill-rule="evenodd" clip-rule="evenodd" fill="#B6A49C" points="76.826,146.502 77.813,145.933 78.8,146.502 "/>
<linearGradient id="SVGID_15_" gradientUnits="userSpaceOnUse" x1="-2.1758" y1="143.2871" x2="0.9539" y2="128.5629" gradientTransform="matrix(-1 0 0 1 75.4297 0)">
	<stop  offset="0" style="stop-color:#B6A49C"/>
	<stop  offset="1" style="stop-color:#9E8F88"/>
</linearGradient>
<polygon fill-rule="evenodd" clip-rule="evenodd" fill="url(#SVGID_15_)" points="75.945,130.73 75.945,142.828 76.438,143.113 
	76.438,130.444 "/>
<linearGradient id="SVGID_16_" gradientUnits="userSpaceOnUse" x1="1.9976" y1="143.7783" x2="4.434" y2="138.7829" gradientTransform="matrix(-1 0 0 1 75.4297 0)">
	<stop  offset="0" style="stop-color:#F1ECE5"/>
	<stop  offset="1" style="stop-color:#C6B6A2"/>
</linearGradient>
<polygon fill-rule="evenodd" clip-rule="evenodd" fill="url(#SVGID_16_)" points="71.516,145.954 71.023,145.67 75.945,142.828 
	76.438,143.113 "/>
<linearGradient id="SVGID_17_" gradientUnits="userSpaceOnUse" x1="-1.1069" y1="145.8975" x2="0.1387" y2="140.0372" gradientTransform="matrix(-1 0 0 1 75.4297 0)">
	<stop  offset="0" style="stop-color:#B6A49C"/>
	<stop  offset="1" style="stop-color:#9E8F88"/>
</linearGradient>
<polygon fill-rule="evenodd" clip-rule="evenodd" fill="url(#SVGID_17_)" points="75.452,143.113 75.945,142.828 76.438,143.113 "/>
<path fill-rule="evenodd" clip-rule="evenodd" fill="#DCCEC0" d="M70.53,132.277v-1.14l0,0l9.255-5.343v1.14v20.137l-9.255,5.343
	V132.277L70.53,132.277z M71.518,150.706l7.282-4.204v-18.998l-7.282,4.204V150.706z"/>
<linearGradient id="SVGID_18_" gradientUnits="userSpaceOnUse" x1="-13.5591" y1="108.9648" x2="25.5629" y2="176.7262" gradientTransform="matrix(-1 0 0 1 75.4297 0)">
	<stop  offset="0" style="stop-color:#B6A49C"/>
	<stop  offset="1" style="stop-color:#9E8F88"/>
</linearGradient>
<polygon fill-rule="evenodd" clip-rule="evenodd" fill="url(#SVGID_18_)" points="70.53,132.277 70.53,140.047 71.518,139.478 
	71.518,131.708 78.8,127.504 78.8,135.272 79.785,134.704 79.785,126.935 79.785,125.795 70.53,131.138 70.53,131.138 "/>
<polygon fill-rule="evenodd" clip-rule="evenodd" fill="#816C6F" points="72.085,139.665 72.085,138.271 74.885,136.654 
	74.885,138.049 "/>
<linearGradient id="SVGID_19_" gradientUnits="userSpaceOnUse" x1="39.0615" y1="75.8301" x2="118.2566" y2="213" gradientTransform="matrix(-1 0 0 1 75.4297 0)">
	<stop  offset="0" style="stop-color:#B6A49C"/>
	<stop  offset="1" style="stop-color:#9E8F88"/>
</linearGradient>
<polygon fill-rule="evenodd" clip-rule="evenodd" fill="url(#SVGID_19_)" points="50.555,52.258 0,23.297 0,129.875 53.996,160.822 
	53.996,132.138 54.982,132.708 54.982,130.216 53.996,129.646 53.996,60.435 54.982,61.004 54.982,54.814 55.968,55.384 
	55.968,44.626 50.555,41.501 "/>
<linearGradient id="SVGID_20_" gradientUnits="userSpaceOnUse" x1="-25.5059" y1="148.0117" x2="-0.2746" y2="128.9986" gradientTransform="matrix(-1 0 0 1 75.4297 0)">
	<stop  offset="0" style="stop-color:#B6A49C"/>
	<stop  offset="1" style="stop-color:#9E8F88"/>
</linearGradient>
<polygon fill-rule="evenodd" clip-rule="evenodd" fill="url(#SVGID_20_)" points="81.622,124.57 81.622,142.518 82.609,143.087 
	82.609,125.14 "/>
<path fill-rule="evenodd" clip-rule="evenodd" fill="#6E565A" d="M91.474,121.073v14.757c0,0.117-0.062,0.225-0.164,0.285
	l-7.686,4.633c-0.104,0.06-0.225,0.06-0.329,0c-0.104-0.062-0.164-0.164-0.164-0.285v-14.757c0-0.121,0.063-0.224,0.164-0.285
	l7.686-4.633c0.102-0.062,0.225-0.061,0.329,0C91.414,120.848,91.474,120.954,91.474,121.073z"/>
<path fill-rule="evenodd" clip-rule="evenodd" fill="#533B40" d="M91.474,121.073v1.726l-2.98,7.665l0,0l-5.362,3.096v-7.854
	c0-0.121,0.063-0.224,0.164-0.285l7.686-4.633c0.102-0.062,0.225-0.061,0.329,0C91.414,120.848,91.474,120.954,91.474,121.073z"/>
<polygon fill-rule="evenodd" clip-rule="evenodd" fill="#533B40" points="91.474,135.83 91.31,136.115 91.063,136.26 90.488,136.26 
	90.488,122.543 83.405,126.632 83.131,125.706 83.143,125.62 87.605,123.045 90.488,121.379 90.488,121.078 90.98,120.788 
	91.31,120.788 91.36,120.876 91.395,120.857 91.474,121.073 "/>
<linearGradient id="SVGID_21_" gradientUnits="userSpaceOnUse" x1="-11.8228" y1="121.0957" x2="-3.4384" y2="102.2641" gradientTransform="matrix(-1 0 0 1 75.4297 0)">
	<stop  offset="0" style="stop-color:#F1ECE5"/>
	<stop  offset="1" style="stop-color:#C6B6A2"/>
</linearGradient>
<polygon fill-rule="evenodd" clip-rule="evenodd" fill="url(#SVGID_21_)" points="81.622,124.571 92.46,118.314 93.447,118.884 
	82.609,125.142 "/>
<polygon fill-rule="evenodd" clip-rule="evenodd" fill="#B6A49C" points="91.474,121.162 91.474,135.691 92.46,136.26 
	92.46,120.592 "/>
<linearGradient id="SVGID_22_" gradientUnits="userSpaceOnUse" x1="-11.938" y1="136.6338" x2="-10.9728" y2="125.6019" gradientTransform="matrix(-1 0 0 1 75.4297 0)">
	<stop  offset="0" style="stop-color:#F1ECE5"/>
	<stop  offset="1" style="stop-color:#C6B6A2"/>
</linearGradient>
<polygon fill-rule="evenodd" clip-rule="evenodd" fill="url(#SVGID_22_)" points="83.595,141.379 82.609,140.81 91.474,135.691 
	92.46,136.26 "/>
<linearGradient id="SVGID_23_" gradientUnits="userSpaceOnUse" x1="-16.5137" y1="137.8984" x2="-15.0343" y2="132.7393" gradientTransform="matrix(-1 0 0 1 75.4297 0)">
	<stop  offset="0" style="stop-color:#B6A49C"/>
	<stop  offset="1" style="stop-color:#9E8F88"/>
</linearGradient>
<polygon fill-rule="evenodd" clip-rule="evenodd" fill="url(#SVGID_23_)" points="90.488,136.26 91.474,135.691 92.46,136.26 "/>
<path fill-rule="evenodd" clip-rule="evenodd" fill="#DCCEC0" d="M82.609,126.28v-1.139v-0.002l6.952-4.013l3.886-2.243v1.139
	v16.808l-10.838,6.257V126.28L82.609,126.28z M83.595,141.379l8.865-5.119v-15.668l-0.188,0.109l-8.678,5.009V141.379z"/>
<linearGradient id="SVGID_24_" gradientUnits="userSpaceOnUse" x1="-22.0527" y1="107.0273" x2="13.7525" y2="169.0438" gradientTransform="matrix(-1 0 0 1 75.4297 0)">
	<stop  offset="0" style="stop-color:#B6A49C"/>
	<stop  offset="1" style="stop-color:#9E8F88"/>
</linearGradient>
<polygon fill-rule="evenodd" clip-rule="evenodd" fill="url(#SVGID_24_)" points="82.609,126.28 82.609,133.073 83.595,132.504 
	83.595,125.71 92.272,120.701 92.46,120.592 92.46,123.376 93.447,120.84 93.447,120.022 93.447,118.884 89.562,121.127 
	82.609,125.14 82.609,125.142 "/>
<linearGradient id="SVGID_25_" gradientUnits="userSpaceOnUse" x1="0.2324" y1="162.8721" x2="25.4639" y2="143.8587" gradientTransform="matrix(-1 0 0 1 75.4297 0)">
	<stop  offset="0" style="stop-color:#B6A49C"/>
	<stop  offset="1" style="stop-color:#9E8F88"/>
</linearGradient>
<polygon fill-rule="evenodd" clip-rule="evenodd" fill="url(#SVGID_25_)" points="55.883,139.432 55.885,157.379 56.87,157.948 
	56.87,140.002 "/>
<path fill-rule="evenodd" clip-rule="evenodd" fill="#6E565A" d="M65.734,135.934v14.758c0,0.117-0.061,0.224-0.163,0.285
	l-7.687,4.633c-0.102,0.061-0.225,0.061-0.328,0c-0.104-0.062-0.165-0.164-0.165-0.285v-14.758c0-0.12,0.065-0.223,0.165-0.284
	l7.686-4.633c0.101-0.061,0.224-0.06,0.329,0C65.676,135.71,65.734,135.816,65.734,135.934z"/>
<path fill-rule="evenodd" clip-rule="evenodd" fill="#533B40" d="M65.734,135.934v7.67l-8.343,4.816v-7.854
	c0-0.12,0.065-0.223,0.165-0.284l7.686-4.633c0.101-0.061,0.224-0.06,0.329,0C65.676,135.71,65.734,135.816,65.734,135.934z"/>
<polygon fill-rule="evenodd" clip-rule="evenodd" fill="#533B40" points="65.734,150.691 65.571,150.977 65.323,151.121 
	64.749,151.121 64.749,137.404 57.667,141.493 57.392,140.566 57.403,140.481 61.866,137.906 64.749,136.241 64.749,135.938 
	65.242,135.649 65.571,135.649 65.621,135.738 65.655,135.719 65.734,135.934 "/>
<linearGradient id="SVGID_26_" gradientUnits="userSpaceOnUse" x1="13.915" y1="135.9561" x2="22.2977" y2="117.1282" gradientTransform="matrix(-1 0 0 1 75.4297 0)">
	<stop  offset="0" style="stop-color:#F1ECE5"/>
	<stop  offset="1" style="stop-color:#C6B6A2"/>
</linearGradient>
<polygon fill-rule="evenodd" clip-rule="evenodd" fill="url(#SVGID_26_)" points="55.883,139.432 66.723,133.176 67.708,133.744 
	56.87,140.003 "/>
<polygon fill-rule="evenodd" clip-rule="evenodd" fill="#B6A49C" points="65.734,136.022 65.734,150.552 66.721,151.121 
	66.721,135.453 "/>
<linearGradient id="SVGID_27_" gradientUnits="userSpaceOnUse" x1="13.8008" y1="151.4941" x2="14.7661" y2="140.4601" gradientTransform="matrix(-1 0 0 1 75.4297 0)">
	<stop  offset="0" style="stop-color:#F1ECE5"/>
	<stop  offset="1" style="stop-color:#C6B6A2"/>
</linearGradient>
<polygon fill-rule="evenodd" clip-rule="evenodd" fill="url(#SVGID_27_)" points="57.855,156.24 56.87,155.671 65.734,150.552 
	66.721,151.121 "/>
<linearGradient id="SVGID_28_" gradientUnits="userSpaceOnUse" x1="9.2246" y1="152.7598" x2="10.7049" y2="147.5975" gradientTransform="matrix(-1 0 0 1 75.4297 0)">
	<stop  offset="0" style="stop-color:#B6A49C"/>
	<stop  offset="1" style="stop-color:#9E8F88"/>
</linearGradient>
<polygon fill-rule="evenodd" clip-rule="evenodd" fill="url(#SVGID_28_)" points="64.749,151.121 65.734,150.552 66.721,151.121 "/>
<path fill-rule="evenodd" clip-rule="evenodd" fill="#DCCEC0" d="M56.87,141.141v-1.138v-0.001l6.952-4.014l3.886-2.244v1.14v16.808
	l-10.838,6.257V141.141L56.87,141.141z M57.855,156.24l8.865-5.119v-15.668l-0.188,0.108l-8.678,5.01V156.24z"/>
<linearGradient id="SVGID_29_" gradientUnits="userSpaceOnUse" x1="-1.856" y1="114.8643" x2="42.8019" y2="192.2139" gradientTransform="matrix(-1 0 0 1 75.4297 0)">
	<stop  offset="0" style="stop-color:#B6A49C"/>
	<stop  offset="1" style="stop-color:#9E8F88"/>
</linearGradient>
<polygon fill-rule="evenodd" clip-rule="evenodd" fill="url(#SVGID_29_)" points="56.87,141.141 56.87,147.934 57.855,147.364 
	57.855,140.571 66.533,135.562 66.721,135.453 66.721,142.245 67.708,141.677 67.708,134.884 67.708,133.744 63.822,135.988 
	56.87,140.002 56.87,140.003 "/>
<linearGradient id="SVGID_30_" gradientUnits="userSpaceOnUse" x1="25.0088" y1="88.7871" x2="66.356" y2="163.3795" gradientTransform="matrix(-1 0 0 1 75.4297 0)">
	<stop  offset="0" style="stop-color:#8B7973"/>
	<stop  offset="1" style="stop-color:#66544D"/>
</linearGradient>
<polygon fill-rule="evenodd" clip-rule="evenodd" fill="url(#SVGID_30_)" points="0.031,129.893 53.996,160.822 53.996,132.138 
	0.031,101.209 "/>
<polygon fill-rule="evenodd" clip-rule="evenodd" fill="#B78160" points="60.15,140.995 54.982,133.036 54.64,132.511 
	53.996,132.138 53.996,138.331 60.15,141.891 "/>
<polygon fill-rule="evenodd" clip-rule="evenodd" fill="#F7D47B" points="54.982,133.036 54.982,133.036 54.982,133.036 
	54.982,132.708 95.334,109.411 95.367,109.392 95.522,109.631 95.522,109.631 100.69,117.589 60.15,140.995 "/>
<polygon fill-rule="evenodd" clip-rule="evenodd" fill="#EFC872" points="60.15,140.995 100.69,117.589 100.69,118.485 
	60.15,141.891 "/>
<polygon fill-rule="evenodd" clip-rule="evenodd" fill="#B78160" points="54.64,132.511 54.982,132.708 95.334,109.411 
	95.367,109.392 95.522,109.631 95.522,109.631 95.594,109.741 55.053,133.147 "/>
<g>
	
		<linearGradient id="SVGID_31_" gradientUnits="userSpaceOnUse" x1="1.0098" y1="116.2549" x2="2.199" y2="114.195" gradientTransform="matrix(-1 0 0 1 75.4297 0)">
		<stop  offset="0" style="stop-color:#B6A49C"/>
		<stop  offset="1" style="stop-color:#9E8F88"/>
	</linearGradient>
	<path fill-rule="evenodd" clip-rule="evenodd" fill="url(#SVGID_31_)" d="M56.658,126.043l33.087-19.103l0.97-2.487v0.141v-1.14
		l-33.086,19.103l-0.971,2.487C56.658,129.692,56.658,121.396,56.658,126.043z"/>
	<g>
		
			<linearGradient id="SVGID_32_" gradientUnits="userSpaceOnUse" x1="-18.6353" y1="106.6191" x2="-9.9295" y2="81.3358" gradientTransform="matrix(-1 0 0 1 75.4297 0)">
			<stop  offset="0" style="stop-color:#8B7973"/>
			<stop  offset="1" style="stop-color:#66544D"/>
		</linearGradient>
		<polygon fill-rule="evenodd" clip-rule="evenodd" fill="url(#SVGID_32_)" points="89.729,88.601 89.729,102.885 90.715,103.454 
			90.715,88.03 		"/>
		
			<linearGradient id="SVGID_33_" gradientUnits="userSpaceOnUse" x1="-0.8213" y1="199.3506" x2="-32.2849" y2="-24.5248" gradientTransform="matrix(-1 0 0 1 75.4297 0)">
			<stop  offset="0" style="stop-color:#B6A49C"/>
			<stop  offset="1" style="stop-color:#9E8F88"/>
		</linearGradient>
		<polygon fill-rule="evenodd" clip-rule="evenodd" fill="url(#SVGID_33_)" points="88.742,103.454 89.729,102.885 90.715,103.454 
					"/>
		<polygon fill-rule="evenodd" clip-rule="evenodd" fill="#533B40" points="89.071,88.979 89.071,102.505 57.629,120.659 
			57.629,107.133 		"/>
		<polygon fill-rule="evenodd" clip-rule="evenodd" fill="#6E565A" points="57.629,107.854 88.759,89.882 88.759,102.686 
			57.629,120.659 		"/>
		
			<linearGradient id="SVGID_34_" gradientUnits="userSpaceOnUse" x1="16.5049" y1="123.3408" x2="18.0801" y2="123.3408" gradientTransform="matrix(-1 0 0 1 75.4297 0)">
			<stop  offset="0" style="stop-color:#B6A49C"/>
			<stop  offset="1" style="stop-color:#9E8F88"/>
		</linearGradient>
		<polygon fill-rule="evenodd" clip-rule="evenodd" fill="url(#SVGID_34_)" points="57.629,122.557 57.629,123.557 58.614,124.125 
			58.614,123.126 		"/>
		<polygon fill-rule="evenodd" clip-rule="evenodd" fill="#DCCEC0" points="58.614,124.125 91.701,105.022 91.701,104.023 
			58.614,123.126 		"/>
		<polygon fill-rule="evenodd" clip-rule="evenodd" fill="#F1ECE5" points="57.629,122.557 57.629,121.418 88.759,103.444 
			90.716,103.454 91.701,104.023 58.614,123.126 		"/>
		<path fill-rule="evenodd" clip-rule="evenodd" fill="#E98F82" d="M89.729,102.885V88.601l-0.658,0.379v3.979l-4.747,2.74v-3.978
			l-0.657,0.38v3.979l-4.747,2.739v-3.978l-0.658,0.38v3.978l-4.747,2.741v-3.979l-0.657,0.38v3.979l-4.749,2.74v-3.978
			l-0.656,0.379v3.979l-4.748,2.741v-3.979l-0.657,0.38v3.979l-4.418,2.551v0.76l4.418-2.551v8.786
			c0.22-0.125,0.439-0.252,0.657-0.379v-8.788l4.748-2.74v8.787c0.22-0.126,0.438-0.253,0.656-0.38v-8.786l4.749-2.741v8.787
			c0.219-0.126,0.438-0.253,0.657-0.379v-8.788l4.747-2.741v8.788c0.219-0.127,0.438-0.254,0.658-0.38v-8.787l4.747-2.741v8.787
			c0.219-0.127,0.438-0.254,0.657-0.379v-8.788l4.747-2.741v8.788l-31.442,18.154v0.759L89.729,102.885z"/>
		<path fill-rule="evenodd" clip-rule="evenodd" fill="#83434B" d="M89.729,102.885l-0.971,0.56v-0.759l0.313-0.181v-8.788
			l-0.313,0.182v-0.761l0.313-0.18v-3.979l0.658-0.379V102.885L89.729,102.885z M84.324,92.441l-0.657,0.38v-0.721l0.657-0.38
			V92.441L84.324,92.441z M78.92,95.563l-0.658,0.379v-0.721l0.658-0.38V95.563L78.92,95.563z M73.515,98.683l-0.657,0.38v-0.722
			l0.657-0.38V98.683L73.515,98.683z M68.108,101.804l-0.656,0.379v-0.722l0.656-0.379V101.804L68.108,101.804z M62.047,105.303
			v-0.721l0.657-0.38v0.721L62.047,105.303z"/>
	</g>
</g>
<g>
	
		<linearGradient id="SVGID_35_" gradientUnits="userSpaceOnUse" x1="1.0103" y1="95.8203" x2="2.1995" y2="93.7605" gradientTransform="matrix(-1 0 0 1 75.4297 0)">
		<stop  offset="0" style="stop-color:#B6A49C"/>
		<stop  offset="1" style="stop-color:#9E8F88"/>
	</linearGradient>
	<path fill-rule="evenodd" clip-rule="evenodd" fill="url(#SVGID_35_)" d="M56.658,105.608l33.087-19.103l0.97-2.487v0.141v-1.14
		l-33.086,19.103l-0.971,2.487C56.658,109.258,56.658,100.961,56.658,105.608z"/>
	<g>
		
			<linearGradient id="SVGID_36_" gradientUnits="userSpaceOnUse" x1="-18.6357" y1="86.1846" x2="-9.93" y2="60.9013" gradientTransform="matrix(-1 0 0 1 75.4297 0)">
			<stop  offset="0" style="stop-color:#8B7973"/>
			<stop  offset="1" style="stop-color:#66544D"/>
		</linearGradient>
		<polygon fill-rule="evenodd" clip-rule="evenodd" fill="url(#SVGID_36_)" points="89.729,68.165 89.729,82.449 90.715,83.02 
			90.715,67.596 		"/>
		
			<linearGradient id="SVGID_37_" gradientUnits="userSpaceOnUse" x1="-0.8047" y1="179.0332" x2="-32.307" y2="-45.1173" gradientTransform="matrix(-1 0 0 1 75.4297 0)">
			<stop  offset="0" style="stop-color:#B6A49C"/>
			<stop  offset="1" style="stop-color:#9E8F88"/>
		</linearGradient>
		<polygon fill-rule="evenodd" clip-rule="evenodd" fill="url(#SVGID_37_)" points="88.742,83.02 89.729,82.449 90.715,83.02 		"/>
		<polygon fill-rule="evenodd" clip-rule="evenodd" fill="#533B40" points="89.071,68.544 89.071,82.07 57.629,100.225 
			57.629,86.698 		"/>
		<polygon fill-rule="evenodd" clip-rule="evenodd" fill="#6E565A" points="57.629,87.419 88.759,69.447 88.759,82.251 
			57.629,100.225 		"/>
		
			<linearGradient id="SVGID_38_" gradientUnits="userSpaceOnUse" x1="16.5049" y1="102.9063" x2="18.0801" y2="102.9063" gradientTransform="matrix(-1 0 0 1 75.4297 0)">
			<stop  offset="0" style="stop-color:#B6A49C"/>
			<stop  offset="1" style="stop-color:#9E8F88"/>
		</linearGradient>
		<polygon fill-rule="evenodd" clip-rule="evenodd" fill="url(#SVGID_38_)" points="57.629,102.122 57.629,103.121 58.614,103.69 
			58.614,102.691 		"/>
		<polygon fill-rule="evenodd" clip-rule="evenodd" fill="#DCCEC0" points="58.614,103.69 91.701,84.588 91.701,83.589 
			58.614,102.691 		"/>
		<polygon fill-rule="evenodd" clip-rule="evenodd" fill="#F1ECE5" points="57.629,102.122 57.629,100.983 88.759,83.011 
			90.716,83.02 91.701,83.589 58.614,102.691 		"/>
		<path fill-rule="evenodd" clip-rule="evenodd" fill="#E98F82" d="M89.729,82.449V68.165l-0.658,0.38v3.979l-4.747,2.74v-3.979
			l-0.657,0.381v3.977l-4.747,2.741v-3.978l-0.658,0.38v3.978l-4.747,2.741v-3.979l-0.657,0.38v3.979l-4.749,2.741v-3.979
			l-0.656,0.379v3.979l-4.748,2.741v-3.979l-0.657,0.381v3.979l-4.418,2.551v0.76l4.418-2.552v8.788
			c0.22-0.127,0.439-0.253,0.657-0.38v-8.788l4.748-2.74v8.787c0.22-0.126,0.438-0.253,0.656-0.38v-8.786l4.749-2.741v8.788
			c0.219-0.127,0.438-0.254,0.657-0.381v-8.787l4.747-2.741v8.788c0.219-0.127,0.438-0.254,0.658-0.381v-8.786l4.747-2.741v8.787
			c0.219-0.127,0.438-0.253,0.657-0.38v-8.787l4.747-2.741v8.788l-31.442,18.154v0.759L89.729,82.449z"/>
		<path fill-rule="evenodd" clip-rule="evenodd" fill="#83434B" d="M89.729,82.449l-0.971,0.562v-0.76l0.313-0.181v-8.788
			l-0.313,0.181v-0.76l0.313-0.18v-3.979l0.658-0.38V82.449L89.729,82.449z M84.324,72.007l-0.657,0.38v-0.721l0.657-0.381V72.007
			L84.324,72.007z M78.92,75.128l-0.658,0.379v-0.721l0.658-0.38V75.128L78.92,75.128z M73.515,78.247l-0.657,0.381v-0.722
			l0.657-0.38V78.247L73.515,78.247z M68.108,81.368l-0.656,0.38v-0.722l0.656-0.379V81.368L68.108,81.368z M62.047,84.868v-0.721
			l0.657-0.381v0.722L62.047,84.868z"/>
	</g>
</g>
<g>
	
		<linearGradient id="SVGID_39_" gradientUnits="userSpaceOnUse" x1="1.0083" y1="75.3887" x2="2.1977" y2="73.3286" gradientTransform="matrix(-1 0 0 1 75.4297 0)">
		<stop  offset="0" style="stop-color:#B6A49C"/>
		<stop  offset="1" style="stop-color:#9E8F88"/>
	</linearGradient>
	<path fill-rule="evenodd" clip-rule="evenodd" fill="url(#SVGID_39_)" d="M56.658,85.174l33.087-19.103l0.97-2.487v0.14v-1.139
		L57.629,81.688l-0.971,2.487C56.658,88.823,56.658,80.526,56.658,85.174z"/>
	<g>
		
			<linearGradient id="SVGID_40_" gradientUnits="userSpaceOnUse" x1="-18.6353" y1="65.75" x2="-9.9298" y2="40.4675" gradientTransform="matrix(-1 0 0 1 75.4297 0)">
			<stop  offset="0" style="stop-color:#8B7973"/>
			<stop  offset="1" style="stop-color:#66544D"/>
		</linearGradient>
		<polygon fill-rule="evenodd" clip-rule="evenodd" fill="url(#SVGID_40_)" points="89.729,47.73 89.729,62.015 90.715,62.585 
			90.715,47.162 		"/>
		
			<linearGradient id="SVGID_41_" gradientUnits="userSpaceOnUse" x1="-0.8047" y1="158.5986" x2="-32.307" y2="-65.5519" gradientTransform="matrix(-1 0 0 1 75.4297 0)">
			<stop  offset="0" style="stop-color:#B6A49C"/>
			<stop  offset="1" style="stop-color:#9E8F88"/>
		</linearGradient>
		<polygon fill-rule="evenodd" clip-rule="evenodd" fill="url(#SVGID_41_)" points="88.742,62.585 89.729,62.015 90.715,62.585 		
			"/>
		<polygon fill-rule="evenodd" clip-rule="evenodd" fill="#533B40" points="89.071,48.109 89.071,61.636 57.629,79.789 
			57.629,66.264 		"/>
		<polygon fill-rule="evenodd" clip-rule="evenodd" fill="#6E565A" points="57.629,66.984 88.759,49.011 88.759,61.815 
			57.629,79.789 		"/>
		
			<linearGradient id="SVGID_42_" gradientUnits="userSpaceOnUse" x1="16.5049" y1="82.4717" x2="18.0801" y2="82.4717" gradientTransform="matrix(-1 0 0 1 75.4297 0)">
			<stop  offset="0" style="stop-color:#B6A49C"/>
			<stop  offset="1" style="stop-color:#9E8F88"/>
		</linearGradient>
		<polygon fill-rule="evenodd" clip-rule="evenodd" fill="url(#SVGID_42_)" points="57.629,81.688 57.629,82.687 58.614,83.256 
			58.614,82.257 		"/>
		<polygon fill-rule="evenodd" clip-rule="evenodd" fill="#DCCEC0" points="58.614,83.256 91.701,64.153 91.701,63.154 
			58.614,82.257 		"/>
		<polygon fill-rule="evenodd" clip-rule="evenodd" fill="#F1ECE5" points="57.629,81.688 57.629,80.549 88.759,62.576 
			90.716,62.585 91.701,63.154 58.614,82.257 		"/>
		<path fill-rule="evenodd" clip-rule="evenodd" fill="#E98F82" d="M89.729,62.015V47.73l-0.658,0.381v3.978l-4.747,2.74v-3.979
			l-0.657,0.38v3.978l-4.747,2.741v-3.978l-0.658,0.379v3.979l-4.747,2.741v-3.979l-0.657,0.38v3.979l-4.749,2.741v-3.979
			l-0.656,0.38v3.978l-4.748,2.741v-3.979l-0.657,0.381v3.979l-4.418,2.551v0.76l4.418-2.552v8.788
			c0.22-0.127,0.439-0.253,0.657-0.38V68.07l4.748-2.741v8.788c0.22-0.127,0.438-0.253,0.656-0.38V64.95l4.749-2.74v8.786
			c0.219-0.125,0.438-0.252,0.657-0.379v-8.788l4.747-2.74v8.788c0.219-0.127,0.438-0.254,0.658-0.381V58.71l4.747-2.741v8.787
			c0.219-0.127,0.438-0.253,0.657-0.38v-8.787l4.747-2.741v8.788L57.629,79.789v0.76L89.729,62.015z"/>
		<path fill-rule="evenodd" clip-rule="evenodd" fill="#83434B" d="M89.729,62.015l-0.971,0.562v-0.761l0.313-0.18v-8.788
			l-0.313,0.181v-0.76l0.313-0.18v-3.978l0.658-0.381V62.015L89.729,62.015z M84.324,51.572l-0.657,0.38V51.23l0.657-0.38V51.572
			L84.324,51.572z M78.92,54.693l-0.658,0.379v-0.722l0.658-0.379V54.693L78.92,54.693z M73.515,57.813l-0.657,0.381v-0.722
			l0.657-0.38V57.813L73.515,57.813z M68.108,60.934l-0.656,0.38v-0.721l0.656-0.38V60.934L68.108,60.934z M62.047,64.434v-0.721
			l0.657-0.381v0.722L62.047,64.434z"/>
	</g>
</g>
<g>
	<polygon fill-rule="evenodd" clip-rule="evenodd" fill="#A88F87" points="58.436,33.111 67.463,27.898 61.156,24.256 
		50.076,24.256 41.048,29.469 47.354,33.111 	"/>
	<polygon fill-rule="evenodd" clip-rule="evenodd" fill="#F1EEEB" points="52.128,18.389 58.436,22.031 67.463,16.818 
		61.156,13.177 	"/>
	<polygon fill-rule="evenodd" clip-rule="evenodd" fill="#DED5CB" points="67.463,16.818 58.436,22.031 58.436,33.111 
		67.463,27.898 	"/>
	
		<linearGradient id="SVGID_43_" gradientUnits="userSpaceOnUse" x1="36.7559" y1="27.2026" x2="-34.4236" y2="20.9752" gradientTransform="matrix(-1 0 0 1 75.4297 0)">
		<stop  offset="0" style="stop-color:#B6A49C"/>
		<stop  offset="1" style="stop-color:#9E8F88"/>
	</linearGradient>
	<polygon fill-rule="evenodd" clip-rule="evenodd" fill="url(#SVGID_43_)" points="52.128,18.389 58.436,22.031 58.435,33.111 
		52.127,29.469 	"/>
</g>
<g>
	<polygon fill-rule="evenodd" clip-rule="evenodd" fill="#A88F87" points="36.594,30.044 49.786,22.428 37.873,15.55 32.86,15.55 
		19.669,23.167 31.583,30.044 	"/>
	<polygon fill-rule="evenodd" clip-rule="evenodd" fill="#F1EEEB" points="24.68,18.153 36.594,25.031 49.786,17.416 37.873,10.538 
			"/>
	<polygon fill-rule="evenodd" clip-rule="evenodd" fill="#DED5CB" points="49.786,17.416 36.594,25.031 36.594,30.044 
		49.786,22.428 	"/>
	
		<linearGradient id="SVGID_44_" gradientUnits="userSpaceOnUse" x1="47.957" y1="24.376" x2="15.9189" y2="21.573" gradientTransform="matrix(-1 0 0 1 75.4297 0)">
		<stop  offset="0" style="stop-color:#B6A49C"/>
		<stop  offset="1" style="stop-color:#9E8F88"/>
	</linearGradient>
	<polygon fill-rule="evenodd" clip-rule="evenodd" fill="url(#SVGID_44_)" points="24.68,18.153 36.594,25.031 36.594,30.044 
		24.68,23.167 	"/>
</g>
</svg>
