<?xml version="1.0" encoding="utf-8"?>
<!-- Generator: Adobe Illustrator 15.0.0, SVG Export Plug-In . SVG Version: 6.00 Build 0)  -->
<!DOCTYPE svg PUBLIC "-//W3C//DTD SVG 1.1//EN" "http://www.w3.org/Graphics/SVG/1.1/DTD/svg11.dtd">
<svg version="1.1" id="Layer_1" xmlns="http://www.w3.org/2000/svg" xmlns:xlink="http://www.w3.org/1999/xlink" x="0px" y="0px"
	 width="95.295px" height="115.677px" viewBox="0 0 95.295 115.677" enable-background="new 0 0 95.295 115.677"
	 xml:space="preserve">
<rect x="75.623" y="91.202" fill-rule="evenodd" clip-rule="evenodd" fill="#B9A8A2" width="3.881" height="3.831"/>
<polygon fill-rule="evenodd" clip-rule="evenodd" fill="#ECDDD1" points="7.488,32.743 51.525,7.318 80.401,23.764 36.364,49.19 "/>
<linearGradient id="SVGID_1_" gradientUnits="userSpaceOnUse" x1="32.0215" y1="32.0347" x2="25.2008" y2="37.9638" gradientTransform="matrix(-1 0 0 1 85.2949 0)">
	<stop  offset="0" style="stop-color:#A88F87"/>
	<stop  offset="1" style="stop-color:#8B7973"/>
</linearGradient>
<polygon fill-rule="evenodd" clip-rule="evenodd" fill="url(#SVGID_1_)" points="72.378,19.131 80.401,23.764 36.364,49.19 
	38.342,50.556 "/>
<polygon fill-rule="evenodd" clip-rule="evenodd" fill="#A88F87" points="50.028,8.181 51.525,7.318 80.401,23.764 36.364,49.19 
	34.867,48.324 77.408,23.763 "/>
<polygon fill-rule="evenodd" clip-rule="evenodd" fill="#8B7973" points="10.082,31.246 7.488,29.748 51.525,4.322 80.403,20.768 
	77.809,22.266 51.525,7.318 "/>
<polygon fill-rule="evenodd" clip-rule="evenodd" fill="#C4A98F" points="10.082,31.246 7.488,29.748 51.525,4.322 51.525,7.318 "/>
<polygon fill-rule="evenodd" clip-rule="evenodd" fill="#8B7973" points="50.028,8.181 51.525,4.322 51.525,7.318 "/>
<path fill-rule="evenodd" clip-rule="evenodd" fill="#E3D2C1" d="M0,29.748l36.364,20.769L87.89,20.77L51.525,0L0,29.748L0,29.748z
	 M51.525,4.322L80.401,20.77L36.364,46.193L7.488,29.748L51.525,4.322z"/>
<linearGradient id="SVGID_2_" gradientUnits="userSpaceOnUse" x1="36.3579" y1="28.4419" x2="13.2781" y2="41.2352" gradientTransform="matrix(-1 0 0 1 85.2949 0)">
	<stop  offset="0" style="stop-color:#8B7973"/>
	<stop  offset="1" style="stop-color:#66544D"/>
</linearGradient>
<polygon fill-rule="evenodd" clip-rule="evenodd" fill="url(#SVGID_2_)" points="87.888,20.768 80.401,20.768 80.401,20.77 
	36.364,46.193 39.839,48.427 36.095,50.589 36.364,50.516 87.89,20.77 "/>
<polygon fill-rule="evenodd" clip-rule="evenodd" fill="#C4A98F" points="41.524,115.677 93.049,85.929 93.049,5.456 41.524,35.204 
	"/>
<polygon fill-rule="evenodd" clip-rule="evenodd" fill="#8B7973" points="93.049,35.696 93.049,32.859 41.524,62.607 41.524,67.639 
	91.944,38.528 "/>
<polygon fill-rule="evenodd" clip-rule="evenodd" fill="#8B7973" points="77.369,95.033 86.184,89.943 87.289,87.111 87.289,66.313 
	88.299,65.73 88.299,64.432 87.289,65.016 78.474,70.105 78.474,70.105 77.463,70.689 76.358,73.521 76.358,74.819 77.369,74.235 
	"/>
<polygon fill-rule="evenodd" clip-rule="evenodd" fill="#8B7973" points="45.711,111.664 71.71,96.653 72.815,93.821 72.815,76.692 
	73.826,74.1 73.826,72.803 68.392,75.941 46.816,88.397 46.815,88.397 45.805,88.981 44.701,91.814 44.701,93.111 45.711,92.527 
	45.711,98.671 42.172,107.76 42.172,108.78 45.711,106.737 "/>
<linearGradient id="SVGID_3_" gradientUnits="userSpaceOnUse" x1="17.0273" y1="25.9478" x2="17.9991" y2="24.2646" gradientTransform="matrix(-1 0 0 1 85.2949 0)">
	<stop  offset="0" style="stop-color:#F6C27A"/>
	<stop  offset="0.4" style="stop-color:#DFAD6E"/>
	<stop  offset="1" style="stop-color:#B28150"/>
</linearGradient>
<polygon fill-rule="evenodd" clip-rule="evenodd" fill="url(#SVGID_3_)" points="41.524,42.129 93.049,12.382 93.049,6.364 
	41.524,36.11 "/>
<polygon fill-rule="evenodd" clip-rule="evenodd" fill="#6441A5" points="41.524,62.607 93.049,32.858 93.049,8.467 41.524,38.214 
	"/>
<polygon fill-rule="evenodd" clip-rule="evenodd" fill="#4C3584" points="41.524,40.631 93.049,10.886 93.049,8.467 41.524,38.214 
	"/>
<polygon fill-rule="evenodd" clip-rule="evenodd" fill="#DED5CB" points="41.524,39.179 95.295,8.136 95.295,5.456 41.524,36.5 "/>
<linearGradient id="SVGID_4_" gradientUnits="userSpaceOnUse" x1="8.0962" y1="16.2769" x2="82.7014" y2="90.882" gradientTransform="matrix(-1 0 0 1 85.2949 0)">
	<stop  offset="0" style="stop-color:#8B7973"/>
	<stop  offset="1" style="stop-color:#66544D"/>
</linearGradient>
<polygon fill-rule="evenodd" clip-rule="evenodd" fill="url(#SVGID_4_)" points="41.524,115.677 0,91.929 0,29.748 41.524,53.495 
	"/>
<rect x="7.271" y="45.917" fill-rule="evenodd" clip-rule="evenodd" fill="#533B40" width="0.749" height="44.135"/>
<rect x="5.399" y="45.168" fill-rule="evenodd" clip-rule="evenodd" fill="#533B40" width="0.749" height="44.135"/>
<polygon fill-rule="evenodd" clip-rule="evenodd" fill="#4C3584" points="41.524,62.607 36.364,59.627 36.364,34.903 41.524,37.883 
	"/>
<polygon fill-rule="evenodd" clip-rule="evenodd" fill="#B6A49C" points="41.524,39.179 34.119,34.903 34.119,32.224 41.524,36.5 
	"/>
<path fill-rule="evenodd" clip-rule="evenodd" fill="#AD7B43" d="M77.65,71.877l0.45-0.258c0.059-0.036,0.128-0.036,0.187,0
	c0.059,0.033,0.094,0.095,0.094,0.16v22.604L88.917,88.3V65.479c0-0.067,0.037-0.127,0.094-0.16l0.824-0.477
	c0.059-0.033,0.094-0.092,0.094-0.162v-0.864c0-0.069-0.035-0.128-0.094-0.162c-0.06-0.033-0.128-0.033-0.188,0
	c-3.487,2.014-8.698,5.021-12.185,7.035c-0.059,0.035-0.094,0.095-0.094,0.162v0.866c0,0.066,0.035,0.126,0.094,0.16
	C77.522,71.914,77.591,71.914,77.65,71.877z"/>
<polygon fill-rule="evenodd" clip-rule="evenodd" fill="#B6A49C" points="78.381,71.457 78.381,94.385 79.504,95.033 79.504,72.105 
	"/>
<polygon fill-rule="evenodd" clip-rule="evenodd" fill="#DCCEC0" points="79.504,70.809 87.795,66.021 87.795,87.653 79.504,92.44 
	"/>
<linearGradient id="SVGID_5_" gradientUnits="userSpaceOnUse" x1="-3.0171" y1="88.7827" x2="3.9516" y2="58.5978" gradientTransform="matrix(-1 0 0 1 85.2949 0)">
	<stop  offset="0" style="stop-color:#B6A49C"/>
	<stop  offset="1" style="stop-color:#9E8F88"/>
</linearGradient>
<polygon fill-rule="evenodd" clip-rule="evenodd" fill="url(#SVGID_5_)" points="79.866,72.759 79.866,70.565 87.795,65.988 
	87.795,87.653 86.69,88.29 86.69,68.82 "/>
<polygon fill-rule="evenodd" clip-rule="evenodd" fill="#533B40" points="80.626,73.254 85.669,70.341 85.669,84.119 80.626,87.03 
	"/>
<polygon fill-rule="evenodd" clip-rule="evenodd" fill="#6E565A" points="85.117,84.436 80.626,87.03 80.626,73.703 85.116,71.111 
	"/>
<linearGradient id="SVGID_6_" gradientUnits="userSpaceOnUse" x1="1.3931" y1="66.7515" x2="5.8764" y2="56.6817" gradientTransform="matrix(-1 0 0 1 85.2949 0)">
	<stop  offset="0" style="stop-color:#F1ECE5"/>
	<stop  offset="1" style="stop-color:#C6B6A2"/>
</linearGradient>
<polygon fill-rule="evenodd" clip-rule="evenodd" fill="url(#SVGID_6_)" points="77.369,70.744 89.929,63.492 91.053,64.14 
	78.493,71.392 "/>
<polygon fill-rule="evenodd" clip-rule="evenodd" fill="#B6A49C" points="77.369,70.744 77.371,72.041 78.493,72.689 78.493,71.392 
	"/>
<linearGradient id="SVGID_7_" gradientUnits="userSpaceOnUse" x1="-11.0684" y1="96.978" x2="3.3351" y2="61.3282" gradientTransform="matrix(-1 0 0 1 85.2949 0)">
	<stop  offset="0" style="stop-color:#B6A49C"/>
	<stop  offset="1" style="stop-color:#9E8F88"/>
</linearGradient>
<polygon fill-rule="evenodd" clip-rule="evenodd" fill="url(#SVGID_7_)" points="87.795,67.317 87.795,87.653 88.917,88.3 
	88.917,66.668 "/>
<linearGradient id="SVGID_8_" gradientUnits="userSpaceOnUse" x1="1.5913" y1="89.3296" x2="5.4782" y2="81.3604" gradientTransform="matrix(-1 0 0 1 85.2949 0)">
	<stop  offset="0" style="stop-color:#F1ECE5"/>
	<stop  offset="1" style="stop-color:#C6B6A2"/>
</linearGradient>
<polygon fill-rule="evenodd" clip-rule="evenodd" fill="url(#SVGID_8_)" points="80.626,93.088 79.504,92.439 87.795,87.653 
	88.917,88.3 "/>
<polygon fill-rule="evenodd" clip-rule="evenodd" fill="#B6A49C" points="86.672,88.3 87.795,87.653 88.917,88.3 "/>
<linearGradient id="SVGID_9_" gradientUnits="userSpaceOnUse" x1="-2.2637" y1="84.6401" x2="1.2995" y2="67.8767" gradientTransform="matrix(-1 0 0 1 85.2949 0)">
	<stop  offset="0" style="stop-color:#B6A49C"/>
	<stop  offset="1" style="stop-color:#9E8F88"/>
</linearGradient>
<polygon fill-rule="evenodd" clip-rule="evenodd" fill="url(#SVGID_9_)" points="85.669,70.341 85.669,84.119 86.23,84.442 
	86.23,70.018 "/>
<linearGradient id="SVGID_10_" gradientUnits="userSpaceOnUse" x1="2.4873" y1="85.2007" x2="5.2628" y2="79.5101" gradientTransform="matrix(-1 0 0 1 85.2949 0)">
	<stop  offset="0" style="stop-color:#F1ECE5"/>
	<stop  offset="1" style="stop-color:#C6B6A2"/>
</linearGradient>
<polygon fill-rule="evenodd" clip-rule="evenodd" fill="url(#SVGID_10_)" points="80.626,87.678 80.064,87.353 85.669,84.119 
	86.23,84.442 "/>
<linearGradient id="SVGID_11_" gradientUnits="userSpaceOnUse" x1="-1.0459" y1="87.6001" x2="0.3668" y2="80.954" gradientTransform="matrix(-1 0 0 1 85.2949 0)">
	<stop  offset="0" style="stop-color:#B6A49C"/>
	<stop  offset="1" style="stop-color:#9E8F88"/>
</linearGradient>
<polygon fill-rule="evenodd" clip-rule="evenodd" fill="url(#SVGID_11_)" points="85.108,84.442 85.669,84.119 86.23,84.442 "/>
<path fill-rule="evenodd" clip-rule="evenodd" fill="#DCCEC0" d="M78.493,72.689v-1.297l1.012-0.583v-0.002l10.537-6.083
	l1.012-0.584v1.297l-1.012,0.584v22.928l-10.537,6.084V72.105L78.493,72.689L78.493,72.689z M80.626,93.088l8.292-4.788
	l-0.001-21.632l-8.291,4.788V93.088z"/>
<polygon fill-rule="evenodd" clip-rule="evenodd" fill="#816C6F" points="81.273,80.515 81.273,78.929 84.461,77.088 84.461,78.675 
	"/>
<polygon fill-rule="evenodd" clip-rule="evenodd" fill="#F1EEEB" points="34.119,32.224 41.524,36.5 95.295,5.456 87.89,1.179 "/>
<path fill-rule="evenodd" clip-rule="evenodd" fill="#A97842" d="M46.086,90.116c-0.058,0.034-0.128,0.034-0.187,0
	c-0.06-0.034-0.094-0.096-0.094-0.162v-0.864c0-0.068,0.035-0.129,0.094-0.162c3.486-2.013,24.16-13.95,27.646-15.962
	c0.059-0.034,0.127-0.035,0.188,0c0.06,0.033,0.094,0.093,0.094,0.162v0.864c0,0.069-0.035,0.128-0.094,0.163l-0.824,0.474
	c-0.058,0.036-0.093,0.095-0.093,0.163v18.92c0,0.07-0.036,0.13-0.094,0.163l-25.625,14.795c-0.057,0.033-0.127,0.033-0.187,0
	c-0.059-0.036-0.093-0.096-0.093-0.163V90.018c0-0.066-0.034-0.128-0.093-0.162c-0.06-0.034-0.13-0.034-0.188,0L46.086,90.116
	L46.086,90.116z M47.939,89.155v17.406c0,0.069,0.035,0.128,0.094,0.163c0.06,0.033,0.127,0.033,0.187,0l23.377-13.498
	c0.061-0.033,0.095-0.096,0.095-0.162V75.656c0-0.067-0.034-0.127-0.095-0.163c-0.059-0.033-0.128-0.033-0.187,0L48.033,88.992
	C47.975,89.025,47.939,89.084,47.939,89.155z"/>
<linearGradient id="SVGID_12_" gradientUnits="userSpaceOnUse" x1="36.5718" y1="99.9224" x2="42.2314" y2="98.5113" gradientTransform="matrix(-1 0 0 1 85.2949 0)">
	<stop  offset="0" style="stop-color:#B6A49C"/>
	<stop  offset="1" style="stop-color:#9E8F88"/>
</linearGradient>
<polygon fill-rule="evenodd" clip-rule="evenodd" fill="url(#SVGID_12_)" points="46.816,89.694 46.816,108.832 47.939,109.479 
	47.939,90.343 "/>
<path fill-rule="evenodd" clip-rule="evenodd" fill="#6E565A" d="M71.692,76.528v16.803c0,0.134-0.07,0.256-0.187,0.324
	l-22.409,13.16c-0.118,0.069-0.255,0.07-0.375,0c-0.119-0.067-0.187-0.187-0.187-0.322V89.69c0-0.14,0.072-0.258,0.187-0.324
	l22.41-13.161c0.116-0.069,0.255-0.069,0.375,0C71.625,76.274,71.692,76.393,71.692,76.528z"/>
<path fill-rule="evenodd" clip-rule="evenodd" fill="#533B40" d="M71.692,79.197v6.692v7.441c0,0.134-0.07,0.256-0.187,0.324
	l-0.282,0.166H70.57v-6.145l-4.646,7.39l-17.391,10.041V92.568L70.57,79.845v-3.311l0.561-0.33c0.116-0.069,0.255-0.069,0.375,0
	c0.119,0.069,0.187,0.188,0.187,0.323V79.197z"/>
<linearGradient id="SVGID_13_" gradientUnits="userSpaceOnUse" x1="25.5737" y1="79.7446" x2="35.1179" y2="58.308" gradientTransform="matrix(-1 0 0 1 85.2949 0)">
	<stop  offset="0" style="stop-color:#F1ECE5"/>
	<stop  offset="1" style="stop-color:#C6B6A2"/>
</linearGradient>
<polygon fill-rule="evenodd" clip-rule="evenodd" fill="url(#SVGID_13_)" points="45.805,88.981 73.826,72.803 74.949,73.453 
	46.928,89.628 "/>
<linearGradient id="SVGID_14_" gradientUnits="userSpaceOnUse" x1="37.9653" y1="89.9878" x2="42.4301" y2="89.8319" gradientTransform="matrix(-1 0 0 1 85.2949 0)">
	<stop  offset="0" style="stop-color:#B6A49C"/>
	<stop  offset="1" style="stop-color:#9E8F88"/>
</linearGradient>
<polygon fill-rule="evenodd" clip-rule="evenodd" fill="url(#SVGID_14_)" points="45.805,88.981 45.805,90.279 46.928,90.926 
	46.928,89.628 "/>
<polygon fill-rule="evenodd" clip-rule="evenodd" fill="#B6A49C" points="71.692,76.629 71.692,93.173 72.815,93.821 72.815,75.981 
	"/>
<linearGradient id="SVGID_15_" gradientUnits="userSpaceOnUse" x1="25.3848" y1="95.0054" x2="26.5073" y2="82.1753" gradientTransform="matrix(-1 0 0 1 85.2949 0)">
	<stop  offset="0" style="stop-color:#F1ECE5"/>
	<stop  offset="1" style="stop-color:#C6B6A2"/>
</linearGradient>
<polygon fill-rule="evenodd" clip-rule="evenodd" fill="url(#SVGID_15_)" points="49.063,107.534 47.939,106.885 71.692,93.173 
	72.815,93.821 "/>
<path fill-rule="evenodd" clip-rule="evenodd" fill="#DCCEC0" d="M46.928,90.926v-1.298l1.011-0.583l0,0l21.576-12.456l5.434-3.137
	v1.296l-1.011,0.584v19.137l-25.999,15.01V90.343L46.928,90.926L46.928,90.926z M49.063,107.534l23.752-13.713v-17.84l-0.214,0.123
	l-23.538,13.59V107.534z"/>
<polygon fill-rule="evenodd" clip-rule="evenodd" fill="#B6A49C" points="47.939,92.954 47.939,103.255 49.063,102.607 
	49.063,90.069 "/>
<linearGradient id="SVGID_16_" gradientUnits="userSpaceOnUse" x1="30.3247" y1="96.0161" x2="37.3633" y2="93.8642" gradientTransform="matrix(-1 0 0 1 85.2949 0)">
	<stop  offset="0" style="stop-color:#B6A49C"/>
	<stop  offset="1" style="stop-color:#9E8F88"/>
</linearGradient>
<polygon fill-rule="evenodd" clip-rule="evenodd" fill="url(#SVGID_16_)" points="54.948,99.129 49.063,90.069 49.063,96.743 
	54.948,100.15 "/>
<polygon fill-rule="evenodd" clip-rule="evenodd" fill="#DCCEC0" points="54.948,99.129 78.7,85.417 78.7,86.437 54.948,100.15 "/>
<linearGradient id="SVGID_17_" gradientUnits="userSpaceOnUse" x1="25.7051" y1="80.6011" x2="30.7468" y2="72.2103" gradientTransform="matrix(-1 0 0 1 85.2949 0)">
	<stop  offset="0" style="stop-color:#F1ECE5"/>
	<stop  offset="1" style="stop-color:#C6B6A2"/>
</linearGradient>
<polygon fill-rule="evenodd" clip-rule="evenodd" fill="url(#SVGID_17_)" points="49.063,90.069 49.063,90.069 49.063,90.067 
	49.063,89.694 72.601,76.104 72.639,76.083 72.815,76.354 72.815,76.354 78.7,85.417 54.948,99.128 "/>
<polygon fill-rule="evenodd" clip-rule="evenodd" fill="#B6A49C" points="49.063,90.069 49.063,90.069 49.063,90.067 49.063,89.694 
	72.601,76.104 72.639,76.083 72.815,76.354 72.815,76.354 72.897,76.482 49.145,90.194 "/>
<linearGradient id="SVGID_18_" gradientUnits="userSpaceOnUse" x1="80.0928" y1="46.3667" x2="75.0038" y2="33.1094" gradientTransform="matrix(-1 0 0 1 85.2949 0)">
	<stop  offset="0" style="stop-color:#B6A49C"/>
	<stop  offset="1" style="stop-color:#9E8F88"/>
</linearGradient>
<polygon fill-rule="evenodd" clip-rule="evenodd" fill="url(#SVGID_18_)" points="8.398,52.43 1.241,48.297 1.241,42.297 
	8.398,46.429 "/>
<linearGradient id="SVGID_19_" gradientUnits="userSpaceOnUse" x1="79.0273" y1="47.561" x2="73.0988" y2="49.0392" gradientTransform="matrix(-1 0 0 1 85.2949 0)">
	<stop  offset="0" style="stop-color:#B6A49C"/>
	<stop  offset="1" style="stop-color:#9E8F88"/>
</linearGradient>
<polygon fill-rule="evenodd" clip-rule="evenodd" fill="url(#SVGID_19_)" points="8.398,52.43 11.633,50.563 11.633,44.561 
	8.398,46.429 "/>
<polygon fill-rule="evenodd" clip-rule="evenodd" fill="#C2B2AC" points="1.241,42.297 4.476,40.429 11.633,44.561 8.398,46.429 "/>
<path fill-rule="evenodd" clip-rule="evenodd" fill="#533B40" d="M5.689,45.314c-1.22-0.704-2.209-0.135-2.209,1.276
	c0,1.408,0.99,3.123,2.209,3.828C6.91,51.122,7.9,50.551,7.9,49.141S6.91,46.017,5.689,45.314L5.689,45.314z M6.56,48.368
	c0,0.555-0.39,0.779-0.871,0.503c-0.48-0.278-0.869-0.952-0.869-1.507s0.389-0.779,0.869-0.503
	C6.169,47.139,6.56,47.813,6.56,48.368z"/>
<g>
	<polygon fill-rule="evenodd" clip-rule="evenodd" fill="#8B7973" points="44.912,85.638 53.726,80.55 54.83,77.717 54.83,63.137 
		55.841,62.552 55.841,61.257 54.83,61.839 46.017,66.929 46.017,66.929 45.005,67.512 43.901,70.345 43.901,71.642 44.912,71.059 	
		"/>
	
		<linearGradient id="SVGID_20_" gradientUnits="userSpaceOnUse" x1="29.6504" y1="78.7866" x2="46.913" y2="73.1777" gradientTransform="matrix(-1 0 0 1 85.2949 0)">
		<stop  offset="0" style="stop-color:#B6A49C"/>
		<stop  offset="1" style="stop-color:#9E8F88"/>
	</linearGradient>
	<polygon fill-rule="evenodd" clip-rule="evenodd" fill="url(#SVGID_20_)" points="46.017,68.227 46.017,82.805 47.139,83.455 
		47.139,68.875 	"/>
	<polygon fill-rule="evenodd" clip-rule="evenodd" fill="#B6A49C" points="45.005,67.512 45.005,68.81 46.128,69.458 46.128,68.161 
			"/>
	
		<linearGradient id="SVGID_21_" gradientUnits="userSpaceOnUse" x1="29.4619" y1="78.1108" x2="32.7386" y2="62.6954" gradientTransform="matrix(-1 0 0 1 85.2949 0)">
		<stop  offset="0" style="stop-color:#B6A49C"/>
		<stop  offset="1" style="stop-color:#9E8F88"/>
	</linearGradient>
	<polygon fill-rule="evenodd" clip-rule="evenodd" fill="url(#SVGID_21_)" points="53.708,65.082 53.708,77.07 54.83,77.718 
		54.83,64.434 	"/>
	
		<linearGradient id="SVGID_22_" gradientUnits="userSpaceOnUse" x1="34.3516" y1="76.8462" x2="34.4814" y2="69.4072" gradientTransform="matrix(-1 0 0 1 85.2949 0)">
		<stop  offset="0" style="stop-color:#F1ECE5"/>
		<stop  offset="1" style="stop-color:#C6B6A2"/>
	</linearGradient>
	<polygon fill-rule="evenodd" clip-rule="evenodd" fill="url(#SVGID_22_)" points="48.263,81.509 47.141,80.861 53.708,77.07 
		54.83,77.718 	"/>
	<polygon fill-rule="evenodd" clip-rule="evenodd" fill="#B6A49C" points="52.585,77.718 53.708,77.07 54.83,77.718 	"/>
	<polygon fill-rule="evenodd" clip-rule="evenodd" fill="#B6A49C" points="47.141,80.861 47.141,67.5 53.708,63.708 53.708,77.07 	
		"/>
	<polygon fill-rule="evenodd" clip-rule="evenodd" fill="#DCCEC0" points="47.141,80.861 47.141,69.694 52.603,66.542 
		52.603,77.707 	"/>
	<g>
		<polygon fill-rule="evenodd" clip-rule="evenodd" fill="#533B40" points="47.889,79.564 47.889,67.933 52.958,65.005 
			52.958,76.636 		"/>
		<polygon fill-rule="evenodd" clip-rule="evenodd" fill="#6E565A" points="47.889,79.564 47.889,69.263 52.603,66.542 
			52.603,76.842 		"/>
	</g>
	<path fill-rule="evenodd" clip-rule="evenodd" fill="#DCCEC0" d="M47.139,83.455v-14.58l-1.011,0.584v-1.298l1.011-0.584l0,0
		l8.814-5.088l1.011-0.585v1.299l-1.011,0.582v14.582L47.139,83.455L47.139,83.455z M48.263,81.509l6.567-3.791V64.434l-6.567,3.793
		V81.509z"/>
	
		<linearGradient id="SVGID_23_" gradientUnits="userSpaceOnUse" x1="34.5786" y1="64.105" x2="38.4938" y2="55.3113" gradientTransform="matrix(-1 0 0 1 85.2949 0)">
		<stop  offset="0" style="stop-color:#F1ECE5"/>
		<stop  offset="1" style="stop-color:#C6B6A2"/>
	</linearGradient>
	<polygon fill-rule="evenodd" clip-rule="evenodd" fill="url(#SVGID_23_)" points="45.005,67.512 55.841,61.257 56.964,61.904 
		46.128,68.161 	"/>
</g>
<g>
	<polygon fill-rule="evenodd" clip-rule="evenodd" fill="#8B7973" points="61.775,75.903 70.588,70.813 71.694,67.982 
		71.694,53.401 72.705,52.817 72.705,51.52 71.694,52.105 62.88,57.192 62.88,57.193 61.869,57.778 60.764,60.61 60.764,61.908 
		61.775,61.322 	"/>
	
		<linearGradient id="SVGID_24_" gradientUnits="userSpaceOnUse" x1="12.7852" y1="69.0513" x2="30.0521" y2="63.4409" gradientTransform="matrix(-1 0 0 1 85.2949 0)">
		<stop  offset="0" style="stop-color:#B6A49C"/>
		<stop  offset="1" style="stop-color:#9E8F88"/>
	</linearGradient>
	<polygon fill-rule="evenodd" clip-rule="evenodd" fill="url(#SVGID_24_)" points="62.88,58.49 62.881,73.071 64.003,73.718 
		64.003,59.139 	"/>
	<polygon fill-rule="evenodd" clip-rule="evenodd" fill="#B6A49C" points="61.869,57.778 61.87,59.075 62.991,59.722 62.991,58.425 
			"/>
	
		<linearGradient id="SVGID_25_" gradientUnits="userSpaceOnUse" x1="12.5977" y1="68.3755" x2="15.8747" y2="52.9583" gradientTransform="matrix(-1 0 0 1 85.2949 0)">
		<stop  offset="0" style="stop-color:#B6A49C"/>
		<stop  offset="1" style="stop-color:#9E8F88"/>
	</linearGradient>
	<polygon fill-rule="evenodd" clip-rule="evenodd" fill="url(#SVGID_25_)" points="70.571,55.347 70.571,67.334 71.694,67.982 
		71.694,54.697 	"/>
	
		<linearGradient id="SVGID_26_" gradientUnits="userSpaceOnUse" x1="17.4888" y1="67.1108" x2="17.6186" y2="59.6735" gradientTransform="matrix(-1 0 0 1 85.2949 0)">
		<stop  offset="0" style="stop-color:#F1ECE5"/>
		<stop  offset="1" style="stop-color:#C6B6A2"/>
	</linearGradient>
	<polygon fill-rule="evenodd" clip-rule="evenodd" fill="url(#SVGID_26_)" points="65.126,71.773 64.003,71.125 70.571,67.334 
		71.694,67.982 	"/>
	<polygon fill-rule="evenodd" clip-rule="evenodd" fill="#B6A49C" points="69.448,67.982 70.571,67.334 71.694,67.982 	"/>
	<polygon fill-rule="evenodd" clip-rule="evenodd" fill="#B6A49C" points="64.003,71.125 64.003,57.765 70.571,53.972 
		70.571,67.334 	"/>
	<polygon fill-rule="evenodd" clip-rule="evenodd" fill="#DCCEC0" points="64.003,71.125 64.003,59.96 69.466,56.805 69.466,67.971 
			"/>
	<g>
		<polygon fill-rule="evenodd" clip-rule="evenodd" fill="#533B40" points="64.752,69.829 64.752,58.198 69.823,55.27 
			69.823,66.901 		"/>
		<polygon fill-rule="evenodd" clip-rule="evenodd" fill="#6E565A" points="64.752,69.829 64.752,59.527 69.466,56.805 
			69.466,67.107 		"/>
	</g>
	<path fill-rule="evenodd" clip-rule="evenodd" fill="#DCCEC0" d="M64.003,73.718V59.139l-1.012,0.583v-1.297l1.012-0.583l0,0
		l8.813-5.09l1.011-0.582v1.297l-1.011,0.582V68.63L64.003,73.718L64.003,73.718z M65.126,71.773l6.568-3.791V54.697l-6.568,3.793
		V71.773z"/>
	
		<linearGradient id="SVGID_27_" gradientUnits="userSpaceOnUse" x1="17.7163" y1="54.3687" x2="21.6341" y2="45.5691" gradientTransform="matrix(-1 0 0 1 85.2949 0)">
		<stop  offset="0" style="stop-color:#F1ECE5"/>
		<stop  offset="1" style="stop-color:#C6B6A2"/>
	</linearGradient>
	<polygon fill-rule="evenodd" clip-rule="evenodd" fill="url(#SVGID_27_)" points="61.869,57.778 72.705,51.52 73.828,52.17 
		62.991,58.425 	"/>
</g>
<g>
	<polygon fill-rule="evenodd" clip-rule="evenodd" fill="#8B7973" points="78.639,66.167 87.452,61.08 88.557,58.246 88.557,43.665 
		89.568,43.082 89.568,41.785 88.557,42.368 79.743,47.458 79.743,47.458 78.732,48.042 77.627,50.874 77.627,52.171 78.639,51.586 
			"/>
	
		<linearGradient id="SVGID_28_" gradientUnits="userSpaceOnUse" x1="-5.7808" y1="59.8687" x2="14.8903" y2="53.1522" gradientTransform="matrix(-1 0 0 1 85.2949 0)">
		<stop  offset="0" style="stop-color:#B6A49C"/>
		<stop  offset="1" style="stop-color:#9E8F88"/>
	</linearGradient>
	<polygon fill-rule="evenodd" clip-rule="evenodd" fill="url(#SVGID_28_)" points="79.743,48.754 79.744,63.334 80.867,63.983 
		80.867,49.403 	"/>
	<polygon fill-rule="evenodd" clip-rule="evenodd" fill="#B6A49C" points="78.732,48.042 78.733,49.338 79.855,49.988 79.855,48.69 
			"/>
	
		<linearGradient id="SVGID_29_" gradientUnits="userSpaceOnUse" x1="-4.2661" y1="58.6392" x2="-0.9893" y2="43.2231" gradientTransform="matrix(-1 0 0 1 85.2949 0)">
		<stop  offset="0" style="stop-color:#B6A49C"/>
		<stop  offset="1" style="stop-color:#9E8F88"/>
	</linearGradient>
	<polygon fill-rule="evenodd" clip-rule="evenodd" fill="url(#SVGID_29_)" points="87.434,45.61 87.435,57.596 88.557,58.247 
		88.557,44.962 	"/>
	
		<linearGradient id="SVGID_30_" gradientUnits="userSpaceOnUse" x1="0.626" y1="57.3716" x2="0.7559" y2="49.9275" gradientTransform="matrix(-1 0 0 1 85.2949 0)">
		<stop  offset="0" style="stop-color:#F1ECE5"/>
		<stop  offset="1" style="stop-color:#C6B6A2"/>
	</linearGradient>
	<polygon fill-rule="evenodd" clip-rule="evenodd" fill="url(#SVGID_30_)" points="81.989,62.039 80.867,61.388 87.435,57.596 
		88.557,58.247 	"/>
	<polygon fill-rule="evenodd" clip-rule="evenodd" fill="#B6A49C" points="86.312,58.247 87.435,57.596 88.557,58.247 	"/>
	<polygon fill-rule="evenodd" clip-rule="evenodd" fill="#B6A49C" points="80.867,61.389 80.867,48.03 87.435,44.238 87.435,57.596 
			"/>
	<polygon fill-rule="evenodd" clip-rule="evenodd" fill="#DCCEC0" points="80.867,61.389 80.867,50.223 86.329,47.07 86.329,58.237 
			"/>
	<g>
		<polygon fill-rule="evenodd" clip-rule="evenodd" fill="#533B40" points="81.616,60.093 81.616,48.461 86.686,45.534 
			86.686,57.166 		"/>
		<polygon fill-rule="evenodd" clip-rule="evenodd" fill="#6E565A" points="81.616,60.093 81.616,49.792 86.329,47.07 
			86.329,57.372 		"/>
	</g>
	<path fill-rule="evenodd" clip-rule="evenodd" fill="#DCCEC0" d="M80.867,63.983v-14.58l-1.011,0.585V48.69l1.011-0.583v-0.001
		l8.813-5.089l1.011-0.584v1.296l-1.011,0.585v14.581L80.867,63.983L80.867,63.983z M81.989,62.039l6.568-3.792V44.962l-6.568,3.792
		V62.039z"/>
	
		<linearGradient id="SVGID_31_" gradientUnits="userSpaceOnUse" x1="0.853" y1="44.6343" x2="4.7708" y2="35.8347" gradientTransform="matrix(-1 0 0 1 85.2949 0)">
		<stop  offset="0" style="stop-color:#F1ECE5"/>
		<stop  offset="1" style="stop-color:#C6B6A2"/>
	</linearGradient>
	<polygon fill-rule="evenodd" clip-rule="evenodd" fill="url(#SVGID_31_)" points="78.732,48.042 89.569,41.785 90.691,42.433 
		79.855,48.69 	"/>
</g>
<polygon fill-rule="evenodd" clip-rule="evenodd" fill="#B6A49C" points="41.524,62.607 41.525,65.444 42.647,66.092 42.647,63.255 
	"/>
<polygon fill-rule="evenodd" clip-rule="evenodd" fill="#F1EEEB" points="41.524,62.607 93.05,32.859 94.172,33.507 42.647,63.255 
	"/>
<polygon fill-rule="evenodd" clip-rule="evenodd" fill="#DED5CB" points="42.647,66.092 94.172,36.344 94.172,33.507 42.647,63.255 
	"/>
<g>
	<polygon fill-rule="evenodd" clip-rule="evenodd" fill="#A08F88" points="27.782,63.112 27.782,77.694 26.66,78.341 26.66,63.76 	
		"/>
	<polygon fill-rule="evenodd" clip-rule="evenodd" fill="#A08F88" points="28.794,62.399 28.793,63.696 27.67,64.345 27.67,63.047 	
		"/>
	<polygon fill-rule="evenodd" clip-rule="evenodd" fill="#A08F88" points="20.092,59.969 20.091,71.956 18.969,72.604 
		18.969,59.321 	"/>
	<polygon fill-rule="evenodd" clip-rule="evenodd" fill="#C2B2AC" points="25.537,76.395 26.66,75.747 20.091,71.956 18.969,72.604 
			"/>
	<polygon fill-rule="evenodd" clip-rule="evenodd" fill="#B6A49C" points="21.215,72.604 20.091,71.956 18.969,72.604 	"/>
	<polygon fill-rule="evenodd" clip-rule="evenodd" fill="#B6A49C" points="26.66,75.747 26.66,62.387 20.091,58.595 20.091,71.956 	
		"/>
	<polygon fill-rule="evenodd" clip-rule="evenodd" fill="#533B40" points="25.911,74.452 25.911,62.819 20.84,59.892 20.84,71.524 	
		"/>
	<path fill-rule="evenodd" clip-rule="evenodd" fill="#B6A49C" d="M26.66,78.341V63.76l1.011,0.585v-1.298l-1.011-0.583v-0.001
		l-8.813-5.088l-1.012-0.583v1.296l1.012,0.585v14.578L26.66,78.341L26.66,78.341z M25.537,76.395l-6.568-3.791V59.321l6.568,3.791
		V76.395z"/>
	<polygon fill-rule="evenodd" clip-rule="evenodd" fill="#C2B2AC" points="28.794,62.399 17.958,56.142 16.834,56.792 27.67,63.047 
			"/>
</g>
<g>
	<polygon fill-rule="evenodd" clip-rule="evenodd" fill="#A08F88" points="41.625,71.103 41.624,85.685 40.501,86.333 
		40.501,71.753 	"/>
	<polygon fill-rule="evenodd" clip-rule="evenodd" fill="#A08F88" points="42.636,70.391 42.635,71.688 41.512,72.335 
		41.512,71.039 	"/>
	<polygon fill-rule="evenodd" clip-rule="evenodd" fill="#A08F88" points="33.934,67.96 33.934,79.948 32.811,80.595 32.811,67.311 
			"/>
	<polygon fill-rule="evenodd" clip-rule="evenodd" fill="#C2B2AC" points="39.378,84.387 40.5,83.739 33.934,79.948 32.811,80.595 	
		"/>
	<polygon fill-rule="evenodd" clip-rule="evenodd" fill="#B6A49C" points="35.057,80.595 33.934,79.948 32.811,80.595 	"/>
	<polygon fill-rule="evenodd" clip-rule="evenodd" fill="#B6A49C" points="40.5,83.74 40.5,70.378 33.934,66.585 33.934,79.948 	"/>
	<polygon fill-rule="evenodd" clip-rule="evenodd" fill="#533B40" points="39.752,82.443 39.752,70.811 34.682,67.883 
		34.682,79.515 	"/>
	<path fill-rule="evenodd" clip-rule="evenodd" fill="#B6A49C" d="M40.501,86.333V71.753l1.011,0.582v-1.297l-1.011-0.584l0,0
		l-8.813-5.088l-1.011-0.583v1.296l1.011,0.584v14.58L40.501,86.333L40.501,86.333z M39.378,84.387l-6.567-3.792V67.311l6.567,3.792
		V84.387z"/>
	<polygon fill-rule="evenodd" clip-rule="evenodd" fill="#C2B2AC" points="42.636,70.391 31.8,64.134 30.677,64.784 41.512,71.039 	
		"/>
</g>
<g>
	<path fill="#FFFFFF" d="M86.471,18.677l2.088,1.865L88.437,30.85l-3.582,5.474l-2.363,1.365l0.02-1.718l-1.673,2.672l-2.126,1.227
		l0.021-1.718l-1.198,2.398l-3.779,2.182l-1.161-1.036l-0.259,1.856l-3.307,1.909l-1.327-0.941l-0.098,1.764l-3.75,2.165
		l-0.111-1.642l-1.033,2.302l-5.725,3.306l-1.174-0.004l-0.008,0.687l-3.069,1.771l-3.509-1.045l-2.088-1.863L47.3,38.221
		l4.489-2.592l2.089,1.865l9.684-5.592l0.037-3.09l8.03-4.637l-0.037,3.092l2.125-1.228l-0.021,1.712l1.202-2.395l2.359-1.361
		l2.167-4.322l4.485-2.589l-0.037,3.092L86.471,18.677z M63.444,41.864l0.102-8.587l-2.597,1.499l-0.085,7.215l-0.949,0.548
		L60,35.323l-2.597,1.499l-0.086,7.218l-0.943,0.544l0.085-7.216l-2.598,1.499l-0.13,10.994l8.03-4.637L63.444,41.864 M87.505,30.36
		l0.103-8.587l-1.625-1.45l-3.069,1.771l0.037-3.091l-2.597,1.5l-0.168,14.084l2.598-1.5l0.085-7.215l2.125-1.228l-0.085,7.216
		L87.505,30.36 M52.874,43.19l0.045-3.778l-2.125,1.228l0.037-3.092l-2.602,1.502L48.089,50.73l1.625,1.45l3.074-1.774l0.045-3.778
		l-2.125,1.228l0.042-3.438L52.874,43.19 M72.713,31.736l0.045-3.778l-2.126,1.227l0.037-3.091l-2.597,1.5l-0.139,11.679l1.625,1.45
		l3.069-1.771l0.045-3.777l-2.125,1.228l0.042-3.438L72.713,31.736 M79.328,27.916l0.045-3.776l-4.018,2.318l-1.683,3.36
		l-0.074,6.184l1.625,1.449l4.017-2.319l0.045-3.776l-3.074,1.774l0.041-3.438L79.328,27.916 M66.956,42.225l0.131-10.993
		l-2.598,1.5l-0.131,10.992L66.956,42.225 M67.103,29.859l0.021-1.719l-2.598,1.499l-0.02,1.72L67.103,29.859"/>
</g>
<g>
	<polygon fill-rule="evenodd" clip-rule="evenodd" fill="#6441A5" points="74.894,87.614 74.895,87.613 77.72,85.982 77.72,87.002 
		74.895,88.633 74.895,87.613 	"/>
	<polygon fill-rule="evenodd" clip-rule="evenodd" fill="#6441A5" points="68.833,78.279 71.621,76.668 71.658,76.649 
		71.835,76.921 71.835,76.921 77.719,85.982 74.895,87.612 69.01,78.552 69.01,78.55 	"/>
	<polygon fill-rule="evenodd" clip-rule="evenodd" fill="#6441A5" points="68.833,78.279 71.621,76.668 71.658,76.649 
		71.835,76.921 71.835,76.921 71.917,77.047 69.092,78.679 69.01,78.552 69.01,78.55 	"/>
</g>
<g>
	<polygon fill-rule="evenodd" clip-rule="evenodd" fill="#6441A5" points="70.152,90.351 70.153,90.351 72.977,88.719 
		72.977,89.739 70.153,91.37 70.153,90.351 	"/>
	<polygon fill-rule="evenodd" clip-rule="evenodd" fill="#6441A5" points="64.091,81.017 66.878,79.407 66.916,79.385 
		67.092,79.659 67.092,79.659 72.977,88.719 70.152,90.35 64.268,81.289 64.268,81.289 	"/>
	<polygon fill-rule="evenodd" clip-rule="evenodd" fill="#6441A5" points="64.091,81.017 66.878,79.407 66.916,79.385 
		67.092,79.659 67.092,79.659 67.174,79.785 64.35,81.416 64.268,81.289 64.268,81.289 	"/>
</g>
<g>
	<polygon fill-rule="evenodd" clip-rule="evenodd" fill="#6441A5" points="65.41,93.088 65.411,93.088 68.235,91.458 68.235,92.477 
		65.411,94.108 65.411,93.088 	"/>
	<polygon fill-rule="evenodd" clip-rule="evenodd" fill="#6441A5" points="59.349,83.753 62.136,82.145 62.174,82.124 
		62.351,82.396 62.351,82.396 68.235,91.458 65.41,93.088 59.525,84.026 59.525,84.026 	"/>
	<polygon fill-rule="evenodd" clip-rule="evenodd" fill="#6441A5" points="59.349,83.753 62.136,82.145 62.174,82.124 
		62.351,82.396 62.351,82.396 62.432,82.522 59.607,84.152 59.525,84.026 59.525,84.026 	"/>
</g>
<g>
	<polygon fill-rule="evenodd" clip-rule="evenodd" fill="#6441A5" points="60.667,95.827 60.668,95.824 63.493,94.194 
		63.493,95.214 60.669,96.844 60.669,95.824 	"/>
	<polygon fill-rule="evenodd" clip-rule="evenodd" fill="#6441A5" points="54.607,86.492 57.395,84.882 57.432,84.861 
		57.608,85.132 57.608,85.132 63.493,94.194 60.668,95.824 54.784,86.764 54.784,86.763 	"/>
	<polygon fill-rule="evenodd" clip-rule="evenodd" fill="#6441A5" points="54.607,86.492 57.395,84.882 57.432,84.861 
		57.608,85.132 57.608,85.132 57.69,85.259 54.866,86.889 54.784,86.764 54.784,86.763 	"/>
</g>
<g>
	<polygon fill-rule="evenodd" clip-rule="evenodd" fill="#6441A5" points="55.925,98.562 55.926,98.562 58.751,96.932 
		58.751,97.952 55.926,99.583 55.926,98.562 	"/>
	<polygon fill-rule="evenodd" clip-rule="evenodd" fill="#6441A5" points="49.865,89.229 52.652,87.62 52.689,87.599 52.866,87.87 
		52.866,87.871 58.751,96.932 55.926,98.561 50.041,89.502 50.041,89.501 	"/>
	<polygon fill-rule="evenodd" clip-rule="evenodd" fill="#6441A5" points="49.865,89.229 52.652,87.62 52.689,87.599 52.866,87.87 
		52.866,87.871 52.948,87.998 50.123,89.627 50.041,89.502 50.041,89.501 	"/>
</g>
</svg>
