<?xml version="1.0" encoding="utf-8"?>
<!-- Generator: Adobe Illustrator 15.0.0, SVG Export Plug-In . SVG Version: 6.00 Build 0)  -->
<!DOCTYPE svg PUBLIC "-//W3C//DTD SVG 1.1//EN" "http://www.w3.org/Graphics/SVG/1.1/DTD/svg11.dtd">
<svg version="1.1" id="Layer_1" xmlns="http://www.w3.org/2000/svg" xmlns:xlink="http://www.w3.org/1999/xlink" x="0px" y="0px"
	 width="114.822px" height="166.836px" viewBox="0 0 114.822 166.836" enable-background="new 0 0 114.822 166.836"
	 xml:space="preserve">
<rect x="105.233" y="138.057" fill="#E0C8B6" width="4.239" height="3.154"/>
<polygon fill="#F1ECE5" points="61.588,63.113 109.317,35.557 47.729,0 0,27.556 "/>
<polygon fill="#B6A49C" points="9.099,28.948 6.688,27.556 47.729,3.862 102.629,35.558 100.218,36.949 47.729,6.644 "/>
<linearGradient id="SVGID_1_" gradientUnits="userSpaceOnUse" x1="-393.8582" y1="-20.3242" x2="-398.9802" y2="-23.5247" gradientTransform="matrix(-1 0 0 -1 -325.356 21.8359)">
	<stop  offset="0" style="stop-color:#B6A49C"/>
	<stop  offset="1" style="stop-color:#9E8F88"/>
</linearGradient>
<polygon fill="url(#SVGID_1_)" points="103.85,38.714 61.588,63.113 56.099,59.944 98.36,35.544 "/>
<polygon fill="#DED5CB" points="9.099,28.948 6.688,27.556 47.729,3.862 47.729,6.644 "/>
<polygon fill="#ECDDD1" points="9.099,28.948 47.729,6.644 100.218,36.949 61.587,59.252 "/>
<polygon fill="#A88F87" points="99.151,36.333 100.218,36.949 61.588,59.252 60.522,58.636 "/>
<polygon fill="#A88F87" points="98.828,37.752 46.339,7.447 47.729,6.644 100.218,36.95 "/>
<polygon fill="#B6A49C" points="46.339,7.447 47.729,3.862 47.729,6.644 "/>
<linearGradient id="SVGID_2_" gradientUnits="userSpaceOnUse" x1="-441.2097" y1="-72.335" x2="-432.8211" y2="-72.335" gradientTransform="matrix(-1 0 0 -1 -325.356 21.8359)">
	<stop  offset="0" style="stop-color:#B6A49C"/>
	<stop  offset="1" style="stop-color:#9E8F88"/>
</linearGradient>
<polygon fill="url(#SVGID_2_)" points="108.469,47.709 108.469,140.631 109.473,141.211 109.473,47.131 "/>
<polygon fill="#DCCEC0" points="67.429,125.71 108.469,102.016 108.469,46.551 67.429,70.246 "/>
<polygon fill="#8C614D" points="67.429,164.326 98.69,146.277 98.69,145.038 106.487,140.536 107.56,141.157 108.469,140.631 
	108.469,104.24 67.429,127.934 "/>
<polygon fill="#B4A19B" points="107.482,103.656 108.469,103.086 108.469,46.551 67.429,70.246 67.429,76.916 107.482,53.791 "/>
<linearGradient id="SVGID_3_" gradientUnits="userSpaceOnUse" x1="-432.7581" y1="-98.7769" x2="-434.3486" y2="-98.7769" gradientTransform="matrix(-1 0 0 -1 -325.356 21.8359)">
	<stop  offset="0" style="stop-color:#533317"/>
	<stop  offset="1" style="stop-color:#3D2606"/>
</linearGradient>
<polygon fill="url(#SVGID_3_)" points="107.56,141.156 108.469,140.631 108.469,103.725 108.477,103.706 108.477,103.85 
	108.477,100.07 68.432,123.191 68.432,128.787 107.482,106.241 107.482,121.82 107.561,121.771 "/>
<polygon fill="#DCCEC0" points="65.088,166.836 68.432,164.906 68.432,75.603 109.473,51.908 109.473,141.211 112.816,139.281 
	112.816,41.338 65.088,68.894 "/>
<polygon fill="#B4A19B" points="112.816,43.873 112.816,41.338 65.087,68.894 65.087,73.39 111.829,46.403 "/>
<polygon fill="#F1ECE5" points="65.087,65.134 112.816,37.578 113.819,38.157 66.091,65.713 "/>
<polygon fill="#DCCEC0" points="66.091,72.008 113.819,44.452 113.819,38.157 66.091,65.713 "/>
<polygon fill="#F1ECE5" points="61.588,52.173 109.317,24.617 114.822,27.796 67.094,55.352 "/>
<polygon fill="#B7ACA3" points="67.094,66.293 114.822,38.736 114.822,27.796 67.094,55.352 "/>
<polygon fill="#B4A19B" points="67.094,62.6 66.09,63.179 66.09,67.673 112.832,40.686 113.235,39.651 67.094,66.293 "/>
<linearGradient id="SVGID_4_" gradientUnits="userSpaceOnUse" x1="-365.1536" y1="-62.7949" x2="-286.3866" y2="-199.2233" gradientTransform="matrix(-1 0 0 -1 -325.356 21.8359)">
	<stop  offset="0" style="stop-color:#B6A49C"/>
	<stop  offset="1" style="stop-color:#9E8F88"/>
</linearGradient>
<path fill="url(#SVGID_4_)" d="M61.588,63.113L0,27.556v101.702l65.088,37.578c0-33.529,0-59.586,0-95.407l1.003,0.579v-6.295
	l1.003,0.58V55.352l-5.506-3.178V63.113z"/>
<linearGradient id="SVGID_5_" gradientUnits="userSpaceOnUse" x1="-390.6511" y1="-14.5884" x2="-342.826" y2="-100.8673" gradientTransform="matrix(-1 0 0 -1 -325.356 21.8359)">
	<stop  offset="0" style="stop-color:#8B7973"/>
	<stop  offset="1" style="stop-color:#66544D"/>
</linearGradient>
<polygon fill="url(#SVGID_5_)" points="0,32.511 0,129.258 61.588,164.816 61.588,68.068 "/>
<polygon fill="#DCCEC0" points="68.432,127.948 109.473,104.253 109.473,100.618 68.432,124.313 "/>
<polygon fill="#F1ECE5" points="68.432,123.188 108.469,100.038 109.473,100.618 68.432,124.313 "/>
<polygon fill="#B4A19B" points="107.482,100.607 108.469,100.038 109.473,100.618 109.472,100.618 107.482,100.618 "/>
<g>
	<polygon fill="#3D2606" points="96.103,87.816 96.103,101.611 90.153,105.045 90.153,91.25 	"/>
	
		<linearGradient id="SVGID_6_" gradientUnits="userSpaceOnUse" x1="-441.302" y1="-120.46" x2="-412.4396" y2="-49.0231" gradientTransform="matrix(-1 0 0 -1 -325.356 21.8359)">
		<stop  offset="0" style="stop-color:#B6A49C"/>
		<stop  offset="1" style="stop-color:#9E8F88"/>
	</linearGradient>
	<polygon fill="url(#SVGID_6_)" points="96.103,87.816 96.103,101.611 97.105,102.189 97.105,87.236 	"/>
	
		<linearGradient id="SVGID_7_" gradientUnits="userSpaceOnUse" x1="-407.7771" y1="-177.7031" x2="-439.7175" y2="49.5645" gradientTransform="matrix(-1 0 0 -1 -325.356 21.8359)">
		<stop  offset="0" style="stop-color:#B6A49C"/>
		<stop  offset="1" style="stop-color:#9E8F88"/>
	</linearGradient>
	<polygon fill="url(#SVGID_7_)" points="95.1,102.189 96.103,101.611 97.105,102.189 	"/>
	<polygon fill="#8C614D" points="90.153,91.984 95.116,89.119 95.116,102.18 90.153,105.045 	"/>
	<polygon fill="#533B40" points="95.434,88.202 95.434,101.225 90.153,104.273 90.153,91.25 	"/>
	<polygon fill="#6E565A" points="90.153,91.984 95.116,89.119 95.116,101.409 90.153,104.273 	"/>
	<path fill="#B4A19B" d="M89.167,109.75l6.952-4.014l0.986-2.53v0.144v-1.158l-6.952,4.014l-0.986,2.529
		C89.167,113.461,89.167,105.023,89.167,109.75z"/>
	
		<linearGradient id="SVGID_8_" gradientUnits="userSpaceOnUse" x1="-496.718" y1="-145.9819" x2="-408.0182" y2="-79.1418" gradientTransform="matrix(-1 0 0 -1 -325.356 21.8359)">
		<stop  offset="0" style="stop-color:#B6A49C"/>
		<stop  offset="1" style="stop-color:#9E8F88"/>
	</linearGradient>
	<polygon fill="url(#SVGID_8_)" points="90.153,106.204 90.154,107.22 91.157,107.799 91.157,106.783 	"/>
	<polygon fill="#DCCEC0" points="91.157,107.799 98.109,103.786 98.109,102.77 91.157,106.783 	"/>
	<polygon fill="#F1ECE5" points="90.162,106.236 90.153,105.045 95.116,102.18 97.106,102.189 98.109,102.77 91.157,106.783 	"/>
</g>
<g>
	<polygon fill="#3D2606" points="84.74,94.375 84.74,108.171 78.791,111.605 78.791,97.811 	"/>
	
		<linearGradient id="SVGID_9_" gradientUnits="userSpaceOnUse" x1="-429.9377" y1="-127.0166" x2="-401.0774" y2="-55.5848" gradientTransform="matrix(-1 0 0 -1 -325.356 21.8359)">
		<stop  offset="0" style="stop-color:#B6A49C"/>
		<stop  offset="1" style="stop-color:#9E8F88"/>
	</linearGradient>
	<polygon fill="url(#SVGID_9_)" points="84.739,94.375 84.74,108.171 85.743,108.75 85.743,93.796 	"/>
	
		<linearGradient id="SVGID_10_" gradientUnits="userSpaceOnUse" x1="-396.3962" y1="-184.3965" x2="-428.3805" y2="43.1832" gradientTransform="matrix(-1 0 0 -1 -325.356 21.8359)">
		<stop  offset="0" style="stop-color:#B6A49C"/>
		<stop  offset="1" style="stop-color:#9E8F88"/>
	</linearGradient>
	<polygon fill="url(#SVGID_10_)" points="83.736,108.75 84.74,108.171 85.743,108.75 	"/>
	<polygon fill="#8C614D" points="78.791,98.543 83.753,95.678 83.753,108.741 78.791,111.605 	"/>
	<polygon fill="#533B40" points="84.071,94.761 84.071,107.785 78.791,110.833 78.791,97.811 	"/>
	<polygon fill="#6E565A" points="78.791,98.543 83.753,95.678 83.753,107.968 78.791,110.833 	"/>
	<path fill="#B4A19B" d="M77.804,116.309l6.951-4.014l0.987-2.529v0.144v-1.159l-6.952,4.014l-0.986,2.53
		C77.804,120.021,77.804,111.583,77.804,116.309z"/>
	
		<linearGradient id="SVGID_11_" gradientUnits="userSpaceOnUse" x1="-485.3665" y1="-152.5513" x2="-396.6543" y2="-85.7018" gradientTransform="matrix(-1 0 0 -1 -325.356 21.8359)">
		<stop  offset="0" style="stop-color:#B6A49C"/>
		<stop  offset="1" style="stop-color:#9E8F88"/>
	</linearGradient>
	<polygon fill="url(#SVGID_11_)" points="78.791,112.764 78.791,113.78 79.794,114.359 79.794,113.343 	"/>
	<polygon fill="#DCCEC0" points="79.794,114.359 86.746,110.345 86.746,109.33 79.794,113.343 	"/>
	<polygon fill="#F1ECE5" points="78.798,112.796 78.791,111.605 83.753,108.741 85.743,108.75 86.746,109.33 79.794,113.343 	"/>
</g>
<g>
	<polygon fill="#3D2606" points="73.377,100.936 73.377,114.73 68.432,117.586 68.432,103.792 	"/>
	
		<linearGradient id="SVGID_12_" gradientUnits="userSpaceOnUse" x1="-418.5735" y1="-133.5742" x2="-389.7152" y2="-62.1473" gradientTransform="matrix(-1 0 0 -1 -325.356 21.8359)">
		<stop  offset="0" style="stop-color:#B6A49C"/>
		<stop  offset="1" style="stop-color:#9E8F88"/>
	</linearGradient>
	<polygon fill="url(#SVGID_12_)" points="73.376,100.936 73.377,114.73 74.38,115.309 74.38,100.357 	"/>
	
		<linearGradient id="SVGID_13_" gradientUnits="userSpaceOnUse" x1="-385.0486" y1="-190.8232" x2="-416.989" y2="36.4443" gradientTransform="matrix(-1 0 0 -1 -325.356 21.8359)">
		<stop  offset="0" style="stop-color:#B6A49C"/>
		<stop  offset="1" style="stop-color:#9E8F88"/>
	</linearGradient>
	<polygon fill="url(#SVGID_13_)" points="72.373,115.309 73.377,114.73 74.38,115.309 	"/>
	<polygon fill="#8C614D" points="68.432,104.523 72.39,102.238 72.39,115.3 68.432,117.586 	"/>
	<polygon fill="#533B40" points="72.708,101.32 72.708,114.344 68.432,116.814 68.432,103.792 	"/>
	<polygon fill="#6E565A" points="68.432,104.523 72.39,102.238 72.39,114.529 68.432,116.814 	"/>
	<polygon fill="#B4A19B" points="68.432,121.72 73.393,118.857 74.38,116.326 74.38,116.468 74.38,115.309 68.432,118.744 	"/>
	<polygon fill="#DCCEC0" points="68.432,120.918 75.383,116.905 75.383,115.891 68.432,119.902 	"/>
	<polygon fill="#F1ECE5" points="68.432,117.586 72.39,115.3 74.38,115.309 75.383,115.889 68.432,119.902 	"/>
</g>
<g>
	<polygon fill="#3D2606" points="107.466,81.256 107.466,95.05 101.517,98.486 101.517,84.689 	"/>
	
		<linearGradient id="SVGID_14_" gradientUnits="userSpaceOnUse" x1="-441.2058" y1="-66.3169" x2="-432.8214" y2="-66.3169" gradientTransform="matrix(-1 0 0 -1 -325.356 21.8359)">
		<stop  offset="0" style="stop-color:#B6A49C"/>
		<stop  offset="1" style="stop-color:#9E8F88"/>
	</linearGradient>
	<polygon fill="url(#SVGID_14_)" points="107.466,81.256 107.466,95.05 108.469,95.63 108.469,80.676 	"/>
	<polygon fill="#8C614D" points="101.517,85.424 105.459,83.147 105.459,96.209 101.517,98.486 	"/>
	<polygon fill="#533B40" points="106.798,81.642 106.798,94.665 101.517,97.713 101.517,84.689 	"/>
	<polygon fill="#6E565A" points="101.517,85.424 105.459,83.147 105.459,95.438 101.517,97.713 	"/>
	<path fill="#B4A19B" d="M100.53,103.189l6.952-4.014l0.985-2.529v0.142V95.63l-6.951,4.015l-0.986,2.528
		C100.53,106.9,100.53,98.463,100.53,103.189z"/>
	
		<linearGradient id="SVGID_15_" gradientUnits="userSpaceOnUse" x1="-508.0374" y1="-139.3887" x2="-419.3867" y2="-72.5856" gradientTransform="matrix(-1 0 0 -1 -325.356 21.8359)">
		<stop  offset="0" style="stop-color:#B6A49C"/>
		<stop  offset="1" style="stop-color:#9E8F88"/>
	</linearGradient>
	<polygon fill="url(#SVGID_15_)" points="101.517,99.645 101.518,100.66 102.521,101.24 102.521,100.223 	"/>
	<polygon fill="#DCCEC0" points="102.521,101.24 109.473,97.227 109.473,96.209 102.521,100.223 	"/>
	<polygon fill="#F1ECE5" points="101.524,99.676 101.517,98.486 106.479,95.621 108.469,95.63 109.473,96.209 102.521,100.223 	"/>
	
		<linearGradient id="SVGID_16_" gradientUnits="userSpaceOnUse" x1="-419.177" y1="-171.4609" x2="-451.212" y2="56.4797" gradientTransform="matrix(-1 0 0 -1 -325.356 21.8359)">
		<stop  offset="0" style="stop-color:#B6A49C"/>
		<stop  offset="1" style="stop-color:#9E8F88"/>
	</linearGradient>
	<path fill="url(#SVGID_16_)" d="M107.466,95.05c0.669,0.388,1.338,0.773,2.008,1.159h-0.001h-4.014
		C106.128,95.824,106.798,95.438,107.466,95.05z"/>
</g>
<g>
	<polygon fill="#3D2606" points="96.103,64.723 96.103,78.518 90.153,81.953 90.153,68.157 	"/>
	
		<linearGradient id="SVGID_17_" gradientUnits="userSpaceOnUse" x1="-441.302" y1="-97.3696" x2="-412.4384" y2="-25.9297" gradientTransform="matrix(-1 0 0 -1 -325.356 21.8359)">
		<stop  offset="0" style="stop-color:#B6A49C"/>
		<stop  offset="1" style="stop-color:#9E8F88"/>
	</linearGradient>
	<polygon fill="url(#SVGID_17_)" points="96.103,64.723 96.103,78.518 97.105,79.097 97.105,64.143 	"/>
	
		<linearGradient id="SVGID_18_" gradientUnits="userSpaceOnUse" x1="-407.7449" y1="-154.8252" x2="-439.7563" y2="72.9473" gradientTransform="matrix(-1 0 0 -1 -325.356 21.8359)">
		<stop  offset="0" style="stop-color:#B6A49C"/>
		<stop  offset="1" style="stop-color:#9E8F88"/>
	</linearGradient>
	<polygon fill="url(#SVGID_18_)" points="95.1,79.097 96.103,78.518 97.105,79.097 	"/>
	<polygon fill="#8C614D" points="90.153,68.891 95.116,66.025 95.116,79.087 90.153,81.953 	"/>
	<polygon fill="#533B40" points="95.434,65.108 95.434,78.131 90.153,81.181 90.153,68.157 	"/>
	<polygon fill="#6E565A" points="90.153,68.891 95.116,66.025 95.116,78.314 90.153,81.181 	"/>
	<path fill="#B4A19B" d="M89.167,86.657l6.952-4.014l0.986-2.53v0.143v-1.159l-6.952,4.014l-0.986,2.53
		C89.167,90.369,89.167,81.93,89.167,86.657z"/>
	
		<linearGradient id="SVGID_19_" gradientUnits="userSpaceOnUse" x1="-496.7058" y1="-122.8804" x2="-408.0183" y2="-56.0496" gradientTransform="matrix(-1 0 0 -1 -325.356 21.8359)">
		<stop  offset="0" style="stop-color:#B6A49C"/>
		<stop  offset="1" style="stop-color:#9E8F88"/>
	</linearGradient>
	<polygon fill="url(#SVGID_19_)" points="90.153,83.111 90.154,84.127 91.157,84.706 91.157,83.69 	"/>
	<polygon fill="#DCCEC0" points="91.157,84.706 98.109,80.692 98.109,79.676 91.157,83.69 	"/>
	<polygon fill="#F1ECE5" points="90.162,83.144 90.153,81.953 95.116,79.087 97.106,79.097 98.109,79.676 91.157,83.69 	"/>
</g>
<g>
	<polygon fill="#3D2606" points="84.74,71.282 84.74,85.078 78.791,88.512 78.791,74.718 	"/>
	
		<linearGradient id="SVGID_20_" gradientUnits="userSpaceOnUse" x1="-429.9397" y1="-103.9287" x2="-401.0763" y2="-32.4894" gradientTransform="matrix(-1 0 0 -1 -325.356 21.8359)">
		<stop  offset="0" style="stop-color:#B6A49C"/>
		<stop  offset="1" style="stop-color:#9E8F88"/>
	</linearGradient>
	<polygon fill="url(#SVGID_20_)" points="84.739,71.282 84.74,85.078 85.743,85.657 85.743,70.703 	"/>
	
		<linearGradient id="SVGID_21_" gradientUnits="userSpaceOnUse" x1="-396.4045" y1="-161.2363" x2="-428.3669" y2="66.1876" gradientTransform="matrix(-1 0 0 -1 -325.356 21.8359)">
		<stop  offset="0" style="stop-color:#B6A49C"/>
		<stop  offset="1" style="stop-color:#9E8F88"/>
	</linearGradient>
	<polygon fill="url(#SVGID_21_)" points="83.736,85.657 84.74,85.078 85.743,85.657 	"/>
	<polygon fill="#8C614D" points="78.791,75.451 83.753,72.585 83.753,85.646 78.791,88.512 	"/>
	<polygon fill="#533B40" points="84.071,71.668 84.071,84.691 78.791,87.741 78.791,74.718 	"/>
	<polygon fill="#6E565A" points="78.791,75.451 83.753,72.585 83.753,84.875 78.791,87.741 	"/>
	<path fill="#B4A19B" d="M77.804,93.216l6.951-4.014l0.987-2.53v0.145v-1.159l-6.952,4.014l-0.986,2.53
		C77.804,96.928,77.804,88.49,77.804,93.216z"/>
	
		<linearGradient id="SVGID_22_" gradientUnits="userSpaceOnUse" x1="-485.321" y1="-129.4243" x2="-396.6581" y2="-62.6119" gradientTransform="matrix(-1 0 0 -1 -325.356 21.8359)">
		<stop  offset="0" style="stop-color:#B6A49C"/>
		<stop  offset="1" style="stop-color:#9E8F88"/>
	</linearGradient>
	<polygon fill="url(#SVGID_22_)" points="78.791,89.67 78.791,90.688 79.794,91.266 79.794,90.25 	"/>
	<polygon fill="#DCCEC0" points="79.794,91.266 86.746,87.252 86.746,86.236 79.794,90.25 	"/>
	<polygon fill="#F1ECE5" points="78.798,89.704 78.791,88.512 83.753,85.646 85.743,85.657 86.746,86.236 79.794,90.25 	"/>
</g>
<g>
	<polygon fill="#3D2606" points="73.377,77.842 73.377,91.639 68.432,94.493 68.432,80.698 	"/>
	
		<linearGradient id="SVGID_23_" gradientUnits="userSpaceOnUse" x1="-418.5754" y1="-110.4878" x2="-389.7131" y2="-39.0509" gradientTransform="matrix(-1 0 0 -1 -325.356 21.8359)">
		<stop  offset="0" style="stop-color:#B6A49C"/>
		<stop  offset="1" style="stop-color:#9E8F88"/>
	</linearGradient>
	<polygon fill="url(#SVGID_23_)" points="73.376,77.842 73.377,91.639 74.38,92.217 74.38,77.264 	"/>
	
		<linearGradient id="SVGID_24_" gradientUnits="userSpaceOnUse" x1="-385.0393" y1="-167.7983" x2="-417.0016" y2="59.6252" gradientTransform="matrix(-1 0 0 -1 -325.356 21.8359)">
		<stop  offset="0" style="stop-color:#B6A49C"/>
		<stop  offset="1" style="stop-color:#9E8F88"/>
	</linearGradient>
	<polygon fill="url(#SVGID_24_)" points="72.373,92.217 73.377,91.639 74.38,92.217 	"/>
	<polygon fill="#8C614D" points="68.432,81.431 72.39,79.146 72.39,92.208 68.432,94.493 	"/>
	<polygon fill="#533B40" points="72.708,78.228 72.708,91.252 68.432,93.721 68.432,80.698 	"/>
	<polygon fill="#6E565A" points="68.432,81.431 72.39,79.146 72.39,91.436 68.432,93.721 	"/>
	<polygon fill="#B4A19B" points="68.432,98.627 73.393,95.762 74.38,93.232 74.38,93.375 74.38,92.217 68.432,95.65 	"/>
	<polygon fill="#DCCEC0" points="68.432,97.826 75.383,93.813 75.383,92.796 68.432,96.811 	"/>
	<polygon fill="#F1ECE5" points="68.432,94.493 72.39,92.208 74.38,92.217 75.383,92.796 68.432,96.811 	"/>
</g>
<g>
	<polygon fill="#3D2606" points="107.466,58.163 107.466,71.958 101.517,75.393 101.517,61.597 	"/>
	
		<linearGradient id="SVGID_25_" gradientUnits="userSpaceOnUse" x1="-441.2058" y1="-43.2241" x2="-432.8214" y2="-43.2241" gradientTransform="matrix(-1 0 0 -1 -325.356 21.8359)">
		<stop  offset="0" style="stop-color:#B6A49C"/>
		<stop  offset="1" style="stop-color:#9E8F88"/>
	</linearGradient>
	<polygon fill="url(#SVGID_25_)" points="107.466,58.163 107.466,71.958 108.469,72.537 108.469,57.583 	"/>
	<polygon fill="#8C614D" points="101.517,62.331 105.459,60.055 105.459,73.117 101.517,75.393 	"/>
	<polygon fill="#533B40" points="106.798,58.549 106.798,71.572 101.517,74.62 101.517,61.597 	"/>
	<polygon fill="#6E565A" points="101.517,62.331 105.459,60.055 105.459,72.345 101.517,74.62 	"/>
	<path fill="#B4A19B" d="M100.53,80.097l6.952-4.014l0.985-2.53v0.142v-1.158l-6.951,4.014l-0.986,2.53
		C100.53,83.808,100.53,75.37,100.53,80.097z"/>
	
		<linearGradient id="SVGID_26_" gradientUnits="userSpaceOnUse" x1="-508.0408" y1="-116.2979" x2="-419.3865" y2="-49.4921" gradientTransform="matrix(-1 0 0 -1 -325.356 21.8359)">
		<stop  offset="0" style="stop-color:#B6A49C"/>
		<stop  offset="1" style="stop-color:#9E8F88"/>
	</linearGradient>
	<polygon fill="url(#SVGID_26_)" points="101.517,76.551 101.518,77.567 102.521,78.146 102.521,77.13 	"/>
	<polygon fill="#DCCEC0" points="102.521,78.146 109.473,74.133 109.473,73.117 102.521,77.13 	"/>
	<polygon fill="#F1ECE5" points="101.524,76.584 101.517,75.393 106.479,72.528 108.469,72.537 109.473,73.117 102.521,77.13 	"/>
	
		<linearGradient id="SVGID_27_" gradientUnits="userSpaceOnUse" x1="-419.1716" y1="-148.4004" x2="-451.2176" y2="79.6182" gradientTransform="matrix(-1 0 0 -1 -325.356 21.8359)">
		<stop  offset="0" style="stop-color:#B6A49C"/>
		<stop  offset="1" style="stop-color:#9E8F88"/>
	</linearGradient>
	<path fill="url(#SVGID_27_)" d="M107.466,71.958c0.669,0.387,1.338,0.772,2.008,1.159h-0.001h-4.014
		C106.128,72.73,106.798,72.345,107.466,71.958z"/>
</g>
<polygon fill="#6E565A" points="106.487,113.822 106.487,118.634 98.69,123.134 98.69,118.324 "/>
<polygon fill="#533B40" points="106.487,113.822 106.487,118.634 98.69,123.134 98.69,123.134 105.318,119.307 105.318,115.859 
	98.69,119.686 98.69,118.324 "/>
<polygon fill="#B47E67" points="98.69,123.134 106.487,118.634 107.56,119.254 98.69,124.375 "/>
<polygon fill="#533317" points="105.318,119.307 106.487,118.633 107.56,119.254 107.467,119.307 "/>
<linearGradient id="SVGID_28_" gradientUnits="userSpaceOnUse" x1="-435.6384" y1="-96.2798" x2="-432.0032" y2="-93.8278" gradientTransform="matrix(-1 0 0 -1 -325.356 21.8359)">
	<stop  offset="0" style="stop-color:#533317"/>
	<stop  offset="1" style="stop-color:#3D2606"/>
</linearGradient>
<polygon fill="url(#SVGID_28_)" points="106.487,113.822 106.487,118.634 107.56,119.254 107.561,113.202 "/>
<polygon fill="#6E565A" points="106.487,122.391 106.487,140.536 98.69,145.038 98.69,126.893 "/>
<polygon fill="#533B40" points="106.487,122.393 106.487,140.536 98.69,145.038 98.69,145.038 105.318,141.21 105.318,124.43 
	98.69,128.255 98.69,126.893 "/>
<linearGradient id="SVGID_29_" gradientUnits="userSpaceOnUse" x1="-441.0193" y1="-115.145" x2="-428.7651" y2="-106.8794" gradientTransform="matrix(-1 0 0 -1 -325.356 21.8359)">
	<stop  offset="0" style="stop-color:#533317"/>
	<stop  offset="1" style="stop-color:#3D2606"/>
</linearGradient>
<polygon fill="url(#SVGID_29_)" points="106.487,122.393 106.487,140.536 107.56,141.157 107.561,121.771 "/>
<polygon fill="#6E565A" points="96.369,119.664 96.369,124.475 88.572,128.977 88.572,124.165 "/>
<polygon fill="#533B40" points="96.369,119.665 96.369,119.783 96.369,124.475 88.572,128.977 88.572,128.975 95.295,125.094 
	95.295,123.064 88.572,126.948 88.572,125.527 88.572,124.166 88.572,124.165 96.369,119.664 "/>
<polygon fill="#B47E67" points="88.572,128.977 96.368,124.475 97.442,125.095 88.572,130.216 "/>
<polygon fill="#533317" points="95.294,125.095 96.368,124.475 97.442,125.095 "/>
<polygon fill="#59371B" points="95.294,125.095 96.368,124.475 97.442,125.095 "/>
<linearGradient id="SVGID_30_" gradientUnits="userSpaceOnUse" x1="-425.6086" y1="-102.1802" x2="-421.7971" y2="-99.6093" gradientTransform="matrix(-1 0 0 -1 -325.356 21.8359)">
	<stop  offset="0" style="stop-color:#533317"/>
	<stop  offset="1" style="stop-color:#3D2606"/>
</linearGradient>
<polygon fill="url(#SVGID_30_)" points="96.368,119.665 96.368,124.475 97.442,125.095 97.442,119.043 "/>
<polygon fill="#6E565A" points="96.369,128.232 96.369,142.42 88.572,146.92 88.572,132.734 "/>
<polygon fill="#533B40" points="96.369,128.232 96.369,142.42 88.572,146.922 88.572,146.92 95.295,143.04 95.295,130.214 
	88.572,134.096 88.572,132.734 "/>
<polygon fill="#B47E67" points="88.572,146.92 96.368,142.42 97.442,143.041 88.572,148.162 "/>
<polygon fill="#533317" points="95.294,143.041 96.368,142.42 97.442,143.041 "/>
<polygon fill="#59371B" points="95.294,143.041 96.368,142.42 97.442,143.041 "/>
<linearGradient id="SVGID_31_" gradientUnits="userSpaceOnUse" x1="-429.0686" y1="-117.7725" x2="-419.8434" y2="-111.55" gradientTransform="matrix(-1 0 0 -1 -325.356 21.8359)">
	<stop  offset="0" style="stop-color:#533317"/>
	<stop  offset="1" style="stop-color:#3D2606"/>
</linearGradient>
<polygon fill="url(#SVGID_31_)" points="96.368,128.232 96.368,142.42 97.442,143.041 97.442,127.613 "/>
<polygon fill="#6E565A" points="86.251,125.506 86.251,130.316 78.454,134.818 78.454,130.007 "/>
<polygon fill="#533B40" points="86.251,125.506 86.251,128.288 86.251,130.316 78.454,134.818 78.454,134.818 85.178,130.936 
	85.178,128.908 78.454,132.789 78.454,131.37 78.454,130.007 78.454,130.007 "/>
<polygon fill="#B47E67" points="78.454,134.818 86.25,130.316 87.324,130.938 78.454,136.059 "/>
<polygon fill="#533317" points="85.177,130.938 86.25,130.316 87.324,130.938 "/>
<polygon fill="#59371B" points="85.177,130.938 86.25,130.316 87.324,130.938 "/>
<linearGradient id="SVGID_32_" gradientUnits="userSpaceOnUse" x1="-415.4919" y1="-108.0234" x2="-411.6796" y2="-105.4519" gradientTransform="matrix(-1 0 0 -1 -325.356 21.8359)">
	<stop  offset="0" style="stop-color:#533317"/>
	<stop  offset="1" style="stop-color:#3D2606"/>
</linearGradient>
<polygon fill="url(#SVGID_32_)" points="86.25,125.506 86.25,130.316 87.324,130.938 87.325,124.885 "/>
<polygon fill="#6E565A" points="86.251,134.076 86.251,148.264 78.454,152.764 78.454,138.577 "/>
<polygon fill="#533B40" points="86.251,134.077 86.251,148.264 78.454,152.764 78.454,152.764 85.178,148.881 85.178,136.059 
	78.454,139.938 78.454,138.577 "/>
<polygon fill="#B47E67" points="78.454,152.764 86.25,148.264 87.324,148.882 78.454,154.003 "/>
<polygon fill="#59371B" points="85.177,148.882 86.25,148.264 87.324,148.882 "/>
<polygon fill="#59371B" points="85.177,148.882 86.25,148.264 87.324,148.882 "/>
<linearGradient id="SVGID_33_" gradientUnits="userSpaceOnUse" x1="-418.95" y1="-123.6147" x2="-409.726" y2="-117.3931" gradientTransform="matrix(-1 0 0 -1 -325.356 21.8359)">
	<stop  offset="0" style="stop-color:#533317"/>
	<stop  offset="1" style="stop-color:#3D2606"/>
</linearGradient>
<polygon fill="url(#SVGID_33_)" points="86.25,134.077 86.25,148.264 87.324,148.882 87.325,133.455 "/>
<polygon fill="#6E565A" points="76.133,131.348 76.133,136.16 68.432,140.605 68.432,135.795 "/>
<polygon fill="#533B40" points="76.133,131.348 76.133,134.129 73.717,135.525 73.717,132.744 "/>
<polygon fill="#533B40" points="76.133,131.348 76.133,136.16 68.432,140.605 68.432,140.605 75.06,136.779 75.06,133.33 
	68.432,137.157 68.432,135.795 "/>
<polygon fill="#B47E67" points="68.432,140.605 76.133,136.16 77.206,136.781 68.432,141.846 "/>
<polygon fill="#533317" points="75.059,136.781 76.133,136.16 77.206,136.781 "/>
<polygon fill="#59371B" points="75.059,136.781 76.133,136.16 77.206,136.781 "/>
<linearGradient id="SVGID_34_" gradientUnits="userSpaceOnUse" x1="-405.3723" y1="-113.8647" x2="-401.5607" y2="-111.2936" gradientTransform="matrix(-1 0 0 -1 -325.356 21.8359)">
	<stop  offset="0" style="stop-color:#533317"/>
	<stop  offset="1" style="stop-color:#3D2606"/>
</linearGradient>
<polygon fill="url(#SVGID_34_)" points="76.133,131.348 76.133,136.16 77.206,136.781 77.207,130.727 "/>
<polygon fill="#6E565A" points="76.133,139.917 76.133,154.105 68.432,158.551 68.432,144.365 "/>
<polygon fill="#533B40" points="76.133,139.918 76.133,154.105 68.432,158.552 68.432,158.551 75.06,154.725 75.06,141.9 
	68.432,145.727 68.432,144.365 "/>
<polygon fill="#B47E67" points="68.432,158.551 76.133,154.105 77.206,154.725 68.432,159.792 "/>
<polygon fill="#59371B" points="75.059,154.725 76.133,154.105 77.206,154.725 "/>
<polygon fill="#59371B" points="75.059,154.725 76.133,154.105 77.206,154.725 "/>
<linearGradient id="SVGID_35_" gradientUnits="userSpaceOnUse" x1="-408.8328" y1="-129.4565" x2="-399.6091" y2="-123.235" gradientTransform="matrix(-1 0 0 -1 -325.356 21.8359)">
	<stop  offset="0" style="stop-color:#533317"/>
	<stop  offset="1" style="stop-color:#3D2606"/>
</linearGradient>
<polygon fill="url(#SVGID_35_)" points="76.133,139.918 76.133,154.105 77.206,154.725 77.207,139.297 "/>
<g>
	<g>
		<g enable-background="new    ">
			<g>
				<path fill="#938824" d="M113.677,38.155c0.036-0.039,0.048-0.052,0.061-0.065C113.714,38.117,113.677,38.155,113.677,38.155z"/>
				<path fill="#938824" d="M113.738,38.09C113.758,38.069,113.76,38.066,113.738,38.09L113.738,38.09z"/>
				<path fill="#938824" d="M114.125,36.158c0-0.025-0.009-0.046-0.013-0.069c0.004,0.001,0.009,0.003,0.014,0.005
					c-0.018-0.314-0.448-0.448-0.805-0.542c0.965-0.557,1.932-1.114,2.897-1.673c-0.584-0.211-0.978-0.354-1.549-0.047
					c-0.81,0.434-1.596,0.918-2.392,1.377c-0.11,0.421,0.303,0.562,0.624,0.647c0.617,0.163-0.182,1.202,0.357,1.46
					c-0.132,0.014-0.263,0.093-0.42,0.284c0.005,0.001,0.009,0.003,0.014,0.005c-0.055,0.054-0.113,0.114-0.182,0.187l0.052,0.019
					c-0.461-0.151-0.837,0.827-1.431,0.611c0.417,0.152,0.869,0.393,1.32,0.393c-0.001,0-0.001,0-0.002,0
					c0.51-0.056,0.915-0.489,1.236-0.849c-0.005-0.002-0.011-0.004-0.016-0.006l0,0c0.334,0.083,0.412-1.68,0.25-1.811
					c0.015,0.005,0.029,0.01,0.044,0.015c0,0,0-0.001,0-0.001c0,0,0.001,0,0.001,0C114.127,36.16,114.125,36.159,114.125,36.158
					C114.125,36.132,114.125,36.159,114.125,36.158z"/>
				<path fill="#938824" d="M112.301,38.784C112.301,38.784,112.512,38.861,112.301,38.784L112.301,38.784z"/>
				<path fill="#938824" d="M110.994,39.632c-0.408-0.146-0.814-0.321-1.227-0.469C110.128,39.389,110.597,39.491,110.994,39.632z"
					/>
				<path fill="#938824" d="M109.984,38.701c0.057,0.015,0.116,0.03,0.157,0.045c-0.109-0.278-0.188-0.724-0.204-1.019
					c0.001,0,0.002,0,0.003,0.001c-0.025-0.373-0.007-0.911,0.056-1.275c0.001,0,0.003,0.001,0.004,0.001
					c0.281-1.918,1.416-3.777,3.113-4.759c-0.016-0.006-0.03-0.012-0.046-0.018c0.299,0.108,0.427,0.48,0.531,0.761
					c0.253,0.684,0.664,0.727,1.329,0.968c-0.281-0.955-0.866-1.397-1.773-1.733c0.476-0.266,0.979-0.416,1.528-0.416
					c-0.001,0-0.001,0-0.002,0c0.108-0.102,0.172-0.29,0.249-0.417c0.017,0.004,0.312-0.181,0.345-0.199
					c-0.436-0.158-0.948-0.534-1.35-0.166c0.048,0.018,0.095,0.035,0.143,0.052c-0.18-0.006-0.328,0.079-0.395,0.366
					c0.072,0.026,0.145,0.052,0.217,0.078c-0.194-0.053-0.393-0.086-0.603-0.058c0.017,0.006,0.033,0.012,0.05,0.018
					c-0.109,0.005-0.219,0.01-0.341,0.039l0.63,0.228c-0.537-0.189-0.87-0.242-1.52,0.132l0.137,0.049
					c-0.106-0.014-0.197-0.014-0.248,0.017c0,0,0,0,0.001,0c-0.573,0.346-1.084,0.811-1.514,1.324
					c0.003,0.001,0.005,0.002,0.008,0.003c-0.258,0.31-0.483,0.625-0.678,0.979l0.27,0.098c-0.42-0.079-0.603,0.544-0.713,0.839
					c0.005,0.002,0.005,0.002,0,0c-0.069,0.189-0.208,0.526-0.025,0.699c-0.072-0.019-0.143-0.037-0.185-0.052
					c-0.223,0.83-0.41,1.902-0.118,2.731c0.251,0.952,0.869,1.199,1.733,1.509C110.392,39.316,110.337,38.865,109.984,38.701
					C110.041,38.716,110.337,38.865,109.984,38.701z"/>
				<path fill="#938824" d="M107.675,39.814c0,0,0.012-0.076,0.02-0.13C107.689,39.713,107.683,39.751,107.675,39.814z"/>
				<path fill="#938824" d="M107.694,39.684C107.705,39.606,107.701,39.633,107.694,39.684L107.694,39.684z"/>
				<path fill="#938824" d="M105.596,42.726C105.774,42.789,105.596,42.726,105.596,42.726L105.596,42.726z"/>
				<path fill="#938824" d="M105.173,42.573c0.152,0.057,0.296,0.11,0.396,0.143C105.436,42.668,105.304,42.621,105.173,42.573z"/>
				<path fill="#938824" d="M107.704,37.192c-0.001-0.01-0.002-0.017-0.003-0.023C107.702,37.174,107.703,37.184,107.704,37.192z"/>
				<path fill="#938824" d="M107.701,37.169C107.699,37.152,107.699,37.156,107.701,37.169L107.701,37.169z"/>
				<path fill="#938824" d="M107.712,37.248c-0.003-0.023-0.006-0.042-0.008-0.056C107.707,37.209,107.709,37.229,107.712,37.248z"
					/>
				<path fill="#938824" d="M107.72,37.315c0,0-0.004-0.032-0.009-0.067C107.715,37.269,107.717,37.286,107.72,37.315z"/>
				<path fill="#938824" d="M107.491,36.421c0,0-0.015-0.034-0.028-0.064C107.47,36.374,107.474,36.383,107.491,36.421z"/>
				<path fill="#938824" d="M107.463,36.356C107.44,36.307,107.446,36.32,107.463,36.356L107.463,36.356z"/>
				<path fill="#938824" d="M107.196,34.853C107.178,34.847,107.177,34.847,107.196,34.853L107.196,34.853z"/>
				<path fill="#938824" d="M108.215,35.221c-1.157-0.432-2.049-0.633-3.143,0.136c-0.789,0.388-1.497,1.427-1.917,2.166
					c0,0,0.001,0,0.002,0c-0.001,0-0.001,0-0.001,0.001c0.054,0.02,0.108,0.039,0.162,0.059c-0.444,0.032-0.503,0.59-0.632,0.926
					c0.001,0,0.002,0,0.003,0.001c-0.32,0.16-0.338,1.158-0.387,1.459c-0.001,0-0.003-0.001-0.005-0.002
					c-0.058,0.403-0.08,0.8-0.049,1.206c-0.004-0.001-0.01-0.003-0.014-0.004c0.028,0.424,0.137,0.883,0.389,1.231
					c-0.903-0.412-0.991,0.049-1.271,0.816c-0.117,0.321-0.481,0.787-0.481,1.125c-0.12,0-0.724,0.652-0.879,0.748
					c-0.098-0.036-0.597,0.395-0.864,0.433c0.002,0,0.004,0.001,0.006,0.002c0.008,0-0.169-0.033-0.106-0.006
					c0.282,0.141,0.668,0.237,0.985,0.356c0,0-0.001,0-0.001,0c0.44,0.176,1.408-0.604,1.754-1.011
					c-0.002,0-0.004-0.001-0.006-0.002l0,0c0.076,0.038,0.478-0.95,0.486-0.976c0,0,0.001,0,0.001,0
					c0.1-0.27,0.642-1.104,0.202-1.246c0.132,0.105,0.253,0.097,0.363-0.025c0.125,0.122,0.262,0.229,0.411,0.319
					c0.344,0.212,0.728,0.36,1.106,0.496c-0.411-0.154-0.701-0.493-0.869-0.89c-0.049-0.116-0.179-0.985-0.222-1.006
					c0.002,0,0.003,0.001,0.005,0.001c-0.019-0.34-0.021-0.885,0.045-1.206c0.005,0.002,0.01,0.003,0.015,0.005
					c0.147-0.99,0.548-1.984,1.13-2.784c0.345-0.473,0.607-0.914,1.053-1.312c0.227-0.202,0.468-0.386,0.725-0.546
					c0.235,0.167,0.382,0.403,0.664,0.507c-0.13-0.046-0.261-0.093-0.391-0.14c0.156,0.336,0.068,0.806,0.408,0.953
					c-0.062-0.018-0.122-0.038-0.182-0.06c0.083,0.815,0.011,1.703,0.011,2.518c-0.018-0.006-0.04-0.012-0.054-0.017
					c0,0.686-0.427,1.769-0.862,2.299c0.014,0.005,0.026,0.01,0.04,0.015c-0.087,0.122-0.419,0.355-0.553,0.437
					c0.036,0.013,0.072,0.026,0.108,0.039c-0.186,0.129-0.347,0.112-0.563,0.142c0.025,0.009,0.051,0.019,0.077,0.028
					c-0.108-0.016-0.218-0.032-0.326-0.048c0.026,0.01,0.017,0.007-0.028-0.01c0.419,0.152,1.003,0.535,1.508,0.393
					c0.615-0.173,1.049-0.991,1.261-1.536c0.158-0.386,0.419-0.879,0.253-1.304c0.027,0.008,0.057,0.016,0.076,0.023
					c0.009-0.057-0.03-0.108-0.093-0.155c0.036,0.013,0.072,0.026,0.108,0.039c0.104-0.419,0.319-2.397,0.046-2.499
					c-0.065-0.507-0.214-0.872-0.706-1.067c0.159,0.058,0.317,0.116,0.477,0.173c-0.108-0.243-0.314-0.392-0.548-0.506
					c0.034,0.01,0.067,0.025,0.101,0.033c-0.004-0.001-0.008-0.003-0.012-0.004c0.005,0.001,0.009,0.003,0.013,0.004
					c-0.266-0.095-0.519-0.208-0.789-0.292c0.354-0.236,0.796-0.42,1.22-0.479c-0.006-0.002-0.011-0.004-0.017-0.006
					C107.611,35.151,108.362,35.272,108.215,35.221C107.934,35.116,108.237,35.229,108.215,35.221z"/>
				<path fill="#938824" d="M107.276,34.882c-0.047-0.017-0.066-0.024-0.08-0.029C107.224,34.863,107.276,34.882,107.276,34.882z"/>
				<path fill="#938824" d="M101.879,44.703c0.029-0.054,0.041-0.077,0.049-0.091C101.911,44.644,101.879,44.703,101.879,44.703z"/>
				<path fill="#938824" d="M101.927,44.612C101.938,44.593,101.938,44.592,101.927,44.612L101.927,44.612z"/>
				<path fill="#938824" d="M98.384,46.716C98.396,46.683,98.391,46.696,98.384,46.716L98.384,46.716z"/>
				<path fill="#938824" d="M98.375,46.737c0,0,0.004-0.01,0.009-0.021C98.381,46.723,98.38,46.725,98.375,46.737z"/>
				<path fill="#938824" d="M98.175,47.044c0.019-0.02,0.024-0.027,0.031-0.034C98.192,47.024,98.175,47.044,98.175,47.044z"/>
				<path fill="#938824" d="M98.206,47.01C98.217,46.998,98.219,46.996,98.206,47.01L98.206,47.01z"/>
				<path fill="#938824" d="M97.596,47.491c0.016-0.011,0.021-0.015,0.027-0.019C97.611,47.48,97.596,47.491,97.596,47.491z"/>
				<path fill="#938824" d="M97.624,47.472C97.635,47.464,97.637,47.462,97.624,47.472L97.624,47.472z"/>
				<path fill="#938824" d="M98.476,41.3c0.005,0.002,0.009,0.003,0.014,0.005c-0.02-0.301-0.431-0.431-0.778-0.524
					c1.022-0.591,2.047-1.183,3.069-1.772c-0.652-0.235-1.048-0.328-1.668,0.019c-0.412,0.231-2.624,1.236-2.428,1.694
					c-0.773-0.227-2.124,0.934-2.775,1.31c-1.017,0.586-2.033,1.171-3.048,1.759c-0.001,0.113-0.005,0.521-0.007,0.635
					c-0.355-0.16-0.729-0.318-1.04-0.033c0.052,0.019,0.104,0.037,0.155,0.056c-0.187-0.009-0.339,0.077-0.403,0.383
					c0.121,0.043,0.241,0.087,0.362,0.13c-0.284-0.093-0.577-0.146-0.877-0.103c0.023,0.008,0.047,0.017,0.069,0.025
					c-0.378,0.016-0.748,0.15-1.073,0.337l0.09,0.032c-0.069-0.008-0.131-0.007-0.167,0.015c0.066,0.024,0.132,0.047,0.198,0.071
					c-0.554-0.022-1.011,0.544-1.338,0.931c0.001,0,0.003,0.001,0.004,0.001c-0.31,0.38-0.542,0.774-0.723,1.235
					c-0.155,0.397-0.254,0.847-0.203,1.276c-0.003-0.001-0.006-0.002-0.009-0.003c0.058,0.962,0.854,1.179,1.626,1.457
					c-0.323-0.118-0.587-0.776-0.622-1.092c0.001,0,0.002,0,0.002,0c0-1.454,0.896-2.837,2.147-3.56
					c-0.079-0.025-0.158-0.054-0.235-0.085c0.477,0.136,0.928,0.359,1.409,0.533c-0.284-0.251-0.743-0.355-1.117-0.475
					c0.44-0.248,0.954-0.395,1.462-0.361c-0.002-0.001-0.004-0.001-0.006-0.002c0.002,0,0.004,0,0.006,0
					c-0.05-0.016-0.1-0.034-0.148-0.054c0.369,0.13,0.173-0.285,0.427-0.399c-0.014,1.077,0.033,1.09,0.994,1.435
					c0.005-0.404,0.241-1.787-0.078-2.06c0.261,0.092,0.878-0.413,1.119-0.552c-0.01,0.845-0.02,1.691-0.029,2.536
					c-0.006,0.479-0.295,2.252,0.05,2.583c-0.081-0.024-0.218,0.517-0.347,0.657c0.093,0.034,0.184,0.067,0.276,0.1
					c-0.18-0.033-0.355-0.014-0.564,0.139l0.221,0.08c-0.173-0.024-0.345,0.005-0.544,0.146c-0.15,0.576,0.584,0.602,1.002,0.751
					c0.054-0.205-0.009-0.338-0.126-0.434c0.217,0.077,0.589-0.24,0.743-0.417c0,0-0.001,0-0.001,0c0.001-0.001,0.104-0.113,0,0l0,0
					c0.084-0.088,0.341-0.508,0.255-0.537c0.011-0.066-0.026-0.123-0.086-0.173c0.036,0.01,0.07,0.02,0.097,0.029
					c0.012-1.007,0.024-2.014,0.036-3.021c0.008-0.677,0.384-2.528-0.383-2.785c0.696-0.402,1.393-0.804,2.089-1.206
					c0.189,0.233,0.231,0.561,0.449,0.772c0.231,0.225,0.693,0.3,0.989,0.406c-0.235-0.801-0.696-1.02-1.325-1.244
					c0.512-0.295,1.023-0.59,1.534-0.886c0.476,0.135,0.249,1.104,0.244,1.569c-0.008,0.624-0.015,1.248-0.022,1.872
					c-0.004,0.272-0.171,1.363,0.033,1.538c-0.017-0.005-0.035-0.01-0.051-0.016c-0.001,0.067,0.005,0.124,0.016,0.175
					c-0.009-0.003-0.021-0.006-0.029-0.009c-0.013,0.085,0.024,0.155,0.09,0.212c-0.076-0.024-0.132-0.038-0.136-0.029
					c0.064,0.023,0.129,0.047,0.193,0.07c-0.114-0.036-0.198-0.059-0.2-0.054c0.063,0.023,0.126,0.045,0.188,0.068
					c-0.138,0.011-0.248,0.063-0.338,0.172c0.003,0.001,0.006,0.002,0.009,0.003c-0.018,0.017-0.034,0.028-0.053,0.049
					c0.147,0.052,0.295,0.105,0.441,0.159c-0.336-0.104-0.509-0.06-1.02,0.286c-0.148,0.576,0.585,0.601,1.003,0.751
					c0.054-0.205-0.008-0.338-0.124-0.434c0.26,0.091,0.519-0.237,0.707-0.399c-0.069-0.025,0.032-0.035,0.192-0.291
					c-0.001,0-0.002-0.001-0.004-0.001l0,0c0.002,0,0.003,0.001,0.005,0.001c-0.008-0.004-0.006-0.01,0.006-0.018
					c-0.006-0.002-0.005-0.002,0.001,0c0.002-0.005,0.001-0.009,0.003-0.014c0,0,0.001,0,0.001,0c0-0.058,0.01-0.115,0.031-0.171
					c0.004,0.001,0.009,0.002,0.012,0.003c0.011-0.078-0.027-0.143-0.092-0.199c0.043,0.012,0.079,0.023,0.104,0.032
					c0.011-0.9,0.021-1.801,0.032-2.702c0.004-0.382,0.251-2.068-0.025-2.309c0.018,0.006,0.039,0.012,0.053,0.017v0l0.001,0
					C98.494,41.359,98.483,41.331,98.476,41.3C98.481,41.302,98.483,41.331,98.476,41.3z"/>
				<path fill="#938824" d="M95.302,48.059c-0.316-0.116-0.485,0.101-0.81,0.117c0.125,0.045,0.25,0.09,0.375,0.135
					c-0.162-0.047-0.324-0.097-0.485-0.148c0.139,0.05,0.953,0.447,1.063,0.385c0.026-0.015,0.504-0.128,0.664-0.198
					C95.84,48.251,95.571,48.154,95.302,48.059C94.985,47.943,95.571,48.154,95.302,48.059z M95.293,48.469
					c-0.127-0.039-0.251-0.085-0.372-0.139C95.051,48.362,95.175,48.409,95.293,48.469C95.237,48.451,95.282,48.464,95.293,48.469z"
					/>
				<path fill="#938824" d="M93.299,49.93C93.363,49.883,93.328,49.908,93.299,49.93L93.299,49.93z"/>
				<path fill="#938824" d="M89.858,51.675c0.001-0.002,0.003-0.004,0.004-0.006C89.861,51.671,89.859,51.673,89.858,51.675z"/>
				<path fill="#938824" d="M89.862,51.668C89.959,51.501,89.903,51.597,89.862,51.668L89.862,51.668z"/>
				<path fill="#938824" d="M89.802,50.129c0.03,0.011,0.062,0.022,0.092,0.034c-0.007-0.004-0.016-0.005-0.022-0.009
					c0.008,0.003,0.015,0.006,0.022,0.008c-0.289-0.159-0.918-0.332-1.035-0.381c-0.118-0.04-0.072-0.022,0.139,0.053
					c-0.037-0.012-0.076-0.023-0.11-0.036c0,0,0.001,0,0.001,0c-0.001,0-0.001,0-0.002,0c0.167,0.106,0.233,0.277,0.247,0.47
					c-0.003-0.001-0.007-0.002-0.011-0.003c0.04,0.104,0.037,0.214-0.009,0.327c-0.003-0.001-0.006-0.001-0.009-0.002
					c-0.031,0.238-0.277,0.552-0.277,0.767c-0.181,0.303-0.485,0.604-0.789,0.786c0.005,0.002,0.01,0.003,0.015,0.005
					c-0.292,0.18-0.668,0.278-1.001,0.159c0.43,0.156,0.973,0.473,1.446,0.419c-0.011-0.004-0.022-0.006-0.034-0.01
					c0.603-0.151,1.024-0.477,1.369-0.995c0,0,0,0-0.001,0c0.001-0.001,0.002-0.002,0.002-0.002l-0.001,0
					c0.034-0.059,0.034-0.059,0,0l0,0c0.286-0.496,0.34-0.842,0.246-1.107c0.017,0.006,0.033,0.012,0.05,0.018
					C90.115,50.392,89.982,50.239,89.802,50.129C89.832,50.14,89.982,50.239,89.802,50.129z"/>
				<path fill="#938824" d="M89.806,47.734C89.768,47.721,89.781,47.725,89.806,47.734L89.806,47.734z"/>
				<path fill="#938824" d="M89.844,47.748c0,0-0.019-0.007-0.037-0.013C89.817,47.738,89.821,47.74,89.844,47.748z"/>
				<path fill="#938824" d="M90.842,48.109c-0.741-0.247-1.275-0.445-2.092-0.343c0.001,0,0.003,0.001,0.005,0.001
					c-0.002,0-0.004,0-0.005,0c-0.206-0.073-0.869,0.229-1.243,0.092c0.854,0.31,1.355,0.431,2.251,0.271
					c0.009-0.001,0.002-0.008-0.002-0.015C90.08,48.197,90.569,47.973,90.842,48.109C90.844,48.11,90.844,48.111,90.842,48.109z"/>
				<path fill="#938824" d="M90.81,47.09C90.796,47.048,90.8,47.059,90.81,47.09L90.81,47.09z"/>
				<path fill="#938824" d="M90.81,47.09c0.005,0.015,0.009,0.023,0.021,0.057C90.831,47.146,90.82,47.116,90.81,47.09z"/>
				<path fill="#938824" d="M89.22,45.67c0.264,0.254,0.314,0.642,0.511,0.938c0.221,0.333,0.747,0.413,1.1,0.538
					C90.477,46.155,90.136,46,89.22,45.67C89.57,46.006,90.136,46,89.22,45.67z"/>
				<path fill="#938824" d="M88.513,48.223C88.513,48.223,88.668,48.28,88.513,48.223L88.513,48.223z"/>
				<path fill="#938824" d="M86.524,51.534c0.272,0.098,0.308,0.012,0.545-0.125c-0.437-0.157-0.949-0.535-1.353-0.167
					c0.002,0.252,0.004,0.504,0.006,0.757c-0.976-0.378-0.699,0.495-1.054,0.96c-0.05-0.141-0.14-0.25-0.268-0.327
					c0.066,0.024,0.132,0.047,0.197,0.071c-0.167-0.401-0.587-0.524-0.964-0.642c0.206-0.117,0.432-0.279,0.589-0.459
					c-0.014,0.002-0.02-0.001-0.02-0.008c0.109,0.039,0.271-0.403,0.314-0.5c-0.001,0-0.002-0.001-0.003-0.001l0,0
					c0.002,0,0.003,0,0.004,0.001c0.05-0.116,0.043-0.269-0.051-0.362c0.051,0.016,0.098,0.031,0.153,0.051
					c0.053-0.204,0.115-0.491-0.084-0.645c0.184,0.126,0.354,0.093,0.509-0.099c-0.41-0.149-0.925-0.527-1.309-0.19
					c-0.034,0.187-0.07,0.488,0.09,0.633c-0.074-0.02-0.146-0.04-0.213-0.063c0,0,0,0,0,0c0,0-0.001,0-0.001,0
					c-0.139,0.517-0.375,0.934-0.922,1.241l0.496,0.179c-0.361-0.122-0.586-0.127-1.079,0.159c0.336,0.121,0.672,0.241,1.007,0.363
					c0.457-0.262,0.265-0.133,0.654,0.036c-0.06-0.018-0.12-0.037-0.181-0.059c0.174,0.511,0.513,0.62,0.985,0.779
					c-0.186,0.366-0.289,0.815-0.588,1.112l0.055,0.02c-0.182-0.063-1.233,0.777-1.524,0.9l0.465,0.168
					c-0.229-0.079-0.483-0.143-0.599-0.125c0.016,0.006,0.031,0.012,0.048,0.017c-0.067-0.016-0.135-0.032-0.187-0.032
					c0.191,0.068,0.901,0.456,1.091,0.393c-0.14,0.046,0.213-0.068,0.189-0.057c-0.144-0.026-0.278-0.075-0.405-0.147
					c0.478,0.322,0.863-0.124,1.288-0.336c-0.001,0-0.001,0-0.001,0l0,0c0.098,0,0.532-0.386,0.587-0.435c-0.001,0-0.001,0-0.002,0
					c0.053-0.035,0.097-0.081,0.131-0.138c0,0-0.001,0-0.001,0c0.291-0.35,0.469-0.823,0.61-1.249c0,0.727,0.432,0.725,1.011,0.935
					C86.738,53.58,87.026,51.909,86.524,51.534C86.591,51.558,86.651,51.628,86.524,51.534z M84.468,54.405
					c-0.123-0.044-0.245-0.089-0.367-0.134l0.381,0.138C84.476,54.407,84.472,54.406,84.468,54.405
					C84.344,54.36,84.472,54.406,84.468,54.405z"/>
				<path fill="#938824" d="M84.995,54.594c0.019-0.018,0.024-0.024,0.031-0.031C85.012,54.576,84.995,54.594,84.995,54.594z"/>
				<path fill="#938824" d="M85.026,54.563C85.037,54.552,85.039,54.55,85.026,54.563L85.026,54.563z"/>
				<path fill="#938824" d="M83.525,55.515C83.645,55.465,83.525,55.515,83.525,55.515L83.525,55.515z"/>
				<path fill="#938824" d="M84.427,51.301c0,0,0.01-0.018,0.018-0.033C84.439,51.277,84.437,51.282,84.427,51.301z"/>
				<path fill="#938824" d="M84.444,51.269C84.457,51.245,84.454,51.251,84.444,51.269L84.444,51.269z"/>
				<path fill="#938824" d="M85.58,49.514C85.562,49.458,85.568,49.476,85.58,49.514L85.58,49.514z"/>
				<path fill="#938824" d="M85.58,49.514c0.005,0.016,0.007,0.023,0.018,0.056C85.597,49.57,85.589,49.542,85.58,49.514z"/>
				<path fill="#938824" d="M84.209,48.615c0.503,0.479,0.689,0.705,1.389,0.956C85.384,48.895,84.792,48.826,84.209,48.615
					C84.581,48.97,84.792,48.826,84.209,48.615z"/>
				<path fill="#938824" d="M84.64,50.711C84.647,50.686,84.648,50.681,84.64,50.711L84.64,50.711z"/>
				<path fill="#938824" d="M84.622,50.784c0.011-0.043,0.015-0.057,0.019-0.072C84.633,50.741,84.622,50.784,84.622,50.784z"/>
				<path fill="#938824" d="M83.741,52.001C83.767,51.986,83.761,51.989,83.741,52.001L83.741,52.001z"/>
				<path fill="#938824" d="M83.7,52.024c0,0,0.022-0.013,0.041-0.023C83.73,52.007,83.724,52.011,83.7,52.024z"/>
				<path fill="#938824" d="M81.405,56.727C81.51,56.614,81.405,56.727,81.405,56.727L81.405,56.727z"/>
				<path fill="#938824" d="M81.73,51.071c0-0.025-0.01-0.045-0.014-0.069c0.004,0.001,0.008,0.003,0.012,0.004
					c-0.017-0.317-0.435-0.45-0.788-0.544c0.656-0.378,1.312-0.757,1.967-1.136c0.328-0.189,0.656-0.379,0.984-0.568
					c0.5-0.289,0.809,0.036,1.322,0.222c-0.245-0.219-0.626-0.325-0.967-0.427c0.559-0.322,1.116-0.645,1.674-0.967
					c-0.35-0.125-0.805-0.478-1.188-0.259c-0.526,0.305-1.054,0.609-1.58,0.915c-1.082,0.623-2.162,1.25-3.244,1.871
					c0,0.001,0,0.001-0.001,0.001c0.088,0.043,0.095,0.141,0.02,0.293c-0.847-0.201-2.079,0.898-2.771,1.295
					c-0.101,0.382,0.234,0.538,0.54,0.624c0.299,0.084,0.41,0.002,0.401,0.362c-0.006,0.21-0.031,0.493,0.205,0.603
					c-0.055-0.017-0.11-0.033-0.168-0.054c-0.006,0.535-0.297,2.057,0.137,2.444c-0.054-0.018-0.106-0.034-0.165-0.055
					c-0.009,0.739-0.281,1.731-0.758,2.312c0.005,0.002,0.01,0.004,0.015,0.005c-0.111,0.178-0.514,0.474-0.701,0.586
					c0.047,0.017,0.094,0.034,0.142,0.051c-0.102,0.073-0.675,0.206-0.821,0.226c0.036,0.013,0.073,0.026,0.109,0.04
					c-0.146,0.004-0.289-0.018-0.427-0.067c1.208,0.439,1.812,0.584,2.69-0.478c-0.003-0.001-0.006-0.002-0.01-0.003
					c0.228-0.114,0.435-0.652,0.521-0.88c-0.001,0-0.001,0-0.002,0c0.093-0.242,0.159-0.513,0.194-0.77
					c0.001,0,0.003,0.001,0.004,0.001c0.033-0.237,0.063-0.556-0.152-0.723c0.064,0.019,0.132,0.04,0.202,0.065
					c0.006-0.534,0.298-2.063-0.14-2.446c0.055,0.018,0.107,0.034,0.168,0.056c0.003-0.236-0.007-0.41-0.033-0.549
					c0.009,0.003,0.016,0.004,0.024,0.008c-0.015-0.243-0.129-0.37-0.28-0.462c0.077,0.028,0.153,0.056,0.23,0.084
					c-0.079-0.381-0.536-0.508-0.921-0.615c0.548-0.316,1.096-0.633,1.644-0.949c0.339-0.196,0.527-0.415,0.918-0.31
					c-0.005,0.375-0.009,0.75-0.014,1.125c-0.007,0.624-0.014,1.248-0.021,1.871c-0.004,0.324-0.21,1.722,0.035,1.917
					c-0.019-0.005-0.221,0.533-0.325,0.643c0.137,0.049,0.273,0.098,0.41,0.147c-0.374-0.109-0.687,0.07-0.98,0.292
					c-0.148,0.576,0.584,0.602,1.002,0.751c0.054-0.204-0.008-0.336-0.123-0.432c0.376,0.14,1.035-0.882,0.953-0.913
					c0.012-0.067-0.026-0.124-0.087-0.175c0.041,0.012,0.075,0.022,0.098,0.03c0.011-0.9,0.022-1.8,0.033-2.7
					c0.004-0.372,0.247-2.084-0.026-2.311c0.019,0.005,0.036,0.011,0.054,0.018C81.73,51.072,81.73,51.071,81.73,51.071
					C81.73,51.045,81.73,51.071,81.73,51.071z M78.168,52.345c0.002-0.032,0.007-0.066,0.003-0.095
					c0.049,0.057,0.115,0.109,0.205,0.157C78.307,52.389,78.238,52.367,78.168,52.345C78.17,52.313,78.238,52.367,78.168,52.345z
					 M78.048,52.036c-0.005-0.004-0.008-0.009-0.013-0.014c0.04,0.015,0.081,0.03,0.122,0.044
					C78.12,52.056,78.083,52.046,78.048,52.036C78.043,52.031,78.083,52.046,78.048,52.036z"/>
				<path fill="#938824" d="M79.14,53.602C79.14,53.602,79.147,53.173,79.14,53.602L79.14,53.602z"/>
				<path fill="#938824" d="M79.082,52.683C79.044,52.492,79.082,52.683,79.082,52.683L79.082,52.683z"/>
				<path fill="#938824" d="M74.779,58.998c-0.055-0.755-0.001-1.526,0.008-2.283c0.006-0.418,0.224-1.458-0.234-1.731
					c0.108,0.03,0.201,0.056,0.254,0.075c0-0.031-0.011-0.057-0.017-0.084c0.005,0.002,0.011,0.003,0.016,0.005
					c-0.007-0.093-0.063-0.168-0.147-0.23c0.034,0.013,0.068,0.03,0.103,0.042c-0.204-0.279-0.596-0.209-0.83-0.404
					c0.333,0.125,1.136-0.534,1.447-0.713c0.549-0.317,1.099-0.635,1.648-0.952c-0.557-0.2-0.952-0.361-1.504-0.072
					c-0.839,0.44-1.647,0.947-2.468,1.421c-0.093,0.36,0.211,0.516,0.501,0.602c0.435,0.127,0.233,0.813,0.229,1.228
					c-0.006,0.525-0.328,2.153,0.218,2.49c-0.099-0.025-0.186-0.047-0.246-0.069c-0.001,0.104,0.01,0.189,0.018,0.279
					c-0.004-0.001-0.008-0.002-0.012-0.004c0.063,1.036,0.865,1.332,1.715,1.639C74.928,60.051,75.077,59.359,74.779,58.998
					C74.771,58.891,74.934,59.187,74.779,58.998z M74.029,54.505c-0.002-0.003-0.003-0.008-0.005-0.012
					c0.028,0.012,0.056,0.021,0.084,0.034C74.082,54.52,74.054,54.512,74.029,54.505C74.027,54.501,74.054,54.512,74.029,54.505z"/>
				<path fill="#938824" d="M74.807,55.032C74.807,55.004,74.807,55.014,74.807,55.032L74.807,55.032z"/>
				<path fill="#938824" d="M74.806,55.059c0,0,0-0.014,0.001-0.027C74.806,55.04,74.806,55.043,74.806,55.059z"/>
				<path fill="#938824" d="M71.899,63.105l0.278,0.101c-0.185-0.037-0.367-0.027-0.585,0.105c0.008,0.003,0.016,0.005,0.023,0.008
					c-0.043,0.02-0.076,0.024-0.124,0.051l0.512,0.185c-0.327-0.109-0.669-0.005-0.961-0.112c0.396,0.144,0.793,0.332,1.21,0.386
					c-0.006-0.002-0.013-0.004-0.019-0.006c0.368-0.037,0.715-0.389,0.982-0.614C72.677,63.015,72.358,62.716,71.899,63.105
					C71.899,63.105,72.358,62.716,71.899,63.105z"/>
				<path fill="#938824" d="M72.499,63.734c0.021-0.012,0.024-0.014,0.035-0.02C72.516,63.724,72.499,63.734,72.499,63.734z"/>
				<path fill="#938824" d="M72.534,63.714C72.561,63.698,72.576,63.69,72.534,63.714L72.534,63.714z"/>
				<path fill="#938824" d="M72.068,63.814C72.095,63.824,72.13,63.836,72.068,63.814L72.068,63.814z"/>
				<path fill="#938824" d="M71.09,62.642C71.282,62.358,71.09,62.642,71.09,62.642L71.09,62.642z"/>
				<path fill="#938824" d="M70.625,65.129c-0.261-0.092-0.383-0.406-0.431-0.655c-0.173-0.704-0.552-0.661-1.166-0.886
					c0.001,0.017,0.005,0.029,0.006,0.045c-0.001,0-0.002,0-0.003-0.001C69.095,64.605,69.805,64.832,70.625,65.129
					C70.561,65.106,70.184,64.969,70.625,65.129z"/>
				<path fill="#938824" d="M69.735,63.425C69.735,63.425,69.916,63.483,69.735,63.425L69.735,63.425z"/>
				<path fill="#938824" d="M70.968,62.801c0.04-0.053,0.081-0.105,0.121-0.158c0-0.669,1.47-1.857,0.339-2.269
					c0.131,0.047,0.262,0.095,0.393,0.142c0.059-0.445,0.357-2.376,0.035-2.495c-0.11-1.08-0.624-1.346-1.466-1.659
					c0.101-0.05,0.685,0.247,0.8,0.288c-0.214-0.141-0.517-0.216-0.789-0.295c0.38-0.222,0.784-0.417,1.223-0.477
					c-0.004-0.001-0.008-0.003-0.013-0.004c0.291,0,0.541-0.026,0.825,0.079c-0.009-0.003-0.009-0.003,0-0.001
					c-0.605-0.227-1.24-0.546-1.904-0.438c-0.879,0.144-1.649,0.765-2.254,1.386c0.018,0.006,0.035,0.013,0.053,0.021
					c-0.439-0.132-2.037,2.763-1.498,2.959c-0.066-0.024-0.132-0.048-0.198-0.072c-0.272,0.916-0.441,1.99-0.111,2.913
					c0.329,0.918,1.198,1.153,1.929,1.406c-0.734-0.264-1.046-1.17-1.062-1.883c-0.025-0.448,0.438-1.946-0.021-2.16
					c0.353,0.104,0.247,0.168,0.339-0.153c-0.022,0.08-0.046,0.161-0.068,0.241c0.31-1.071,0.882-2.092,1.646-2.905
					c-0.001,0-0.001,0-0.002,0c0-0.209,0.898-0.768,1.061-0.87c0.354,0.343,0.311,1.179,0.557,1.278
					c-0.019-0.006-0.035-0.011-0.053-0.017c0.047,0.364-0.129,2.461-0.034,2.496c0,0,0,0.001,0,0.002
					c-0.002,0-0.003-0.001-0.004-0.001c-0.103,0.69-0.336,1.543-0.727,2.124c0.051,0.019,0.103,0.037,0.153,0.056
					c-0.547,0-0.89,0.926-1.51,0.729c0.117,0.042,0.234,0.084,0.352,0.127c-0.925-0.334,0.436,0.157,0.656,0.237
					c0.478,0.152,0.955-0.291,1.23-0.622C70.967,62.802,70.967,62.801,70.968,62.801C71.012,62.746,70.967,62.801,70.968,62.801z"/>
				<path fill="#938824" d="M71.855,58.021c0,0-0.009-0.084-0.014-0.131C71.844,57.915,71.848,57.952,71.855,58.021z"/>
				<path fill="#938824" d="M71.842,57.891C71.838,57.849,71.839,57.858,71.842,57.891L71.842,57.891z"/>
				<path fill="#938824" d="M71.427,55.586C71.203,55.507,71.427,55.586,71.427,55.586L71.427,55.586z"/>
			</g>
		</g>
	</g>
	<g>
		<g>
			<path fill="#F2DE4E" d="M72.499,63.734c0.26-0.149,0.496-0.321,0.718-0.525c0.275,1.141-3.063,3.193-3.182,0.742
				c-1.925,0.906-2.768-0.819-2.634-2.503c0.16-2.016,1.308-4.116,3.087-5.144c2.249-1.293,3.249,0.709,2.955,2.737
				c-0.142,0.983-0.512,1.944-1.059,2.775c-0.288,0.436-0.873,0.811-0.77,1.355C71.693,63.597,72.031,64.003,72.499,63.734
				C72.654,63.646,72.247,63.881,72.499,63.734z M71.09,62.642c0.81-1.189,0.901-2.864,0.803-4.253
				c-0.095-1.33-0.954-2.492-2.044-1.025c-0.805,1.085-0.908,2.674-0.867,3.972c0.019,0.606,0.029,1.477,0.505,1.938
				C70.013,63.781,70.785,63.076,71.09,62.642"/>
		</g>
		<g>
			<path fill="#F2DE4E" d="M113.113,31.694c0.471-0.271,1.018-0.46,1.567-0.438c0.245-0.125,0.258-0.493,0.593-0.617
				c0.001,0.583,0.379,2.608-0.346,2.768c-0.46-1.563-1.707-1.88-2.633-0.39c-0.771,1.243-0.902,2.96-0.706,4.376
				c0.246,1.798,1.664,1.613,2.521,0.209c0.278-0.746,0.165-2.098-0.83-1.64c-0.198-0.764,2.348-1.742,2.939-2.084
				c0.146,0.559-0.528,0.625-0.683,1.104c-0.142,0.479-0.061,1.078-0.067,1.57c-0.016,1.201-2.319,2.73-3.396,3.053
				c-1.989,0.597-2.283-1.716-2.078-3.128C110.276,34.541,111.398,32.682,113.113,31.694
				C113.436,31.507,112.642,31.965,113.113,31.694z"/>
		</g>
		<g>
			<path fill="#F2DE4E" d="M109.142,36.107c0.703,1.656-0.083,3.901-1.064,5.272c-0.861,1.205-3.615,3.447-4.611,1.172
				c-0.737-1.679,0.129-3.994,1.148-5.363C105.508,35.99,108.129,33.92,109.142,36.107
				C109.297,36.473,108.978,35.755,109.142,36.107z M107.675,39.814c0.125-0.849,0.47-3.427-0.631-3.866
				c-1.219-0.488-1.938,1.895-2.07,2.633c-0.181,1.01-0.503,3.188,0.368,3.995C106.587,43.732,107.589,40.481,107.675,39.814"/>
		</g>
		<g>
			<path fill="#F2DE4E" d="M100.781,39.008c0.153,0.61-0.647,0.657-0.816,1.182c-0.087,0.272-0.057,0.604-0.06,0.885
				c-0.015,1.061-0.027,2.124-0.039,3.185c-0.006,0.555-0.252,1.967,0.664,1.462c0.761-0.416,1.291-0.794,1.626-1.612
				c0.184-0.446,0.26-1.412,0.786-1.574c-0.045,0.734-0.088,1.469-0.133,2.204c-0.021,0.337-0.907,0.648-1.17,0.8
				c-1.349,0.779-2.699,1.558-4.048,2.337c-0.151-0.628,0.834-0.876,0.843-1.629c0.008-0.621,0.015-1.24,0.022-1.861
				c0.01-0.768,0.02-1.537,0.027-2.304c0.009-0.661,0.104-1.288-0.813-0.895C97.464,40.426,100.182,39.354,100.781,39.008
				L100.781,39.008z"/>
		</g>
		<g>
			<path fill="#F2DE4E" d="M97.353,40.986c-0.007,0.52,0.297,2.038-0.34,2.205c-0.183-0.627-0.524-1.193-1.189-0.866
				c-0.2,0.098-0.512,0.162-0.514,0.404c-0.009,0.673-0.017,1.348-0.026,2.022c-0.01,0.861-0.021,1.722-0.029,2.583
				c-0.008,0.759-0.153,1.385,0.853,1.013c0.209,0.768-2.552,1.859-3.159,2.208c-0.151-0.622,0.876-0.833,0.885-1.59
				c0.007-0.592,0.014-1.185,0.022-1.775c0.015-1.259,0.028-2.517,0.044-3.775c-0.457,0.262-0.902,0.5-1.152,0.981
				c-0.252,0.485-0.323,1.6-0.902,1.777c0.005-0.474-0.211-1.63,0.023-2.023c0.202-0.336,1.156-0.667,1.487-0.859
				C94.688,42.524,96.02,41.755,97.353,40.986L97.353,40.986z"/>
		</g>
		<g>
			<path fill="#F2DE4E" d="M89.054,45.585c0.457-0.264,0.983-0.433,1.519-0.391c0.244-0.118,0.251-0.509,0.594-0.637
				c0.001,0.563,0.365,2.43-0.338,2.589c-0.17-0.477-0.438-1.274-1.051-1.308c-0.743-0.117-1.423,0.877-1.551,1.488
				c-0.396,1.891,2.468,0.022,3.068,1.18c0.701,1.344-0.536,3.189-1.53,4.005c-0.645,0.528-1.534,1.034-2.402,0.927
				c-0.293,0.178-0.214,0.565-0.621,0.706c-0.005-0.579-0.39-2.572,0.326-2.734c0.464,1.248,1.546,1.787,2.539,0.625
				c0.339-0.394,0.697-1.131,0.464-1.661c-0.205-0.472-0.884-0.265-1.251-0.204c-1.283,0.215-2.143-0.141-1.878-1.659
				C87.154,47.303,88.005,46.192,89.054,45.585C89.372,45.401,88.732,45.771,89.054,45.585z"/>
		</g>
		<g>
			<path fill="#F2DE4E" d="M85.921,47.586c-0.006,0.49,0.275,1.822-0.323,1.984c-0.311-0.977-0.994-0.775-1.688-0.377
				c-0.202,0.118-0.761,0.294-0.763,0.546c-0.01,0.875-0.022,1.748-0.031,2.624c0.402-0.234,0.868-0.441,1.154-0.821
				c0.354-0.466,0.231-1.269,0.776-1.503c-0.007,0.62,0.347,2.924-0.337,3.125c-0.104-1.122-0.813-0.799-1.509-0.398
				c-0.285,0.164-0.108,1.491-0.112,1.822c-0.014,1.09,0.359,0.999,1.243,0.487c0.591-0.342,0.9-0.734,1.159-1.354
				c0.199-0.477,0.274-1.267,0.771-1.494c-0.041,0.713-0.083,1.427-0.125,2.14c-0.02,0.328-0.879,0.63-1.135,0.777
				c-1.393,0.804-2.785,1.606-4.176,2.41c-0.156-0.623,0.833-0.881,0.842-1.627c0.008-0.621,0.015-1.242,0.022-1.862
				c0.012-0.769,0.021-1.538,0.027-2.306c0.009-0.663,0.099-1.27-0.813-0.895c-0.192-0.704,1.72-1.378,2.188-1.65
				C84.039,48.675,84.978,48.131,85.921,47.586L85.921,47.586z"/>
		</g>
		<g>
			<path fill="#F2DE4E" d="M80.619,50.647c0.126,0.617-0.799,0.952-0.926,1.61c-0.121,0.671-0.073,1.401-0.081,2.081
				c-0.023,2.029-0.165,3.967-2.012,5.256c-0.635,0.443-1.946,1.169-2.56,0.302c-0.371-0.524-0.279-1.26-0.271-1.873
				c0.01-0.769,0.019-1.534,0.028-2.302c0.007-0.597,0.103-1.248-0.742-0.911c-0.2-0.744,2.384-1.752,2.966-2.089
				c0.158,0.623-0.782,0.782-0.79,1.483c-0.007,0.506-0.014,1.016-0.02,1.523c-0.008,0.652-0.365,3.254,0.532,3.436
				c1.047,0.214,1.982-1.209,2.214-2.036c0.182-0.643,0.154-1.319,0.161-1.979c0.011-0.82,0.456-3.304-0.964-2.695
				C77.942,51.748,80.097,50.949,80.619,50.647L80.619,50.647z"/>
		</g>
	</g>
</g>
</svg>
