<?xml version="1.0" encoding="utf-8"?>
<!-- Generator: Adobe Illustrator 15.0.0, SVG Export Plug-In . SVG Version: 6.00 Build 0)  -->
<!DOCTYPE svg PUBLIC "-//W3C//DTD SVG 1.1//EN" "http://www.w3.org/Graphics/SVG/1.1/DTD/svg11.dtd">
<svg version="1.1" id="Layer_1" xmlns="http://www.w3.org/2000/svg" xmlns:xlink="http://www.w3.org/1999/xlink" x="0px" y="0px"
	 width="100px" height="100px" viewBox="0 0 100 100" enable-background="new 0 0 100 100" xml:space="preserve">
<g>
	<g>
		
			<linearGradient id="SVGID_1_" gradientUnits="userSpaceOnUse" x1="332.4561" y1="99.6875" x2="325.6183" y2="87.8442" gradientTransform="matrix(-1 0 0 1 396.7285 0)">
			<stop  offset="0" style="stop-color:#A19865"/>
			<stop  offset="1" style="stop-color:#908456"/>
		</linearGradient>
		<path fill-rule="evenodd" clip-rule="evenodd" fill="url(#SVGID_1_)" d="M90.221,74.647L55.747,94.551L90.221,74.647z"/>
	</g>
	<rect x="76.315" y="78.855" fill-rule="evenodd" clip-rule="evenodd" fill="#B9A8A2" width="3.097" height="3.057"/>
	<polygon fill-rule="evenodd" clip-rule="evenodd" fill="#B9A8A2" points="77.661,88.703 80.551,87.035 77.661,85.366 75.82,85.366 
		75.055,85.809 72.858,85.809 72.021,86.292 71.099,86.292 69.813,87.035 71.099,87.778 72.021,87.778 72.858,88.26 75.055,88.26 
		75.82,88.703 	"/>
	<polygon fill-rule="evenodd" clip-rule="evenodd" fill="#B9A8A2" points="71.882,92.039 74.772,90.372 71.882,88.703 
		70.041,88.703 69.276,89.146 67.08,89.146 66.242,89.629 65.321,89.629 64.034,90.37 65.321,91.113 66.242,91.113 67.08,91.597 
		69.275,91.597 70.041,92.039 	"/>
	<polygon fill-rule="evenodd" clip-rule="evenodd" fill="#B9A8A2" points="66.104,95.376 68.994,93.707 66.104,92.039 
		64.262,92.039 63.498,92.482 61.302,92.482 60.464,92.966 59.542,92.966 58.257,93.707 59.542,94.45 60.464,94.45 61.302,94.934 
		63.496,94.934 64.262,95.376 	"/>
	<polygon fill-rule="evenodd" clip-rule="evenodd" fill="#B9A8A2" points="60.326,98.713 63.215,97.044 60.326,95.376 
		58.483,95.376 57.719,95.818 55.522,95.818 54.686,96.301 53.764,96.301 52.478,97.044 53.764,97.787 54.686,97.787 55.522,98.271 
		57.718,98.271 58.483,98.713 	"/>
	<polygon fill-rule="evenodd" clip-rule="evenodd" fill="#ECDDD1" points="13.962,27.416 49.104,7.127 80.128,25.04 44.987,45.329 	
		"/>
	
		<linearGradient id="SVGID_2_" gradientUnits="userSpaceOnUse" x1="343.6904" y1="27.8438" x2="335.2571" y2="35.1747" gradientTransform="matrix(-1 0 0 1 396.7285 0)">
		<stop  offset="0" style="stop-color:#A88F87"/>
		<stop  offset="1" style="stop-color:#8B7973"/>
	</linearGradient>
	<polygon fill-rule="evenodd" clip-rule="evenodd" fill="url(#SVGID_2_)" points="73.726,21.343 80.128,25.04 44.987,45.329 
		38.584,41.632 	"/>
	<polygon fill-rule="evenodd" clip-rule="evenodd" fill="#A88F87" points="47.91,7.815 49.104,7.127 80.128,25.04 44.987,45.329 
		43.791,44.638 77.738,25.039 	"/>
	<polygon fill-rule="evenodd" clip-rule="evenodd" fill="#8B7973" points="16.032,26.222 13.962,25.026 49.104,4.736 80.128,22.648 
		78.06,23.844 49.104,7.127 	"/>
	<polygon fill-rule="evenodd" clip-rule="evenodd" fill="#C4A98F" points="16.032,26.222 13.962,25.026 49.104,4.736 49.104,7.127 	
		"/>
	<polygon fill-rule="evenodd" clip-rule="evenodd" fill="#8B7973" points="47.91,7.815 49.104,4.736 49.104,7.127 	"/>
	<path fill-rule="evenodd" clip-rule="evenodd" fill="#E3D2C1" d="M7.986,25.026l37,21.361l41.117-23.738l-37-21.362L7.986,25.026
		L7.986,25.026z M49.104,4.736l31.024,17.913L44.987,42.938L13.962,25.026L49.104,4.736z"/>
	
		<linearGradient id="SVGID_3_" gradientUnits="userSpaceOnUse" x1="347.9854" y1="25.2046" x2="324.0782" y2="38.4565" gradientTransform="matrix(-1 0 0 1 396.7285 0)">
		<stop  offset="0" style="stop-color:#8B7973"/>
		<stop  offset="1" style="stop-color:#66544D"/>
	</linearGradient>
	<polygon fill-rule="evenodd" clip-rule="evenodd" fill="url(#SVGID_3_)" points="86.102,22.648 80.128,22.648 80.128,22.649 
		44.987,42.938 39.779,39.933 36.792,41.657 44.987,46.388 86.104,22.649 	"/>
	<polygon fill-rule="evenodd" clip-rule="evenodd" fill="#C4A98F" points="49.104,98.388 90.221,74.647 90.221,10.429 
		49.104,34.168 	"/>
	<polygon fill-rule="evenodd" clip-rule="evenodd" fill="#8B7973" points="90.221,34.561 90.221,32.297 49.104,56.035 
		49.104,60.052 89.34,36.821 	"/>
	<polygon fill-rule="evenodd" clip-rule="evenodd" fill="#8B7973" points="77.709,81.912 84.742,77.851 85.624,75.591 
		85.624,58.993 86.431,58.528 86.431,57.493 85.624,57.96 78.591,62.02 78.591,62.02 77.784,62.486 76.901,64.747 76.901,65.782 
		77.709,65.314 	"/>
	<polygon fill-rule="evenodd" clip-rule="evenodd" fill="#8B7973" points="52.445,95.185 73.192,83.205 74.074,80.944 
		74.074,67.276 74.882,65.208 74.882,64.172 70.544,66.678 53.327,76.617 53.326,76.617 52.521,77.083 51.639,79.343 51.639,80.379 
		52.445,79.913 52.445,84.816 49.621,92.068 49.621,92.884 52.445,91.253 	"/>
	
		<linearGradient id="SVGID_4_" gradientUnits="userSpaceOnUse" x1="326.2832" y1="26.7827" x2="327.0587" y2="25.4395" gradientTransform="matrix(-1 0 0 1 396.7285 0)">
		<stop  offset="0" style="stop-color:#F6C27A"/>
		<stop  offset="0.4" style="stop-color:#DFAD6E"/>
		<stop  offset="1" style="stop-color:#B28150"/>
	</linearGradient>
	<polygon fill-rule="evenodd" clip-rule="evenodd" fill="url(#SVGID_4_)" points="49.104,39.695 90.221,15.956 90.221,11.153 
		49.104,34.892 	"/>
	<polygon fill-rule="evenodd" clip-rule="evenodd" fill="#E88578" points="49.104,56.035 90.221,32.296 90.221,12.832 
		49.104,36.571 	"/>
	
		<linearGradient id="SVGID_5_" gradientUnits="userSpaceOnUse" x1="324.1836" y1="30.6592" x2="327.8292" y2="24.3448" gradientTransform="matrix(-1 0 0 1 396.7285 0)">
		<stop  offset="0" style="stop-color:#E88578"/>
		<stop  offset="1" style="stop-color:#A2535B"/>
	</linearGradient>
	<polygon fill-rule="evenodd" clip-rule="evenodd" fill="url(#SVGID_5_)" points="49.104,38.5 90.221,14.762 90.221,12.832 
		49.104,36.571 	"/>
	<polygon fill-rule="evenodd" clip-rule="evenodd" fill="#DED5CB" points="49.104,37.341 92.014,12.567 92.014,10.429 
		49.104,35.203 	"/>
	
		<linearGradient id="SVGID_6_" gradientUnits="userSpaceOnUse" x1="320.8936" y1="14.4175" x2="383.4067" y2="76.9306" gradientTransform="matrix(-1 0 0 1 396.7285 0)">
		<stop  offset="0" style="stop-color:#8B7973"/>
		<stop  offset="1" style="stop-color:#66544D"/>
	</linearGradient>
	<polygon fill-rule="evenodd" clip-rule="evenodd" fill="url(#SVGID_6_)" points="49.104,98.388 7.986,74.647 7.986,25.026 
		49.104,48.766 	"/>
	<rect x="13.789" y="37.93" fill-rule="evenodd" clip-rule="evenodd" fill="#533B40" width="0.597" height="35.22"/>
	<rect x="12.294" y="37.333" fill-rule="evenodd" clip-rule="evenodd" fill="#533B40" width="0.598" height="35.219"/>
	<polygon fill-rule="evenodd" clip-rule="evenodd" fill="#88474F" points="49.104,56.035 44.987,53.658 44.987,33.928 
		49.104,36.307 	"/>
	<polygon fill-rule="evenodd" clip-rule="evenodd" fill="#B6A49C" points="49.104,37.341 43.194,33.928 43.194,31.79 49.104,35.203 
			"/>
	<path fill-rule="evenodd" clip-rule="evenodd" fill="#AD7B43" d="M77.932,63.436l0.36-0.208c0.047-0.026,0.101-0.026,0.148,0
		c0.047,0.026,0.075,0.076,0.075,0.13v18.038l8.408-4.856V58.328c0-0.053,0.029-0.101,0.075-0.127l0.657-0.381
		c0.047-0.027,0.075-0.074,0.075-0.13v-0.689c0-0.056-0.028-0.102-0.075-0.13c-0.048-0.026-0.102-0.026-0.149,0
		c-2.782,1.607-6.941,4.008-9.723,5.615c-0.048,0.027-0.075,0.074-0.075,0.13v0.689c0,0.054,0.027,0.101,0.075,0.13
		C77.831,63.462,77.886,63.462,77.932,63.436z"/>
	<polygon fill-rule="evenodd" clip-rule="evenodd" fill="#B6A49C" points="78.516,63.098 78.517,81.396 79.412,81.912 
		79.412,63.616 	"/>
	<polygon fill-rule="evenodd" clip-rule="evenodd" fill="#DCCEC0" points="79.412,62.581 86.027,58.761 86.027,76.022 
		79.412,79.843 	"/>
	
		<linearGradient id="SVGID_7_" gradientUnits="userSpaceOnUse" x1="310.29" y1="76.9248" x2="315.8511" y2="52.8373" gradientTransform="matrix(-1 0 0 1 396.7285 0)">
		<stop  offset="0" style="stop-color:#B6A49C"/>
		<stop  offset="1" style="stop-color:#9E8F88"/>
	</linearGradient>
	<polygon fill-rule="evenodd" clip-rule="evenodd" fill="url(#SVGID_7_)" points="79.7,64.138 79.7,62.388 86.027,58.734 
		86.027,76.022 85.146,76.531 85.146,60.994 	"/>
	<polygon fill-rule="evenodd" clip-rule="evenodd" fill="#533B40" points="80.308,64.532 84.332,62.209 84.332,73.203 
		80.308,75.526 	"/>
	<polygon fill-rule="evenodd" clip-rule="evenodd" fill="#6E565A" points="83.892,73.456 80.308,75.526 80.308,64.891 
		83.892,62.822 	"/>
	
		<linearGradient id="SVGID_8_" gradientUnits="userSpaceOnUse" x1="313.8047" y1="59.3438" x2="317.3794" y2="51.3148" gradientTransform="matrix(-1 0 0 1 396.7285 0)">
		<stop  offset="0" style="stop-color:#F1ECE5"/>
		<stop  offset="1" style="stop-color:#C6B6A2"/>
	</linearGradient>
	<polygon fill-rule="evenodd" clip-rule="evenodd" fill="url(#SVGID_8_)" points="77.709,62.529 87.731,56.743 88.628,57.26 
		78.605,63.046 	"/>
	<polygon fill-rule="evenodd" clip-rule="evenodd" fill="#B6A49C" points="77.709,62.529 77.71,63.565 78.605,64.082 78.605,63.046 
			"/>
	
		<linearGradient id="SVGID_9_" gradientUnits="userSpaceOnUse" x1="303.8643" y1="83.4639" x2="315.358" y2="55.0159" gradientTransform="matrix(-1 0 0 1 396.7285 0)">
		<stop  offset="0" style="stop-color:#B6A49C"/>
		<stop  offset="1" style="stop-color:#9E8F88"/>
	</linearGradient>
	<polygon fill-rule="evenodd" clip-rule="evenodd" fill="url(#SVGID_9_)" points="86.027,59.796 86.027,76.022 86.924,76.539 
		86.924,59.277 	"/>
	
		<linearGradient id="SVGID_10_" gradientUnits="userSpaceOnUse" x1="313.9658" y1="77.3604" x2="317.0692" y2="70.9975" gradientTransform="matrix(-1 0 0 1 396.7285 0)">
		<stop  offset="0" style="stop-color:#F1ECE5"/>
		<stop  offset="1" style="stop-color:#C6B6A2"/>
	</linearGradient>
	<polygon fill-rule="evenodd" clip-rule="evenodd" fill="url(#SVGID_10_)" points="80.308,80.36 79.412,79.843 86.027,76.022 
		86.924,76.539 	"/>
	<polygon fill-rule="evenodd" clip-rule="evenodd" fill="#B6A49C" points="85.133,76.539 86.027,76.022 86.924,76.539 	"/>
	
		<linearGradient id="SVGID_11_" gradientUnits="userSpaceOnUse" x1="310.8887" y1="73.6182" x2="313.7318" y2="60.2424" gradientTransform="matrix(-1 0 0 1 396.7285 0)">
		<stop  offset="0" style="stop-color:#B6A49C"/>
		<stop  offset="1" style="stop-color:#9E8F88"/>
	</linearGradient>
	<polygon fill-rule="evenodd" clip-rule="evenodd" fill="url(#SVGID_11_)" points="84.332,62.209 84.332,73.203 84.78,73.46 
		84.78,61.951 	"/>
	
		<linearGradient id="SVGID_12_" gradientUnits="userSpaceOnUse" x1="314.6807" y1="74.0674" x2="316.8935" y2="69.5303" gradientTransform="matrix(-1 0 0 1 396.7285 0)">
		<stop  offset="0" style="stop-color:#F1ECE5"/>
		<stop  offset="1" style="stop-color:#C6B6A2"/>
	</linearGradient>
	<polygon fill-rule="evenodd" clip-rule="evenodd" fill="url(#SVGID_12_)" points="80.308,76.043 79.858,75.784 84.332,73.203 
		84.78,73.46 	"/>
	
		<linearGradient id="SVGID_13_" gradientUnits="userSpaceOnUse" x1="311.8623" y1="75.9727" x2="312.9864" y2="70.6843" gradientTransform="matrix(-1 0 0 1 396.7285 0)">
		<stop  offset="0" style="stop-color:#B6A49C"/>
		<stop  offset="1" style="stop-color:#9E8F88"/>
	</linearGradient>
	<polygon fill-rule="evenodd" clip-rule="evenodd" fill="url(#SVGID_13_)" points="83.884,73.46 84.332,73.203 84.78,73.46 	"/>
	<path fill-rule="evenodd" clip-rule="evenodd" fill="#DCCEC0" d="M78.605,64.082v-1.036l0.807-0.465l0,0l8.408-4.855l0.808-0.466
		v1.036l-0.808,0.465v18.298l-8.408,4.854V63.616L78.605,64.082L78.605,64.082z M80.308,80.36l6.617-3.821l-0.001-17.262
		l-6.616,3.82V80.36z"/>
	<polygon fill-rule="evenodd" clip-rule="evenodd" fill="#816C6F" points="80.824,70.327 80.824,69.062 83.368,67.594 
		83.368,68.859 	"/>
	<polygon fill-rule="evenodd" clip-rule="evenodd" fill="#F1EEEB" points="43.194,31.79 49.104,35.203 92.014,10.429 86.104,7.016 	
		"/>
	<path fill-rule="evenodd" clip-rule="evenodd" fill="#A97842" d="M52.744,77.988c-0.047,0.027-0.103,0.027-0.149,0
		c-0.048-0.026-0.074-0.076-0.074-0.129v-0.69c0-0.053,0.026-0.103,0.074-0.129c2.782-1.606,19.279-11.133,22.063-12.738
		c0.046-0.026,0.101-0.026,0.149,0c0.047,0.027,0.075,0.074,0.075,0.13v0.689c0,0.056-0.029,0.104-0.075,0.13l-0.658,0.379
		c-0.046,0.028-0.074,0.076-0.074,0.13v15.099c0,0.056-0.028,0.103-0.075,0.129L53.551,92.795c-0.046,0.026-0.102,0.026-0.149,0
		c-0.047-0.029-0.074-0.076-0.074-0.13V77.91c0-0.054-0.027-0.101-0.075-0.13c-0.048-0.026-0.104-0.026-0.148,0L52.744,77.988
		L52.744,77.988z M54.223,77.221v13.893c0,0.054,0.027,0.101,0.075,0.13c0.048,0.026,0.103,0.026,0.149,0l18.655-10.772
		c0.048-0.026,0.075-0.076,0.075-0.129V66.449c0-0.054-0.027-0.102-0.075-0.13c-0.047-0.026-0.103-0.026-0.148,0L54.298,77.091
		C54.252,77.118,54.223,77.165,54.223,77.221z"/>
	
		<linearGradient id="SVGID_14_" gradientUnits="userSpaceOnUse" x1="341.8799" y1="85.8154" x2="346.3961" y2="84.6894" gradientTransform="matrix(-1 0 0 1 396.7285 0)">
		<stop  offset="0" style="stop-color:#B6A49C"/>
		<stop  offset="1" style="stop-color:#9E8F88"/>
	</linearGradient>
	<polygon fill-rule="evenodd" clip-rule="evenodd" fill="url(#SVGID_14_)" points="53.327,77.653 53.327,92.925 54.223,93.441 
		54.223,78.17 	"/>
	<path fill-rule="evenodd" clip-rule="evenodd" fill="#6E565A" d="M73.178,67.145v13.409c0,0.106-0.056,0.205-0.149,0.259
		L55.146,91.314c-0.094,0.056-0.204,0.056-0.3,0c-0.095-0.053-0.148-0.147-0.148-0.257V77.649c0-0.111,0.057-0.206,0.148-0.26
		L72.73,66.888c0.093-0.056,0.203-0.056,0.298,0S73.178,67.038,73.178,67.145z"/>
	<path fill-rule="evenodd" clip-rule="evenodd" fill="#533B40" d="M73.178,69.275v5.342v5.937c0,0.106-0.056,0.205-0.149,0.259
		l-0.224,0.132h-0.522v-4.903l-3.706,5.897l-13.878,8.014V79.946l17.584-10.152v-2.643l0.448-0.264c0.093-0.056,0.203-0.056,0.298,0
		s0.149,0.15,0.149,0.257V69.275z"/>
	
		<linearGradient id="SVGID_15_" gradientUnits="userSpaceOnUse" x1="333.1035" y1="69.7119" x2="340.7211" y2="52.6026" gradientTransform="matrix(-1 0 0 1 396.7285 0)">
		<stop  offset="0" style="stop-color:#F1ECE5"/>
		<stop  offset="1" style="stop-color:#C6B6A2"/>
	</linearGradient>
	<polygon fill-rule="evenodd" clip-rule="evenodd" fill="url(#SVGID_15_)" points="52.521,77.083 74.882,64.172 75.776,64.691 
		53.416,77.6 	"/>
	
		<linearGradient id="SVGID_16_" gradientUnits="userSpaceOnUse" x1="342.9922" y1="77.8857" x2="346.5537" y2="77.7614" gradientTransform="matrix(-1 0 0 1 396.7285 0)">
		<stop  offset="0" style="stop-color:#B6A49C"/>
		<stop  offset="1" style="stop-color:#9E8F88"/>
	</linearGradient>
	<polygon fill-rule="evenodd" clip-rule="evenodd" fill="url(#SVGID_16_)" points="52.521,77.083 52.521,78.118 53.416,78.635 
		53.416,77.6 	"/>
	<polygon fill-rule="evenodd" clip-rule="evenodd" fill="#B6A49C" points="73.178,67.228 73.178,80.428 74.074,80.944 
		74.074,66.708 	"/>
	
		<linearGradient id="SVGID_17_" gradientUnits="userSpaceOnUse" x1="332.9531" y1="81.8896" x2="333.8491" y2="71.6486" gradientTransform="matrix(-1 0 0 1 396.7285 0)">
		<stop  offset="0" style="stop-color:#F1ECE5"/>
		<stop  offset="1" style="stop-color:#C6B6A2"/>
	</linearGradient>
	<polygon fill-rule="evenodd" clip-rule="evenodd" fill="url(#SVGID_17_)" points="55.119,91.89 54.223,91.37 73.178,80.428 
		74.074,80.944 	"/>
	<path fill-rule="evenodd" clip-rule="evenodd" fill="#DCCEC0" d="M53.416,78.635V77.6l0.807-0.465l0,0l17.218-9.94l4.336-2.503
		v1.035l-0.807,0.465v15.271L54.223,93.441V78.17L53.416,78.635L53.416,78.635z M55.119,91.89l18.955-10.945V66.708l-0.171,0.1
		L55.119,77.653V91.89z"/>
	<polygon fill-rule="evenodd" clip-rule="evenodd" fill="#B6A49C" points="54.223,80.253 54.223,88.475 55.119,87.958 
		55.119,77.951 	"/>
	
		<linearGradient id="SVGID_18_" gradientUnits="userSpaceOnUse" x1="336.8955" y1="82.6973" x2="342.5121" y2="80.9801" gradientTransform="matrix(-1 0 0 1 396.7285 0)">
		<stop  offset="0" style="stop-color:#B6A49C"/>
		<stop  offset="1" style="stop-color:#9E8F88"/>
	</linearGradient>
	<polygon fill-rule="evenodd" clip-rule="evenodd" fill="url(#SVGID_18_)" points="59.815,85.183 55.119,77.951 55.119,83.276 
		59.815,85.996 	"/>
	<polygon fill-rule="evenodd" clip-rule="evenodd" fill="#DCCEC0" points="59.815,85.183 78.77,74.238 78.77,75.054 59.815,85.996 	
		"/>
	
		<linearGradient id="SVGID_19_" gradientUnits="userSpaceOnUse" x1="333.208" y1="70.3965" x2="337.2306" y2="63.7018" gradientTransform="matrix(-1 0 0 1 396.7285 0)">
		<stop  offset="0" style="stop-color:#F1ECE5"/>
		<stop  offset="1" style="stop-color:#C6B6A2"/>
	</linearGradient>
	<polygon fill-rule="evenodd" clip-rule="evenodd" fill="url(#SVGID_19_)" points="55.119,77.951 55.12,77.951 55.119,77.949 
		55.119,77.653 73.903,66.808 73.933,66.791 74.074,67.007 74.074,67.007 78.77,74.238 59.815,85.181 	"/>
	<polygon fill-rule="evenodd" clip-rule="evenodd" fill="#B6A49C" points="55.119,77.951 55.12,77.951 55.119,77.949 55.119,77.653 
		73.903,66.808 73.933,66.791 74.074,67.007 74.074,67.007 74.14,67.107 55.185,78.051 	"/>
	<g>
		
			<linearGradient id="SVGID_20_" gradientUnits="userSpaceOnUse" x1="321.3447" y1="73.1904" x2="318.3412" y2="78.3926" gradientTransform="matrix(-1 0 0 1 396.7285 0)">
			<stop  offset="0" style="stop-color:#DF7B74"/>
			<stop  offset="1" style="stop-color:#B75F62"/>
		</linearGradient>
		<polygon fill-rule="evenodd" clip-rule="evenodd" fill="url(#SVGID_20_)" points="75.733,75.992 75.733,75.992 77.987,74.691 
			77.987,75.504 75.733,76.805 75.733,75.992 		"/>
		<polygon fill-rule="evenodd" clip-rule="evenodd" fill="#F59887" points="70.896,68.542 73.121,67.258 73.15,67.241 73.292,67.46 
			73.292,67.46 77.987,74.691 75.733,75.99 71.038,68.761 71.038,68.761 		"/>
		<polygon fill-rule="evenodd" clip-rule="evenodd" fill="#B75F62" points="70.896,68.542 73.121,67.258 73.15,67.241 73.292,67.46 
			73.292,67.46 73.357,67.561 71.104,68.861 71.038,68.761 71.038,68.761 		"/>
	</g>
	<g>
		
			<linearGradient id="SVGID_21_" gradientUnits="userSpaceOnUse" x1="325.1309" y1="75.3682" x2="322.1201" y2="80.583" gradientTransform="matrix(-1 0 0 1 396.7285 0)">
			<stop  offset="0" style="stop-color:#DF7B74"/>
			<stop  offset="1" style="stop-color:#B75F62"/>
		</linearGradient>
		<polygon fill-rule="evenodd" clip-rule="evenodd" fill="url(#SVGID_21_)" points="71.948,78.176 71.95,78.176 74.204,76.875 
			74.204,77.688 71.95,78.989 71.95,78.176 		"/>
		<polygon fill-rule="evenodd" clip-rule="evenodd" fill="#F59887" points="67.113,70.729 69.336,69.444 69.367,69.426 
			69.507,69.644 69.507,69.644 74.204,76.875 71.949,78.176 67.253,70.944 67.253,70.944 		"/>
		<polygon fill-rule="evenodd" clip-rule="evenodd" fill="#B75F62" points="67.113,70.729 69.336,69.444 69.367,69.426 
			69.507,69.644 69.507,69.644 69.572,69.744 67.318,71.046 67.253,70.944 67.253,70.944 		"/>
	</g>
	<g>
		
			<linearGradient id="SVGID_22_" gradientUnits="userSpaceOnUse" x1="328.917" y1="77.5508" x2="325.904" y2="82.7695" gradientTransform="matrix(-1 0 0 1 396.7285 0)">
			<stop  offset="0" style="stop-color:#DF7B74"/>
			<stop  offset="1" style="stop-color:#B75F62"/>
		</linearGradient>
		<polygon fill-rule="evenodd" clip-rule="evenodd" fill="url(#SVGID_22_)" points="68.165,80.36 68.165,80.36 70.42,79.059 
			70.42,79.874 68.165,81.175 68.165,80.36 		"/>
		<polygon fill-rule="evenodd" clip-rule="evenodd" fill="#F59887" points="63.327,72.912 65.553,71.628 65.582,71.611 
			65.724,71.828 65.724,71.828 70.419,79.059 68.165,80.36 63.47,73.129 63.47,73.129 		"/>
		<polygon fill-rule="evenodd" clip-rule="evenodd" fill="#B75F62" points="63.327,72.912 65.553,71.628 65.582,71.611 
			65.724,71.828 65.724,71.828 65.789,71.929 63.534,73.229 63.47,73.129 63.47,73.129 		"/>
	</g>
	<g>
		
			<linearGradient id="SVGID_23_" gradientUnits="userSpaceOnUse" x1="332.7031" y1="79.7334" x2="329.6872" y2="84.9572" gradientTransform="matrix(-1 0 0 1 396.7285 0)">
			<stop  offset="0" style="stop-color:#DF7B74"/>
			<stop  offset="1" style="stop-color:#B75F62"/>
		</linearGradient>
		<polygon fill-rule="evenodd" clip-rule="evenodd" fill="url(#SVGID_23_)" points="64.38,82.546 64.381,82.544 66.636,81.243 
			66.636,82.059 64.381,83.359 64.381,82.544 		"/>
		<polygon fill-rule="evenodd" clip-rule="evenodd" fill="#F59887" points="59.544,75.097 61.769,73.812 61.798,73.796 
			61.938,74.012 61.938,74.012 66.636,81.243 64.381,82.544 59.685,75.314 59.685,75.313 		"/>
		<polygon fill-rule="evenodd" clip-rule="evenodd" fill="#B75F62" points="59.544,75.097 61.769,73.812 61.798,73.796 
			61.938,74.012 61.938,74.012 62.004,74.112 59.75,75.413 59.685,75.314 59.685,75.313 		"/>
	</g>
	<g>
		
			<linearGradient id="SVGID_24_" gradientUnits="userSpaceOnUse" x1="336.4834" y1="81.9229" x2="333.4743" y2="87.1347" gradientTransform="matrix(-1 0 0 1 396.7285 0)">
			<stop  offset="0" style="stop-color:#DF7B74"/>
			<stop  offset="1" style="stop-color:#B75F62"/>
		</linearGradient>
		<polygon fill-rule="evenodd" clip-rule="evenodd" fill="url(#SVGID_24_)" points="60.596,84.729 60.597,84.729 62.851,83.429 
			62.851,84.242 60.597,85.543 60.597,84.729 		"/>
		<polygon fill-rule="evenodd" clip-rule="evenodd" fill="#F59887" points="55.76,77.28 57.983,75.996 58.014,75.979 58.154,76.195 
			58.154,76.197 62.851,83.429 60.596,84.728 55.9,77.499 55.9,77.499 		"/>
		<polygon fill-rule="evenodd" clip-rule="evenodd" fill="#B75F62" points="55.76,77.28 57.983,75.996 58.014,75.979 58.154,76.195 
			58.154,76.197 58.221,76.299 55.967,77.6 55.9,77.499 55.9,77.499 		"/>
	</g>
	
		<linearGradient id="SVGID_25_" gradientUnits="userSpaceOnUse" x1="384.5898" y1="38.2881" x2="380.5287" y2="27.7086" gradientTransform="matrix(-1 0 0 1 396.7285 0)">
		<stop  offset="0" style="stop-color:#B6A49C"/>
		<stop  offset="1" style="stop-color:#9E8F88"/>
	</linearGradient>
	<polygon fill-rule="evenodd" clip-rule="evenodd" fill="url(#SVGID_25_)" points="14.688,43.127 8.977,39.829 8.977,35.041 
		14.688,38.338 	"/>
	
		<linearGradient id="SVGID_26_" gradientUnits="userSpaceOnUse" x1="383.7402" y1="39.2417" x2="379.0091" y2="40.4213" gradientTransform="matrix(-1 0 0 1 396.7285 0)">
		<stop  offset="0" style="stop-color:#B6A49C"/>
		<stop  offset="1" style="stop-color:#9E8F88"/>
	</linearGradient>
	<polygon fill-rule="evenodd" clip-rule="evenodd" fill="url(#SVGID_26_)" points="14.688,43.127 17.27,41.637 17.27,36.848 
		14.688,38.338 	"/>
	<polygon fill-rule="evenodd" clip-rule="evenodd" fill="#C2B2AC" points="8.977,35.041 11.558,33.55 17.27,36.848 14.688,38.338 	
		"/>
	<path fill-rule="evenodd" clip-rule="evenodd" fill="#533B40" d="M12.527,37.448c-0.974-0.563-1.764-0.107-1.764,1.019
		c0,1.124,0.791,2.492,1.764,3.055s1.764,0.106,1.764-1.019S13.501,38.01,12.527,37.448L12.527,37.448z M13.221,39.885
		c0,0.443-0.311,0.622-0.693,0.401c-0.384-0.222-0.694-0.759-0.694-1.202c0-0.442,0.31-0.622,0.694-0.401
		C12.91,38.904,13.221,39.442,13.221,39.885z"/>
	
		<linearGradient id="SVGID_27_" gradientUnits="userSpaceOnUse" x1="323.8809" y1="86.7129" x2="338.9431" y2="85.6596" gradientTransform="matrix(-1 0 0 1 396.7285 0)">
		<stop  offset="0" style="stop-color:#8B7973"/>
		<stop  offset="1" style="stop-color:#66544D"/>
	</linearGradient>
	<polygon fill-rule="evenodd" clip-rule="evenodd" fill="url(#SVGID_27_)" points="74.772,85.193 77.661,86.86 77.661,88.703 
		74.772,87.035 	"/>
	
		<linearGradient id="SVGID_28_" gradientUnits="userSpaceOnUse" x1="329.6592" y1="90.0488" x2="344.7168" y2="88.9959" gradientTransform="matrix(-1 0 0 1 396.7285 0)">
		<stop  offset="0" style="stop-color:#8B7973"/>
		<stop  offset="1" style="stop-color:#66544D"/>
	</linearGradient>
	<polygon fill-rule="evenodd" clip-rule="evenodd" fill="url(#SVGID_28_)" points="68.994,88.53 71.882,90.197 71.882,92.039 
		68.994,90.372 	"/>
	
		<linearGradient id="SVGID_29_" gradientUnits="userSpaceOnUse" x1="335.4385" y1="93.3857" x2="350.5055" y2="92.3322" gradientTransform="matrix(-1 0 0 1 396.7285 0)">
		<stop  offset="0" style="stop-color:#8B7973"/>
		<stop  offset="1" style="stop-color:#66544D"/>
	</linearGradient>
	<polygon fill-rule="evenodd" clip-rule="evenodd" fill="url(#SVGID_29_)" points="63.215,91.866 66.104,93.534 66.104,95.376 
		63.215,93.707 	"/>
	
		<linearGradient id="SVGID_30_" gradientUnits="userSpaceOnUse" x1="341.2178" y1="96.7227" x2="356.2848" y2="95.6691" gradientTransform="matrix(-1 0 0 1 396.7285 0)">
		<stop  offset="0" style="stop-color:#8B7973"/>
		<stop  offset="1" style="stop-color:#66544D"/>
	</linearGradient>
	<polygon fill-rule="evenodd" clip-rule="evenodd" fill="url(#SVGID_30_)" points="57.437,95.203 60.326,96.871 60.326,98.713 
		57.437,97.044 	"/>
	<polygon fill-rule="evenodd" clip-rule="evenodd" fill="#C4A98F" points="80.551,85.193 77.661,86.86 77.661,88.703 80.551,87.035 
			"/>
	<polygon fill-rule="evenodd" clip-rule="evenodd" fill="#C4A98F" points="74.772,88.53 71.882,90.197 71.882,92.039 74.772,90.372 
			"/>
	<polygon fill-rule="evenodd" clip-rule="evenodd" fill="#C4A98F" points="68.994,91.866 66.104,93.534 66.104,95.376 
		68.994,93.707 	"/>
	<polygon fill-rule="evenodd" clip-rule="evenodd" fill="#C4A98F" points="63.215,95.203 60.326,96.871 60.326,98.713 
		63.215,97.044 	"/>
	<polygon fill-rule="evenodd" clip-rule="evenodd" fill="#DAC5AF" points="74.772,85.193 77.661,86.862 80.551,85.193 
		77.661,83.525 	"/>
	<polygon fill-rule="evenodd" clip-rule="evenodd" fill="#DAC5AF" points="68.994,88.53 71.882,90.197 74.772,88.53 71.882,86.862 	
		"/>
	<polygon fill-rule="evenodd" clip-rule="evenodd" fill="#DAC5AF" points="63.216,91.866 66.104,93.534 68.994,91.866 
		66.104,90.197 	"/>
	<polygon fill-rule="evenodd" clip-rule="evenodd" fill="#DAC5AF" points="57.438,95.203 60.326,96.871 63.215,95.203 
		60.326,93.534 	"/>
	<polygon fill-rule="evenodd" clip-rule="evenodd" fill="#8B7973" points="74.772,85.193 76.896,86.42 77.661,86.42 77.661,83.525 	
		"/>
	<polygon fill-rule="evenodd" clip-rule="evenodd" fill="#8B7973" points="68.994,88.53 71.117,89.757 71.882,89.757 71.882,86.862 
			"/>
	<polygon fill-rule="evenodd" clip-rule="evenodd" fill="#8B7973" points="63.216,91.866 65.339,93.092 66.104,93.092 
		66.104,90.197 	"/>
	<polygon fill-rule="evenodd" clip-rule="evenodd" fill="#8B7973" points="57.438,95.203 59.561,96.428 60.326,96.428 
		60.326,93.534 	"/>
	<polygon fill-rule="evenodd" clip-rule="evenodd" fill="#E3DF92" points="75.538,82.231 77.661,83.458 79.784,82.231 
		77.661,81.006 	"/>
	<polygon fill-rule="evenodd" clip-rule="evenodd" fill="#E3DF92" points="69.759,85.567 71.882,86.795 74.007,85.567 
		71.882,84.343 	"/>
	<polygon fill-rule="evenodd" clip-rule="evenodd" fill="#E3DF92" points="63.979,88.904 66.104,90.131 68.229,88.904 
		66.104,87.678 	"/>
	<polygon fill-rule="evenodd" clip-rule="evenodd" fill="#E3DF92" points="58.202,92.241 60.326,93.468 62.45,92.241 60.326,91.015 
			"/>
	<polygon fill-rule="evenodd" clip-rule="evenodd" fill="#7F775A" points="75.538,82.231 76.9,83.02 77.661,83.02 77.661,81.006 	
		"/>
	<polygon fill-rule="evenodd" clip-rule="evenodd" fill="#7F775A" points="69.759,85.567 71.123,86.356 71.882,86.356 
		71.882,84.343 	"/>
	<polygon fill-rule="evenodd" clip-rule="evenodd" fill="#7F775A" points="63.979,88.904 65.344,89.692 66.104,89.692 
		66.104,87.678 	"/>
	<polygon fill-rule="evenodd" clip-rule="evenodd" fill="#7F775A" points="58.202,92.241 59.565,93.027 60.326,93.027 
		60.326,91.015 	"/>
	<polygon fill-rule="evenodd" clip-rule="evenodd" fill="#7F775A" points="75.538,82.231 77.661,83.458 77.661,86.42 75.538,85.193 
			"/>
	<polygon fill-rule="evenodd" clip-rule="evenodd" fill="#7F775A" points="69.759,85.567 71.882,86.795 71.882,89.757 69.759,88.53 
			"/>
	<polygon fill-rule="evenodd" clip-rule="evenodd" fill="#7F775A" points="63.979,88.904 66.104,90.131 66.104,93.092 
		63.979,91.866 	"/>
	<polygon fill-rule="evenodd" clip-rule="evenodd" fill="#7F775A" points="58.202,92.241 60.326,93.468 60.326,96.428 
		58.202,95.203 	"/>
	<polygon fill-rule="evenodd" clip-rule="evenodd" fill="#A9A171" points="79.784,82.231 77.661,83.458 77.661,86.42 79.784,85.193 
			"/>
	<polygon fill-rule="evenodd" clip-rule="evenodd" fill="#A9A171" points="74.007,85.567 71.882,86.795 71.882,89.757 74.007,88.53 
			"/>
	<polygon fill-rule="evenodd" clip-rule="evenodd" fill="#A9A171" points="68.229,88.904 66.104,90.131 66.104,93.092 
		68.229,91.866 	"/>
	<polygon fill-rule="evenodd" clip-rule="evenodd" fill="#A9A171" points="62.45,92.241 60.326,93.468 60.326,96.428 62.45,95.203 	
		"/>
	<polygon fill-rule="evenodd" clip-rule="evenodd" fill="#F59887" points="76.375,80.481 77.661,81.225 78.948,80.481 77.661,79.74 
			"/>
	<polygon fill-rule="evenodd" clip-rule="evenodd" fill="#FFE0A0" points="70.597,83.818 71.882,84.562 73.169,83.818 
		71.882,83.077 	"/>
	<polygon fill-rule="evenodd" clip-rule="evenodd" fill="#F59887" points="64.817,87.155 66.104,87.897 67.391,87.155 
		66.104,86.412 	"/>
	<polygon fill-rule="evenodd" clip-rule="evenodd" fill="#FFE0A0" points="59.04,90.491 60.326,91.234 61.612,90.491 60.326,89.748 
			"/>
	<polygon fill-rule="evenodd" clip-rule="evenodd" fill="#88474F" points="76.375,80.481 77.661,81.225 77.661,83.02 76.375,82.276 
			"/>
	
		<linearGradient id="SVGID_31_" gradientUnits="userSpaceOnUse" x1="325.3076" y1="84.7139" x2="326.3495" y2="86.8501" gradientTransform="matrix(-1 0 0 1 396.7285 0)">
		<stop  offset="0" style="stop-color:#B87F69"/>
		<stop  offset="1" style="stop-color:#865F4E"/>
	</linearGradient>
	<polygon fill-rule="evenodd" clip-rule="evenodd" fill="url(#SVGID_31_)" points="70.597,83.818 71.882,84.562 71.882,86.356 
		70.597,85.613 	"/>
	<polygon fill-rule="evenodd" clip-rule="evenodd" fill="#88474F" points="64.817,87.155 66.104,87.897 66.104,89.692 64.817,88.95 
			"/>
	
		<linearGradient id="SVGID_32_" gradientUnits="userSpaceOnUse" x1="336.8369" y1="91.3984" x2="338.6229" y2="94.4919" gradientTransform="matrix(-1 0 0 1 396.7285 0)">
		<stop  offset="0" style="stop-color:#B87F69"/>
		<stop  offset="1" style="stop-color:#865F4E"/>
	</linearGradient>
	<polygon fill-rule="evenodd" clip-rule="evenodd" fill="url(#SVGID_32_)" points="59.04,90.491 60.326,91.234 60.326,93.027 
		59.04,92.286 	"/>
	
		<linearGradient id="SVGID_33_" gradientUnits="userSpaceOnUse" x1="318.2012" y1="80.6035" x2="319.0943" y2="85.1981" gradientTransform="matrix(-1 0 0 1 396.7285 0)">
		<stop  offset="0" style="stop-color:#DF7B74"/>
		<stop  offset="1" style="stop-color:#B75F62"/>
	</linearGradient>
	<polygon fill-rule="evenodd" clip-rule="evenodd" fill="url(#SVGID_33_)" points="78.948,80.481 77.661,81.225 77.661,83.02 
		78.947,82.276 	"/>
	
		<linearGradient id="SVGID_34_" gradientUnits="userSpaceOnUse" x1="324.4521" y1="84.6387" x2="323.1317" y2="87.0209" gradientTransform="matrix(-1 0 0 1 396.7285 0)">
		<stop  offset="0" style="stop-color:#FACA92"/>
		<stop  offset="1" style="stop-color:#DFB585"/>
	</linearGradient>
	<polygon fill-rule="evenodd" clip-rule="evenodd" fill="url(#SVGID_34_)" points="73.169,83.818 71.882,84.562 71.882,86.356 
		73.169,85.613 	"/>
	
		<linearGradient id="SVGID_35_" gradientUnits="userSpaceOnUse" x1="329.7578" y1="87.2773" x2="330.6503" y2="91.8686" gradientTransform="matrix(-1 0 0 1 396.7285 0)">
		<stop  offset="0" style="stop-color:#DF7B74"/>
		<stop  offset="1" style="stop-color:#B75F62"/>
	</linearGradient>
	<polygon fill-rule="evenodd" clip-rule="evenodd" fill="url(#SVGID_35_)" points="67.391,87.155 66.104,87.897 66.104,89.692 
		67.391,88.95 	"/>
	
		<linearGradient id="SVGID_36_" gradientUnits="userSpaceOnUse" x1="336.0078" y1="91.3105" x2="334.6883" y2="93.691" gradientTransform="matrix(-1 0 0 1 396.7285 0)">
		<stop  offset="0" style="stop-color:#FACA92"/>
		<stop  offset="1" style="stop-color:#DFB585"/>
	</linearGradient>
	<polygon fill-rule="evenodd" clip-rule="evenodd" fill="url(#SVGID_36_)" points="61.612,90.491 60.326,91.234 60.326,93.027 
		61.612,92.286 	"/>
	<g>
		<polygon fill-rule="evenodd" clip-rule="evenodd" fill="#8B7973" points="51.807,74.415 58.84,70.355 59.722,68.094 
			59.722,56.459 60.529,55.994 60.529,54.959 59.722,55.424 52.689,59.485 52.689,59.485 51.883,59.95 51,62.211 51,63.246 
			51.807,62.781 		"/>
		
			<linearGradient id="SVGID_37_" gradientUnits="userSpaceOnUse" x1="336.3555" y1="68.9482" x2="350.1328" y2="64.4717" gradientTransform="matrix(-1 0 0 1 396.7285 0)">
			<stop  offset="0" style="stop-color:#B6A49C"/>
			<stop  offset="1" style="stop-color:#9E8F88"/>
		</linearGradient>
		<polygon fill-rule="evenodd" clip-rule="evenodd" fill="url(#SVGID_37_)" points="52.689,60.521 52.689,72.155 53.585,72.674 
			53.585,61.037 		"/>
		<polygon fill-rule="evenodd" clip-rule="evenodd" fill="#B6A49C" points="51.883,59.95 51.883,60.986 52.778,61.505 
			52.778,60.469 		"/>
		
			<linearGradient id="SVGID_38_" gradientUnits="userSpaceOnUse" x1="336.207" y1="68.4092" x2="338.8217" y2="56.108" gradientTransform="matrix(-1 0 0 1 396.7285 0)">
			<stop  offset="0" style="stop-color:#B6A49C"/>
			<stop  offset="1" style="stop-color:#9E8F88"/>
		</linearGradient>
		<polygon fill-rule="evenodd" clip-rule="evenodd" fill="url(#SVGID_38_)" points="58.825,58.012 58.825,67.577 59.722,68.096 
			59.722,57.495 		"/>
		
			<linearGradient id="SVGID_39_" gradientUnits="userSpaceOnUse" x1="340.1104" y1="67.3984" x2="340.214" y2="61.4588" gradientTransform="matrix(-1 0 0 1 396.7285 0)">
			<stop  offset="0" style="stop-color:#F1ECE5"/>
			<stop  offset="1" style="stop-color:#C6B6A2"/>
		</linearGradient>
		<polygon fill-rule="evenodd" clip-rule="evenodd" fill="url(#SVGID_39_)" points="54.481,71.122 53.585,70.603 58.825,67.577 
			59.722,68.096 		"/>
		<polygon fill-rule="evenodd" clip-rule="evenodd" fill="#B6A49C" points="57.93,68.096 58.825,67.577 59.722,68.096 		"/>
		<polygon fill-rule="evenodd" clip-rule="evenodd" fill="#B6A49C" points="53.585,70.603 53.585,59.942 58.825,56.916 
			58.825,67.577 		"/>
		<polygon fill-rule="evenodd" clip-rule="evenodd" fill="#DCCEC0" points="53.585,70.603 53.585,61.692 57.944,59.177 
			57.944,68.085 		"/>
		<g>
			<polygon fill-rule="evenodd" clip-rule="evenodd" fill="#533B40" points="54.183,69.569 54.183,60.286 58.229,57.949 
				58.229,67.233 			"/>
			<polygon fill-rule="evenodd" clip-rule="evenodd" fill="#6E565A" points="54.183,69.569 54.183,61.349 57.944,59.177 
				57.944,67.396 			"/>
		</g>
		<path fill-rule="evenodd" clip-rule="evenodd" fill="#DCCEC0" d="M53.585,72.674V61.037l-0.807,0.468v-1.036l0.807-0.467l0,0
			l7.033-4.06l0.808-0.467v1.035l-0.808,0.465v11.637L53.585,72.674L53.585,72.674z M54.481,71.122l5.24-3.026V57.495l-5.24,3.025
			V71.122z"/>
		
			<linearGradient id="SVGID_40_" gradientUnits="userSpaceOnUse" x1="340.2891" y1="57.2324" x2="343.4147" y2="50.2121" gradientTransform="matrix(-1 0 0 1 396.7285 0)">
			<stop  offset="0" style="stop-color:#F1ECE5"/>
			<stop  offset="1" style="stop-color:#C6B6A2"/>
		</linearGradient>
		<polygon fill-rule="evenodd" clip-rule="evenodd" fill="url(#SVGID_40_)" points="51.883,59.95 60.529,54.959 61.426,55.476 
			52.778,60.469 		"/>
	</g>
	<g>
		<polygon fill-rule="evenodd" clip-rule="evenodd" fill="#8B7973" points="65.265,66.646 72.298,62.585 73.179,60.325 
			73.179,48.69 73.986,48.224 73.986,47.189 73.179,47.655 66.146,51.715 66.146,51.717 65.339,52.182 64.457,54.442 64.457,55.478 
			65.265,55.01 		"/>
		
			<linearGradient id="SVGID_41_" gradientUnits="userSpaceOnUse" x1="322.8955" y1="61.1797" x2="336.6787" y2="56.7013" gradientTransform="matrix(-1 0 0 1 396.7285 0)">
			<stop  offset="0" style="stop-color:#B6A49C"/>
			<stop  offset="1" style="stop-color:#9E8F88"/>
		</linearGradient>
		<polygon fill-rule="evenodd" clip-rule="evenodd" fill="url(#SVGID_41_)" points="66.146,52.75 66.146,64.387 67.043,64.903 
			67.043,53.269 		"/>
		<polygon fill-rule="evenodd" clip-rule="evenodd" fill="#B6A49C" points="65.339,52.182 65.34,53.218 66.235,53.734 
			66.235,52.698 		"/>
		
			<linearGradient id="SVGID_42_" gradientUnits="userSpaceOnUse" x1="322.75" y1="60.6387" x2="325.3647" y2="48.3375" gradientTransform="matrix(-1 0 0 1 396.7285 0)">
			<stop  offset="0" style="stop-color:#B6A49C"/>
			<stop  offset="1" style="stop-color:#9E8F88"/>
		</linearGradient>
		<polygon fill-rule="evenodd" clip-rule="evenodd" fill="url(#SVGID_42_)" points="72.283,50.243 72.283,59.809 73.179,60.325 
			73.179,49.725 		"/>
		
			<linearGradient id="SVGID_43_" gradientUnits="userSpaceOnUse" x1="326.6533" y1="59.6299" x2="326.7569" y2="53.6944" gradientTransform="matrix(-1 0 0 1 396.7285 0)">
			<stop  offset="0" style="stop-color:#F1ECE5"/>
			<stop  offset="1" style="stop-color:#C6B6A2"/>
		</linearGradient>
		<polygon fill-rule="evenodd" clip-rule="evenodd" fill="url(#SVGID_43_)" points="67.938,63.351 67.043,62.834 72.283,59.809 
			73.179,60.325 		"/>
		<polygon fill-rule="evenodd" clip-rule="evenodd" fill="#B6A49C" points="71.387,60.325 72.283,59.809 73.179,60.325 		"/>
		<polygon fill-rule="evenodd" clip-rule="evenodd" fill="#B6A49C" points="67.043,62.834 67.043,52.172 72.283,49.146 
			72.283,59.809 		"/>
		<polygon fill-rule="evenodd" clip-rule="evenodd" fill="#DCCEC0" points="67.043,62.834 67.043,53.924 71.401,51.406 
			71.401,60.316 		"/>
		<g>
			<polygon fill-rule="evenodd" clip-rule="evenodd" fill="#533B40" points="67.64,61.799 67.64,52.518 71.687,50.182 
				71.687,59.463 			"/>
			<polygon fill-rule="evenodd" clip-rule="evenodd" fill="#6E565A" points="67.64,61.799 67.64,53.58 71.401,51.406 71.401,59.627 
							"/>
		</g>
		<path fill-rule="evenodd" clip-rule="evenodd" fill="#DCCEC0" d="M67.043,64.903V53.269l-0.808,0.466v-1.036l0.808-0.465l0,0
			l7.032-4.061l0.808-0.466v1.035l-0.808,0.466v11.636L67.043,64.903L67.043,64.903z M67.938,63.351l5.24-3.025V49.725l-5.24,3.025
			V63.351z"/>
		
			<linearGradient id="SVGID_44_" gradientUnits="userSpaceOnUse" x1="326.833" y1="49.4624" x2="329.9576" y2="42.4444" gradientTransform="matrix(-1 0 0 1 396.7285 0)">
			<stop  offset="0" style="stop-color:#F1ECE5"/>
			<stop  offset="1" style="stop-color:#C6B6A2"/>
		</linearGradient>
		<polygon fill-rule="evenodd" clip-rule="evenodd" fill="url(#SVGID_44_)" points="65.339,52.182 73.986,47.189 74.883,47.707 
			66.235,52.698 		"/>
	</g>
	<g>
		<polygon fill-rule="evenodd" clip-rule="evenodd" fill="#8B7973" points="78.722,58.878 85.754,54.816 86.637,52.557 
			86.637,40.921 87.443,40.455 87.443,39.42 86.637,39.885 79.604,43.946 79.604,43.946 78.797,44.413 77.914,46.673 77.914,47.708 
			78.722,47.242 		"/>
		
			<linearGradient id="SVGID_45_" gradientUnits="userSpaceOnUse" x1="308.084" y1="53.8516" x2="324.5775" y2="48.4925" gradientTransform="matrix(-1 0 0 1 396.7285 0)">
			<stop  offset="0" style="stop-color:#B6A49C"/>
			<stop  offset="1" style="stop-color:#9E8F88"/>
		</linearGradient>
		<polygon fill-rule="evenodd" clip-rule="evenodd" fill="url(#SVGID_45_)" points="79.604,44.981 79.604,56.618 80.499,57.135 
			80.499,45.499 		"/>
		<polygon fill-rule="evenodd" clip-rule="evenodd" fill="#B6A49C" points="78.797,44.413 78.797,45.448 79.692,45.966 
			79.692,44.931 		"/>
		
			<linearGradient id="SVGID_46_" gradientUnits="userSpaceOnUse" x1="309.293" y1="52.8701" x2="311.9077" y2="40.5689" gradientTransform="matrix(-1 0 0 1 396.7285 0)">
			<stop  offset="0" style="stop-color:#B6A49C"/>
			<stop  offset="1" style="stop-color:#9E8F88"/>
		</linearGradient>
		<polygon fill-rule="evenodd" clip-rule="evenodd" fill="url(#SVGID_46_)" points="85.739,42.473 85.74,52.038 86.637,52.557 
			86.637,41.956 		"/>
		
			<linearGradient id="SVGID_47_" gradientUnits="userSpaceOnUse" x1="313.1953" y1="51.8594" x2="313.299" y2="45.9214" gradientTransform="matrix(-1 0 0 1 396.7285 0)">
			<stop  offset="0" style="stop-color:#F1ECE5"/>
			<stop  offset="1" style="stop-color:#C6B6A2"/>
		</linearGradient>
		<polygon fill-rule="evenodd" clip-rule="evenodd" fill="url(#SVGID_47_)" points="81.396,55.582 80.499,55.063 85.74,52.038 
			86.637,52.557 		"/>
		<polygon fill-rule="evenodd" clip-rule="evenodd" fill="#B6A49C" points="84.844,52.557 85.74,52.038 86.637,52.557 		"/>
		<polygon fill-rule="evenodd" clip-rule="evenodd" fill="#B6A49C" points="80.499,55.065 80.499,44.403 85.74,41.378 85.74,52.038 
					"/>
		<polygon fill-rule="evenodd" clip-rule="evenodd" fill="#DCCEC0" points="80.499,55.065 80.499,46.154 84.858,43.638 
			84.858,52.549 		"/>
		<g>
			<polygon fill-rule="evenodd" clip-rule="evenodd" fill="#533B40" points="81.098,54.03 81.098,44.748 85.143,42.412 
				85.143,51.694 			"/>
			<polygon fill-rule="evenodd" clip-rule="evenodd" fill="#6E565A" points="81.098,54.03 81.098,45.81 84.858,43.638 
				84.858,51.858 			"/>
		</g>
		<path fill-rule="evenodd" clip-rule="evenodd" fill="#DCCEC0" d="M80.499,57.135V45.499l-0.807,0.467v-1.035l0.807-0.466v-0.001
			l7.033-4.06l0.808-0.467v1.034l-0.808,0.467v11.635L80.499,57.135L80.499,57.135z M81.396,55.582l5.241-3.025V41.956l-5.241,3.025
			V55.582z"/>
		
			<linearGradient id="SVGID_48_" gradientUnits="userSpaceOnUse" x1="313.374" y1="41.6934" x2="316.5006" y2="34.6709" gradientTransform="matrix(-1 0 0 1 396.7285 0)">
			<stop  offset="0" style="stop-color:#F1ECE5"/>
			<stop  offset="1" style="stop-color:#C6B6A2"/>
		</linearGradient>
		<polygon fill-rule="evenodd" clip-rule="evenodd" fill="url(#SVGID_48_)" points="78.797,44.413 87.444,39.42 88.34,39.938 
			79.692,44.931 		"/>
	</g>
	<polygon fill-rule="evenodd" clip-rule="evenodd" fill="#B6A49C" points="49.104,56.035 49.104,58.3 50,58.818 50,56.554 	"/>
	<polygon fill-rule="evenodd" clip-rule="evenodd" fill="#F1EEEB" points="49.104,56.035 90.221,32.297 91.117,32.814 50,56.554 	
		"/>
	<polygon fill-rule="evenodd" clip-rule="evenodd" fill="#DED5CB" points="50,58.818 91.117,35.079 91.117,32.814 50,56.554 	"/>
	<g>
		<polygon fill-rule="evenodd" clip-rule="evenodd" fill="#A08F88" points="30.158,51.65 30.158,63.287 29.261,63.804 29.261,52.17 
					"/>
		<polygon fill-rule="evenodd" clip-rule="evenodd" fill="#A08F88" points="30.965,51.083 30.965,52.118 30.068,52.635 30.068,51.6 
					"/>
		<polygon fill-rule="evenodd" clip-rule="evenodd" fill="#A08F88" points="24.021,49.143 24.02,58.709 23.124,59.226 
			23.124,48.625 		"/>
		<polygon fill-rule="evenodd" clip-rule="evenodd" fill="#C2B2AC" points="28.365,62.252 29.261,61.735 24.02,58.709 
			23.124,59.226 		"/>
		<polygon fill-rule="evenodd" clip-rule="evenodd" fill="#B6A49C" points="24.917,59.226 24.02,58.709 23.124,59.226 		"/>
		<polygon fill-rule="evenodd" clip-rule="evenodd" fill="#B6A49C" points="29.261,61.735 29.261,51.072 24.02,48.047 24.02,58.709 
					"/>
		<polygon fill-rule="evenodd" clip-rule="evenodd" fill="#533B40" points="28.663,60.7 28.663,51.418 24.617,49.082 24.617,58.363 
					"/>
		<path fill-rule="evenodd" clip-rule="evenodd" fill="#B6A49C" d="M29.261,63.804V52.17l0.807,0.465V51.6l-0.807-0.466l0,0
			l-7.033-4.061l-0.807-0.465v1.034l0.807,0.466v11.634L29.261,63.804L29.261,63.804z M28.365,62.252l-5.241-3.026V48.625
			l5.241,3.025V62.252z"/>
		<polygon fill-rule="evenodd" clip-rule="evenodd" fill="#C2B2AC" points="30.965,51.083 22.317,46.089 21.422,46.608 30.068,51.6 
					"/>
	</g>
	<g>
		<polygon fill-rule="evenodd" clip-rule="evenodd" fill="#A08F88" points="41.203,58.028 41.203,69.664 40.308,70.181 
			40.308,58.547 		"/>
		<polygon fill-rule="evenodd" clip-rule="evenodd" fill="#A08F88" points="42.01,57.46 42.01,58.495 41.115,59.012 41.115,57.977 
					"/>
		<polygon fill-rule="evenodd" clip-rule="evenodd" fill="#A08F88" points="35.067,55.521 35.066,65.086 34.169,65.603 
			34.169,55.002 		"/>
		<polygon fill-rule="evenodd" clip-rule="evenodd" fill="#C2B2AC" points="39.41,68.629 40.307,68.112 35.066,65.086 
			34.169,65.603 		"/>
		<polygon fill-rule="evenodd" clip-rule="evenodd" fill="#B6A49C" points="35.962,65.603 35.066,65.086 34.169,65.603 		"/>
		<polygon fill-rule="evenodd" clip-rule="evenodd" fill="#B6A49C" points="40.307,68.112 40.307,57.449 35.066,54.424 
			35.066,65.086 		"/>
		<polygon fill-rule="evenodd" clip-rule="evenodd" fill="#533B40" points="39.709,67.077 39.709,57.795 35.664,55.459 
			35.664,64.74 		"/>
		<path fill-rule="evenodd" clip-rule="evenodd" fill="#B6A49C" d="M40.308,70.181V58.547l0.807,0.465v-1.035l-0.807-0.465l0,0
			l-7.033-4.062l-0.807-0.466v1.036l0.807,0.465v11.637L40.308,70.181L40.308,70.181z M39.41,68.629l-5.241-3.026V55.002
			l5.241,3.026V68.629z"/>
		<polygon fill-rule="evenodd" clip-rule="evenodd" fill="#C2B2AC" points="42.01,57.46 33.363,52.468 32.467,52.984 41.115,57.977 
					"/>
	</g>
</g>
</svg>
