<?xml version="1.0" encoding="utf-8"?>
<!-- Generator: Adobe Illustrator 15.0.0, SVG Export Plug-In . SVG Version: 6.00 Build 0)  -->
<!DOCTYPE svg PUBLIC "-//W3C//DTD SVG 1.1//EN" "http://www.w3.org/Graphics/SVG/1.1/DTD/svg11.dtd">
<svg version="1.1" id="Layer_1" xmlns="http://www.w3.org/2000/svg" xmlns:xlink="http://www.w3.org/1999/xlink" x="0px" y="0px"
	 width="25px" height="25px" viewBox="0 0 25 25" enable-background="new 0 0 25 25" xml:space="preserve">
<g>
	<g enable-background="new    ">
		<g>
			<polygon fill="#888888" points="15.996,12.15 13.112,10.473 18.52,13.554 21.404,15.23 			"/>
		</g>
		<g>
			<polygon fill="#767676" points="6.516,23.827 3.631,22.15 9.004,12.845 11.888,14.522 			"/>
		</g>
		<g>
			<polygon fill="#898989" points="19.304,1.676 16.42,0 18.484,1.168 21.368,2.845 			"/>
		</g>
		<g>
			<polygon fill="#767676" points="13.932,10.981 11.048,9.304 16.42,0 19.304,1.676 			"/>
		</g>
		<g>
			<polygon fill="#888888" points="8.525,7.899 5.641,6.224 11.048,9.304 13.932,10.981 			"/>
		</g>
		<g>
			<polygon fill="#767676" points="6.481,11.44 3.596,9.765 5.641,6.224 8.525,7.899 			"/>
		</g>
		<g>
			<polygon fill="#CBCBCB" points="19.304,1.676 21.368,2.845 15.996,12.15 21.404,15.23 19.353,18.776 13.946,15.695 8.574,25 
				6.516,23.827 11.888,14.522 6.481,11.44 8.525,7.899 13.932,10.981 			"/>
		</g>
	</g>
</g>
</svg>
