<?xml version="1.0" encoding="utf-8"?>
<!-- Generator: Adobe Illustrator 15.0.0, SVG Export Plug-In . SVG Version: 6.00 Build 0)  -->
<!DOCTYPE svg PUBLIC "-//W3C//DTD SVG 1.1//EN" "http://www.w3.org/Graphics/SVG/1.1/DTD/svg11.dtd">
<svg version="1.1" id="Layer_1" xmlns="http://www.w3.org/2000/svg" xmlns:xlink="http://www.w3.org/1999/xlink" x="0px" y="0px"
	 width="120px" height="70px" viewBox="0 0 120 70" enable-background="new 0 0 120 70" xml:space="preserve">
<rect x="-33.706" y="-26.578" transform="matrix(-0.866 0.5 -0.5 -0.866 76.9717 -8.9488)" opacity="0.35" enable-background="new    " width="146.781" height="64.833"/>
<g>
	<g>
		<g enable-background="new    ">
			<g>
				<polygon fill="#CCCCCC" points="43,29.137 42.99,32.485 25.054,43 25.063,39.649 				"/>
			</g>
			<g>
				<polygon fill="#777777" points="25.063,39.649 25.054,43 7,32.485 7.008,29.137 				"/>
			</g>
			<g>
				<polygon fill="#999999" points="43,29.137 25.063,39.649 7.008,29.137 24.945,18.622 				"/>
			</g>
		</g>
	</g>
	<g>
		<g enable-background="new    ">
			<g>
				<polygon fill="#CCCCCC" points="43,23.325 42.99,26.674 25.054,37.188 25.063,33.84 				"/>
			</g>
			<g>
				<polygon fill="#777777" points="25.063,33.84 25.054,37.188 7,26.674 7.008,23.325 				"/>
			</g>
			<g>
				<polygon fill="#999999" points="43,23.325 25.063,33.84 7.008,23.325 24.945,12.811 				"/>
			</g>
		</g>
	</g>
	<g>
		<g enable-background="new    ">
			<g>
				<polygon fill="#CCCCCC" points="43,17.515 42.99,20.863 25.054,31.379 25.063,28.029 				"/>
			</g>
			<g>
				<polygon fill="#777777" points="25.063,28.029 25.054,31.379 7,20.863 7.008,17.515 				"/>
			</g>
			<g>
				<polygon fill="#DDDDDD" points="43,17.515 25.063,28.029 7.008,17.515 24.945,7 				"/>
			</g>
		</g>
	</g>
</g>
</svg>
