<?xml version="1.0" encoding="utf-8"?>
<!-- Generator: Adobe Illustrator 15.0.0, SVG Export Plug-In . SVG Version: 6.00 Build 0)  -->
<!DOCTYPE svg PUBLIC "-//W3C//DTD SVG 1.1//EN" "http://www.w3.org/Graphics/SVG/1.1/DTD/svg11.dtd">
<svg version="1.1" id="Layer_1" xmlns="http://www.w3.org/2000/svg" xmlns:xlink="http://www.w3.org/1999/xlink" x="0px" y="0px"
	 width="1000px" height="1250px" viewBox="0 0 1000 1250" enable-background="new 0 0 1000 1250" xml:space="preserve">
<path opacity="0.15" enable-background="new    " d="M800.396,230.07c0-3.704,0.771-7.704,3.271-10.575
	c2.697-3.099,6.846-3.855,10.726-2.923c-0.729-5.048-0.565-10.681,1.861-15.283c2.158-4.072,6.146-6.563,10.782-6.595
	c5.771-0.04,11.246,3.036,15.581,6.614c4.539,3.746,8.305,8.347,11.335,13.378c3.111,5.165,5.478,10.849,6.686,16.766
	c0.11,0.543,0.079,1.727,0.632,1.85c0.645,0.141,1.271,0.313,1.888,0.509c1.47,0.47,2.891,1.088,4.255,1.808
	c2.105,1.119,4.101,2.482,5.953,3.997c7.604,6.222,13.313,14.969,16.558,24.206c1.556,4.431,2.563,9.109,2.601,13.818
	c0.043,5.241-1.181,11.13-5.363,14.672c-5.813,4.91-13.646,2.464-19.522-0.933c-9.062-5.231-18.118-10.463-27.179-15.694
	c-4.992-2.883-9.982-5.765-14.979-8.648c-2.636-1.521-5.391-2.948-7.86-4.708c-5.161-3.673-9.259-8.835-12.23-14.391
	C802.44,242.488,800.396,236.303,800.396,230.07"/>
<g opacity="0.8">
	<path fill="#F1FAFE" d="M760.396,230.07c0-3.704,0.771-7.704,3.271-10.575c2.697-3.099,6.846-3.855,10.726-2.923
		c-0.729-5.048-0.565-10.681,1.861-15.283c2.158-4.072,6.146-6.563,10.782-6.595c5.771-0.04,11.246,3.036,15.581,6.614
		c4.539,3.746,8.305,8.347,11.335,13.378c3.111,5.165,5.478,10.849,6.686,16.766c0.11,0.543,0.079,1.727,0.632,1.85
		c0.645,0.141,1.271,0.313,1.888,0.509c1.47,0.47,2.891,1.088,4.255,1.808c2.105,1.119,4.101,2.482,5.953,3.997
		c7.604,6.222,13.313,14.969,16.558,24.206c1.556,4.431,2.563,9.109,2.601,13.818c0.043,5.241-1.181,11.13-5.363,14.672
		c-5.813,4.91-13.646,2.464-19.522-0.933c-9.062-5.231-18.118-10.463-27.179-15.694c-4.992-2.883-9.982-5.765-14.979-8.648
		c-2.636-1.521-5.391-2.948-7.86-4.708c-5.161-3.673-9.259-8.835-12.23-14.391C762.44,242.488,760.396,236.303,760.396,230.07"/>
	<path fill="#D9D7CF" d="M795.499,187.865c4.289-2.662,9.632-1.96,14.066-0.054c4.729,2.034,8.854,5.367,12.351,9.111
		c6.998,7.506,12.16,17.291,13.851,27.451c0.085,0.51,1.111,0.527,1.604,0.667c0.646,0.185,1.287,0.401,1.916,0.644
		c1.46,0.563,2.861,1.265,4.211,2.057c1.979,1.164,3.837,2.529,5.575,4.028c3.717,3.205,6.896,7.012,9.58,11.119
		c5.223,8.02,9.007,17.763,8.688,27.459c-0.137,4.267-1.165,8.783-4.022,12.079c-1.443,1.658-3.313,2.672-5.188,3.752
		c-4.12,2.377-8.239,4.755-12.354,7.133c4.581-2.854,6.374-8.403,6.685-13.533c0.292-4.824-0.548-9.687-1.986-14.28
		c-2.938-9.374-8.441-18.255-15.813-24.782c-3.817-3.379-8.354-6.299-13.375-7.414c-0.563-0.123-0.522-1.308-0.636-1.85
		c-0.146-0.722-0.313-1.439-0.492-2.153c-0.402-1.579-0.896-3.136-1.439-4.668c-1.011-2.795-2.238-5.529-3.695-8.12
		c-2.854-5.121-6.438-10.021-10.869-13.889c-1.938-1.936-4.359-3.579-6.739-4.911c-2.575-1.443-5.375-2.531-8.317-2.895
		c-1.521-0.188-3.073-0.17-4.581,0.132c-1.331,0.267-2.472,0.854-3.674,1.382L795.499,187.865
		C799.809,185.191,795.499,187.865,795.499,187.865z"/>
</g>
<path opacity="0.15" enable-background="new    " d="M906.602,376.157c0-2.952,0.615-6.146,2.604-8.427
	c2.149-2.476,5.455-3.072,8.548-2.329c-0.58-4.023-0.459-8.518,1.483-12.185c1.72-3.246,4.896-5.229,8.592-5.256
	c4.604-0.032,8.963,2.419,12.418,5.271c3.617,2.979,6.617,6.646,9.032,10.658c2.479,4.114,4.361,8.646,5.328,13.359
	c0.088,0.438,0.063,1.376,0.504,1.479c0.505,0.107,1.004,0.248,1.494,0.401c1.173,0.375,2.305,0.867,3.392,1.441
	c1.688,0.892,3.271,1.979,4.745,3.185c6.063,4.958,10.607,11.934,13.191,19.29c1.236,3.531,2.04,7.261,2.063,11.018
	c0.034,4.176-0.938,8.863-4.271,11.688c-4.63,3.913-10.869,1.963-15.563-0.744c-7.22-4.169-14.438-8.338-21.652-12.507
	c-3.979-2.297-7.956-4.594-11.938-6.892c-2.101-1.212-4.294-2.354-6.271-3.752c-4.111-2.934-7.377-7.041-9.75-11.474
	C908.231,386.054,906.602,381.124,906.602,376.157"/>
<g opacity="0.8">
	<path fill="#F1FAFE" d="M866.602,376.157c0-2.952,0.615-6.146,2.604-8.427c2.149-2.476,5.455-3.072,8.548-2.329
		c-0.58-4.023-0.459-8.518,1.483-12.185c1.72-3.246,4.896-5.229,8.592-5.256c4.604-0.032,8.963,2.419,12.418,5.271
		c3.617,2.979,6.617,6.646,9.032,10.658c2.479,4.114,4.361,8.646,5.328,13.359c0.088,0.438,0.063,1.376,0.504,1.479
		c0.505,0.107,1.004,0.248,1.494,0.401c1.173,0.375,2.305,0.867,3.392,1.441c1.688,0.892,3.271,1.979,4.745,3.185
		c6.063,4.958,10.607,11.934,13.191,19.29c1.236,3.531,2.04,7.261,2.063,11.018c0.034,4.176-0.938,8.863-4.271,11.688
		c-4.63,3.913-10.869,1.963-15.563-0.744c-7.22-4.169-14.438-8.338-21.652-12.507c-3.979-2.297-7.956-4.594-11.938-6.892
		c-2.101-1.212-4.294-2.354-6.271-3.752c-4.111-2.934-7.377-7.041-9.75-11.474C868.231,386.054,866.602,381.124,866.602,376.157"/>
	<path fill="#D9D7CF" d="M894.576,342.523c3.417-2.121,7.676-1.563,11.209-0.042c3.771,1.615,7.063,4.271,9.843,7.261
		c5.576,5.979,9.691,13.78,11.038,21.876c0.067,0.407,0.892,0.42,1.274,0.531c0.516,0.146,1.021,0.314,1.522,0.513
		c1.163,0.449,2.274,1.007,3.354,1.639c1.575,0.933,3.058,2.021,4.439,3.209c2.962,2.56,5.503,5.588,7.634,8.861
		c4.163,6.391,7.183,14.156,6.937,21.883c-0.104,3.4-0.931,7-3.215,9.626c-1.15,1.322-2.645,2.13-4.132,2.99
		c-3.28,1.895-6.563,3.79-9.851,5.685c3.646-2.271,5.074-6.688,5.321-10.785c0.229-3.844-0.438-7.72-1.585-11.38
		c-2.341-7.47-6.729-14.547-12.604-19.749c-3.043-2.688-6.646-5.02-10.657-5.902c-0.438-0.103-0.416-1.042-0.506-1.479
		c-0.116-0.575-0.25-1.146-0.396-1.716c-0.313-1.258-0.706-2.499-1.146-3.72c-0.812-2.229-1.783-4.406-2.942-6.477
		c-2.271-4.075-5.134-7.979-8.665-11.063c-1.539-1.542-3.479-2.854-5.372-3.914c-2.056-1.15-4.284-2.021-6.631-2.308
		c-1.213-0.149-2.45-0.141-3.646,0.104c-1.063,0.212-1.976,0.681-2.934,1.102L894.576,342.523
		C898.01,340.392,894.576,342.523,894.576,342.523z"/>
</g>
<path opacity="0.15" enable-background="new    " d="M759.128,371.393c0-2.611,0.544-5.438,2.313-7.471
	c1.896-2.188,4.837-2.724,7.567-2.063c-0.518-3.566-0.396-7.552,1.315-10.803c1.521-2.877,4.341-4.637,7.618-4.653
	c4.069-0.029,7.938,2.145,11.008,4.672c3.207,2.646,5.867,5.896,8.009,9.453c2.197,3.646,3.869,7.665,4.729,11.845
	c0.072,0.384,0.061,1.221,0.439,1.308c0.448,0.104,0.896,0.226,1.327,0.359c1.038,0.332,2.041,0.769,3.006,1.278
	c1.495,0.79,2.896,1.754,4.205,2.818c5.377,4.396,9.409,10.575,11.699,17.104c1.098,3.131,1.809,6.437,1.836,9.763
	c0.026,3.703-0.833,7.864-3.795,10.367c-4.104,3.469-9.645,1.741-13.794-0.659c-6.4-3.696-12.81-7.393-19.202-11.088
	c-3.527-2.037-7.056-4.073-10.581-6.11c-1.86-1.069-3.809-2.083-5.559-3.32c-3.646-2.601-6.541-6.242-8.646-10.168
	C760.571,380.167,759.128,375.797,759.128,371.393"/>
<g opacity="0.8">
	<path fill="#F1FAFE" d="M719.128,371.393c0-2.611,0.544-5.438,2.313-7.471c1.896-2.188,4.837-2.724,7.567-2.063
		c-0.518-3.566-0.396-7.552,1.315-10.803c1.521-2.877,4.341-4.637,7.618-4.653c4.069-0.029,7.938,2.145,11.008,4.672
		c3.207,2.646,5.867,5.896,8.009,9.453c2.197,3.646,3.869,7.665,4.729,11.845c0.072,0.384,0.061,1.221,0.439,1.308
		c0.448,0.104,0.896,0.226,1.327,0.359c1.038,0.332,2.041,0.769,3.006,1.278c1.495,0.79,2.896,1.754,4.205,2.818
		c5.377,4.396,9.409,10.575,11.699,17.104c1.098,3.131,1.809,6.437,1.836,9.763c0.026,3.703-0.833,7.864-3.795,10.367
		c-4.104,3.469-9.645,1.741-13.794-0.659c-6.4-3.696-12.81-7.393-19.202-11.088c-3.527-2.037-7.056-4.073-10.581-6.11
		c-1.86-1.069-3.809-2.083-5.559-3.32c-3.646-2.601-6.541-6.242-8.646-10.168C720.571,380.167,719.128,375.797,719.128,371.393"/>
	<path fill="#D9D7CF" d="M743.929,341.575c3.03-1.88,6.813-1.385,9.938-0.038c3.343,1.437,6.261,3.792,8.727,6.438
		c4.944,5.309,8.591,12.222,9.786,19.396c0.063,0.36,0.784,0.372,1.129,0.471c0.458,0.13,0.91,0.284,1.354,0.455
		c1.031,0.397,2.021,0.896,2.975,1.453c1.399,0.822,2.711,1.787,3.938,2.846c2.627,2.27,4.88,4.954,6.769,7.855
		c3.69,5.666,6.364,12.55,6.146,19.396c-0.104,3.021-0.822,6.206-2.854,8.534c-1.019,1.171-2.341,1.894-3.661,2.651
		c-2.911,1.679-5.813,3.354-8.729,5.04c3.229-2.021,4.504-5.938,4.723-9.563c0.207-3.402-0.387-6.843-1.404-10.089
		c-2.063-6.623-5.971-12.896-11.18-17.509c-2.696-2.387-5.896-4.45-9.449-5.238c-0.391-0.086-0.357-0.924-0.438-1.307
		c-0.104-0.509-0.229-1.021-0.354-1.521c-0.284-1.109-0.626-2.215-1.018-3.298c-0.714-1.975-1.582-3.9-2.612-5.73
		c-2.015-3.618-4.549-7.081-7.682-9.813c-1.364-1.367-3.083-2.528-4.771-3.47c-1.813-1.021-3.798-1.788-5.877-2.045
		c-1.072-0.133-2.173-0.12-3.229,0.094c-0.94,0.188-1.746,0.604-2.604,0.977L743.929,341.575
		C746.974,339.686,743.929,341.575,743.929,341.575z"/>
</g>
<g opacity="0.8">
	<path fill="#D9D7CF" d="M665.711,270.443c0,7.441-2.439,14.824-5.928,21.33c-3.555,6.633-8.44,12.793-14.605,17.178
		c-2.955,2.102-6.242,3.805-9.387,5.621c-5.959,3.441-11.917,6.881-17.876,10.322c-10.814,6.245-21.628,12.489-32.442,18.734
		c-7.021,4.054-16.373,6.975-23.307,1.114c-5.002-4.229-6.459-11.258-6.41-17.515c0.046-5.62,1.246-11.206,3.104-16.494
		c3.869-11.027,10.681-21.467,19.765-28.895c2.211-1.808,4.58-3.436,7.105-4.771c1.629-0.86,3.314-1.597,5.068-2.159
		c0.737-0.235,1.484-0.44,2.241-0.608c0.659-0.146,0.622-1.56,0.754-2.208c1.441-7.063,4.271-13.849,7.98-20.014
		c3.614-6.005,8.104-11.498,13.522-15.969c5.183-4.271,11.713-7.942,18.604-7.895c5.534,0.038,10.294,3.011,12.87,7.872
		c2.906,5.494,3.095,12.217,2.222,18.243c4.631-1.113,9.584-0.21,12.803,3.489C664.791,261.247,665.711,266.022,665.711,270.443"/>
	<path fill="#F1FAFE" d="M623.811,220.065l17.525,10.106c-1.435-0.63-2.797-1.332-4.385-1.65c-1.798-0.361-3.651-0.383-5.469-0.158
		c-3.521,0.435-6.854,1.733-9.938,3.456c-2.839,1.59-5.742,3.551-8.048,5.861c-5.292,4.618-9.575,10.467-12.979,16.58
		c-1.734,3.093-3.201,6.356-4.408,9.692c-0.66,1.829-1.237,3.688-1.729,5.573c-0.217,0.852-0.415,1.708-0.591,2.57
		c-0.132,0.647-0.096,2.063-0.756,2.208c-6.004,1.331-11.408,4.816-15.965,8.849c-8.807,7.791-15.386,18.393-18.896,29.582
		c-1.721,5.483-2.724,11.286-2.369,17.045c0.368,6.125,2.516,12.75,7.979,16.154c-4.917-2.837-9.834-5.677-14.752-8.514
		c-2.229-1.29-4.463-2.5-6.188-4.479c-3.426-3.934-4.646-9.325-4.813-14.418c-0.369-11.574,4.146-23.206,10.383-32.778
		c3.191-4.902,6.998-9.447,11.438-13.272c2.07-1.789,4.291-3.419,6.647-4.808c1.608-0.946,3.284-1.784,5.026-2.456
		c0.75-0.29,1.513-0.547,2.285-0.769c0.579-0.166,1.81-0.187,1.905-0.795c2.021-12.128,8.185-23.808,16.529-32.768
		c4.168-4.47,9.101-8.449,14.741-10.876C612.313,217.725,618.689,216.888,623.811,220.065
		C623.811,220.065,618.666,216.873,623.811,220.065z"/>
</g>
</svg>
