<?xml version="1.0" encoding="utf-8"?>
<!-- Generator: Adobe Illustrator 15.0.0, SVG Export Plug-In . SVG Version: 6.00 Build 0)  -->
<!DOCTYPE svg PUBLIC "-//W3C//DTD SVG 1.1//EN" "http://www.w3.org/Graphics/SVG/1.1/DTD/svg11.dtd">
<svg version="1.1" id="Layer_1" xmlns="http://www.w3.org/2000/svg" xmlns:xlink="http://www.w3.org/1999/xlink" x="0px" y="0px"
	 width="1000px" height="1250px" viewBox="0 0 1000 1250" enable-background="new 0 0 1000 1250" xml:space="preserve">
<g opacity="0.8">
	<path fill="#D9D7CF" d="M151.989,799.97c0,7.441-2.439,14.824-5.928,21.33c-3.555,6.633-8.44,12.793-14.605,17.178
		c-2.955,2.104-6.242,3.813-9.387,5.621c-5.959,3.441-11.917,6.881-17.876,10.322c-10.814,6.244-21.628,12.488-32.442,18.734
		c-7.022,4.055-16.373,6.975-23.307,1.104c-5.002-4.229-6.459-11.258-6.41-17.514c0.046-5.621,1.246-11.207,3.103-16.494
		c3.869-11.021,10.681-21.468,19.765-28.896c2.211-1.813,4.58-3.438,7.105-4.771c1.629-0.854,3.325-1.597,5.079-2.159
		c0.737-0.229,1.484-0.438,2.241-0.604c0.659-0.146,0.622-1.563,0.754-2.208c1.441-7.063,4.266-13.854,7.98-20.02
		c3.617-6.01,8.111-11.498,13.529-15.974c5.176-4.271,11.711-7.938,18.6-7.896c5.535,0.037,10.294,3.015,12.87,7.871
		c2.909,5.491,3.095,12.22,2.222,18.237c4.631-1.105,9.584-0.21,12.803,3.489C151.069,790.773,151.989,795.548,151.989,799.97"/>
	<path fill="#F1FAFE" d="M110.088,749.591l17.525,10.106c-1.435-0.63-2.797-1.332-4.385-1.65c-1.798-0.361-3.651-0.383-5.469-0.158
		c-3.514,0.438-6.854,1.733-9.931,3.456c-2.839,1.59-5.742,3.552-8.048,5.861c-5.292,4.618-9.575,10.467-12.978,16.58
		c-1.741,3.093-3.208,6.354-4.415,9.692c-0.66,1.818-1.237,3.688-1.718,5.563c-0.217,0.854-0.415,1.708-0.591,2.57
		c-0.132,0.646-0.096,2.062-0.756,2.208c-6.004,1.331-11.408,4.813-15.965,8.849c-8.801,7.791-15.382,18.396-18.889,29.582
		c-1.718,5.484-2.721,11.287-2.371,17.045c0.37,6.125,2.51,12.748,7.979,16.154c-4.917-2.836-9.834-5.676-14.752-8.515
		c-2.23-1.288-4.463-2.5-6.186-4.479c-3.424-3.935-4.652-9.326-4.814-14.418c-0.369-11.576,4.148-23.207,10.383-32.779
		c3.192-4.896,6.998-9.438,11.436-13.271c2.074-1.789,4.291-3.419,6.654-4.813c1.609-0.939,3.284-1.778,5.027-2.455
		c0.75-0.289,1.512-0.551,2.287-0.771c0.581-0.166,1.807-0.188,1.908-0.795c2.018-12.128,8.18-23.811,16.532-32.771
		c4.167-4.475,9.097-8.443,14.743-10.877C98.59,747.251,104.967,746.414,110.088,749.591
		C110.088,749.591,104.944,746.399,110.088,749.591z"/>
</g>
<g opacity="0.8">
	<path fill="#D9D7CF" d="M275.439,403.463c0,9.908-3.248,19.738-7.893,28.402c-4.733,8.831-11.239,17.034-19.448,22.871
		c-3.935,2.799-8.312,5.063-12.498,7.479c-7.935,4.583-15.868,9.164-23.803,13.745c-14.399,8.32-28.797,16.636-43.197,24.95
		c-9.35,5.396-21.8,9.289-31.032,1.479c-6.661-5.632-8.6-14.98-8.536-23.313c0.062-7.484,1.66-14.921,4.131-21.961
		c5.152-14.688,14.222-28.584,26.317-38.478c2.944-2.404,6.099-4.574,9.462-6.352c2.169-1.146,4.428-2.126,6.762-2.874
		c0.982-0.313,1.978-0.586,2.985-0.813c0.877-0.192,0.828-2.075,1.003-2.938c1.919-9.405,5.681-18.44,10.626-26.649
		c4.816-7.997,10.801-15.31,18.015-21.263c6.892-5.688,15.593-10.576,24.766-10.512c7.37,0.05,13.707,4.009,17.136,10.481
		c3.874,7.315,4.12,16.268,2.958,24.29c6.167-1.479,12.762-0.277,17.048,4.647C274.215,391.218,275.439,397.576,275.439,403.463"/>
	<path fill="#F1FAFE" d="M219.649,336.384l23.335,13.457c-1.91-0.838-3.724-1.772-5.838-2.197c-2.394-0.48-4.863-0.51-7.282-0.21
		c-4.679,0.579-9.125,2.307-13.223,4.602c-3.78,2.117-7.646,4.729-10.716,7.805c-7.046,6.148-12.75,13.937-17.28,22.076
		c-2.318,4.118-4.271,8.463-5.879,12.905c-0.879,2.435-1.647,4.911-2.287,7.421c-0.289,1.133-0.553,2.272-0.787,3.421
		c-0.175,0.862-0.128,2.745-1.007,2.941c-7.994,1.771-15.189,6.409-21.257,11.779c-11.719,10.373-20.481,24.491-25.15,39.396
		c-2.288,7.302-3.624,15.021-3.158,22.688c0.493,8.155,3.342,16.979,10.625,21.518c-6.547-3.775-13.094-7.563-19.644-11.343
		c-2.969-1.717-5.941-3.319-8.235-5.964c-4.56-5.229-6.195-12.417-6.411-19.189c-0.491-15.412,5.524-30.898,13.826-43.646
		c4.25-6.528,9.317-12.579,15.227-17.673c2.761-2.381,5.713-4.553,8.86-6.401c2.143-1.259,4.373-2.375,6.694-3.27
		c1-0.386,2.013-0.729,3.046-1.023c0.774-0.221,2.405-0.249,2.541-1.06c2.687-16.147,10.891-31.7,22.013-43.63
		c5.548-5.951,12.112-11.249,19.631-14.482C204.338,333.268,212.829,332.152,219.649,336.384
		C219.649,336.384,212.798,332.132,219.649,336.384z"/>
</g>
<g opacity="0.8">
	<path fill="#D9D7CF" d="M464.796,150.356c0,6.835-2.241,13.617-5.445,19.594c-3.265,6.093-7.753,11.752-13.417,15.78
		c-2.714,1.931-5.729,3.495-8.623,5.163c-5.474,3.162-10.938,6.321-16.421,9.482c-9.935,5.736-19.857,11.473-29.802,17.209
		c-6.451,3.724-15.041,6.407-21.41,1.023c-4.595-3.885-5.934-10.342-5.889-16.089c0.042-5.163,1.145-10.294,2.85-15.151
		c3.563-10.13,9.813-19.72,18.156-26.543c2.031-1.661,4.207-3.156,6.527-4.382c1.497-0.79,3.055-1.467,4.666-1.983
		c0.677-0.216,1.354-0.404,2.059-0.559c0.605-0.135,0.572-1.433,0.693-2.028c1.324-6.488,3.918-12.722,7.331-18.385
		c3.313-5.517,7.45-10.563,12.428-14.669c4.755-3.923,10.758-7.296,17.086-7.252c5.085,0.035,9.456,2.766,11.823,7.231
		c2.672,5.047,2.843,11.223,2.041,16.758c4.254-1.022,8.804-0.193,11.761,3.205C463.951,141.908,464.796,146.294,464.796,150.356"/>
	<path fill="#F1FAFE" d="M426.306,104.078l16.104,9.284c-1.318-0.579-2.569-1.223-4.028-1.516c-1.646-0.332-3.354-0.352-5.021-0.146
		c-3.229,0.4-6.306,1.592-9.123,3.175c-2.607,1.46-5.274,3.262-7.396,5.384c-4.854,4.242-8.796,9.615-11.921,15.23
		c-1.6,2.841-2.947,5.838-4.056,8.903c-0.606,1.68-1.146,3.388-1.578,5.119c-0.199,0.782-0.381,1.57-0.542,2.361
		c-0.121,0.594-0.088,1.894-0.694,2.028c-5.516,1.222-10.479,4.424-14.666,8.129c-8.084,7.156-14.13,16.896-17.351,27.174
		c-1.578,5.037-2.5,10.368-2.188,15.658c0.35,5.626,2.313,11.71,7.328,14.84c-4.517-2.606-9.023-5.215-13.551-7.821
		c-2.049-1.185-4.1-2.296-5.682-4.115c-3.146-3.614-4.274-8.566-4.423-13.245c-0.349-10.632,3.811-21.317,9.529-30.11
		c2.938-4.503,6.437-8.678,10.514-12.192c1.896-1.643,3.938-3.141,6.104-4.416c1.479-0.87,3.021-1.639,4.618-2.256
		c0.688-0.266,1.395-0.503,2.104-0.706c0.527-0.152,1.652-0.172,1.757-0.731c1.853-11.141,7.514-21.87,15.187-30.101
		c3.828-4.106,8.356-7.761,13.543-9.991C415.744,101.928,421.602,101.159,426.306,104.078
		C426.306,104.078,421.58,101.145,426.306,104.078z"/>
</g>
</svg>
