<?xml version="1.0" encoding="utf-8"?>
<!-- Generator: Adobe Illustrator 15.0.0, SVG Export Plug-In . SVG Version: 6.00 Build 0)  -->
<!DOCTYPE svg PUBLIC "-//W3C//DTD SVG 1.1//EN" "http://www.w3.org/Graphics/SVG/1.1/DTD/svg11.dtd">
<svg version="1.1"
	 id="Layer_1" xmlns:cc="http://creativecommons.org/ns#" xmlns:dc="http://purl.org/dc/elements/1.1/" xmlns:rdf="http://www.w3.org/1999/02/22-rdf-syntax-ns#" xmlns:svg="http://www.w3.org/2000/svg"
	 xmlns="http://www.w3.org/2000/svg" xmlns:xlink="http://www.w3.org/1999/xlink" x="0px" y="0px" width="264.529px"
	 height="56.879px" viewBox="9.382 1.525 264.529 56.879" enable-background="new 9.382 1.525 264.529 56.879" xml:space="preserve"
	>
<path fill="#47535B" d="M85.137,43.37c-4.957,0-7.194-3.398-7.194-7.875V19.707c0-1.56,1.159-2.799,2.678-2.799
	c1.479,0,2.678,1.239,2.678,2.799v2.718h4.997c1.319,0,2.479,0.999,2.479,2.398c0,1.319-1.159,2.319-2.479,2.319h-4.997v8.235
	c0,1.918,0.84,2.958,2.598,2.958c0.879,0,1.759-0.241,2.479-0.44c2.038-0.479,3.318,0.8,3.318,2.278c0,0.879-0.44,1.8-1.679,2.358
	C88.615,43.17,86.656,43.37,85.137,43.37"/>
<path fill="#47535B" d="M108.401,24.463c0,1.079-0.839,2.519-2.519,2.519c-0.919,0-1.799-0.4-2.998-0.36
	c-1.319,0.04-2.079,0.759-2.079,2.598v11.312c0,1.52-1.159,2.719-2.678,2.719c-1.479,0-2.678-1.199-2.678-2.719V28.22
	c0-4.157,2.438-6.835,7.035-6.835c1.319,0,2.638,0.12,3.438,0.32C107.562,22.145,108.401,23.144,108.401,24.463"/>
<path fill="#47535B" d="M129.187,31.538c0,1.559-0.799,2.678-2.758,2.678h-10.633v0.399c0,2.52,1.919,3.878,4.597,3.878
	c1.439,0,2.918-0.359,4.277-0.88c2.119-0.799,3.517,0.64,3.517,2.119c0,0.76-0.28,1.599-1.359,2.239
	c-1.479,0.878-4.037,1.398-6.595,1.398c-5.517,0-9.234-3.479-9.633-8.474c-0.12-1.56-0.081-3.758,0-4.997
	c0.479-5.197,4.197-8.514,9.434-8.514c5.436,0,9.153,3.637,9.153,9.273V31.538z M123.592,30.578c0.28,0,0.439-0.16,0.439-0.479
	c0.12-2.438-1.399-4.078-3.997-4.078c-2.839,0-4.238,1.799-4.238,4.557H123.592z"/>
<path fill="#47535B" d="M151.772,31.538c0,1.559-0.8,2.678-2.757,2.678h-10.634v0.399c0,2.52,1.919,3.878,4.597,3.878
	c1.439,0,2.917-0.359,4.277-0.88c2.118-0.799,3.518,0.64,3.518,2.119c0,0.76-0.28,1.599-1.358,2.239
	c-1.479,0.878-4.038,1.398-6.596,1.398c-5.517,0-9.234-3.479-9.634-8.474c-0.12-1.56-0.08-3.758,0-4.997
	c0.48-5.197,4.197-8.514,9.434-8.514c5.437,0,9.153,3.637,9.153,9.273V31.538z M146.176,30.578c0.28,0,0.439-0.16,0.439-0.479
	c0.119-2.438-1.399-4.078-3.997-4.078c-2.838,0-4.237,1.799-4.237,4.557H146.176z"/>
<path fill="#47535B" d="M161.726,22.944c0.879-0.799,2.918-1.559,5.036-1.559c5.076,0,8.075,3.038,8.075,8.754v10.273
	c0,1.599-1.12,2.838-2.719,2.838c-1.479,0-2.639-1.239-2.639-2.838v-9.994c0-2.438-1.398-3.797-3.597-3.797
	c-1.68,0-3.317,0.759-4.157,1.678v12.192c0,1.519-1.119,2.758-2.639,2.758c-1.479,0-2.718-1.239-2.718-2.758V17.108
	c0-1.559,1.159-2.758,2.678-2.758c1.479,0,2.679,1.2,2.679,2.758V22.944z"/>
<path fill="#47535B" d="M189.108,43.37c-5.236,0-9.194-3.357-9.594-8.114c-0.12-1.6-0.12-4.117,0-5.716
	c0.399-4.797,4.357-8.154,9.594-8.154c5.275,0,9.152,3.357,9.554,8.154c0.119,1.599,0.119,4.077,0,5.675
	C198.26,40.013,194.383,43.37,189.108,43.37 M193.345,30.379c-0.12-2.279-1.72-3.877-4.237-3.877c-2.52,0-4.077,1.599-4.277,3.877
	c-0.08,1.079-0.08,2.958,0,3.997c0.2,2.279,1.758,3.878,4.277,3.878c2.518,0,4.076-1.599,4.237-3.878
	C193.424,33.337,193.424,31.458,193.345,30.379"/>
<path fill="#47535B" d="M203.338,24.343c0-1.599,0.959-2.838,2.637-2.838c1.52,0,2.719,1.239,2.719,2.838v10.193
	c0,2.398,1.56,3.718,3.838,3.718c1.759,0,3.078-0.52,3.917-1.04V24.263c0-1.519,1.119-2.758,2.678-2.758
	c1.479,0,2.679,1.239,2.679,2.758v14.95c0,0.919-0.24,1.438-0.959,1.879c-1.24,0.88-4.157,2.278-8.435,2.278
	c-5.757,0-9.073-3.118-9.073-8.755V24.343z"/>
<path fill="#47535B" d="M242.91,36.414c0,4.479-3.718,6.956-8.354,6.956c-3.759,0-6.156-1.079-7.636-2.319
	c-0.958-0.799-1.238-2.317-0.479-3.316c0.799-1.08,2.157-1.32,3.478-0.48c1.238,0.8,2.878,1.319,4.756,1.319
	c2.079,0,3.038-0.76,3.038-1.839c0-0.879-0.64-1.479-2.318-1.878c-1.439-0.321-1.398-0.28-2.958-0.68
	c-3.277-0.84-5.836-2.679-5.836-6.116c0-4.317,3.478-6.675,8.155-6.675c2.518,0,5.115,0.639,6.515,1.799
	c1.159,0.959,1.079,2.598,0.24,3.557c-0.8,0.88-2.159,0.999-3.478,0.32c-1.04-0.52-2.438-0.879-3.478-0.879
	c-1.999,0-2.838,0.759-2.838,1.718c0,0.839,0.599,1.399,2.397,1.799l2.839,0.64C240.951,31.299,242.91,33.257,242.91,36.414"/>
<path fill="#47535B" d="M265.095,31.538c0,1.559-0.799,2.678-2.758,2.678h-10.633v0.399c0,2.52,1.919,3.878,4.597,3.878
	c1.439,0,2.919-0.359,4.278-0.88c2.118-0.799,3.517,0.64,3.517,2.119c0,0.76-0.279,1.599-1.359,2.239
	c-1.478,0.878-4.036,1.398-6.595,1.398c-5.517,0-9.234-3.479-9.634-8.474c-0.119-1.56-0.079-3.758,0-4.997
	c0.479-5.197,4.198-8.514,9.435-8.514c5.436,0,9.152,3.637,9.152,9.273V31.538z M259.499,30.578c0.28,0,0.439-0.16,0.439-0.479
	c0.12-2.438-1.398-4.078-3.996-4.078c-2.839,0-4.238,1.799-4.238,4.557H259.499z"/>
<path fill="#47535B" d="M268.539,24.662c0,0.26-0.199,0.458-0.46,0.458c-0.271,0-0.47-0.21-0.47-0.458v-2.129h-0.693
	c-0.235,0-0.433-0.198-0.433-0.433c0-0.26,0.197-0.446,0.433-0.446h2.29c0.236,0,0.434,0.186,0.434,0.446
	c0,0.235-0.197,0.433-0.434,0.433h-0.667V24.662z M271.336,22.161l0.396,1.733l0.407-1.733c0.075-0.346,0.372-0.557,0.681-0.557
	c0.359,0,0.644,0.211,0.718,0.644l0.359,2.277c0.05,0.272-0.049,0.544-0.321,0.594c-0.322,0.062-0.533-0.124-0.57-0.396
	l-0.247-1.918l-0.445,1.794c-0.087,0.31-0.272,0.52-0.581,0.52c-0.286,0-0.484-0.186-0.583-0.52l-0.445-1.808l-0.247,1.931
	c-0.037,0.272-0.248,0.458-0.57,0.396c-0.271-0.05-0.371-0.322-0.321-0.594l0.359-2.265c0.074-0.445,0.371-0.656,0.718-0.656
	C270.964,21.604,271.261,21.815,271.336,22.161"/>
<path fill="#6FBC6D" d="M55.581,11.904c-1.885-1.066-4.895,0.648-6.723,3.828l-3.31,5.757c-1.209,2.394-1.043,5.244,0.491,7.444
	l0.097,0.139c1.533,2.2,3.59,4.233,4.271,4.958c0.399,0.428,0.706,0.953,0.874,1.556c0.56,1.999-0.608,4.073-2.607,4.632
	c-1.999,0.56-4.072-0.608-4.631-2.607c-0.141-0.502-0.172-1.008-0.109-1.493c0.107-0.826-0.158-2.171-1.341-3.491
	c-1.185-1.321-3.605,1.174-4.388,3.738l-0.036,0.117c-0.783,2.564-1.276,4.804-1.129,5.019c0.088,0.128,0.17,0.264,0.245,0.404
	c1.098,2.066,0.313,4.631-1.752,5.729c-2.066,1.098-4.631,0.313-5.729-1.752c-1.098-2.066-0.313-4.632,1.753-5.729
	c0.093-0.05,0.187-0.095,0.281-0.137c0.158-0.069,0.605-1.148,0.994-2.421c0.389-1.274,0.704-2.307,0.704-2.307
	c0.042-0.136,0.077-0.271,0.11-0.402l2.091-7.465l-2.236,4.589c-0.265-0.871-0.703-0.902-1.663-0.215
	c-0.579,0.413-1.536,1.229-2.004,1.563c-0.877,0.629-1.611,1.848-2,2.595c-0.228,0.441-0.549,0.842-0.958,1.174
	c-1.601,1.299-3.952,1.055-5.25-0.547c-1.299-1.601-1.054-3.951,0.546-5.25c0.47-0.381,1.003-0.629,1.556-0.75
	c0.94-0.204,4.139-2.158,6.066-3.536c0.345-0.247,0.635-0.48,0.87-0.697l5.146-3.908l-4.481,2.421c0,0-0.456-0.046-1.015,0.016
	c-1.641,0.182-3.33,0.414-3.649,0.82c-0.189,0.24-0.414,0.458-0.673,0.645c-1.496,1.077-3.582,0.739-4.659-0.757
	s-0.738-3.582,0.757-4.66c0.617-0.444,1.334-0.647,2.04-0.627c1.199,0.033,4.355,0.673,6.996,0.205l0.679-0.12
	c2.64-0.468,5.802-2.767,7.062-5.134c0,0,1.233-2.167,2.755-4.839c1.521-2.672,1.409-5.6-0.251-6.539l-3.006-1.699
	c-1.517-0.857-4-0.859-5.517-0.003L12.141,13.837c-1.518,0.856-2.76,2.981-2.76,4.724v22.808c0,1.743,1.242,3.869,2.76,4.724
	l20.703,11.671c1.518,0.856,4,0.854,5.517-0.003l20.632-11.664c1.518-0.857,2.758-2.984,2.758-4.728V18.561
	c0-1.742-1.241-3.869-2.758-4.727C58.993,13.834,57.466,12.97,55.581,11.904"/>
</svg>
