<?xml version="1.0" encoding="utf-8"?>
<!-- Generator: Adobe Illustrator 15.0.0, SVG Export Plug-In . SVG Version: 6.00 Build 0)  -->
<!DOCTYPE svg PUBLIC "-//W3C//DTD SVG 1.1//EN" "http://www.w3.org/Graphics/SVG/1.1/DTD/svg11.dtd">
<svg version="1.1"
	 id="Layer_1" sodipodi:docname="freeCodeCamp.svg" inkscape:version="0.48.5 r10040" xmlns:cc="http://creativecommons.org/ns#" xmlns:dc="http://purl.org/dc/elements/1.1/" xmlns:inkscape="http://www.inkscape.org/namespaces/inkscape" xmlns:rdf="http://www.w3.org/1999/02/22-rdf-syntax-ns#" xmlns:svg="http://www.w3.org/2000/svg" xmlns:sodipodi="http://sodipodi.sourceforge.net/DTD/sodipodi-0.dtd"
	 xmlns="http://www.w3.org/2000/svg" xmlns:xlink="http://www.w3.org/1999/xlink" x="0px" y="0px" width="287.7px"
	 height="33.318px" viewBox="5.925 383.258 287.7 33.318" enable-background="new 5.925 383.258 287.7 33.318" xml:space="preserve"
	>
<sodipodi:namedview  inkscape:current-layer="Layer_1" inkscape:window-width="1366" inkscape:window-y="-4" inkscape:pageshadow="2" inkscape:window-height="705" inkscape:pageopacity="0" inkscape:window-x="-4" id="namedview43" inkscape:window-maximized="1" inkscape:cx="215.72458" bordercolor="#666666" guidetolerance="10" pagecolor="#ffffff" inkscape:cy="-163.56938" showgrid="false" gridtolerance="10" inkscape:zoom="1" objecttolerance="10" borderopacity="1">
	</sodipodi:namedview>
<path id="path5" inkscape:export-xdpi="90" inkscape:export-ydpi="90" inkscape:connector-curvature="0" inkscape:export-filename="C:\Users\anon\Desktop\logo4.0.png" fill="#4A2B0F" d="
	M9.77,393.63H7.251c-0.876,0-1.326-0.372-1.326-1.128s0.438-1.128,1.326-1.128H9.77v-2.201c0-3.834,1.95-5.718,5.849-5.718
	c1.566,0,2.892,0.317,3.965,0.876c1.325,0.821,2.015,2.016,2.015,3.516c0,1.008-0.373,1.446-1.128,1.446
	c-0.504,0-0.942-0.317-1.194-0.876c-0.318-1.008-0.625-1.566-0.822-1.818c-0.438-0.569-1.38-0.876-2.771-0.876
	c-2.388,0-3.516,1.193-3.516,3.516v2.136h4.589c1.008,0,1.512,0.372,1.512,1.128s-0.504,1.128-1.512,1.128h-4.6v14.393
	c0,0.876-0.373,1.325-1.128,1.325c-0.756,0-1.128-0.438-1.128-1.325V393.63H9.77z"/>
<path id="path7" inkscape:export-xdpi="90" inkscape:export-ydpi="90" inkscape:connector-curvature="0" inkscape:export-filename="C:\Users\anon\Desktop\logo4.0.png" fill="#4A2B0F" d="
	M30.197,406.763V393.63h-3.396c-0.942,0-1.38-0.372-1.38-1.128s0.438-1.128,1.38-1.128h4.523c0.756,0,1.194,0.689,1.194,1.949
	c1.38-1.511,2.892-2.321,4.458-2.321c1.325,0,2.322,0.372,3.078,1.193s1.128,1.884,1.128,3.144c0,0.876-0.373,1.325-1.128,1.325
	c-0.438,0-0.756-0.317-0.942-0.876c-0.317-1.073-0.504-1.632-0.569-1.698c-0.318-0.569-0.942-0.876-1.764-0.876
	c-0.876,0-1.698,0.317-2.454,0.942c-0.438,0.317-1.073,1.008-1.884,2.015v10.493h4.272c0.942,0,1.38,0.372,1.38,1.073
	c0,0.756-0.438,1.194-1.38,1.194h-9.989c-0.942,0-1.38-0.373-1.38-1.128c0-0.756,0.438-1.129,1.38-1.129h3.461v0.088H30.197z"/>
<path id="path9" inkscape:export-xdpi="90" inkscape:export-ydpi="90" inkscape:connector-curvature="0" inkscape:export-filename="C:\Users\anon\Desktop\logo4.0.png" fill="#4A2B0F" d="
	M47.35,400.607v2.519c0,2.706,1.884,4.021,5.717,4.021c1.38,0,2.519-0.121,3.396-0.438c0.438-0.12,1.259-0.569,2.322-1.325
	c0.69-0.624,1.194-0.942,1.38-0.942c0.625,0,0.942,0.318,0.942,1.008c0,0.69-0.438,1.38-1.38,2.136
	c-1.511,1.194-3.768,1.818-6.791,1.818c-5.279,0-7.919-2.07-7.919-6.221v-6.287c0-1.446,0.569-2.706,1.632-3.713
	c1.446-1.381,3.582-2.016,6.473-2.016c5.159,0,7.733,2.574,7.733,7.667c0,1.26-0.504,1.884-1.446,1.884H47.35V400.607z
	 M47.35,398.34h11.249c0-3.396-1.884-5.093-5.717-5.093c-1.38,0-2.64,0.317-3.768,0.941c-1.128,0.822-1.763,1.764-1.763,2.826
	V398.34z"/>
<path id="path11" inkscape:export-xdpi="90" inkscape:export-ydpi="90" inkscape:connector-curvature="0" inkscape:export-filename="C:\Users\anon\Desktop\logo4.0.png" fill="#4A2B0F" d="
	M67.086,400.607v2.519c0,2.706,1.884,4.021,5.717,4.021c1.38,0,2.52-0.121,3.396-0.438c0.438-0.12,1.26-0.569,2.322-1.325
	c0.69-0.624,1.194-0.942,1.38-0.942c0.625,0,0.942,0.318,0.942,1.008c0,0.69-0.438,1.38-1.38,2.136
	c-1.512,1.194-3.768,1.818-6.791,1.818c-5.279,0-7.919-2.07-7.919-6.221v-6.287c0-1.446,0.57-2.706,1.632-3.713
	c1.446-1.381,3.582-2.016,6.473-2.016c5.159,0,7.732,2.574,7.732,7.667c0,1.26-0.504,1.884-1.446,1.884H67.086V400.607z
	 M67.086,398.34h11.249c0-3.396-1.884-5.093-5.717-5.093c-1.38,0-2.64,0.317-3.768,0.941c-1.194,0.822-1.764,1.764-1.764,2.826
	V398.34z"/>
<path id="path13" inkscape:export-xdpi="90" inkscape:export-ydpi="90" inkscape:connector-curvature="0" inkscape:export-filename="C:\Users\anon\Desktop\logo4.0.png" fill="#4A2B0F" d="
	M84.753,402.053v-9.803c0-5.158,2.706-7.667,8.171-7.667c2.202,0,3.965,0.504,5.345,1.446c1.566,1.193,2.322,2.825,2.322,4.841
	c0,0.942-0.372,1.445-1.194,1.445c-0.569,0-0.942-0.438-1.194-1.38c-0.121-0.756-0.438-1.512-0.876-2.201
	c-0.69-1.26-2.202-1.818-4.589-1.818c-2.016,0-3.461,0.504-4.337,1.512c-0.821,0.941-1.26,2.388-1.26,4.458v8.159
	c0,2.137,0.438,3.647,1.326,4.59c0.942,1.008,2.388,1.566,4.403,1.566c3.078,0,4.841-1.073,5.279-3.21
	c0.186-0.821,0.252-1.193,0.252-1.259c0.186-0.438,0.504-0.69,0.942-0.69c0.756,0,1.194,0.504,1.194,1.446
	c0,1.949-0.821,3.461-2.454,4.654c-1.325,0.877-3.012,1.325-5.159,1.325c-2.519,0-4.458-0.569-5.903-1.763
	C85.509,406.391,84.753,404.507,84.753,402.053L84.753,402.053z"/>
<path id="path15" inkscape:export-xdpi="90" inkscape:export-ydpi="90" inkscape:connector-curvature="0" inkscape:export-filename="C:\Users\anon\Desktop\logo4.0.png" fill="#4A2B0F" d="
	M104.239,403.433v-6.473c0-3.965,2.64-5.903,7.919-5.903s7.919,1.949,7.919,5.903v6.473c0,3.966-2.574,5.904-7.798,5.904
	C106.878,409.337,104.239,407.398,104.239,403.433L104.239,403.433z M117.755,403.433v-6.473c0-2.453-1.884-3.713-5.718-3.713
	c-3.647,0-5.531,1.26-5.531,3.713v6.473c0,2.454,1.884,3.714,5.652,3.647C115.925,407.08,117.755,405.887,117.755,403.433
	L117.755,403.433z"/>
<path id="path17" inkscape:export-xdpi="90" inkscape:export-ydpi="90" inkscape:connector-curvature="0" inkscape:export-filename="C:\Users\anon\Desktop\logo4.0.png" fill="#4A2B0F" d="
	M137.36,407.201c-1.073,0.821-2.015,1.325-2.826,1.632c-0.876,0.317-1.95,0.504-3.209,0.504c-2.136,0-3.833-0.438-5.159-1.325
	c-1.512-1.008-2.267-2.52-2.267-4.59v-6.604c0-1.949,0.755-3.461,2.201-4.458c1.26-0.876,2.958-1.325,4.962-1.325
	c1.325,0,2.454,0.121,3.33,0.438c0.876,0.317,1.818,0.876,2.826,1.697v-8.104c0-1.074,0.373-1.633,1.074-1.633
	c0.755,0,1.194,0.57,1.194,1.633v23.066c0,0.821-0.373,1.194-1.074,1.194c-0.438,0-0.755-0.252-0.876-0.756
	C137.426,408.209,137.36,407.771,137.36,407.201L137.36,407.201z M137.24,404.562v-9.048c-1.128-0.821-2.015-1.38-2.705-1.632
	c-0.942-0.372-1.95-0.569-3.078-0.569c-1.446,0-2.64,0.252-3.516,0.821c-1.128,0.69-1.698,1.698-1.698,2.958v6.221
	c0,1.325,0.569,2.322,1.763,3.012c0.942,0.504,2.136,0.822,3.582,0.822c1.194,0,2.267-0.187,3.143-0.57
	C135.477,406.072,136.298,405.448,137.24,404.562z"/>
<path id="path19" inkscape:export-xdpi="90" inkscape:export-ydpi="90" inkscape:connector-curvature="0" inkscape:export-filename="C:\Users\anon\Desktop\logo4.0.png" fill="#4A2B0F" d="
	M145.915,400.607v2.519c0,2.706,1.884,4.021,5.717,4.021c1.38,0,2.52-0.121,3.396-0.438c0.438-0.12,1.26-0.569,2.322-1.325
	c0.689-0.624,1.193-0.942,1.38-0.942c0.624,0,0.942,0.318,0.942,1.008c0,0.69-0.438,1.38-1.381,2.136
	c-1.512,1.194-3.768,1.818-6.791,1.818c-5.279,0-7.918-2.07-7.918-6.221v-6.287c0-1.446,0.57-2.706,1.632-3.713
	c1.446-1.381,3.582-2.016,6.473-2.016c5.159,0,7.733,2.574,7.733,7.667c0,1.26-0.504,1.884-1.446,1.884h-12.07L145.915,400.607z
	 M145.915,398.34h11.249c0-3.396-1.884-5.093-5.718-5.093c-1.379,0-2.639,0.317-3.768,0.941c-1.194,0.822-1.763,1.764-1.763,2.826
	V398.34z"/>
<path id="path21" inkscape:export-xdpi="90" inkscape:export-ydpi="90" inkscape:connector-curvature="0" inkscape:export-filename="C:\Users\anon\Desktop\logo4.0.png" fill="#4A2B0F" d="
	M163.582,402.053v-9.803c0-5.158,2.705-7.667,8.17-7.667c2.202,0,3.965,0.504,5.346,1.446c1.566,1.193,2.322,2.825,2.322,4.841
	c0,0.942-0.373,1.445-1.194,1.445c-0.569,0-0.942-0.438-1.194-1.38c-0.12-0.756-0.438-1.512-0.875-2.201
	c-0.691-1.26-2.202-1.818-4.59-1.818c-2.016,0-3.461,0.504-4.338,1.512c-0.821,0.941-1.26,2.388-1.26,4.458v8.159
	c0,2.137,0.438,3.647,1.326,4.59c0.941,1.008,2.387,1.566,4.402,1.566c3.078,0,4.842-1.073,5.279-3.21
	c0.187-0.821,0.252-1.193,0.252-1.259c0.187-0.438,0.504-0.69,0.942-0.69c0.756,0,1.194,0.504,1.194,1.446
	c0,1.949-0.822,3.461-2.454,4.654c-1.325,0.877-3.012,1.325-5.159,1.325c-2.519,0-4.457-0.569-5.903-1.763
	C164.393,406.391,163.582,404.507,163.582,402.053L163.582,402.053z"/>
<path id="path23" inkscape:export-xdpi="90" inkscape:export-ydpi="90" inkscape:connector-curvature="0" inkscape:export-filename="C:\Users\anon\Desktop\logo4.0.png" fill="#4A2B0F" d="
	M195.762,407.201c-1.129,0.821-2.016,1.38-2.641,1.632c-0.82,0.317-1.818,0.504-3.077,0.504c-1.884,0-3.462-0.373-4.655-1.194
	c-1.38-0.941-2.136-2.322-2.136-4.151s0.756-3.264,2.202-4.271c1.26-0.941,2.891-1.38,4.775-1.38c1.566,0,3.329,0.372,5.345,1.073
	v-2.771c0-1.325-0.624-2.268-1.884-2.826c-0.877-0.372-1.949-0.569-3.209-0.569c-2.958,0-4.523,0.821-4.842,2.453
	c-0.12,0.756-0.252,1.128-0.252,1.194c-0.186,0.372-0.504,0.569-0.941,0.569c-0.822,0-1.26-0.438-1.26-1.325
	c0-1.194,0.438-2.268,1.38-3.265c1.128-1.259,3.209-1.884,6.101-1.884c2.322,0,4.02,0.373,5.159,1.129
	c1.325,0.941,2.015,2.519,2.015,4.709v8.051c0,0.941,0.187,1.566,0.57,1.884c0.065,0.065,0.438,0.252,1.073,0.504
	c0.372,0.187,0.569,0.504,0.569,1.073c0,0.624-0.317,0.942-1.008,0.942c-0.186,0-0.504-0.066-1.008-0.252
	c-0.876-0.318-1.445-0.504-1.566-0.57C196.134,408.274,195.882,407.836,195.762,407.201L195.762,407.201z M195.63,404.813v-3.33
	c-1.764-0.569-3.462-0.876-4.962-0.876c-3.395,0-5.093,1.073-5.093,3.264c0,1.128,0.503,2.016,1.511,2.52
	c0.822,0.438,1.818,0.689,3.078,0.689c1.074,0,2.07-0.186,2.957-0.624C193.812,406.204,194.633,405.635,195.63,404.813z"/>
<path id="path25" inkscape:export-xdpi="90" inkscape:export-ydpi="90" inkscape:connector-curvature="0" inkscape:export-filename="C:\Users\anon\Desktop\logo4.0.png" fill="#4A2B0F" d="
	M204.557,392.94c0.569-0.69,1.073-1.194,1.445-1.38c0.504-0.318,1.129-0.504,1.949-0.504c1.26,0,2.322,0.624,3.265,1.949
	c0.624-0.756,1.194-1.26,1.698-1.512c0.568-0.317,1.324-0.438,2.201-0.438c2.705,0,4.086,1.325,4.086,3.965v12.76
	c0,1.073-0.373,1.566-1.195,1.566c-0.755,0-1.127-0.504-1.127-1.566v-12.016c0-1.632-0.69-2.519-2.016-2.519
	c-1.008,0-2.016,0.624-2.892,1.818v12.694c0,1.073-0.372,1.566-1.128,1.566s-1.129-0.504-1.129-1.566v-11.742
	c0-1.817-0.756-2.705-2.201-2.705c-0.941,0-1.818,0.624-2.771,1.818v12.64c0,1.073-0.372,1.566-1.193,1.566
	c-0.756,0-1.129-0.504-1.129-1.566v-15.586c0-0.756,0.318-1.128,0.942-1.128c0.317,0,0.624,0.252,0.821,0.689
	C204.436,392.053,204.557,392.491,204.557,392.94L204.557,392.94z"/>
<path id="path27" inkscape:export-xdpi="90" inkscape:export-ydpi="90" inkscape:connector-curvature="0" inkscape:export-filename="C:\Users\anon\Desktop\logo4.0.png" fill="#4A2B0F" d="
	M224.983,392.94c1.764-1.26,3.833-1.884,6.101-1.884c4.775,0,7.164,2.015,7.164,5.969v6.539c0,1.884-0.69,3.33-2.016,4.403
	c-1.193,0.941-2.826,1.445-4.907,1.445c-2.453,0-4.523-0.624-6.353-1.949v7.415c0,1.128-0.373,1.697-1.129,1.697
	c-0.755,0-1.127-0.569-1.127-1.697v-22.125c0-1.128,0.317-1.697,0.941-1.697c0.318,0,0.625,0.252,0.877,0.689
	C224.677,392.119,224.863,392.557,224.983,392.94L224.983,392.94z M224.983,404.879c1.632,1.445,3.647,2.201,5.97,2.201
	c1.445,0,2.574-0.252,3.461-0.821c1.073-0.624,1.566-1.566,1.566-2.771v-6.539c0-1.38-0.57-2.322-1.697-2.958
	c-0.877-0.438-2.07-0.689-3.517-0.689c-1.325,0-2.388,0.187-3.209,0.569c-0.756,0.317-1.566,1.008-2.574,2.016V404.879
	L224.983,404.879z"/>
<path id="path29" inkscape:export-xdpi="90" inkscape:export-ydpi="90" inkscape:connector-curvature="0" inkscape:export-filename="C:\Users\anon\Desktop\logo4.0.png" fill="#4A2B0F" d="
	M246.046,398.657c0-4.961,1.698-9.364,5.159-13.264c1.26-1.445,2.268-2.136,2.957-2.136c0.252,0,0.504,0.065,0.689,0.252
	c0.188,0.187,0.318,0.372,0.318,0.624c0,0.373-0.438,0.942-1.326,1.818c-3.581,3.461-5.41,7.732-5.41,12.826
	c0,5.651,1.884,10.241,5.598,13.768c0.756,0.69,1.127,1.26,1.127,1.697c0,0.252-0.119,0.504-0.316,0.69
	c-0.188,0.187-0.438,0.317-0.69,0.317c-0.876,0-2.07-1.008-3.647-3.012C247.492,408.526,246.046,404.003,246.046,398.657z"/>
<path id="path31" inkscape:export-xdpi="90" inkscape:export-ydpi="90" inkscape:connector-curvature="0" inkscape:export-filename="C:\Users\anon\Desktop\logo4.0.png" fill="#4A2B0F" d="
	M293.625,399.917c0,4.962-1.697,9.365-5.158,13.265c-1.26,1.445-2.268,2.136-2.957,2.136c-0.252,0-0.504-0.066-0.69-0.252
	c-0.187-0.187-0.317-0.438-0.317-0.69c0-0.372,0.438-0.942,1.325-1.764c3.581-3.461,5.411-7.732,5.411-12.825
	c0-5.652-1.885-10.241-5.598-13.769c-0.756-0.689-1.128-1.259-1.128-1.697c0-0.252,0.12-0.504,0.317-0.69
	c0.187-0.186,0.438-0.317,0.689-0.317c0.822,0,2.07,1.008,3.648,3.012C292.113,390.104,293.625,394.638,293.625,399.917z"/>
<g id="g33" transform="translate(-4.8945596e-8,2)" inkscape:export-xdpi="90" inkscape:export-ydpi="90" inkscape:export-filename="C:\Users\anon\Desktop\logo4.0.png">
	<line id="line35" fill="none" x1="259.431" y1="408.979" x2="281.248" y2="408.979"/>
	<path id="path37" inkscape:connector-curvature="0" fill="#4A2B0F" d="M281.184,410.294h-21.809c-0.689,0-1.324-0.569-1.324-1.325
		s0.569-1.325,1.324-1.325h21.809c0.689,0,1.324,0.569,1.324,1.325C282.497,409.735,281.938,410.294,281.184,410.294z"/>
</g>
<path id="path3081" inkscape:export-xdpi="90" inkscape:export-ydpi="90" inkscape:connector-curvature="0" inkscape:export-filename="C:\Users\anon\Desktop\logo4.0.png" fill="#4A2B0F" d="
	M276.999,393.367c-0.351-1.183-0.909-2.3-1.764-3.176c-0.229-0.23-0.471-0.449-0.712-0.669c-0.186-0.175-0.657-0.448-0.756-0.679
	c0.504,1.172,0.997,2.388,0.625,3.681c-0.176,0.58-0.811,1.982-1.654,1.62c-0.789-0.339-0.701-2.004-0.767-2.672
	c-0.165-1.654-0.536-3.297-1.413-4.721c-0.482-0.777-1.106-1.468-1.895-1.938c-1.041-0.613-2.114-1.03-3.297-0.581
	c0.263-0.099,0.941,0.69,1.073,0.844c0.416,0.493,0.755,1.073,0.942,1.687c0.372,1.249,0.043,2.684-0.395,3.877
	c-0.91,2.476-2.421,4.699-3.145,7.24c-0.251,0.888-0.426,1.796-0.471,2.717c-0.152,2.902,1.358,5.563,3.746,7.185
	c0.537,0.372,1.501,0.833,2.191,0.592c-2.005-1.073-2.674-1.95-2.98-3.209c-0.723-2.925,2.016-4.787,3.199-7.098
	c0.317-0.613,0.547-1.293,0.46-1.994c-0.033-0.263-0.329-1.544-0.724-1.479c1.194-0.186,1.973,0.603,2.377,1.632
	c0.428,1.096,0.69,2.213,0.493,3.374c-0.065,0.383-0.351,1.599,0.208,1.676c0.777,0.109,1.436-0.92,1.281-1.906
	c-0.076-0.46-0.164-1.16-0.164-1.16c0.822,1.007,1.193,2.025,1.314,3.132c0.219,1.982-0.635,4.601-2.224,6.222
	c0.669-0.68,1.522-1.15,2.169-1.884c0.657-0.745,1.161-1.6,1.555-2.52c0.888-2.037,1.402-4.337,1.249-6.561
	C277.47,395.536,277.316,394.419,276.999,393.367L276.999,393.367z"/>
</svg>
