<?xml version="1.0" encoding="utf-8"?>
<!-- Generator: Adobe Illustrator 15.0.0, SVG Export Plug-In . SVG Version: 6.00 Build 0)  -->
<!DOCTYPE svg PUBLIC "-//W3C//DTD SVG 1.1//EN" "http://www.w3.org/Graphics/SVG/1.1/DTD/svg11.dtd">
<svg version="1.1"
	 id="Layer_1" xmlns:cc="http://creativecommons.org/ns#" xmlns:dc="http://purl.org/dc/elements/1.1/" xmlns:rdf="http://www.w3.org/1999/02/22-rdf-syntax-ns#" xmlns:svg="http://www.w3.org/2000/svg"
	 xmlns="http://www.w3.org/2000/svg" xmlns:xlink="http://www.w3.org/1999/xlink" x="0px" y="0px" width="285.307px" height="60px"
	 viewBox="0 0 285.307 60" enable-background="new 0 0 285.307 60" xml:space="preserve">
<g id="g11" transform="translate(-0.665,0)">
	<path id="path13" fill="#204156" d="M12.237,41.354c-0.514-1.559-0.769-3.527-0.769-6.173c0-2.647,0.255-4.619,0.769-6.174
		c1.436-4.462,5.24-6.9,10.221-6.9c3.699,0,6.628,1.505,8.582,3.892c0.151,0.206,0.202,0.517-0.052,0.724l-3.235,2.854
		c-0.258,0.209-0.514,0.157-0.721-0.102c-1.234-1.4-2.518-2.18-4.573-2.18c-2.208,0-3.902,1.09-4.623,3.269
		c-0.408,1.248-0.513,2.699-0.513,4.618s0.104,3.423,0.513,4.669c0.72,2.125,2.415,3.215,4.623,3.215
		c2.055,0,3.339-0.778,4.573-2.176c0.207-0.263,0.463-0.263,0.721-0.056l3.235,2.854c0.254,0.207,0.203,0.468,0.052,0.728
		c-1.953,2.336-4.882,3.838-8.582,3.838C17.477,48.252,13.673,45.813,12.237,41.354"/>
	<path id="path15" fill="#204156" d="M124.477,41.354c-0.514-1.559-0.769-3.527-0.769-6.173c0-2.647,0.255-4.619,0.769-6.174
		c1.439-4.462,5.239-6.9,10.22-6.9c3.7,0,6.63,1.505,8.581,3.892c0.153,0.206,0.206,0.517-0.053,0.724l-3.236,2.854
		c-0.257,0.209-0.512,0.157-0.718-0.102c-1.232-1.4-2.517-2.18-4.574-2.18c-2.207,0-3.903,1.09-4.621,3.269
		c-0.412,1.248-0.512,2.699-0.512,4.618s0.1,3.423,0.512,4.669c0.718,2.125,2.414,3.215,4.621,3.215
		c2.057,0,3.342-0.778,4.574-2.176c0.206-0.263,0.462-0.263,0.718-0.056l3.236,2.854c0.259,0.207,0.206,0.468,0.053,0.728
		c-1.951,2.336-4.881,3.838-8.581,3.838C129.716,48.252,125.916,45.813,124.477,41.354"/>
	<path id="path17" fill="#204156" d="M254.202,47.684c-0.308,0-0.513-0.206-0.513-0.52V32.743c0-3.217-1.594-5.449-4.678-5.449
		c-2.979,0-4.725,2.231-4.725,5.449v14.422c0,0.313-0.207,0.52-0.514,0.52h-4.728c-0.308,0-0.515-0.206-0.515-0.52V32.743
		c0-3.217-1.592-5.449-4.67-5.449c-2.981,0-4.729,2.231-4.729,5.449v14.422c0,0.313-0.204,0.52-0.514,0.52h-4.726
		c-0.311,0-0.514-0.206-0.514-0.52V23.196c0-0.312,0.203-0.52,0.514-0.52h4.726c0.31,0,0.514,0.208,0.514,0.52v1.816h0.052
		c1.08-1.557,3.236-2.905,6.523-2.905c2.93,0,5.292,1.191,6.779,3.319h0.053c1.9-2.073,4.367-3.319,7.912-3.319
		c5.751,0,8.99,3.942,8.99,9.286v15.77c0,0.314-0.207,0.521-0.517,0.521H254.202L254.202,47.684L254.202,47.684z"/>
	<path id="path19" fill="#204156" d="M266.578,57.021c-0.307,0-0.512-0.208-0.512-0.521v-4.149c0-0.31,0.205-0.521,0.512-0.521
		h0.926c1.951,0,2.93-0.879,3.699-2.955l0.72-2.127l-9.042-23.554c-0.104-0.312,0.104-0.52,0.413-0.52h5.084
		c0.308,0,0.515,0.208,0.614,0.52l5.602,16.343h0.102l5.344-16.343c0.104-0.312,0.309-0.52,0.614-0.52h4.879
		c0.312,0,0.517,0.208,0.411,0.52l-9.449,26.043c-2.156,5.915-4.214,7.781-8.322,7.781L266.578,57.021L266.578,57.021
		L266.578,57.021z"/>
	<path id="path21" fill="#204156" d="M35.766,41.356c-0.565-1.768-0.822-3.426-0.822-6.175c0-2.745,0.257-4.406,0.822-6.166
		c1.387-4.358,5.185-6.901,10.218-6.901c4.98,0,8.78,2.542,10.167,6.901c0.562,1.76,0.821,3.421,0.821,6.166
		c0,2.749-0.259,4.407-0.821,6.175c-1.388,4.355-5.187,6.896-10.167,6.896C40.951,48.252,37.153,45.711,35.766,41.356
		 M50.605,39.799c0.412-1.295,0.514-2.489,0.514-4.617c0-2.122-0.102-3.266-0.514-4.612c-0.718-2.073-2.311-3.269-4.621-3.269
		c-2.309,0-3.955,1.196-4.672,3.269c-0.409,1.349-0.513,2.49-0.513,4.612c0,2.128,0.104,3.322,0.513,4.617
		c0.717,2.078,2.364,3.267,4.672,3.267C48.294,43.065,49.887,41.875,50.605,39.799"/>
	<path id="path23" fill="#204156" d="M157.043,22.107c-4.059,0-6.779,0.985-8.785,2.438c-0.203,0.158-0.256,0.414-0.1,0.673
		l1.896,3.426c0.158,0.26,0.463,0.312,0.721,0.104c1.183-0.932,2.875-1.713,5.652-1.713c4.047,0,5.42,1.228,5.49,3.926h0.001v0.033
		c0.002,0.063,0.002,0.127,0.002,0.194v8.095c0,2.853-1.95,4.25-5.493,4.25c-2.777,0-4.265-1.035-4.265-3.109
		c0-2.336,1.646-3.375,5.342-3.375l1.124,0.002c0.309,0,0.516-0.209,0.516-0.518v-3.326c0-0.31-0.207-0.517-0.516-0.517h-0.247
		l-1.801-0.001c-6.112,0-9.917,2.494-9.917,7.938c0,5.242,3.805,7.627,8.322,7.627c3.49,0,5.804-1.192,6.986-2.904h0.049v1.816
		c0,0.312,0.209,0.52,0.516,0.52h4.314c0.309,0,0.515-0.207,0.515-0.52V30.825C167.367,24.703,164.594,22.107,157.043,22.107"/>
	<path id="path25" fill="#204156" d="M95.672,32.688c-0.134,0-0.222,0.089-0.222,0.223v0.148v0.434v2.748v0.369v0.213
		c0,0.135,0.088,0.225,0.222,0.225H95.8h12.592c0.36,0,0.566-0.207,0.566-0.516c0-4.05-0.259-5.763-0.822-7.525
		c-1.389-4.254-5.086-6.899-10.172-6.899c-4.931,0-8.731,2.541-10.12,6.899c-0.511,1.609-0.822,3.58-0.822,6.174
		c0,2.594,0.36,4.512,0.877,6.122c1.386,4.355,5.083,6.949,10.322,6.949c4.57,0,8.066-1.764,10.17-4.254
		c0.204-0.258,0.204-0.517-0.052-0.727l-3.028-2.697c-0.259-0.207-0.515-0.152-0.773,0.104c-1.231,1.35-3.029,2.387-5.803,2.387
		c-2.771,0-4.725-1.349-5.547-3.784c-0.124-0.342-0.227-0.699-0.292-1.089h-0.001c-0.187-1.056-0.297-2.084-0.297-3.594
		c0.04-1.423,0.122-2.332,0.324-3.487c0.002-0.016,0.005-0.029,0.008-0.045c0.002-0.012,0.004-0.021,0.006-0.033v0.002
		c0.049-0.272,0.116-0.529,0.199-0.784c0.668-2.023,2.517-3.216,4.882-3.216c2.312,0,4.158,1.193,4.826,3.216
		c0.207,0.625,0.308,1.245,0.308,2.129c0,0.207-0.102,0.309-0.308,0.309h-6.749l0.001-0.001L95.672,32.688L95.672,32.688
		L95.672,32.688z"/>
	<path id="path27" fill="#204156" d="M82.25,12.408h-4.718c-0.311,0-0.516,0.207-0.516,0.515v12.121l0,0v10.024
		c0,0.027,0,0.054,0,0.08s0,0.054,0,0.08v1.331H76.99c-0.055,1.43-0.21,2.37-0.485,3.251c-0.667,2.069-2.26,3.209-4.617,3.209
		c-2.308,0-3.897-1.14-4.567-3.209c-0.358-1.142-0.51-2.384-0.51-4.662s0.152-3.522,0.51-4.66c0.657-2.031,2.195-3.178,4.427-3.223
		h2.014c0.098-0.024,0.162-0.101,0.162-0.213l0.026-4.736c0-0.121-0.076-0.202-0.188-0.216l-1.608-0.006h-1.89v0.001
		c-4.135,0.044-7.162,2.06-8.43,6.005c-0.616,1.919-0.872,3.684-0.872,7.048c0,3.366,0.256,5.128,0.872,7.043
		c1.282,3.99,4.36,6.011,8.565,6.011c3.336,0,5.388-1.242,6.565-2.953h0.05v1.864c0,0.312,0.206,0.519,0.516,0.519h4.718
		c0.308,0,0.514-0.205,0.514-0.519v-34.19C82.764,12.614,82.558,12.408,82.25,12.408"/>
	<path id="path29" fill="#204156" d="M205.936,32.688c-0.133,0-0.223,0.089-0.223,0.223v0.148v0.434v2.748v0.369v0.213
		c0,0.135,0.09,0.225,0.223,0.225h0.129h12.594c0.359,0,0.564-0.207,0.564-0.516c0-4.05-0.258-5.763-0.82-7.525
		c-1.389-4.254-5.088-6.899-10.172-6.899c-4.932,0-8.731,2.541-10.121,6.899c-0.512,1.609-0.821,3.58-0.821,6.174
		c0,2.594,0.36,4.512,0.877,6.122c1.385,4.355,5.083,6.949,10.321,6.949c4.57,0,8.066-1.764,10.172-4.254
		c0.203-0.258,0.203-0.517-0.053-0.727l-3.028-2.697c-0.259-0.207-0.515-0.152-0.772,0.104c-1.23,1.35-3.027,2.387-5.804,2.387
		c-2.771,0-4.724-1.349-5.547-3.784c-0.123-0.342-0.228-0.699-0.29-1.089h-0.001c-0.188-1.056-0.298-2.084-0.298-3.594
		c0.037-1.423,0.119-2.332,0.322-3.487c0.004-0.016,0.006-0.029,0.009-0.045c0.002-0.012,0.004-0.021,0.006-0.033v0.002
		c0.051-0.272,0.116-0.529,0.2-0.784c0.666-2.023,2.517-3.216,4.882-3.216c2.312,0,4.157,1.193,4.825,3.216
		c0.207,0.625,0.31,1.245,0.31,2.129c0,0.207-0.103,0.309-0.31,0.309h-6.748v-0.001L205.936,32.688L205.936,32.688L205.936,32.688z"
		/>
	<path id="path31" fill="#204156" d="M192.758,12.408h-4.727c-0.309,0-0.516,0.208-0.516,0.516v12.138v10.04v0.079v0.081v1.333
		h-0.024c-0.056,1.432-0.212,2.372-0.487,3.255c-0.668,2.074-2.264,3.216-4.623,3.216c-2.31,0-3.902-1.142-4.572-3.216
		c-0.357-1.143-0.514-2.387-0.514-4.669c0-2.281,0.154-3.529,0.514-4.667c0.656-2.034,2.197-3.172,4.434-3.217l2.018,0.001
		c0.309,0,0.514-0.207,0.514-0.516v-4.157c0-0.31-0.205-0.517-0.514-0.517h-0.248l-3.049-0.001c-0.023,0-0.048,0-0.07,0
		c-0.023,0-0.045,0-0.066,0h-0.07v0.001c-4.14,0.043-7.172,2.063-8.441,6.014c-0.616,1.922-0.873,3.687-0.873,7.057
		s0.257,5.137,0.873,7.055c1.283,3.994,4.367,6.019,8.578,6.019c3.34,0,5.396-1.242,6.576-2.957h0.049v1.867
		c0,0.313,0.207,0.52,0.517,0.52h4.726c0.309,0,0.516-0.205,0.516-0.52V12.924C193.271,12.615,193.064,12.408,192.758,12.408"/>
	<path id="path33" fill="#204156" d="M124.091,54.756v4.728c0,0.312,0.206,0.517,0.515,0.517h17.516c0.313,0,0.52-0.207,0.52-0.517
		v-4.728c0-0.307-0.207-0.514-0.52-0.514h-17.516C124.297,54.243,124.091,54.45,124.091,54.756"/>
	<path id="path35" fill="#204156" d="M119.644,0.167c-0.008-0.008-0.013-0.018-0.02-0.025c-0.001-0.001-0.002-0.001-0.002-0.001
		C119.532,0.052,119.404,0,119.252,0h-0.006H1.181C1.142,0,1.105,0.004,1.069,0.01c-0.01,0.002-0.019,0.006-0.03,0.008
		C1.016,0.024,0.991,0.029,0.97,0.038C0.966,0.039,0.963,0.041,0.96,0.043C0.777,0.118,0.665,0.289,0.665,0.515v0.002v58.96v0.004
		c0,0.18,0.07,0.32,0.188,0.411c0.009,0.009,0.017,0.017,0.029,0.022v0.002c0.082,0.051,0.182,0.08,0.299,0.08h118.064h0.006
		c0.174,0,0.315-0.067,0.404-0.183c0.07-0.086,0.111-0.198,0.111-0.334v-0.004V0.517V0.515
		C119.766,0.374,119.721,0.255,119.644,0.167 M6.931,54.241c-0.037,0-0.073-0.003-0.105-0.008c-0.01-0.002-0.021-0.007-0.031-0.01
		c-0.024-0.006-0.048-0.01-0.07-0.02c-0.004,0-0.006-0.004-0.01-0.004c-0.182-0.074-0.293-0.244-0.294-0.469V10.995V6.27
		c0-0.227,0.112-0.396,0.294-0.472C6.72,5.797,6.723,5.794,6.726,5.793c0.021-0.008,0.089-0.025,0.1-0.028
		C6.86,5.76,6.896,5.757,6.933,5.757h106.564c0.038,0,0.073,0.003,0.107,0.008c0.011,0.003,0.021,0.007,0.03,0.01
		c0.024,0.005,0.048,0.01,0.07,0.019c0.005,0.001,0.007,0.004,0.011,0.005c0.183,0.075,0.294,0.245,0.294,0.472v47.461
		c-0.001,0.226-0.113,0.396-0.293,0.47c-0.004,0-0.006,0.004-0.011,0.004c-0.021,0.008-0.046,0.015-0.069,0.02
		c-0.011,0.003-0.02,0.008-0.031,0.01c-0.034,0.006-0.067,0.008-0.104,0.008H6.931V54.241L6.931,54.241z"/>
</g>
</svg>
