<?xml version="1.0" encoding="utf-8"?>
<!-- Generator: Adobe Illustrator 15.0.0, SVG Export Plug-In . SVG Version: 6.00 Build 0)  -->
<!DOCTYPE svg PUBLIC "-//W3C//DTD SVG 1.1//EN" "http://www.w3.org/Graphics/SVG/1.1/DTD/svg11.dtd">
<svg version="1.1" id="Layer_1" xmlns="http://www.w3.org/2000/svg" xmlns:xlink="http://www.w3.org/1999/xlink" x="0px" y="0px"
	 width="145.744px" height="112.905px" viewBox="0 0 145.744 112.905" enable-background="new 0 0 145.744 112.905"
	 xml:space="preserve">
<g>
	<g>
		<g enable-background="new    ">
			<g>
				<polygon fill="#C5C5C5" points="72.71,5.736 72.63,34.266 55.008,44.507 55.089,15.976 				"/>
			</g>
			<g>
				<polygon fill="#898989" points="101.793,22.526 101.712,51.057 72.63,34.266 72.71,5.736 				"/>
			</g>
			<g>
				<polygon fill="#898989" points="79.163,22.526 79.082,51.057 67.736,44.507 67.817,15.976 				"/>
			</g>
			<g>
				<polygon fill="#C5C5C5" points="50.154,18.844 50.073,47.375 43.73,51.061 43.811,22.53 				"/>
			</g>
			<g>
				<polygon fill="#898989" points="61.5,25.394 61.419,53.925 50.073,47.375 50.154,18.844 				"/>
			</g>
			<g>
				<polygon fill="#C5C5C5" points="66.435,22.526 66.354,51.057 61.419,53.925 61.5,25.394 				"/>
			</g>
			<g>
				<polygon fill="#898989" points="95.481,31.948 95.4,60.479 84.049,53.925 84.13,25.394 				"/>
			</g>
			<g>
				<polygon fill="#C5C5C5" points="106.76,25.394 106.679,53.925 95.4,60.479 95.481,31.948 				"/>
			</g>
			<g>
				<polygon fill="#898989" points="50.228,31.945 50.147,60.476 38.802,53.925 38.882,25.395 				"/>
			</g>
			<g>
				<polygon fill="#C5C5C5" points="55.157,29.081 55.076,57.611 50.147,60.476 50.228,31.945 				"/>
			</g>
			<g>
				<polygon fill="#898989" points="135.849,42.188 135.768,70.719 106.679,53.925 106.76,25.394 				"/>
			</g>
			<g>
				<polygon fill="#898989" points="113.219,42.188 113.138,70.719 101.785,64.165 101.866,35.634 				"/>
			</g>
			<g>
				<polygon fill="#C5C5C5" points="84.13,25.394 84.049,53.925 55.156,70.715 55.237,42.185 				"/>
			</g>
			<g>
				<polygon fill="#898989" points="90.588,42.188 90.508,70.719 79.156,64.165 79.236,35.634 				"/>
			</g>
			<g>
				<polygon fill="#C5C5C5" points="38.882,25.395 38.802,53.925 9.902,70.719 9.983,42.189 				"/>
			</g>
			<g>
				<polygon fill="#898989" points="27.672,45.053 27.591,73.583 22.63,70.719 22.711,42.189 				"/>
			</g>
			<g>
				<polygon fill="#C5C5C5" points="38.95,38.499 38.869,67.03 27.591,73.583 27.672,45.053 				"/>
			</g>
			<g>
				<polygon fill="#C5C5C5" points="123.12,42.188 123.04,70.719 111.762,77.273 111.843,48.743 				"/>
			</g>
			<g>
				<polygon fill="#C5C5C5" points="100.49,42.188 100.409,70.719 89.132,77.273 89.213,48.743 				"/>
			</g>
			<g>
				<polygon fill="#C5C5C5" points="77.86,42.188 77.78,70.719 66.508,77.27 66.589,48.739 				"/>
			</g>
			<g>
				<polygon fill="#898989" points="113.292,55.296 113.211,83.828 101.859,77.273 101.94,48.743 				"/>
			</g>
			<g>
				<polygon fill="#898989" points="90.668,55.293 90.588,83.824 79.235,77.27 79.316,48.739 				"/>
			</g>
			<g>
				<polygon fill="#898989" points="73.005,58.161 72.925,86.692 38.869,67.03 38.95,38.499 				"/>
			</g>
			<g>
				<polygon fill="#C5C5C5" points="39.023,51.607 38.943,80.138 32.6,83.824 32.681,55.293 				"/>
			</g>
			<g>
				<polygon fill="#C5C5C5" points="77.94,55.293 77.859,83.824 72.925,86.692 73.005,58.161 				"/>
			</g>
			<g>
				<polygon fill="#898989" points="73.079,71.269 72.999,99.799 38.943,80.138 39.023,51.607 				"/>
			</g>
			<g>
				<polygon fill="#C5C5C5" points="100.564,55.296 100.483,83.828 72.999,99.799 73.079,71.269 				"/>
			</g>
			<g>
				<polygon fill="#C5C5C5" points="145.744,42.185 145.663,70.715 73.066,112.905 73.147,84.374 				"/>
			</g>
			<g>
				<path fill="#DCDCDC" d="M140.783,39.32l4.961,2.864L73.147,84.374L0.081,42.189L72.678,0L140.783,39.32z M118.227,52.429
					l17.622-10.24L106.76,25.394l-11.278,6.554L84.13,25.394L55.237,42.185l6.385,3.686l11.272-6.55l4.967,2.868l-11.271,6.551
					l11.352,6.554l-4.935,2.868L38.95,38.499l-11.278,6.554l-4.961-2.864l16.213-9.422l11.346,6.55l28.893-16.791l-11.346-6.55
					l4.935-2.868l22.697,13.104l6.344-3.686L72.71,5.736l-17.621,10.24l11.345,6.55L61.5,25.394l-11.346-6.55l-6.343,3.687
					l11.346,6.55l-4.929,2.864l-11.346-6.55L9.983,42.189l17.73,10.236l11.278-6.554l34.056,19.662l17.621-10.241l-11.352-6.554
					l11.271-6.55l-11.352-6.554l4.935-2.868l16.319,9.422l-11.277,6.554l11.352,6.554L73.079,71.269L39.023,51.607l-6.343,3.687
					l40.44,23.348l40.171-23.345l-11.352-6.554l11.278-6.554l-11.353-6.554l4.936-2.868l16.318,9.422l-11.277,6.554L118.227,52.429"
					/>
			</g>
			<g>
				<polygon fill="#898989" points="73.147,84.374 73.066,112.905 0,70.719 0.081,42.189 				"/>
			</g>
		</g>
	</g>
</g>
</svg>
