<?xml version="1.0" encoding="utf-8"?>
<!-- Generator: Adobe Illustrator 15.0.0, SVG Export Plug-In . SVG Version: 6.00 Build 0)  -->
<!DOCTYPE svg PUBLIC "-//W3C//DTD SVG 1.1//EN" "http://www.w3.org/Graphics/SVG/1.1/DTD/svg11.dtd">
<svg version="1.1" id="Layer_1" xmlns="http://www.w3.org/2000/svg" xmlns:xlink="http://www.w3.org/1999/xlink" x="0px" y="0px"
	 width="299.997px" height="101.576px" viewBox="0 24.208 299.997 101.576" enable-background="new 0 24.208 299.997 101.576"
	 xml:space="preserve">
<g>
	<path fill="#46B149" d="M132.01,50.343c-16.079,0-25.294,10.049-25.294,27.598c0,8.971,2.255,15.883,6.765,20.539
		c4.51,4.706,11.078,7.156,19.657,7.156c6.814,0,11.226-1.471,14.314-3.283c2.696-1.569,5.637-4.02,5.734-8.727
		c0.05-2.598-2.598-6.029-4.362-4.362c-3.187,3.039-9.706,6.52-15.735,6.52c-8.971,0-14.608-5.196-15.294-14.068h31.324
		c6.421,0,6.421-5.589,6.421-8.627c0-2.451-0.441-8.824-4.363-14.216C147.108,53.235,140.637,50.343,132.01,50.343z M142.99,72.206
		h-24.951c1.177-7.892,5.98-12.108,14.02-12.108c7.402,0,11.52,3.382,12.451,10.441C144.657,71.471,143.921,72.206,142.99,72.206z"
		/>
	<path fill="#46B149" d="M98.774,24.216c-5.49,0.539-8.726,3.333-8.726,10.147v20.441c-2.647-1.96-7.206-4.46-13.627-4.46
		c-7.941,0-14.167,2.304-18.333,6.912c-4.216,4.608-6.373,11.569-6.373,20.638c0,8.971,2.157,15.833,6.373,20.539
		c4.265,4.705,10.588,7.156,18.774,7.156c15.098,0,24.167-8.578,24.167-22.941V26.127C101.029,25,100,24.118,98.774,24.216z
		 M90.049,82.696c0,8.529-4.657,13.187-13.186,13.187c-9.657,0-14.167-5.736-14.167-17.941c0-11.961,4.607-17.843,14.167-17.843
		c0.196,0,0.441,0,0.735,0c7.01,0.343,12.451,5.98,12.451,12.647V82.696z"/>
	<path fill="#46B149" d="M46.029,52.304c0-1.176-1.029-1.96-2.255-1.862c-5.49,0.539-8.726,3.333-8.726,10.147v4.02v1.421v18.284
		c0,8.04-3.48,11.274-12.01,11.274c-8.529,0-12.01-3.234-12.01-11.274V66.667v-3.235v-10.49c0-1.177-1.029-1.961-2.255-1.863
		C3.235,51.569,0,54.363,0,61.226v2.206v3.235v17.648c0,6.421,1.421,11.273,4.461,14.705c3.774,4.461,9.902,6.568,18.578,6.568
		c8.726,0,14.853-2.156,18.627-6.568c2.99-3.48,4.412-8.284,4.412-14.705V59.363l0,0L46.029,52.304L46.029,52.304z"/>
	<path fill="#46B149" d="M219.902,50.343c-7.256,0-12.795,2.157-16.568,6.323c-3.775-4.068-10.295-6.323-18.089-6.323
		c-5.049,0-9.755,1.568-13.089,4.363c-1.52-2.696-4.46-4.02-8.332-4.363c-1.324-0.098-2.451,0.784-2.451,1.863V62.99v2.99v23.48
		v5.441v2.451c0,0,0.049,0,0.146,0.049c0.735,5.049,3.774,7.205,8.578,7.695c1.227,0.099,2.256-0.784,2.256-1.862v-5.882V89.51
		V73.382c0-2.99,0.392-5.392,1.176-7.304h0.049V65.98c1.716-4.069,5.196-5.882,10.932-5.882c8.726,0,12.156,3.529,12.156,12.598
		v16.911h-0.098v5.441c0,0.441,0,0.883,0.049,1.324v0.98c0,0,0.049,0,0.099,0c0.638,5.146,3.774,7.401,8.628,7.843
		c1.225,0.098,2.254-0.784,2.254-1.862v-7.893c0-0.098,0.049-0.147,0.049-0.295V71.274c0-7.549,4.069-11.127,12.354-11.127
		c8.676,0,12.354,3.726,12.354,12.598v16.911v5.441l0,0l0,0c0,6.863,3.234,9.608,8.725,10.147c1.226,0.099,2.256-0.784,2.256-1.862
		v-8.579v-5.147V71.324c0-5.785-1.471-10.441-4.461-13.922C234.902,52.745,228.529,50.343,219.902,50.343z"/>
	<path fill="#46B149" d="M298.774,51.127L298.774,51.127c-1.372-0.49-2.745-0.784-4.118-0.784c-3.234,0-5.931,1.421-7.156,3.726
		l-15.344,33.578l-9.02-20.98l-5.49-12.598c-1.225-2.304-3.921-3.726-7.156-3.726c-1.373,0-2.745,0.294-4.117,0.784l0,0
		c-0.98,0.343-1.422,1.421-1.029,2.304l6.029,13.187l15.049,33.824c-4.412,10.294-6.716,15.441-15.098,15.441h-4.707
		c-1.568,0-2.793,1.225-2.646,2.744c0.393,4.217,4.51,7.157,9.265,7.157c9.559,0,16.079-5.784,21.029-16.862l25.638-55.49
		C300.196,52.549,299.804,51.52,298.774,51.127z"/>
</g>
</svg>
