<?xml version="1.0" encoding="utf-8"?>
<!-- Generator: Adobe Illustrator 15.0.0, SVG Export Plug-In . SVG Version: 6.00 Build 0)  -->
<!DOCTYPE svg PUBLIC "-//W3C//DTD SVG 1.1//EN" "http://www.w3.org/Graphics/SVG/1.1/DTD/svg11.dtd">
<svg version="1.1" id="Layer_1" xmlns="http://www.w3.org/2000/svg" xmlns:xlink="http://www.w3.org/1999/xlink" x="0px" y="0px"
	 width="145.732px" height="108.829px" viewBox="0 0 145.732 108.829" enable-background="new 0 0 145.732 108.829"
	 xml:space="preserve">
<g>
	<g>
		<g enable-background="new    ">
			<g>
				<polygon fill="#C5C5C5" points="72.699,5.736 72.629,30.191 55.008,40.431 55.077,15.977 				"/>
			</g>
			<g>
				<polygon fill="#898989" points="101.781,22.526 101.712,46.981 72.629,30.191 72.699,5.736 				"/>
			</g>
			<g>
				<polygon fill="#898989" points="79.151,22.527 79.082,46.981 67.736,40.431 67.805,15.976 				"/>
			</g>
			<g>
				<polygon fill="#C5C5C5" points="50.142,18.844 50.073,43.299 43.73,46.985 43.799,22.53 				"/>
			</g>
			<g>
				<polygon fill="#898989" points="61.488,25.395 61.419,49.85 50.073,43.299 50.142,18.844 				"/>
			</g>
			<g>
				<polygon fill="#C5C5C5" points="66.423,22.527 66.354,46.981 61.419,49.85 61.488,25.395 				"/>
			</g>
			<g>
				<polygon fill="#898989" points="95.47,31.948 95.4,56.403 84.05,49.85 84.118,25.395 				"/>
			</g>
			<g>
				<polygon fill="#C5C5C5" points="106.748,25.395 106.679,49.849 95.4,56.403 95.47,31.948 				"/>
			</g>
			<g>
				<polygon fill="#898989" points="50.21,31.949 50.14,56.403 38.795,49.853 38.864,25.398 				"/>
			</g>
			<g>
				<polygon fill="#C5C5C5" points="55.145,29.081 55.075,53.536 50.14,56.403 50.21,31.949 				"/>
			</g>
			<g>
				<polygon fill="#898989" points="135.83,42.185 135.761,66.641 106.679,49.849 106.748,25.395 				"/>
			</g>
			<g>
				<polygon fill="#898989" points="113.207,42.188 113.138,66.645 101.785,60.09 101.854,35.635 				"/>
			</g>
			<g>
				<polygon fill="#C5C5C5" points="84.118,25.395 84.05,49.85 55.149,66.645 55.219,42.189 				"/>
			</g>
			<g>
				<polygon fill="#898989" points="90.577,42.189 90.507,66.645 79.155,60.09 79.224,35.635 				"/>
			</g>
			<g>
				<polygon fill="#C5C5C5" points="38.864,25.398 38.795,49.853 9.902,66.645 9.971,42.189 				"/>
			</g>
			<g>
				<polygon fill="#898989" points="27.66,45.053 27.591,69.508 22.63,66.645 22.699,42.189 				"/>
			</g>
			<g>
				<polygon fill="#C5C5C5" points="38.938,38.499 38.868,62.954 27.591,69.508 27.66,45.053 				"/>
			</g>
			<g>
				<polygon fill="#C5C5C5" points="123.103,42.185 123.033,66.641 111.755,73.194 111.824,48.739 				"/>
			</g>
			<g>
				<polygon fill="#C5C5C5" points="100.478,42.189 100.409,66.645 89.132,73.198 89.201,48.743 				"/>
			</g>
			<g>
				<polygon fill="#C5C5C5" points="77.849,42.189 77.779,66.645 66.501,73.198 66.571,48.743 				"/>
			</g>
			<g>
				<polygon fill="#898989" points="113.274,55.293 113.205,79.749 101.859,73.198 101.929,48.743 				"/>
			</g>
			<g>
				<polygon fill="#898989" points="90.65,55.297 90.581,79.752 79.229,73.198 79.3,48.743 				"/>
			</g>
			<g>
				<polygon fill="#898989" points="72.994,58.161 72.925,82.616 38.868,62.954 38.938,38.499 				"/>
			</g>
			<g>
				<polygon fill="#C5C5C5" points="39.012,51.607 38.943,76.063 32.599,79.749 32.669,55.294 				"/>
			</g>
			<g>
				<polygon fill="#C5C5C5" points="77.923,55.297 77.853,79.752 72.925,82.616 72.994,58.161 				"/>
			</g>
			<g>
				<polygon fill="#898989" points="73.061,71.266 72.992,95.721 38.943,76.063 39.012,51.607 				"/>
			</g>
			<g>
				<polygon fill="#C5C5C5" points="100.546,55.293 100.478,79.749 72.992,95.721 73.061,71.266 				"/>
			</g>
			<g>
				<polygon fill="#C5C5C5" points="145.732,42.185 145.663,66.641 73.066,108.829 73.135,84.374 				"/>
			</g>
			<g>
				<path fill="#DCDCDC" d="M140.766,39.317l4.967,2.868L73.135,84.374L0.069,42.189L72.666,0L140.766,39.317z M118.209,52.425
					l17.621-10.24l-29.082-16.791L95.47,31.948l-11.352-6.554L55.219,42.188l6.385,3.686l11.278-6.554l4.966,2.868l-11.277,6.554
					l11.352,6.554l-4.929,2.865L38.938,38.498L27.66,45.052l-4.961-2.864l16.207-9.418l11.346,6.551l28.9-16.794l-11.346-6.551
					l4.935-2.868l22.697,13.104l6.344-3.687L72.699,5.734L55.078,15.975l11.346,6.55l-4.935,2.868l-11.346-6.55L43.8,22.529
					l11.346,6.551l-4.935,2.868l-11.346-6.55L9.972,42.189l17.73,10.237l11.278-6.554l34.056,19.662l17.615-10.236L79.3,48.744
					l11.277-6.554l-11.354-6.554l4.937-2.868l16.317,9.422l-11.276,6.554l11.345,6.55L73.062,71.268L39.013,51.609l-6.343,3.687
					l40.434,23.345l40.171-23.346l-11.347-6.55l11.278-6.554l-11.353-6.554l4.936-2.868l16.313,9.418l-11.277,6.554L118.209,52.425"
					/>
			</g>
			<g>
				<polygon fill="#898989" points="73.135,84.374 73.066,108.829 0,66.645 0.069,42.189 				"/>
			</g>
		</g>
	</g>
</g>
</svg>
