<?xml version="1.0" encoding="utf-8"?>
<!-- Generator: Adobe Illustrator 15.0.0, SVG Export Plug-In . SVG Version: 6.00 Build 0)  -->
<!DOCTYPE svg PUBLIC "-//W3C//DTD SVG 1.1//EN" "http://www.w3.org/Graphics/SVG/1.1/DTD/svg11.dtd">
<svg version="1.1" id="Layer_1" xmlns="http://www.w3.org/2000/svg" xmlns:xlink="http://www.w3.org/1999/xlink" x="0px" y="0px"
	 width="25px" height="25px" viewBox="0 0 25 25" enable-background="new 0 0 25 25" xml:space="preserve">
<path fill="#FFFFFF" d="M23.563,6.679c-0.094-0.048-0.299-0.15-0.408-0.116l-2.628,0.789l0.063,0.209
	c-0.002-0.004-0.428-0.048-0.601-0.276c-0.276-0.385-0.505-0.776-0.835-1.13c-0.22-0.198-0.256-0.532-0.112-0.803l1.188-2.174
	l0.016-0.025c0.052-0.096,0.068-0.213,0.039-0.313c-0.031-0.1-0.104-0.189-0.198-0.237l-3.456-1.855l0.029-0.061
	c-0.095-0.052-0.208-0.058-0.208-0.058L16.45,0.625c0,0-0.281,0.129-0.332,0.225l-1.216,2.188c-0.115,0.255-0.427,0.416-0.717,0.359
	c-0.474-0.086-0.85-0.153-1.313-0.177c-0.3,0.018-0.487-0.195-0.575-0.488l-0.718-2.388c-0.031-0.105-0.224-0.224-0.318-0.272
	c-0.091-0.048-0.326-0.094-0.432-0.062L7.01,1.159C6.907,1.19,6.732,1.359,6.679,1.45C6.63,1.542,6.53,1.748,6.562,1.854L7.279,4.24
	c0.079,0.264,0.092,0.524-0.146,0.693C6.723,5.204,6.405,5.508,6.046,5.845c-0.195,0.19-0.474,0.23-0.727,0.099L3.195,4.792
	L3.167,4.768L3.141,4.745C3.042,4.698,2.938,4.689,2.842,4.718C2.735,4.75,2.648,4.819,2.594,4.916L0.747,8.359L0.725,8.403
	L0.709,8.431C0.66,8.525,0.646,8.637,0.678,8.74C0.707,8.836,0.74,8.788,0.831,8.841l2.166,1.048l0.004-0.002
	c0.368,0.573,0.413,0.535,0.368,0.813c-0.077,0.475-0.14,0.893-0.167,1.374c0.024,0.296-0.167,0.539-0.469,0.63l-2.393,0.72
	c-0.11,0.033-0.161,0.21-0.206,0.299l-0.055,0.08c-0.044,0.089-0.104,0.27-0.07,0.38l1.149,3.817
	c0.031,0.106,0.195,0.274,0.291,0.326c0.087,0.05,0.289,0.147,0.4,0.114l2.4-0.723c0.257-0.076,0.514-0.09,0.678,0.138
	c0.302,0.413,0.585,0.732,0.929,1.106c0.18,0.194,0.221,0.466,0.088,0.714l-1.144,2.11l-0.014,0.006l-0.021,0.035l-0.024,0.038
	c-0.04,0.092-0.051,0.205-0.024,0.294c0.031,0.103,0.103,0.193,0.194,0.246l3.488,1.88l0.014,0.004l0.014,0.005
	c0.099,0.051,0.208,0.065,0.313,0.033c0.089-0.027,0.171-0.084,0.227-0.18l0.015-0.021l1.185-2.198
	c0.122-0.245,0.394-0.383,0.675-0.339c0.477,0.081,0.84,0.164,1.326,0.186c0.286-0.006,0.446,0.202,0.535,0.496l0.72,2.394
	c0.031,0.104,0.23,0.223,0.32,0.269c0.093,0.044,0.333,0.088,0.436,0.058l3.818-1.149c0.106-0.031,0.277-0.2,0.327-0.286
	c0.054-0.089,0.147-0.297,0.116-0.399l-0.791-2.628l-0.198,0.06c0,0,0.043-0.438,0.275-0.604c0.408-0.29,0.787-0.525,1.15-0.859
	c0.198-0.194,0.509-0.224,0.769-0.078l2.172,1.173l0.04,0.028c0.095,0.051,0.213,0.067,0.315,0.036
	c0.095-0.028,0.179-0.099,0.237-0.197l1.882-3.512c0.059-0.098,0.065-0.212,0.034-0.313c-0.026-0.089-0.097-0.188-0.197-0.229
	l-2.173-1.184c-0.254-0.12-0.411-0.404-0.347-0.697c0.064-0.476,0.147-0.839,0.171-1.322c-0.014-0.285,0.209-0.446,0.497-0.532
	l2.312-0.695l0.041-0.135c0.103-0.031,0.165-0.142,0.207-0.215l0.07-0.074c0.045-0.093,0.115-0.247,0.086-0.347l-1.131-3.758
	l-0.012-0.04l-0.007-0.022C23.811,6.9,23.649,6.729,23.563,6.679z M13.729,16.584c-2.256,0.679-4.634-0.601-5.312-2.854
	c-0.679-2.256,0.6-4.633,2.854-5.31c2.255-0.679,4.634,0.599,5.313,2.854C17.262,13.527,15.983,15.906,13.729,16.584z"/>
</svg>
