<?xml version="1.0" encoding="utf-8"?>
<!-- Generator: Adobe Illustrator 15.0.0, SVG Export Plug-In . SVG Version: 6.00 Build 0)  -->
<!DOCTYPE svg PUBLIC "-//W3C//DTD SVG 1.1//EN" "http://www.w3.org/Graphics/SVG/1.1/DTD/svg11.dtd">
<svg version="1.1" id="Layer_1" xmlns="http://www.w3.org/2000/svg" xmlns:xlink="http://www.w3.org/1999/xlink" x="0px" y="0px"
	 width="25px" height="25px" viewBox="0 0 25 25" enable-background="new 0 0 25 25" xml:space="preserve">
<path fill="#CFD78A" d="M23.563,6.679c-0.094-0.048-0.299-0.15-0.408-0.116l-2.627,0.789l0.063,0.209
	c-0.002-0.004-0.428-0.048-0.602-0.276c-0.275-0.385-0.504-0.776-0.834-1.13c-0.221-0.198-0.256-0.532-0.112-0.803l1.188-2.174
	l0.016-0.025c0.052-0.096,0.068-0.213,0.039-0.313c-0.031-0.1-0.104-0.189-0.198-0.237l-3.456-1.855l0.029-0.061
	c-0.096-0.052-0.208-0.058-0.208-0.058l-0.002-0.004c0,0-0.281,0.129-0.332,0.225l-1.216,2.188
	c-0.115,0.255-0.428,0.416-0.717,0.359c-0.475-0.086-0.851-0.153-1.313-0.177c-0.3,0.018-0.487-0.195-0.575-0.488L11.58,0.344
	c-0.031-0.104-0.224-0.224-0.318-0.272c-0.091-0.048-0.326-0.094-0.432-0.062L7.011,1.159C6.908,1.19,6.733,1.359,6.68,1.45
	C6.631,1.542,6.531,1.748,6.563,1.854L7.28,4.24c0.079,0.264,0.092,0.524-0.146,0.693c-0.41,0.271-0.728,0.575-1.087,0.912
	c-0.195,0.19-0.474,0.23-0.727,0.099L3.196,4.792L3.168,4.768L3.142,4.745C3.043,4.698,2.939,4.689,2.843,4.718
	C2.736,4.75,2.649,4.819,2.595,4.916L0.748,8.359L0.726,8.403L0.71,8.431C0.661,8.525,0.647,8.637,0.679,8.74
	c0.029,0.096,0.062,0.048,0.153,0.101l2.166,1.048l0.004-0.002C3.37,10.46,3.415,10.422,3.37,10.7
	c-0.077,0.475-0.14,0.893-0.167,1.374c0.024,0.296-0.167,0.539-0.469,0.63l-2.393,0.72c-0.11,0.033-0.161,0.21-0.206,0.299
	l-0.055,0.08c-0.044,0.09-0.104,0.271-0.07,0.381L1.159,18c0.031,0.105,0.195,0.273,0.291,0.326c0.087,0.05,0.289,0.146,0.4,0.113
	l2.4-0.723c0.257-0.076,0.514-0.09,0.678,0.139c0.302,0.412,0.585,0.731,0.929,1.105c0.18,0.193,0.221,0.466,0.088,0.714
	l-1.144,2.11l-0.014,0.006l-0.021,0.035l-0.024,0.038c-0.04,0.092-0.051,0.204-0.024,0.294c0.031,0.104,0.103,0.193,0.194,0.246
	l3.488,1.88l0.014,0.004l0.014,0.005c0.099,0.051,0.208,0.064,0.313,0.033c0.089-0.027,0.171-0.084,0.227-0.18l0.015-0.021
	l1.185-2.198c0.122-0.245,0.394-0.383,0.675-0.339c0.477,0.081,0.84,0.164,1.326,0.186c0.286-0.006,0.446,0.203,0.535,0.496
	l0.72,2.395c0.031,0.104,0.229,0.223,0.32,0.27c0.093,0.043,0.333,0.088,0.437,0.058l3.817-1.149
	c0.106-0.031,0.276-0.199,0.327-0.285c0.054-0.09,0.146-0.298,0.115-0.399l-0.791-2.628l-0.197,0.06c0,0,0.043-0.438,0.275-0.604
	c0.407-0.289,0.787-0.524,1.149-0.858c0.198-0.194,0.509-0.224,0.769-0.078l2.172,1.173l0.041,0.028
	c0.095,0.051,0.213,0.067,0.314,0.036c0.096-0.028,0.18-0.1,0.237-0.197l1.882-3.512c0.059-0.098,0.064-0.212,0.034-0.313
	c-0.026-0.09-0.097-0.188-0.197-0.229l-2.173-1.185c-0.254-0.119-0.411-0.404-0.348-0.697c0.064-0.476,0.147-0.838,0.172-1.321
	c-0.014-0.285,0.209-0.446,0.496-0.532l2.313-0.695l0.041-0.135c0.104-0.031,0.165-0.142,0.207-0.215l0.07-0.074
	c0.045-0.093,0.115-0.247,0.086-0.347l-1.131-3.758l-0.012-0.04l-0.008-0.022C23.812,6.9,23.649,6.729,23.563,6.679z M13.729,16.584
	c-2.255,0.68-4.633-0.602-5.312-2.854c-0.679-2.256,0.6-4.633,2.854-5.311c2.254-0.679,4.633,0.599,5.313,2.854
	C17.263,13.527,15.983,15.906,13.729,16.584z"/>
</svg>
