<?xml version="1.0" encoding="utf-8"?>
<!-- Generator: Adobe Illustrator 15.0.0, SVG Export Plug-In . SVG Version: 6.00 Build 0)  -->
<!DOCTYPE svg PUBLIC "-//W3C//DTD SVG 1.1//EN" "http://www.w3.org/Graphics/SVG/1.1/DTD/svg11.dtd">
<svg version="1.1" id="Layer_1" xmlns="http://www.w3.org/2000/svg" xmlns:xlink="http://www.w3.org/1999/xlink" x="0px" y="0px"
	 width="153px" height="153px" viewBox="0 0 153 153" enable-background="new 0 0 153 153" xml:space="preserve">
<g>
	<g>
		<polygon fill="#FFFFFF" points="52.367,39 52.367,113.341 37.129,113.341 37.129,39 		"/>
		<path fill="#FFFFFF" d="M77.713,102.471c1.117,0.286,3.007,0.286,4.556,0.286c11.944,0.095,19.765-7.091,19.765-22.308
			c0-13.229-7.048-20.223-18.392-20.223c-2.835,0-4.812,0.281-5.929,0.564V102.471L77.713,102.471z M64.652,50.585
			c4.813-0.851,11.087-1.418,17.616-1.418c11.084,0,18.306,2.27,23.806,6.806c6.012,4.912,9.797,12.758,9.797,24.005
			c0,12.191-4.039,20.604-9.541,25.799C100.226,111.354,90.859,114,79.519,114c-6.788,0-11.686-0.473-14.866-0.943V50.585
			L64.652,50.585z"/>
	</g>
</g>
</svg>
