<?xml version="1.0" encoding="utf-8"?>
<!-- Generator: Adobe Illustrator 15.0.0, SVG Export Plug-In . SVG Version: 6.00 Build 0)  -->
<!DOCTYPE svg PUBLIC "-//W3C//DTD SVG 1.1//EN" "http://www.w3.org/Graphics/SVG/1.1/DTD/svg11.dtd">
<svg version="1.1" id="Layer_1" xmlns="http://www.w3.org/2000/svg" xmlns:xlink="http://www.w3.org/1999/xlink" x="0px" y="0px"
	 width="153px" height="180px" viewBox="0 0 153 180" enable-background="new 0 0 153 180" xml:space="preserve">
<g>
	<path fill="none" stroke="#FFFFFF" stroke-width="3" stroke-miterlimit="10" d="M151.5,1.5v125.814
		c0,13.81-12.163,24.186-25.971,24.186H1.5V27.315C1.5,13.509,11.723,1.5,25.53,1.5H151.5z"/>
	<g>
		<g>
			<path fill="#FFFFFF" d="M44.619,21.5h4.971v4.911h4.547V21.5h4.972v14.872h-4.972v-4.979H49.59v4.979h-4.971V21.5z"/>
			<path fill="#FFFFFF" d="M65.645,26.432h-4.377V21.5h13.725v4.932h-4.378v9.94h-4.97V26.432L65.645,26.432z"/>
			<path fill="#FFFFFF" d="M77.172,21.5h5.184l3.188,5.226l3.186-5.226h5.185v14.872h-4.95V29l-3.419,5.288h-0.086L82.034,29v7.371
				h-4.862V21.5z"/>
			<path fill="#FFFFFF" d="M96.387,21.5h4.973v9.957h6.99v4.914H96.387V21.5z"/>
		</g>
		<path fill="#FFFFFF" d="M63.586,78.992H76.5V68.976H62.691L63.586,78.992z M37.455,42.893l7.11,79.748L76.48,131.5l31.944-8.855
			l7.12-79.751H37.455z M102.33,117.566l-25.83,7.162v-10.15l-0.016,0.004l-20.035-5.561l-1.402-15.705h9.819l0.728,8.146
			l10.893,2.941l0.014-0.004V88.773H54.642l-2.638-29.58H76.5v-9.78h31.915L102.33,117.566z"/>
		<path opacity="0.8" fill="#FFFFFF" enable-background="new    " d="M88.539,88.773H76.5v15.629l10.904-2.943L88.539,88.773z
			 M76.5,49.414v9.78h24.496l-0.876,9.781H76.5v10.017h22.73l-2.685,30.029L76.5,114.578v10.15l25.83-7.162l6.085-68.153
			L76.5,49.414L76.5,49.414z"/>
		<g opacity="0.2">
			<polygon fill="#FFFFFF" points="76.5,59.194 52.002,59.194 54.641,88.773 76.5,88.773 76.5,78.992 63.586,78.992 62.691,68.976 
				76.5,68.976 			"/>
			<polygon fill="#FFFFFF" points="76.5,104.4 76.486,104.404 65.594,101.464 64.866,93.316 55.047,93.316 56.447,109.021 
				76.484,114.582 76.5,114.578 			"/>
		</g>
	</g>
</g>
</svg>
