<?xml version="1.0" encoding="utf-8"?>
<!-- Generator: Adobe Illustrator 15.0.0, SVG Export Plug-In . SVG Version: 6.00 Build 0)  -->
<!DOCTYPE svg PUBLIC "-//W3C//DTD SVG 1.1//EN" "http://www.w3.org/Graphics/SVG/1.1/DTD/svg11.dtd">
<svg version="1.1" id="Layer_1" xmlns="http://www.w3.org/2000/svg" xmlns:xlink="http://www.w3.org/1999/xlink" x="0px" y="0px"
	 width="153px" height="180px" viewBox="0 0 153 180" enable-background="new 0 0 153 180" xml:space="preserve">
<g>
	<g>
		<path fill="#FFFFFF" d="M79.052,106.753c-1.454-1.069-1.606-2.673-1.606-2.673L76.9,99.203H59.537l-0.547,4.877
			c0,0-0.15,1.604-1.604,2.673c-1.451,1.067-2.598,1.985-1.451,2.14c1.104,0.148,11.516,0.015,12.284,0
			c0.77,0.015,11.18,0.148,12.284,0C81.648,108.738,80.502,107.823,79.052,106.753z"/>
		<path fill="#FFFFFF" d="M38.664,77.531c0-1.611-1.306-2.918-2.916-2.918H21.894c-1.61,0-2.918,1.307-2.918,2.918v30.625
			c0,1.611,1.308,2.918,2.918,2.918h13.855c1.609,0,2.917-1.307,2.917-2.918V77.531H38.664z M27.373,77.896h2.918
			c0.201,0,0.363,0.162,0.363,0.361c0,0.202-0.162,0.366-0.363,0.366h-2.918c-0.201,0-0.365-0.165-0.365-0.366
			C27.009,78.057,27.172,77.896,27.373,77.896z M28.711,109.35c-0.807,0-1.46-0.652-1.46-1.459c0-0.806,0.653-1.459,1.46-1.459
			c0.805,0,1.458,0.65,1.458,1.459C30.169,108.695,29.517,109.35,28.711,109.35z M36.843,105.24H20.799V80.813h16.045L36.843,105.24
			L36.843,105.24z"/>
		<path fill="#FFFFFF" d="M129.885,57.837H99.879c-2.26,0-4.09,1.83-4.09,4.091v42.944c0,2.26,1.83,4.093,4.09,4.093h30.006
			c2.26,0,4.092-1.833,4.092-4.093V61.927C133.975,59.666,132.145,57.837,129.885,57.837z M109.007,106.688
			c-1.13,0-2.047-0.914-2.047-2.043s0.917-2.045,2.047-2.045c1.128,0,2.043,0.916,2.043,2.045S110.135,106.688,109.007,106.688z
			 M114.881,106.688c-1.128,0-2.044-0.914-2.044-2.043s0.916-2.045,2.044-2.045c1.131,0,2.045,0.916,2.045,2.045
			S116.014,106.688,114.881,106.688z M120.762,106.688c-1.133,0-2.047-0.914-2.047-2.043s0.914-2.045,2.047-2.045
			c1.127,0,2.041,0.916,2.041,2.045S121.889,106.688,120.762,106.688z M131.418,100.779H98.346V61.414h33.072V100.779
			L131.418,100.779z"/>
		<path fill="#FFFFFF" d="M105.1,55.781h5.029V45.279c0-1.854-1.502-3.354-3.354-3.354H29.662c-1.852,0-3.354,1.5-3.354,3.354V72.56
			h5.031V46.955H105.1V55.781L105.1,55.781z"/>
		<path fill="#FFFFFF" d="M40.719,87.188v10.058h53.016V87.188H40.719z M68.218,94.516c-1.269,0-2.3-1.031-2.3-2.3
			s1.031-2.3,2.3-2.3c1.271,0,2.3,1.031,2.3,2.3S69.488,94.516,68.218,94.516z"/>
	</g>
	<path fill="none" stroke="#FFFFFF" stroke-width="3" stroke-miterlimit="10" d="M151.5,1.5v125.432
		c0,13.81-12.051,24.568-25.857,24.568H1.5V26.932C1.5,13.125,11.835,1.5,25.643,1.5H151.5z"/>
</g>
</svg>
