<?xml version="1.0" encoding="utf-8"?>
<!-- Generator: Adobe Illustrator 15.0.0, SVG Export Plug-In . SVG Version: 6.00 Build 0)  -->
<!DOCTYPE svg PUBLIC "-//W3C//DTD SVG 1.1//EN" "http://www.w3.org/Graphics/SVG/1.1/DTD/svg11.dtd">
<svg version="1.1" id="Layer_1" xmlns="http://www.w3.org/2000/svg" xmlns:xlink="http://www.w3.org/1999/xlink" x="0px" y="0px"
	 width="153px" height="180px" viewBox="0 0 153 180" enable-background="new 0 0 153 180" xml:space="preserve">
<g>
	<path fill="#FFFFFF" d="M52.288,51.892c-2.976,0-5.059,0.218-6.151,0.546v21.728h-0.001c1.292,0.33,2.781,0.438,5.062,0.438
		c8.037,0,13.001-4.478,13.001-11.903C64.199,55.934,59.93,51.892,52.288,51.892z"/>
	<path fill="#FFFFFF" d="M26.057,1.5C12.249,1.5,1.5,13.145,1.5,26.951V151.5h124.557c13.807,0,25.443-10.741,25.443-24.549V1.5
		H26.057z M73.029,79.627c-5.16,5.241-12.805,7.753-21.731,7.753c-1.987,0-3.775-0.108-5.163-0.438v26.429H31.15V40.755
		c4.664-0.874,11.213-1.529,20.443-1.529c9.331,0,15.978,1.967,20.442,5.896c4.368,3.714,7.146,9.828,7.146,17.034
		C79.182,69.361,77.096,75.587,73.029,79.627z M100.271,114.227c-6.004,0-11.935-1.804-14.896-3.604l2.42-10.727
		c3.119,1.806,8.109,3.604,13.178,3.604c5.461,0,8.344-2.485,8.344-6.261c0-3.604-2.494-5.656-8.813-8.064
		c-8.729-3.429-14.505-8.744-14.505-17.152c0-9.863,7.564-17.328,19.889-17.328c6.006,0,10.293,1.289,13.41,2.917l-2.648,10.465
		c-2.027-1.113-5.85-2.744-10.916-2.744c-5.147,0-7.646,2.658-7.646,5.575c0,3.688,2.886,5.317,9.749,8.151
		c9.279,3.771,13.568,9.09,13.568,17.238C121.406,105.992,114.7,114.227,100.271,114.227z"/>
</g>
<g>
	<path fill="#FFFFFF" d="M18.309,174l-1.422-3.633h-4.578L10.902,174H9.559l4.516-11.469h1.117L19.684,174H18.309z M16.473,169.172
		l-1.328-3.539c-0.172-0.448-0.349-0.997-0.531-1.648c-0.115,0.5-0.279,1.05-0.492,1.648l-1.344,3.539H16.473z"/>
	<path fill="#FFFFFF" d="M26.887,172.852h-0.07c-0.599,0.87-1.495,1.305-2.688,1.305c-1.12,0-1.991-0.383-2.613-1.148
		c-0.623-0.766-0.934-1.854-0.934-3.266s0.313-2.508,0.938-3.289s1.495-1.172,2.609-1.172c1.161,0,2.052,0.422,2.672,1.266h0.102
		l-0.055-0.617l-0.031-0.602v-3.484h1.297V174h-1.055L26.887,172.852z M24.293,173.07c0.885,0,1.527-0.241,1.926-0.723
		s0.598-1.259,0.598-2.332v-0.273c0-1.214-0.202-2.079-0.605-2.598c-0.404-0.519-1.048-0.777-1.934-0.777
		c-0.761,0-1.343,0.296-1.746,0.887c-0.404,0.591-0.605,1.426-0.605,2.504c0,1.094,0.2,1.919,0.602,2.477
		C22.928,172.792,23.517,173.07,24.293,173.07z"/>
	<path fill="#FFFFFF" d="M38.254,169.711c0,1.396-0.352,2.485-1.055,3.27s-1.675,1.176-2.914,1.176c-0.766,0-1.445-0.18-2.039-0.539
		s-1.052-0.875-1.375-1.547c-0.323-0.672-0.484-1.458-0.484-2.359c0-1.396,0.349-2.483,1.047-3.262
		c0.698-0.778,1.667-1.168,2.906-1.168c1.198,0,2.149,0.398,2.855,1.195C37.901,167.273,38.254,168.352,38.254,169.711z
		 M31.73,169.711c0,1.094,0.219,1.927,0.656,2.5s1.081,0.859,1.93,0.859c0.849,0,1.493-0.285,1.934-0.855
		c0.44-0.57,0.66-1.405,0.66-2.504c0-1.089-0.22-1.915-0.66-2.48c-0.44-0.565-1.09-0.848-1.949-0.848
		c-0.849,0-1.49,0.278-1.922,0.836C31.946,167.776,31.73,168.606,31.73,169.711z"/>
	<path fill="#FFFFFF" d="M44.512,165.297c1.125,0,1.999,0.384,2.621,1.152c0.622,0.769,0.934,1.855,0.934,3.262
		s-0.314,2.499-0.941,3.277c-0.628,0.778-1.499,1.168-2.613,1.168c-0.558,0-1.066-0.103-1.527-0.309s-0.848-0.522-1.16-0.949H41.73
		L41.457,174h-0.93v-12.156h1.297v2.953c0,0.661-0.021,1.255-0.063,1.781h0.063C42.428,165.724,43.324,165.297,44.512,165.297z
		 M44.324,166.383c-0.886,0-1.523,0.254-1.914,0.762s-0.586,1.363-0.586,2.566s0.2,2.063,0.602,2.582
		c0.401,0.519,1.044,0.777,1.93,0.777c0.797,0,1.391-0.29,1.781-0.871s0.586-1.415,0.586-2.504c0-1.114-0.195-1.945-0.586-2.492
		S45.142,166.383,44.324,166.383z"/>
	<path fill="#FFFFFF" d="M53.949,174.156c-1.266,0-2.265-0.386-2.996-1.156c-0.732-0.771-1.098-1.841-1.098-3.211
		c0-1.38,0.34-2.477,1.02-3.289s1.592-1.219,2.738-1.219c1.073,0,1.922,0.353,2.547,1.059s0.938,1.637,0.938,2.793v0.82h-5.898
		c0.026,1.005,0.28,1.769,0.762,2.289c0.481,0.521,1.16,0.781,2.035,0.781c0.922,0,1.833-0.192,2.734-0.578v1.156
		c-0.458,0.198-0.892,0.34-1.301,0.426C55.021,174.113,54.527,174.156,53.949,174.156z M53.598,166.367
		c-0.688,0-1.236,0.224-1.645,0.672c-0.409,0.448-0.65,1.067-0.723,1.859h4.477c0-0.817-0.183-1.444-0.547-1.879
		C54.795,166.585,54.274,166.367,53.598,166.367z"/>
	<path fill="#FFFFFF" d="M70.902,165.906c0,1.156-0.395,2.046-1.184,2.668s-1.918,0.934-3.387,0.934h-1.344V174H63.66v-11.422h2.961
		C69.475,162.578,70.902,163.688,70.902,165.906z M64.988,168.367h1.195c1.177,0,2.028-0.19,2.555-0.57
		c0.526-0.38,0.789-0.989,0.789-1.828c0-0.755-0.248-1.317-0.742-1.688c-0.495-0.37-1.266-0.555-2.313-0.555h-1.484V168.367z"/>
	<path fill="#FFFFFF" d="M78.957,174v-5.539c0-0.698-0.159-1.219-0.477-1.563s-0.815-0.516-1.492-0.516
		c-0.901,0-1.559,0.245-1.973,0.734s-0.621,1.292-0.621,2.406V174h-1.297v-12.156h1.297v3.68c0,0.442-0.021,0.81-0.063,1.102h0.078
		c0.255-0.411,0.618-0.735,1.09-0.973s1.009-0.355,1.613-0.355c1.047,0,1.832,0.249,2.355,0.746s0.785,1.288,0.785,2.371V174H78.957
		z"/>
	<path fill="#FFFFFF" d="M90.309,169.711c0,1.396-0.352,2.485-1.055,3.27s-1.675,1.176-2.914,1.176c-0.766,0-1.445-0.18-2.039-0.539
		s-1.052-0.875-1.375-1.547s-0.484-1.458-0.484-2.359c0-1.396,0.349-2.483,1.047-3.262s1.667-1.168,2.906-1.168
		c1.198,0,2.149,0.398,2.855,1.195S90.309,168.352,90.309,169.711z M83.785,169.711c0,1.094,0.219,1.927,0.656,2.5
		s1.081,0.859,1.93,0.859s1.493-0.285,1.934-0.855s0.66-1.405,0.66-2.504c0-1.089-0.22-1.915-0.66-2.48s-1.09-0.848-1.949-0.848
		c-0.849,0-1.489,0.278-1.922,0.836S83.785,168.606,83.785,169.711z"/>
	<path fill="#FFFFFF" d="M95.348,173.086c0.229,0,0.45-0.017,0.664-0.051s0.383-0.069,0.508-0.105v0.992
		c-0.141,0.067-0.348,0.124-0.621,0.168s-0.52,0.066-0.738,0.066c-1.656,0-2.484-0.872-2.484-2.617v-5.094h-1.227v-0.625
		l1.227-0.539l0.547-1.828h0.75v1.984h2.484v1.008h-2.484v5.039c0,0.516,0.122,0.911,0.367,1.188S94.921,173.086,95.348,173.086z"/>
	<path fill="#FFFFFF" d="M105.621,169.711c0,1.396-0.352,2.485-1.055,3.27s-1.675,1.176-2.914,1.176
		c-0.766,0-1.445-0.18-2.039-0.539s-1.052-0.875-1.375-1.547s-0.484-1.458-0.484-2.359c0-1.396,0.349-2.483,1.047-3.262
		s1.667-1.168,2.906-1.168c1.198,0,2.149,0.398,2.855,1.195S105.621,168.352,105.621,169.711z M99.098,169.711
		c0,1.094,0.219,1.927,0.656,2.5s1.081,0.859,1.93,0.859s1.493-0.285,1.934-0.855s0.66-1.405,0.66-2.504
		c0-1.089-0.22-1.915-0.66-2.48s-1.09-0.848-1.949-0.848c-0.849,0-1.489,0.278-1.922,0.836S99.098,168.606,99.098,169.711z"/>
	<path fill="#FFFFFF" d="M113.418,171.664c0,0.797-0.297,1.411-0.891,1.844s-1.427,0.648-2.5,0.648c-1.136,0-2.021-0.18-2.656-0.539
		v-1.203c0.411,0.208,0.853,0.372,1.324,0.492s0.926,0.18,1.363,0.18c0.677,0,1.198-0.108,1.563-0.324s0.547-0.546,0.547-0.988
		c0-0.333-0.145-0.618-0.434-0.855s-0.853-0.517-1.691-0.84c-0.797-0.297-1.363-0.556-1.699-0.777s-0.586-0.473-0.75-0.754
		s-0.246-0.617-0.246-1.008c0-0.698,0.284-1.249,0.852-1.652s1.347-0.605,2.336-0.605c0.922,0,1.823,0.188,2.703,0.563l-0.461,1.055
		c-0.859-0.354-1.638-0.531-2.336-0.531c-0.614,0-1.078,0.097-1.391,0.289s-0.469,0.458-0.469,0.797
		c0,0.229,0.059,0.425,0.176,0.586s0.306,0.315,0.566,0.461s0.761,0.356,1.5,0.633c1.016,0.37,1.702,0.742,2.059,1.117
		S113.418,171.097,113.418,171.664z"/>
	<path fill="#FFFFFF" d="M121.387,174v-5.539c0-0.698-0.159-1.219-0.477-1.563s-0.815-0.516-1.492-0.516
		c-0.901,0-1.559,0.245-1.973,0.734s-0.621,1.292-0.621,2.406V174h-1.297v-12.156h1.297v3.68c0,0.442-0.021,0.81-0.063,1.102h0.078
		c0.255-0.411,0.618-0.735,1.09-0.973s1.009-0.355,1.613-0.355c1.047,0,1.832,0.249,2.355,0.746s0.785,1.288,0.785,2.371V174
		H121.387z"/>
	<path fill="#FFFFFF" d="M132.738,169.711c0,1.396-0.352,2.485-1.055,3.27s-1.675,1.176-2.914,1.176
		c-0.766,0-1.445-0.18-2.039-0.539s-1.052-0.875-1.375-1.547s-0.484-1.458-0.484-2.359c0-1.396,0.349-2.483,1.047-3.262
		s1.667-1.168,2.906-1.168c1.198,0,2.149,0.398,2.855,1.195S132.738,168.352,132.738,169.711z M126.215,169.711
		c0,1.094,0.219,1.927,0.656,2.5s1.081,0.859,1.93,0.859s1.493-0.285,1.934-0.855s0.66-1.405,0.66-2.504
		c0-1.089-0.22-1.915-0.66-2.48s-1.09-0.848-1.949-0.848c-0.849,0-1.489,0.278-1.922,0.836S126.215,168.606,126.215,169.711z"/>
	<path fill="#FFFFFF" d="M138.996,174.156c-0.558,0-1.066-0.103-1.527-0.309s-0.848-0.522-1.16-0.949h-0.094
		c0.063,0.5,0.094,0.974,0.094,1.422v3.523h-1.297v-12.406h1.055l0.18,1.172h0.063c0.333-0.469,0.722-0.808,1.164-1.016
		s0.95-0.313,1.523-0.313c1.136,0,2.012,0.388,2.629,1.164s0.926,1.864,0.926,3.266c0,1.406-0.313,2.499-0.941,3.277
		S140.11,174.156,138.996,174.156z M138.809,166.383c-0.875,0-1.508,0.242-1.898,0.727s-0.591,1.255-0.602,2.313v0.289
		c0,1.203,0.2,2.063,0.602,2.582s1.044,0.777,1.93,0.777c0.739,0,1.319-0.3,1.738-0.898s0.629-1.425,0.629-2.477
		c0-1.067-0.21-1.887-0.629-2.457S139.569,166.383,138.809,166.383z"/>
</g>
</svg>
