<?xml version="1.0" encoding="utf-8"?>
<!-- Generator: Adobe Illustrator 15.0.0, SVG Export Plug-In . SVG Version: 6.00 Build 0)  -->
<!DOCTYPE svg PUBLIC "-//W3C//DTD SVG 1.1//EN" "http://www.w3.org/Graphics/SVG/1.1/DTD/svg11.dtd">
<svg version="1.1" id="Layer_1" xmlns="http://www.w3.org/2000/svg" xmlns:xlink="http://www.w3.org/1999/xlink" x="0px" y="0px"
	 width="153px" height="180px" viewBox="0 0 153 180" enable-background="new 0 0 153 180" xml:space="preserve">
<path fill="#FFFFFF" d="M25.53,1.5C11.723,1.5,1.5,13.509,1.5,27.315V151.5h124.029c13.808,0,25.971-10.376,25.971-24.186V1.5H25.53
	z M96.387,21.5h4.973v9.957h6.99v4.914H96.387V21.5z M77.172,21.5h5.184l3.188,5.226L88.73,21.5h5.185v14.872h-4.95V29l-3.419,5.288
	H85.46L82.034,29v7.371h-4.862V21.5z M61.268,21.5h13.725v4.932h-4.378v9.94h-4.97v-9.94h-4.377V21.5z M44.619,21.5h4.971v4.911
	h4.547V21.5h4.972v14.872h-4.972v-4.979H49.59v4.979h-4.971V21.5z M108.424,122.645L76.48,131.5l-31.915-8.859l-7.11-79.748h78.089
	L108.424,122.645z"/>
<g>
	<polygon fill="#FFFFFF" points="96.546,109.021 99.23,78.992 76.5,78.992 63.586,78.992 62.691,68.976 76.5,68.976 76.5,68.975 
		100.12,68.975 100.996,59.194 76.5,59.194 52.004,59.194 54.642,88.773 76.5,88.773 76.501,88.773 88.539,88.773 87.404,101.459 
		76.5,104.402 76.5,104.4 76.487,104.404 65.594,101.463 64.866,93.316 55.047,93.316 56.449,109.021 76.484,114.582 76.5,114.578 	
		"/>
</g>
<g>
	<path fill="#FFFFFF" d="M60.465,174h-1.328v-5.375h-6.016V174h-1.328v-11.422h1.328v4.859h6.016v-4.859h1.328V174z"/>
	<path fill="#FFFFFF" d="M67.113,174h-1.328v-10.242h-3.617v-1.18h8.563v1.18h-3.617V174z"/>
	<path fill="#FFFFFF" d="M77.504,174l-3.875-10.125h-0.063c0.073,0.802,0.109,1.755,0.109,2.859V174h-1.227v-11.422h2L78.066,172
		h0.063l3.648-9.422h1.984V174h-1.328v-7.359c0-0.844,0.036-1.761,0.109-2.75H82.48L78.574,174H77.504z"/>
	<path fill="#FFFFFF" d="M86.895,174v-11.422h1.328v10.219h5.039V174H86.895z"/>
	<path fill="#FFFFFF" d="M97.98,167.023c1.203,0,2.149,0.298,2.84,0.895s1.035,1.413,1.035,2.449c0,1.183-0.376,2.109-1.129,2.781
		s-1.79,1.008-3.113,1.008c-1.286,0-2.269-0.206-2.945-0.617v-1.25c0.364,0.234,0.817,0.418,1.359,0.551s1.075,0.199,1.602,0.199
		c0.917,0,1.629-0.216,2.137-0.648s0.762-1.058,0.762-1.875c0-1.594-0.977-2.391-2.93-2.391c-0.495,0-1.156,0.075-1.984,0.227
		l-0.672-0.43l0.43-5.344h5.68v1.195h-4.57l-0.289,3.43C96.79,167.083,97.387,167.023,97.98,167.023z"/>
</g>
</svg>
