<?xml version="1.0" encoding="utf-8"?>
<!-- Generator: Adobe Illustrator 15.0.0, SVG Export Plug-In . SVG Version: 6.00 Build 0)  -->
<!DOCTYPE svg PUBLIC "-//W3C//DTD SVG 1.1//EN" "http://www.w3.org/Graphics/SVG/1.1/DTD/svg11.dtd">
<svg version="1.1" id="Layer_1" xmlns="http://www.w3.org/2000/svg" xmlns:xlink="http://www.w3.org/1999/xlink" x="0px" y="0px"
	 width="153px" height="180px" viewBox="0 0 153 180" enable-background="new 0 0 153 180" xml:space="preserve">
<g>
	<g>
		<path fill="#FFFFFF" d="M124.613,71.992L80.952,28.333c-2.513-2.515-6.591-2.515-9.106,0L62.779,37.4l11.5,11.5
			c2.674-0.902,5.739-0.297,7.87,1.834c2.141,2.144,2.742,5.234,1.815,7.916l11.084,11.084c2.683-0.924,5.776-0.326,7.918,1.818
			c2.994,2.993,2.994,7.843,0,10.837c-2.993,2.995-7.844,2.995-10.839,0c-2.253-2.253-2.809-5.56-1.669-8.333L80.123,63.719
			l-0.002,27.203c0.73,0.359,1.418,0.842,2.027,1.448c2.992,2.991,2.992,7.841,0,10.839c-2.994,2.992-7.847,2.992-10.836,0
			c-2.993-2.998-2.993-7.848,0-10.839c0.74-0.739,1.595-1.298,2.508-1.671V63.242c-0.913-0.373-1.768-0.928-2.508-1.672
			c-2.268-2.266-2.813-5.593-1.652-8.377L58.324,41.854L28.387,71.79c-2.516,2.517-2.516,6.595,0,9.11l43.661,43.658
			c2.514,2.516,6.593,2.516,9.108,0l43.457-43.457C127.129,78.586,127.129,74.507,124.613,71.992z"/>
	</g>
	<path fill="none" stroke="#FFFFFF" stroke-width="3" stroke-miterlimit="10" d="M151.5,1.5v125.378
		c0,13.81-12.002,24.622-25.809,24.622H1.5V26.878C1.5,13.071,11.884,1.5,25.691,1.5H151.5z"/>
</g>
</svg>
