<?xml version="1.0" encoding="utf-8"?>
<!-- Generator: Adobe Illustrator 15.0.0, SVG Export Plug-In . SVG Version: 6.00 Build 0)  -->
<!DOCTYPE svg PUBLIC "-//W3C//DTD SVG 1.1//EN" "http://www.w3.org/Graphics/SVG/1.1/DTD/svg11.dtd">
<svg version="1.1" id="Layer_1" xmlns="http://www.w3.org/2000/svg" xmlns:xlink="http://www.w3.org/1999/xlink" x="0px" y="0px"
	 width="153px" height="180px" viewBox="0 0 153 180" enable-background="new 0 0 153 180" xml:space="preserve">
<g>
	<circle fill="#FFFFFF" cx="68.218" cy="92.216" r="2.3"/>
	<rect x="20.799" y="80.813" fill="#FFFFFF" width="16.044" height="24.429"/>
	<path fill="#FFFFFF" d="M28.711,106.432c-0.807,0-1.46,0.653-1.46,1.459c0,0.808,0.653,1.459,1.46,1.459
		c0.806,0,1.458-0.654,1.458-1.459C30.169,107.082,29.516,106.432,28.711,106.432z"/>
	<path fill="#FFFFFF" d="M27.373,78.624h2.918c0.201,0,0.363-0.164,0.363-0.366c0-0.199-0.162-0.361-0.363-0.361h-2.918
		c-0.201,0-0.364,0.16-0.365,0.361C27.008,78.459,27.172,78.624,27.373,78.624z"/>
	<circle fill="#FFFFFF" cx="109.007" cy="104.644" r="2.044"/>
	<path fill="#FFFFFF" d="M25.643,1.5C11.835,1.5,1.5,13.125,1.5,26.932V151.5h124.143c13.808,0,25.857-10.759,25.857-24.568V1.5
		H25.643z M26.308,45.279c0-1.854,1.502-3.354,3.354-3.354h77.113c1.852,0,3.354,1.5,3.354,3.354v10.502H105.1v-8.826H31.339V72.56
		h-5.031V45.279z M38.666,108.156c0,1.611-1.308,2.918-2.917,2.918H21.894c-1.61,0-2.918-1.307-2.918-2.918V77.531
		c0-1.611,1.308-2.918,2.918-2.918h13.854c1.61,0,2.916,1.307,2.916,2.918h0.002V108.156z M80.503,108.893
		c-1.104,0.148-11.514,0.016-12.284,0c-0.768,0.016-11.18,0.148-12.284,0c-1.147-0.153,0-1.072,1.451-2.14
		c1.454-1.069,1.604-2.673,1.604-2.673l0.547-4.877H76.9l0.545,4.877c0,0,0.152,1.604,1.605,2.673
		C80.502,107.823,81.648,108.738,80.503,108.893z M93.734,97.245H40.719V87.188h53.016V97.245L93.734,97.245z M133.977,104.872
		c0,2.26-1.832,4.093-4.092,4.093H99.879c-2.26,0-4.09-1.833-4.09-4.093V61.928c0-2.261,1.83-4.091,4.09-4.091h30.006
		c2.26,0,4.09,1.829,4.092,4.09V104.872L133.977,104.872z"/>
	<rect x="98.346" y="61.414" fill="#FFFFFF" width="33.072" height="39.365"/>
	<path fill="#FFFFFF" d="M120.762,102.6c-1.133,0-2.047,0.916-2.047,2.045s0.914,2.043,2.047,2.043c1.127,0,2.041-0.914,2.041-2.043
		S121.889,102.6,120.762,102.6z"/>
	<path fill="#FFFFFF" d="M114.881,102.6c-1.128,0-2.044,0.916-2.044,2.045s0.916,2.043,2.044,2.043c1.133,0,2.045-0.914,2.045-2.043
		S116.012,102.6,114.881,102.6z"/>
</g>
<g>
	<path fill="#FFFFFF" d="M9.637,169.25V174H8.309v-11.422h3.133c1.401,0,2.436,0.269,3.105,0.805
		c0.669,0.536,1.004,1.344,1.004,2.422c0,1.511-0.766,2.531-2.297,3.063L16.355,174h-1.57l-2.766-4.75H9.637z M9.637,168.109h1.82
		c0.938,0,1.625-0.187,2.063-0.559s0.656-0.931,0.656-1.676c0-0.755-0.223-1.3-0.668-1.633s-1.16-0.5-2.145-0.5H9.637V168.109z"/>
	<path fill="#FFFFFF" d="M21.621,174.156c-1.266,0-2.265-0.386-2.996-1.156c-0.732-0.771-1.098-1.841-1.098-3.211
		c0-1.38,0.34-2.477,1.02-3.289s1.592-1.219,2.738-1.219c1.073,0,1.922,0.353,2.547,1.059s0.938,1.637,0.938,2.793v0.82h-5.898
		c0.026,1.005,0.28,1.769,0.762,2.289c0.481,0.521,1.16,0.781,2.035,0.781c0.922,0,1.833-0.192,2.734-0.578v1.156
		c-0.458,0.198-0.892,0.34-1.301,0.426C22.692,174.113,22.199,174.156,21.621,174.156z M21.27,166.367
		c-0.688,0-1.236,0.224-1.645,0.672c-0.409,0.448-0.65,1.067-0.723,1.859h4.477c0-0.817-0.183-1.444-0.547-1.879
		C22.467,166.585,21.946,166.367,21.27,166.367z"/>
	<path fill="#FFFFFF" d="M32.504,171.664c0,0.797-0.297,1.411-0.891,1.844s-1.427,0.648-2.5,0.648c-1.136,0-2.021-0.18-2.656-0.539
		v-1.203c0.411,0.208,0.853,0.372,1.324,0.492c0.471,0.12,0.926,0.18,1.363,0.18c0.677,0,1.198-0.108,1.563-0.324
		c0.364-0.216,0.547-0.546,0.547-0.988c0-0.333-0.145-0.618-0.434-0.855s-0.853-0.517-1.691-0.84
		c-0.797-0.297-1.363-0.556-1.699-0.777s-0.586-0.473-0.75-0.754s-0.246-0.617-0.246-1.008c0-0.698,0.284-1.249,0.852-1.652
		c0.567-0.403,1.346-0.605,2.336-0.605c0.922,0,1.823,0.188,2.703,0.563l-0.461,1.055c-0.859-0.354-1.638-0.531-2.336-0.531
		c-0.615,0-1.078,0.097-1.391,0.289s-0.469,0.458-0.469,0.797c0,0.229,0.059,0.425,0.176,0.586s0.306,0.315,0.566,0.461
		c0.26,0.146,0.76,0.356,1.5,0.633c1.016,0.37,1.702,0.742,2.059,1.117C32.325,170.625,32.504,171.097,32.504,171.664z"/>
	<path fill="#FFFFFF" d="M38.598,174.156c-0.558,0-1.066-0.103-1.527-0.309s-0.848-0.522-1.16-0.949h-0.094
		c0.063,0.5,0.094,0.974,0.094,1.422v3.523h-1.297v-12.406h1.055l0.18,1.172h0.063c0.333-0.469,0.721-0.808,1.164-1.016
		c0.442-0.208,0.95-0.313,1.523-0.313c1.135,0,2.012,0.388,2.629,1.164s0.926,1.864,0.926,3.266c0,1.406-0.314,2.499-0.941,3.277
		C40.583,173.767,39.712,174.156,38.598,174.156z M38.41,166.383c-0.875,0-1.508,0.242-1.898,0.727s-0.591,1.255-0.602,2.313v0.289
		c0,1.203,0.2,2.063,0.602,2.582c0.401,0.519,1.044,0.777,1.93,0.777c0.739,0,1.319-0.3,1.738-0.898
		c0.419-0.599,0.629-1.425,0.629-2.477c0-1.067-0.21-1.887-0.629-2.457C39.76,166.668,39.17,166.383,38.41,166.383z"/>
	<path fill="#FFFFFF" d="M51.809,169.711c0,1.396-0.352,2.485-1.055,3.27s-1.675,1.176-2.914,1.176c-0.766,0-1.445-0.18-2.039-0.539
		s-1.052-0.875-1.375-1.547c-0.323-0.672-0.484-1.458-0.484-2.359c0-1.396,0.349-2.483,1.047-3.262
		c0.698-0.778,1.667-1.168,2.906-1.168c1.198,0,2.149,0.398,2.855,1.195C51.456,167.273,51.809,168.352,51.809,169.711z
		 M45.285,169.711c0,1.094,0.219,1.927,0.656,2.5s1.081,0.859,1.93,0.859c0.849,0,1.493-0.285,1.934-0.855
		c0.44-0.57,0.66-1.405,0.66-2.504c0-1.089-0.22-1.915-0.66-2.48c-0.44-0.565-1.09-0.848-1.949-0.848
		c-0.849,0-1.49,0.278-1.922,0.836C45.501,167.776,45.285,168.606,45.285,169.711z"/>
	<path fill="#FFFFFF" d="M59.941,174v-5.539c0-0.698-0.159-1.219-0.477-1.563c-0.318-0.344-0.815-0.516-1.492-0.516
		c-0.896,0-1.552,0.242-1.969,0.727c-0.417,0.484-0.625,1.284-0.625,2.398V174h-1.297v-8.563h1.055l0.211,1.172h0.063
		c0.266-0.422,0.638-0.749,1.117-0.98c0.479-0.231,1.013-0.348,1.602-0.348c1.031,0,1.807,0.249,2.328,0.746
		c0.521,0.497,0.781,1.293,0.781,2.387V174H59.941z"/>
	<path fill="#FFFFFF" d="M69.426,171.664c0,0.797-0.297,1.411-0.891,1.844s-1.427,0.648-2.5,0.648c-1.136,0-2.021-0.18-2.656-0.539
		v-1.203c0.411,0.208,0.853,0.372,1.324,0.492c0.471,0.12,0.926,0.18,1.363,0.18c0.677,0,1.198-0.108,1.563-0.324
		c0.364-0.216,0.547-0.546,0.547-0.988c0-0.333-0.145-0.618-0.434-0.855s-0.853-0.517-1.691-0.84
		c-0.797-0.297-1.363-0.556-1.699-0.777s-0.586-0.473-0.75-0.754s-0.246-0.617-0.246-1.008c0-0.698,0.284-1.249,0.852-1.652
		c0.567-0.403,1.346-0.605,2.336-0.605c0.922,0,1.823,0.188,2.703,0.563l-0.461,1.055c-0.859-0.354-1.638-0.531-2.336-0.531
		c-0.615,0-1.078,0.097-1.391,0.289s-0.469,0.458-0.469,0.797c0,0.229,0.059,0.425,0.176,0.586s0.306,0.315,0.566,0.461
		c0.26,0.146,0.76,0.356,1.5,0.633c1.016,0.37,1.702,0.742,2.059,1.117C69.247,170.625,69.426,171.097,69.426,171.664z"/>
	<path fill="#FFFFFF" d="M71.426,163.117c0-0.297,0.073-0.515,0.219-0.652c0.146-0.138,0.328-0.207,0.547-0.207
		c0.208,0,0.388,0.07,0.539,0.211s0.227,0.356,0.227,0.648s-0.075,0.509-0.227,0.652s-0.331,0.215-0.539,0.215
		c-0.219,0-0.401-0.071-0.547-0.215C71.499,163.626,71.426,163.409,71.426,163.117z M72.832,174h-1.297v-8.563h1.297V174z"/>
	<path fill="#FFFFFF" d="M77.457,174l-3.25-8.563h1.391l1.844,5.078c0.417,1.188,0.661,1.958,0.734,2.313h0.063
		c0.058-0.276,0.238-0.848,0.543-1.715s0.988-2.759,2.051-5.676h1.391L78.973,174H77.457z"/>
	<path fill="#FFFFFF" d="M87.215,174.156c-1.266,0-2.265-0.386-2.996-1.156s-1.098-1.841-1.098-3.211c0-1.38,0.34-2.477,1.02-3.289
		s1.593-1.219,2.738-1.219c1.073,0,1.922,0.353,2.547,1.059s0.938,1.637,0.938,2.793v0.82h-5.898
		c0.026,1.005,0.28,1.769,0.762,2.289s1.16,0.781,2.035,0.781c0.922,0,1.833-0.192,2.734-0.578v1.156
		c-0.458,0.198-0.892,0.34-1.301,0.426S87.793,174.156,87.215,174.156z M86.863,166.367c-0.688,0-1.235,0.224-1.645,0.672
		s-0.649,1.067-0.723,1.859h4.477c0-0.817-0.183-1.444-0.547-1.879S87.54,166.367,86.863,166.367z"/>
	<path fill="#FFFFFF" d="M106.043,168.18c0,1.886-0.512,3.327-1.535,4.324S102.012,174,100.09,174h-3.164v-11.422h3.5
		c1.776,0,3.156,0.492,4.141,1.477S106.043,166.414,106.043,168.18z M104.637,168.227c0-1.489-0.374-2.612-1.121-3.367
		s-1.858-1.133-3.332-1.133h-1.93v9.125h1.617c1.583,0,2.773-0.39,3.57-1.168S104.637,169.753,104.637,168.227z"/>
	<path fill="#FFFFFF" d="M112.012,174.156c-1.266,0-2.265-0.386-2.996-1.156s-1.098-1.841-1.098-3.211c0-1.38,0.34-2.477,1.02-3.289
		s1.593-1.219,2.738-1.219c1.073,0,1.922,0.353,2.547,1.059s0.938,1.637,0.938,2.793v0.82h-5.898
		c0.026,1.005,0.28,1.769,0.762,2.289s1.16,0.781,2.035,0.781c0.922,0,1.833-0.192,2.734-0.578v1.156
		c-0.458,0.198-0.892,0.34-1.301,0.426S112.59,174.156,112.012,174.156z M111.66,166.367c-0.688,0-1.235,0.224-1.645,0.672
		s-0.649,1.067-0.723,1.859h4.477c0-0.817-0.183-1.444-0.547-1.879S112.337,166.367,111.66,166.367z"/>
	<path fill="#FFFFFF" d="M122.895,171.664c0,0.797-0.297,1.411-0.891,1.844s-1.427,0.648-2.5,0.648c-1.136,0-2.021-0.18-2.656-0.539
		v-1.203c0.411,0.208,0.853,0.372,1.324,0.492s0.926,0.18,1.363,0.18c0.677,0,1.198-0.108,1.563-0.324s0.547-0.546,0.547-0.988
		c0-0.333-0.145-0.618-0.434-0.855s-0.853-0.517-1.691-0.84c-0.797-0.297-1.363-0.556-1.699-0.777s-0.586-0.473-0.75-0.754
		s-0.246-0.617-0.246-1.008c0-0.698,0.284-1.249,0.852-1.652s1.347-0.605,2.336-0.605c0.922,0,1.823,0.188,2.703,0.563l-0.461,1.055
		c-0.859-0.354-1.638-0.531-2.336-0.531c-0.614,0-1.078,0.097-1.391,0.289s-0.469,0.458-0.469,0.797
		c0,0.229,0.059,0.425,0.176,0.586s0.306,0.315,0.566,0.461s0.761,0.356,1.5,0.633c1.016,0.37,1.702,0.742,2.059,1.117
		S122.895,171.097,122.895,171.664z"/>
	<path fill="#FFFFFF" d="M124.895,163.117c0-0.297,0.073-0.515,0.219-0.652s0.328-0.207,0.547-0.207c0.208,0,0.388,0.07,0.539,0.211
		s0.227,0.356,0.227,0.648s-0.075,0.509-0.227,0.652s-0.331,0.215-0.539,0.215c-0.219,0-0.401-0.071-0.547-0.215
		S124.895,163.409,124.895,163.117z M126.301,174h-1.297v-8.563h1.297V174z"/>
	<path fill="#FFFFFF" d="M136.059,165.438v0.82l-1.586,0.188c0.146,0.183,0.276,0.421,0.391,0.715s0.172,0.626,0.172,0.996
		c0,0.839-0.286,1.508-0.859,2.008s-1.359,0.75-2.359,0.75c-0.255,0-0.495-0.021-0.719-0.063c-0.552,0.292-0.828,0.659-0.828,1.102
		c0,0.234,0.097,0.407,0.289,0.52s0.523,0.168,0.992,0.168h1.516c0.927,0,1.64,0.195,2.137,0.586s0.746,0.958,0.746,1.703
		c0,0.948-0.38,1.671-1.141,2.168s-1.87,0.746-3.328,0.746c-1.12,0-1.983-0.208-2.59-0.625s-0.91-1.005-0.91-1.766
		c0-0.521,0.167-0.972,0.5-1.352s0.802-0.638,1.406-0.773c-0.219-0.099-0.402-0.253-0.551-0.461s-0.223-0.45-0.223-0.727
		c0-0.313,0.083-0.586,0.25-0.82s0.43-0.461,0.789-0.68c-0.442-0.183-0.804-0.492-1.082-0.93s-0.418-0.938-0.418-1.5
		c0-0.938,0.281-1.66,0.844-2.168s1.359-0.762,2.391-0.762c0.448,0,0.852,0.052,1.211,0.156H136.059z M129.23,175.438
		c0,0.464,0.195,0.815,0.586,1.055s0.95,0.359,1.68,0.359c1.089,0,1.895-0.163,2.418-0.488s0.785-0.767,0.785-1.324
		c0-0.464-0.144-0.785-0.43-0.965s-0.825-0.27-1.617-0.27h-1.555c-0.589,0-1.047,0.141-1.375,0.422S129.23,174.911,129.23,175.438z
		 M129.934,168.18c0,0.599,0.169,1.052,0.508,1.359s0.81,0.461,1.414,0.461c1.266,0,1.898-0.614,1.898-1.844
		c0-1.286-0.641-1.93-1.922-1.93c-0.609,0-1.078,0.164-1.406,0.492S129.934,167.534,129.934,168.18z"/>
	<path fill="#FFFFFF" d="M143.676,174v-5.539c0-0.698-0.159-1.219-0.477-1.563s-0.815-0.516-1.492-0.516
		c-0.896,0-1.552,0.242-1.969,0.727s-0.625,1.284-0.625,2.398V174h-1.297v-8.563h1.055l0.211,1.172h0.063
		c0.266-0.422,0.638-0.749,1.117-0.98s1.013-0.348,1.602-0.348c1.031,0,1.808,0.249,2.328,0.746s0.781,1.293,0.781,2.387V174
		H143.676z"/>
</g>
</svg>
