<?xml version="1.0" encoding="utf-8"?>
<!-- Generator: Adobe Illustrator 15.0.0, SVG Export Plug-In . SVG Version: 6.00 Build 0)  -->
<!DOCTYPE svg PUBLIC "-//W3C//DTD SVG 1.1//EN" "http://www.w3.org/Graphics/SVG/1.1/DTD/svg11.dtd">
<svg version="1.1" id="Layer_1" xmlns="http://www.w3.org/2000/svg" xmlns:xlink="http://www.w3.org/1999/xlink" x="0px" y="0px"
	 width="153px" height="180px" viewBox="0 0 153 180" enable-background="new 0 0 153 180" xml:space="preserve">
<g>
	<g>
		<path fill="#FFFFFF" d="M46.136,74.166c1.292,0.33,2.781,0.438,5.062,0.438c8.037,0,13.001-4.478,13.001-11.903
			c0-6.767-4.269-10.809-11.911-10.809c-2.976,0-5.059,0.218-6.151,0.546L46.136,74.166L46.136,74.166z M31.15,40.755
			c4.664-0.874,11.213-1.529,20.443-1.529c9.331,0,15.978,1.967,20.442,5.896c4.368,3.714,7.146,9.828,7.146,17.034
			c0,7.205-2.086,13.431-6.153,17.471c-5.16,5.241-12.805,7.753-21.731,7.753c-1.987,0-3.775-0.108-5.163-0.438v26.428H31.15V40.755
			L31.15,40.755z"/>
		<path fill="#FFFFFF" d="M87.796,99.896c3.119,1.805,8.11,3.604,13.177,3.604c5.461,0,8.344-2.485,8.344-6.261
			c0-3.604-2.494-5.656-8.813-8.064c-8.73-3.429-14.505-8.744-14.505-17.152c0-9.863,7.565-17.328,19.888-17.328
			c6.006,0,10.293,1.289,13.411,2.917l-2.649,10.465c-2.027-1.113-5.849-2.744-10.916-2.744c-5.147,0-7.645,2.658-7.645,5.575
			c0,3.688,2.885,5.317,9.749,8.151c9.279,3.771,13.569,9.09,13.569,17.239c0,9.692-6.706,17.927-21.135,17.927
			c-6.004,0-11.934-1.804-14.896-3.604L87.796,99.896L87.796,99.896z"/>
	</g>
	<path fill="none" stroke="#FFFFFF" stroke-width="3" stroke-miterlimit="10" d="M151.5,1.5v125.451
		c0,13.808-11.637,24.549-25.443,24.549H1.5V26.951C1.5,13.145,12.249,1.5,26.057,1.5H151.5z"/>
</g>
</svg>
