<?xml version="1.0" encoding="utf-8"?>
<!-- Generator: Adobe Illustrator 15.0.0, SVG Export Plug-In . SVG Version: 6.00 Build 0)  -->
<!DOCTYPE svg PUBLIC "-//W3C//DTD SVG 1.1//EN" "http://www.w3.org/Graphics/SVG/1.1/DTD/svg11.dtd">
<svg version="1.1" id="Layer_1" xmlns="http://www.w3.org/2000/svg" xmlns:xlink="http://www.w3.org/1999/xlink" x="0px" y="0px"
	 width="153px" height="180px" viewBox="0 0 153 180" enable-background="new 0 0 153 180" xml:space="preserve">
<g>
	<path fill="#FFFFFF" d="M64.668,53.569h-0.203c-0.963,4.276-1.941,9.735-3.012,13.911l-3.888,15.295h14.488L67.972,67.48
		C66.807,63.197,65.636,57.845,64.668,53.569z"/>
	<path fill="#FFFFFF" d="M25.691,1.5C11.884,1.5,1.5,13.125,1.5,26.932V151.5h124.191c13.807,0,25.809-10.759,25.809-24.568V1.5
		H25.691z M79.252,113.48l-5.055-18.51H55.429l-4.666,18.51H35.499l19.93-72.108h19.445l20.415,72.108H79.252z M117.662,113.48
		h-14.78V61.163h14.78V113.48z M110.172,54.747c-4.664,0-7.676-3.641-7.676-8.134c0-4.602,3.107-8.133,7.875-8.133
		c4.763,0,7.677,3.532,7.771,8.133C118.143,51.106,115.134,54.747,110.172,54.747z"/>
</g>
<g>
	<path fill="#FFFFFF" d="M22.52,174l-1.422-3.633H16.52L15.113,174H13.77l4.516-11.469h1.117L23.895,174H22.52z M20.684,169.172
		l-1.328-3.539c-0.172-0.448-0.349-0.997-0.531-1.648c-0.115,0.5-0.279,1.05-0.492,1.648l-1.344,3.539H20.684z"/>
	<path fill="#FFFFFF" d="M31.098,172.852h-0.07c-0.599,0.87-1.495,1.305-2.688,1.305c-1.12,0-1.991-0.383-2.613-1.148
		c-0.623-0.766-0.934-1.854-0.934-3.266s0.313-2.508,0.938-3.289s1.495-1.172,2.609-1.172c1.161,0,2.052,0.422,2.672,1.266h0.102
		l-0.055-0.617l-0.031-0.602v-3.484h1.297V174H31.27L31.098,172.852z M28.504,173.07c0.885,0,1.527-0.241,1.926-0.723
		s0.598-1.259,0.598-2.332v-0.273c0-1.214-0.202-2.079-0.605-2.598c-0.404-0.519-1.048-0.777-1.934-0.777
		c-0.761,0-1.343,0.296-1.746,0.887c-0.404,0.591-0.605,1.426-0.605,2.504c0,1.094,0.2,1.919,0.602,2.477
		C27.139,172.792,27.728,173.07,28.504,173.07z"/>
	<path fill="#FFFFFF" d="M42.465,169.711c0,1.396-0.352,2.485-1.055,3.27s-1.675,1.176-2.914,1.176c-0.766,0-1.445-0.18-2.039-0.539
		s-1.052-0.875-1.375-1.547c-0.323-0.672-0.484-1.458-0.484-2.359c0-1.396,0.349-2.483,1.047-3.262
		c0.698-0.778,1.667-1.168,2.906-1.168c1.198,0,2.149,0.398,2.855,1.195C42.112,167.273,42.465,168.352,42.465,169.711z
		 M35.941,169.711c0,1.094,0.219,1.927,0.656,2.5s1.081,0.859,1.93,0.859c0.849,0,1.493-0.285,1.934-0.855
		c0.44-0.57,0.66-1.405,0.66-2.504c0-1.089-0.22-1.915-0.66-2.48c-0.44-0.565-1.09-0.848-1.949-0.848
		c-0.849,0-1.49,0.278-1.922,0.836C36.157,167.776,35.941,168.606,35.941,169.711z"/>
	<path fill="#FFFFFF" d="M48.723,165.297c1.125,0,1.999,0.384,2.621,1.152c0.622,0.769,0.934,1.855,0.934,3.262
		s-0.314,2.499-0.941,3.277c-0.628,0.778-1.499,1.168-2.613,1.168c-0.558,0-1.066-0.103-1.527-0.309s-0.848-0.522-1.16-0.949h-0.094
		L45.668,174h-0.93v-12.156h1.297v2.953c0,0.661-0.021,1.255-0.063,1.781h0.063C46.639,165.724,47.535,165.297,48.723,165.297z
		 M48.535,166.383c-0.886,0-1.523,0.254-1.914,0.762s-0.586,1.363-0.586,2.566s0.2,2.063,0.602,2.582
		c0.401,0.519,1.044,0.777,1.93,0.777c0.797,0,1.391-0.29,1.781-0.871s0.586-1.415,0.586-2.504c0-1.114-0.195-1.945-0.586-2.492
		S49.353,166.383,48.535,166.383z"/>
	<path fill="#FFFFFF" d="M58.16,174.156c-1.266,0-2.265-0.386-2.996-1.156c-0.732-0.771-1.098-1.841-1.098-3.211
		c0-1.38,0.34-2.477,1.02-3.289s1.592-1.219,2.738-1.219c1.073,0,1.922,0.353,2.547,1.059s0.938,1.637,0.938,2.793v0.82H55.41
		c0.026,1.005,0.28,1.769,0.762,2.289c0.481,0.521,1.16,0.781,2.035,0.781c0.922,0,1.833-0.192,2.734-0.578v1.156
		c-0.458,0.198-0.892,0.34-1.301,0.426C59.231,174.113,58.738,174.156,58.16,174.156z M57.809,166.367
		c-0.688,0-1.236,0.224-1.645,0.672c-0.409,0.448-0.65,1.067-0.723,1.859h4.477c0-0.817-0.183-1.444-0.547-1.879
		C59.006,166.585,58.485,166.367,57.809,166.367z"/>
	<path fill="#FFFFFF" d="M67.871,174v-11.422h1.328V174H67.871z"/>
	<path fill="#FFFFFF" d="M73.434,174h-1.297v-12.156h1.297V174z"/>
	<path fill="#FFFFFF" d="M77.48,174h-1.297v-12.156h1.297V174z"/>
	<path fill="#FFFFFF" d="M81.449,165.438v5.555c0,0.698,0.159,1.219,0.477,1.563s0.815,0.516,1.492,0.516
		c0.896,0,1.551-0.245,1.965-0.734s0.621-1.289,0.621-2.398v-4.5h1.297V174h-1.07l-0.188-1.148h-0.07
		c-0.266,0.422-0.634,0.745-1.105,0.969s-1.009,0.336-1.613,0.336c-1.042,0-1.821-0.247-2.34-0.742s-0.777-1.286-0.777-2.375v-5.602
		H81.449z"/>
	<path fill="#FFFFFF" d="M95.574,171.664c0,0.797-0.297,1.411-0.891,1.844s-1.427,0.648-2.5,0.648c-1.136,0-2.021-0.18-2.656-0.539
		v-1.203c0.411,0.208,0.853,0.372,1.324,0.492s0.926,0.18,1.363,0.18c0.677,0,1.198-0.108,1.563-0.324s0.547-0.546,0.547-0.988
		c0-0.333-0.145-0.618-0.434-0.855s-0.853-0.517-1.691-0.84c-0.797-0.297-1.363-0.556-1.699-0.777s-0.586-0.473-0.75-0.754
		s-0.246-0.617-0.246-1.008c0-0.698,0.284-1.249,0.852-1.652s1.347-0.605,2.336-0.605c0.922,0,1.823,0.188,2.703,0.563l-0.461,1.055
		c-0.859-0.354-1.638-0.531-2.336-0.531c-0.614,0-1.078,0.097-1.391,0.289s-0.469,0.458-0.469,0.797
		c0,0.229,0.059,0.425,0.176,0.586s0.306,0.315,0.566,0.461s0.761,0.356,1.5,0.633c1.016,0.37,1.702,0.742,2.059,1.117
		S95.574,171.097,95.574,171.664z"/>
	<path fill="#FFFFFF" d="M100.449,173.086c0.229,0,0.45-0.017,0.664-0.051s0.383-0.069,0.508-0.105v0.992
		c-0.141,0.067-0.348,0.124-0.621,0.168s-0.52,0.066-0.738,0.066c-1.656,0-2.484-0.872-2.484-2.617v-5.094h-1.227v-0.625
		l1.227-0.539l0.547-1.828h0.75v1.984h2.484v1.008h-2.484v5.039c0,0.516,0.122,0.911,0.367,1.188S100.022,173.086,100.449,173.086z"
		/>
	<path fill="#FFFFFF" d="M107.238,165.281c0.38,0,0.722,0.031,1.023,0.094l-0.18,1.203c-0.354-0.078-0.667-0.117-0.938-0.117
		c-0.692,0-1.285,0.281-1.777,0.844s-0.738,1.263-0.738,2.102V174h-1.297v-8.563h1.07l0.148,1.586h0.063
		c0.317-0.558,0.7-0.987,1.148-1.289S106.702,165.281,107.238,165.281z"/>
	<path fill="#FFFFFF" d="M115.129,174l-0.258-1.219h-0.063c-0.427,0.536-0.853,0.899-1.277,1.09s-0.954,0.285-1.59,0.285
		c-0.849,0-1.515-0.219-1.996-0.656s-0.723-1.06-0.723-1.867c0-1.729,1.383-2.636,4.148-2.719l1.453-0.047v-0.531
		c0-0.672-0.145-1.168-0.434-1.488s-0.751-0.48-1.387-0.48c-0.714,0-1.521,0.219-2.422,0.656l-0.398-0.992
		c0.422-0.229,0.884-0.409,1.387-0.539s1.007-0.195,1.512-0.195c1.021,0,1.777,0.227,2.27,0.68s0.738,1.18,0.738,2.18V174H115.129z
		 M112.199,173.086c0.808,0,1.441-0.222,1.902-0.664s0.691-1.063,0.691-1.859v-0.773l-1.297,0.055
		c-1.031,0.036-1.774,0.196-2.23,0.48s-0.684,0.726-0.684,1.324c0,0.469,0.142,0.825,0.426,1.07S111.688,173.086,112.199,173.086z"
		/>
	<path fill="#FFFFFF" d="M121.527,173.086c0.229,0,0.45-0.017,0.664-0.051s0.383-0.069,0.508-0.105v0.992
		c-0.141,0.067-0.348,0.124-0.621,0.168s-0.52,0.066-0.738,0.066c-1.656,0-2.484-0.872-2.484-2.617v-5.094h-1.227v-0.625
		l1.227-0.539l0.547-1.828h0.75v1.984h2.484v1.008h-2.484v5.039c0,0.516,0.122,0.911,0.367,1.188S121.101,173.086,121.527,173.086z"
		/>
	<path fill="#FFFFFF" d="M131.801,169.711c0,1.396-0.352,2.485-1.055,3.27s-1.675,1.176-2.914,1.176
		c-0.766,0-1.445-0.18-2.039-0.539s-1.052-0.875-1.375-1.547s-0.484-1.458-0.484-2.359c0-1.396,0.349-2.483,1.047-3.262
		s1.667-1.168,2.906-1.168c1.198,0,2.149,0.398,2.855,1.195S131.801,168.352,131.801,169.711z M125.277,169.711
		c0,1.094,0.219,1.927,0.656,2.5s1.081,0.859,1.93,0.859s1.493-0.285,1.934-0.855s0.66-1.405,0.66-2.504
		c0-1.089-0.22-1.915-0.66-2.48s-1.09-0.848-1.949-0.848c-0.849,0-1.489,0.278-1.922,0.836S125.277,168.606,125.277,169.711z"/>
	<path fill="#FFFFFF" d="M137.98,165.281c0.38,0,0.722,0.031,1.023,0.094l-0.18,1.203c-0.354-0.078-0.667-0.117-0.938-0.117
		c-0.692,0-1.285,0.281-1.777,0.844s-0.738,1.263-0.738,2.102V174h-1.297v-8.563h1.07l0.148,1.586h0.063
		c0.317-0.558,0.7-0.987,1.148-1.289S137.444,165.281,137.98,165.281z"/>
</g>
</svg>
