<?xml version="1.0" encoding="utf-8"?>
<!-- Generator: Adobe Illustrator 15.0.0, SVG Export Plug-In . SVG Version: 6.00 Build 0)  -->
<!DOCTYPE svg PUBLIC "-//W3C//DTD SVG 1.1//EN" "http://www.w3.org/Graphics/SVG/1.1/DTD/svg11.dtd">
<svg version="1.1" id="Layer_1" xmlns="http://www.w3.org/2000/svg" xmlns:xlink="http://www.w3.org/1999/xlink" x="0px" y="0px"
	 width="153px" height="180px" viewBox="0 0 153 180" enable-background="new 0 0 153 180" xml:space="preserve">
<g>
	<path fill="#FFFFFF" d="M57.397,124.532c-0.032-0.022-0.064-0.046-0.098-0.07C57.335,124.488,57.373,124.516,57.397,124.532z"/>
	<path fill="#FFFFFF" d="M131.684,94.645c-0.017-0.017-0.023-0.023-0.037-0.037C131.667,94.628,131.684,94.645,131.684,94.645z"/>
	<path fill="#FFFFFF" d="M57.172,124.371c0.019,0.014,0.026,0.02,0.043,0.031C57.19,124.385,57.172,124.371,57.172,124.371z"/>
	<path fill="#FFFFFF" d="M131.568,94.529C131.496,94.458,131.521,94.482,131.568,94.529L131.568,94.529z"/>
	<path fill="#FFFFFF" d="M25.53,1.5C11.723,1.5,1.5,13.509,1.5,27.315V151.5h124.029c13.808,0,25.971-10.376,25.971-24.186V1.5
		H25.53z M87.505,110.527c-0.116,6.203-0.29,13.17-3.646,18.604c-2.254,3.65-6.033,5.937-10.17,6.827
		c-4.602,0.994-9.779,1.021-14.273-0.479c-0.602-0.203-4.831-1.768-4.646-2.436c0.25-0.898,0.498-1.798,0.746-2.695
		c0.552-1.992,1.103-3.985,1.656-5.979c2.238,1.603,5.303,2.405,8.01,2.606c2.81,0.209,6.033,0.023,8.172-2.045
		c2.081-2.015,2.707-5.195,2.994-7.961c0.297-2.859,0.354-5.75,0.354-8.623c0-5.39,0-10.774,0-16.164c0-3.184,0-6.367,0-9.552
		c0-0.782,0-1.563,0-2.347c0-0.48,0.83-0.23,1.213-0.23c3.108,0,6.216,0,9.323,0c0.459,0,0.287,0.299,0.287,0.729
		c0,1.012,0,2.022,0,3.036c0,6.818,0,13.64,0,20.457C87.525,106.361,87.545,108.445,87.505,110.527z M138.398,121.018
		c-0.344,6.396-4.211,11.387-10.166,13.646c-6.488,2.461-14.08,2.104-20.709,0.422c-3.295-0.836-6.5-2.047-9.486-3.675
		c-0.324-0.179-3.693-2.086-3.605-2.261c0.166-0.318,0.33-0.643,0.494-0.965c1.396-2.723,2.793-5.443,4.188-8.168
		c0.033-0.063,0.066-0.129,0.101-0.192c1.994,1.993,5.021,3.335,7.582,4.414c3.125,1.319,6.488,2.212,9.884,2.378
		c4.045,0.197,10.223-0.389,10.223-5.693c0-3.213-2.832-4.885-5.485-5.956c-3.015-1.215-6.24-1.987-9.362-2.864
		c-5.662-1.593-12.479-3.943-14.611-10.047c-2.041-5.84-0.18-13.1,4.379-17.232c4.938-4.479,12.055-5.607,18.484-5.004
		c3.289,0.309,6.426,1.176,9.465,2.457c0.729,0.307,6.946,3.138,6.625,3.729c-1.435,2.633-2.867,5.268-4.304,7.9
		c-0.139,0.244-0.274,0.492-0.407,0.74c-2.012-2.004-5.061-3.271-7.697-4.166c-3.188-1.08-6.541-1.627-9.898-1.158
		c-2.436,0.343-4.958,1.41-5.876,3.882c-1.095,2.944,0.19,5.635,2.845,7.091c2.647,1.46,5.758,2.109,8.666,2.852
		c3.289,0.836,6.649,1.78,9.748,3.188c2.795,1.27,5.367,3.118,7.01,5.755C138.145,114.757,138.564,117.922,138.398,121.018z"/>
</g>
<g>
	<path fill="#FFFFFF" d="M40.148,177.008c-0.489,0-0.875-0.07-1.156-0.211v-1.133c0.37,0.104,0.755,0.156,1.156,0.156
		c0.516,0,0.907-0.156,1.176-0.469c0.268-0.313,0.402-0.763,0.402-1.352v-11.422h1.328v11.313c0,0.989-0.25,1.757-0.75,2.301
		S41.086,177.008,40.148,177.008z"/>
	<path fill="#FFFFFF" d="M51.156,174l-0.258-1.219h-0.063c-0.427,0.536-0.853,0.899-1.277,1.09c-0.425,0.19-0.955,0.285-1.59,0.285
		c-0.849,0-1.515-0.219-1.996-0.656c-0.482-0.438-0.723-1.06-0.723-1.867c0-1.729,1.383-2.636,4.148-2.719l1.453-0.047v-0.531
		c0-0.672-0.145-1.168-0.434-1.488s-0.751-0.48-1.387-0.48c-0.714,0-1.521,0.219-2.422,0.656l-0.398-0.992
		c0.422-0.229,0.884-0.409,1.387-0.539c0.502-0.13,1.006-0.195,1.512-0.195c1.021,0,1.777,0.227,2.27,0.68s0.738,1.18,0.738,2.18
		V174H51.156z M48.227,173.086c0.807,0,1.441-0.222,1.902-0.664s0.691-1.063,0.691-1.859v-0.773l-1.297,0.055
		c-1.031,0.036-1.775,0.196-2.23,0.48c-0.456,0.284-0.684,0.726-0.684,1.324c0,0.469,0.142,0.825,0.426,1.07
		C47.319,172.964,47.716,173.086,48.227,173.086z"/>
	<path fill="#FFFFFF" d="M56.664,174l-3.25-8.563h1.391l1.844,5.078c0.417,1.188,0.661,1.958,0.734,2.313h0.063
		c0.057-0.276,0.238-0.848,0.543-1.715s0.988-2.759,2.051-5.676h1.391L58.18,174H56.664z"/>
	<path fill="#FFFFFF" d="M68.07,174l-0.258-1.219H67.75c-0.427,0.536-0.853,0.899-1.277,1.09c-0.425,0.19-0.955,0.285-1.59,0.285
		c-0.849,0-1.515-0.219-1.996-0.656c-0.482-0.438-0.723-1.06-0.723-1.867c0-1.729,1.383-2.636,4.148-2.719l1.453-0.047v-0.531
		c0-0.672-0.145-1.168-0.434-1.488s-0.751-0.48-1.387-0.48c-0.714,0-1.521,0.219-2.422,0.656l-0.398-0.992
		c0.422-0.229,0.884-0.409,1.387-0.539c0.502-0.13,1.006-0.195,1.512-0.195c1.021,0,1.777,0.227,2.27,0.68s0.738,1.18,0.738,2.18
		V174H68.07z M65.141,173.086c0.807,0,1.441-0.222,1.902-0.664s0.691-1.063,0.691-1.859v-0.773l-1.297,0.055
		c-1.031,0.036-1.775,0.196-2.23,0.48c-0.456,0.284-0.684,0.726-0.684,1.324c0,0.469,0.142,0.825,0.426,1.07
		C64.233,172.964,64.63,173.086,65.141,173.086z"/>
	<path fill="#FFFFFF" d="M78.344,170.961c0,1.005-0.364,1.789-1.094,2.352s-1.719,0.844-2.969,0.844
		c-1.354,0-2.396-0.175-3.125-0.523v-1.281c0.469,0.198,0.979,0.354,1.531,0.469c0.552,0.114,1.099,0.172,1.641,0.172
		c0.886,0,1.552-0.168,2-0.504S77,171.685,77,171.086c0-0.396-0.079-0.72-0.238-0.973s-0.425-0.485-0.797-0.699
		s-0.938-0.456-1.699-0.727c-1.063-0.38-1.821-0.831-2.277-1.352s-0.684-1.2-0.684-2.039c0-0.88,0.331-1.581,0.992-2.102
		c0.661-0.521,1.536-0.781,2.625-0.781c1.136,0,2.18,0.208,3.133,0.625l-0.414,1.156c-0.942-0.396-1.859-0.594-2.75-0.594
		c-0.703,0-1.253,0.151-1.648,0.453s-0.594,0.722-0.594,1.258c0,0.396,0.073,0.72,0.219,0.973s0.392,0.484,0.738,0.695
		s0.876,0.444,1.59,0.699c1.198,0.427,2.022,0.886,2.473,1.375S78.344,170.18,78.344,170.961z"/>
	<path fill="#FFFFFF" d="M83.906,174.156c-1.239,0-2.199-0.382-2.879-1.145s-1.02-1.843-1.02-3.238c0-1.433,0.345-2.539,1.035-3.32
		s1.673-1.172,2.949-1.172c0.411,0,0.823,0.044,1.234,0.133s0.734,0.192,0.969,0.313l-0.398,1.102
		c-0.286-0.114-0.599-0.21-0.938-0.285s-0.638-0.113-0.898-0.113c-1.739,0-2.609,1.109-2.609,3.328c0,1.052,0.212,1.859,0.637,2.422
		s1.054,0.844,1.887,0.844c0.714,0,1.445-0.153,2.195-0.461v1.148C85.497,174.008,84.776,174.156,83.906,174.156z"/>
	<path fill="#FFFFFF" d="M92.008,165.281c0.38,0,0.722,0.031,1.023,0.094l-0.18,1.203c-0.354-0.078-0.667-0.117-0.938-0.117
		c-0.692,0-1.285,0.281-1.777,0.844s-0.738,1.263-0.738,2.102V174h-1.297v-8.563h1.07l0.148,1.586h0.063
		c0.317-0.558,0.7-0.987,1.148-1.289S91.472,165.281,92.008,165.281z"/>
	<path fill="#FFFFFF" d="M94.523,163.117c0-0.297,0.073-0.515,0.219-0.652s0.328-0.207,0.547-0.207c0.208,0,0.388,0.07,0.539,0.211
		s0.227,0.356,0.227,0.648s-0.075,0.509-0.227,0.652s-0.331,0.215-0.539,0.215c-0.219,0-0.401-0.071-0.547-0.215
		S94.523,163.409,94.523,163.117z M95.93,174h-1.297v-8.563h1.297V174z"/>
	<path fill="#FFFFFF" d="M102.664,174.156c-0.558,0-1.066-0.103-1.527-0.309s-0.848-0.522-1.16-0.949h-0.094
		c0.063,0.5,0.094,0.974,0.094,1.422v3.523H98.68v-12.406h1.055l0.18,1.172h0.063c0.333-0.469,0.722-0.808,1.164-1.016
		s0.95-0.313,1.523-0.313c1.136,0,2.012,0.388,2.629,1.164s0.926,1.864,0.926,3.266c0,1.406-0.313,2.499-0.941,3.277
		S103.778,174.156,102.664,174.156z M102.477,166.383c-0.875,0-1.508,0.242-1.898,0.727s-0.591,1.255-0.602,2.313v0.289
		c0,1.203,0.2,2.063,0.602,2.582s1.044,0.777,1.93,0.777c0.739,0,1.319-0.3,1.738-0.898s0.629-1.425,0.629-2.477
		c0-1.067-0.21-1.887-0.629-2.457S103.237,166.383,102.477,166.383z"/>
	<path fill="#FFFFFF" d="M111.25,173.086c0.229,0,0.45-0.017,0.664-0.051s0.383-0.069,0.508-0.105v0.992
		c-0.141,0.067-0.348,0.124-0.621,0.168s-0.52,0.066-0.738,0.066c-1.656,0-2.484-0.872-2.484-2.617v-5.094h-1.227v-0.625
		l1.227-0.539l0.547-1.828h0.75v1.984h2.484v1.008h-2.484v5.039c0,0.516,0.122,0.911,0.367,1.188S110.823,173.086,111.25,173.086z"
		/>
</g>
</svg>
