<?xml version="1.0" encoding="utf-8"?>
<!-- Generator: Adobe Illustrator 15.0.0, SVG Export Plug-In . SVG Version: 6.00 Build 0)  -->
<!DOCTYPE svg PUBLIC "-//W3C//DTD SVG 1.1//EN" "http://www.w3.org/Graphics/SVG/1.1/DTD/svg11.dtd">
<svg version="1.1" id="Layer_1" xmlns="http://www.w3.org/2000/svg" xmlns:xlink="http://www.w3.org/1999/xlink" x="0px" y="0px"
	 width="153px" height="180px" viewBox="0 0 153 180" enable-background="new 0 0 153 180" xml:space="preserve">
<g>
	<g>
		<path fill="none" stroke="#FFFFFF" stroke-width="3" stroke-miterlimit="10" d="M151.5,1.5v125.432
			c0,13.81-12.002,24.568-25.809,24.568H1.5V26.932C1.5,13.125,11.884,1.5,25.691,1.5H151.5z"/>
	</g>
	<g>
		<path fill="#FFFFFF" d="M35.85,103.979c0,0,6.034,0,9.507-0.748c3.475-0.74,8.925-5.545,12.632-11.465
			c8.597-13.724,13.657-40.771,26.224-51.522c12.564-10.746,29.989-11.819,32.938-11.044v18.814
			C96.466,48.269,92.615,67.55,92.615,67.55h13.751v18.71H84.6c0,0-1.801,7.245-12.455,20.282
			c-15.214,18.597-36.295,17.444-36.295,17.444V103.979L35.85,103.979z"/>
	</g>
</g>
</svg>
