<?xml version="1.0" encoding="utf-8"?>
<!-- Generator: Adobe Illustrator 15.0.0, SVG Export Plug-In . SVG Version: 6.00 Build 0)  -->
<!DOCTYPE svg PUBLIC "-//W3C//DTD SVG 1.1//EN" "http://www.w3.org/Graphics/SVG/1.1/DTD/svg11.dtd">
<svg version="1.1" id="Layer_1" xmlns="http://www.w3.org/2000/svg" xmlns:xlink="http://www.w3.org/1999/xlink" x="0px" y="0px"
	 width="153px" height="180px" viewBox="0 0 153 180" enable-background="new 0 0 153 180" xml:space="preserve">
<g>
	<path fill="#FFFFFF" d="M25.871,1.5C12.063,1.5,1.5,13.145,1.5,26.951V151.5h124.371c13.807,0,25.629-10.741,25.629-24.549V1.5
		H25.871z M52.181,113.341H36.943V39h15.238V113.341z M106.145,105.777C100.04,111.354,90.674,114,79.333,114
		c-6.788,0-11.686-0.473-14.866-0.943V50.585c4.813-0.851,11.086-1.418,17.616-1.418c11.084,0,18.306,2.27,23.806,6.806
		c6.012,4.912,9.797,12.758,9.797,24.005C115.686,92.17,111.646,100.583,106.145,105.777z"/>
	<path fill="#FFFFFF" d="M83.456,60.226c-2.835,0-4.812,0.281-5.929,0.564v41.681c1.117,0.286,3.007,0.286,4.556,0.286
		c11.944,0.095,19.765-7.091,19.765-22.308C101.848,67.22,94.8,60.226,83.456,60.226z"/>
</g>
<g>
	<path fill="#FFFFFF" d="M26.391,174l-1.422-3.633h-4.578L18.984,174h-1.344l4.516-11.469h1.117L27.766,174H26.391z M24.555,169.172
		l-1.328-3.539c-0.172-0.448-0.349-0.997-0.531-1.648c-0.115,0.5-0.279,1.05-0.492,1.648l-1.344,3.539H24.555z"/>
	<path fill="#FFFFFF" d="M34.969,172.852h-0.07c-0.599,0.87-1.495,1.305-2.688,1.305c-1.12,0-1.991-0.383-2.613-1.148
		c-0.623-0.766-0.934-1.854-0.934-3.266s0.313-2.508,0.938-3.289s1.495-1.172,2.609-1.172c1.161,0,2.052,0.422,2.672,1.266h0.102
		l-0.055-0.617l-0.031-0.602v-3.484h1.297V174h-1.055L34.969,172.852z M32.375,173.07c0.885,0,1.527-0.241,1.926-0.723
		s0.598-1.259,0.598-2.332v-0.273c0-1.214-0.202-2.079-0.605-2.598c-0.404-0.519-1.048-0.777-1.934-0.777
		c-0.761,0-1.343,0.296-1.746,0.887c-0.404,0.591-0.605,1.426-0.605,2.504c0,1.094,0.2,1.919,0.602,2.477
		C31.01,172.792,31.599,173.07,32.375,173.07z"/>
	<path fill="#FFFFFF" d="M46.336,169.711c0,1.396-0.352,2.485-1.055,3.27s-1.675,1.176-2.914,1.176c-0.766,0-1.445-0.18-2.039-0.539
		s-1.052-0.875-1.375-1.547c-0.323-0.672-0.484-1.458-0.484-2.359c0-1.396,0.349-2.483,1.047-3.262
		c0.698-0.778,1.667-1.168,2.906-1.168c1.198,0,2.149,0.398,2.855,1.195C45.983,167.273,46.336,168.352,46.336,169.711z
		 M39.813,169.711c0,1.094,0.219,1.927,0.656,2.5s1.081,0.859,1.93,0.859c0.849,0,1.493-0.285,1.934-0.855
		c0.44-0.57,0.66-1.405,0.66-2.504c0-1.089-0.22-1.915-0.66-2.48c-0.44-0.565-1.09-0.848-1.949-0.848
		c-0.849,0-1.49,0.278-1.922,0.836C40.028,167.776,39.813,168.606,39.813,169.711z"/>
	<path fill="#FFFFFF" d="M52.594,165.297c1.125,0,1.999,0.384,2.621,1.152c0.622,0.769,0.934,1.855,0.934,3.262
		s-0.314,2.499-0.941,3.277c-0.628,0.778-1.499,1.168-2.613,1.168c-0.558,0-1.066-0.103-1.527-0.309s-0.848-0.522-1.16-0.949h-0.094
		L49.539,174h-0.93v-12.156h1.297v2.953c0,0.661-0.021,1.255-0.063,1.781h0.063C50.51,165.724,51.406,165.297,52.594,165.297z
		 M52.406,166.383c-0.886,0-1.523,0.254-1.914,0.762s-0.586,1.363-0.586,2.566s0.2,2.063,0.602,2.582
		c0.401,0.519,1.044,0.777,1.93,0.777c0.797,0,1.391-0.29,1.781-0.871s0.586-1.415,0.586-2.504c0-1.114-0.195-1.945-0.586-2.492
		S53.224,166.383,52.406,166.383z"/>
	<path fill="#FFFFFF" d="M62.031,174.156c-1.266,0-2.265-0.386-2.996-1.156c-0.732-0.771-1.098-1.841-1.098-3.211
		c0-1.38,0.34-2.477,1.02-3.289s1.592-1.219,2.738-1.219c1.073,0,1.922,0.353,2.547,1.059s0.938,1.637,0.938,2.793v0.82h-5.898
		c0.026,1.005,0.28,1.769,0.762,2.289c0.481,0.521,1.16,0.781,2.035,0.781c0.922,0,1.833-0.192,2.734-0.578v1.156
		c-0.458,0.198-0.892,0.34-1.301,0.426C63.103,174.113,62.609,174.156,62.031,174.156z M61.68,166.367
		c-0.688,0-1.236,0.224-1.645,0.672c-0.409,0.448-0.65,1.067-0.723,1.859h4.477c0-0.817-0.183-1.444-0.547-1.879
		C62.877,166.585,62.356,166.367,61.68,166.367z"/>
	<path fill="#FFFFFF" d="M71.742,174v-11.422h1.328V174H71.742z"/>
	<path fill="#FFFFFF" d="M81.867,174v-5.539c0-0.698-0.159-1.219-0.477-1.563s-0.815-0.516-1.492-0.516
		c-0.896,0-1.552,0.242-1.969,0.727s-0.625,1.284-0.625,2.398V174h-1.297v-8.563h1.055l0.211,1.172h0.063
		c0.266-0.422,0.638-0.749,1.117-0.98s1.013-0.348,1.602-0.348c1.031,0,1.808,0.249,2.328,0.746s0.781,1.293,0.781,2.387V174H81.867
		z"/>
	<path fill="#FFFFFF" d="M95.141,168.18c0,1.886-0.512,3.327-1.535,4.324S91.109,174,89.188,174h-3.164v-11.422h3.5
		c1.776,0,3.156,0.492,4.141,1.477S95.141,166.414,95.141,168.18z M93.734,168.227c0-1.489-0.374-2.612-1.121-3.367
		s-1.858-1.133-3.332-1.133h-1.93v9.125h1.617c1.583,0,2.773-0.39,3.57-1.168S93.734,169.753,93.734,168.227z"/>
	<path fill="#FFFFFF" d="M101.109,174.156c-1.266,0-2.265-0.386-2.996-1.156s-1.098-1.841-1.098-3.211c0-1.38,0.34-2.477,1.02-3.289
		s1.593-1.219,2.738-1.219c1.073,0,1.922,0.353,2.547,1.059s0.938,1.637,0.938,2.793v0.82h-5.898
		c0.026,1.005,0.28,1.769,0.762,2.289s1.16,0.781,2.035,0.781c0.922,0,1.833-0.192,2.734-0.578v1.156
		c-0.458,0.198-0.892,0.34-1.301,0.426S101.688,174.156,101.109,174.156z M100.758,166.367c-0.688,0-1.235,0.224-1.645,0.672
		s-0.649,1.067-0.723,1.859h4.477c0-0.817-0.183-1.444-0.547-1.879S101.435,166.367,100.758,166.367z"/>
	<path fill="#FFFFFF" d="M111.992,171.664c0,0.797-0.297,1.411-0.891,1.844s-1.427,0.648-2.5,0.648c-1.136,0-2.021-0.18-2.656-0.539
		v-1.203c0.411,0.208,0.853,0.372,1.324,0.492s0.926,0.18,1.363,0.18c0.677,0,1.198-0.108,1.563-0.324s0.547-0.546,0.547-0.988
		c0-0.333-0.145-0.618-0.434-0.855s-0.853-0.517-1.691-0.84c-0.797-0.297-1.363-0.556-1.699-0.777s-0.586-0.473-0.75-0.754
		s-0.246-0.617-0.246-1.008c0-0.698,0.284-1.249,0.852-1.652s1.347-0.605,2.336-0.605c0.922,0,1.823,0.188,2.703,0.563l-0.461,1.055
		c-0.859-0.354-1.638-0.531-2.336-0.531c-0.614,0-1.078,0.097-1.391,0.289s-0.469,0.458-0.469,0.797
		c0,0.229,0.059,0.425,0.176,0.586s0.306,0.315,0.566,0.461s0.761,0.356,1.5,0.633c1.016,0.37,1.702,0.742,2.059,1.117
		S111.992,171.097,111.992,171.664z"/>
	<path fill="#FFFFFF" d="M113.992,163.117c0-0.297,0.073-0.515,0.219-0.652s0.328-0.207,0.547-0.207c0.208,0,0.388,0.07,0.539,0.211
		s0.227,0.356,0.227,0.648s-0.075,0.509-0.227,0.652s-0.331,0.215-0.539,0.215c-0.219,0-0.401-0.071-0.547-0.215
		S113.992,163.409,113.992,163.117z M115.398,174h-1.297v-8.563h1.297V174z"/>
	<path fill="#FFFFFF" d="M125.156,165.438v0.82l-1.586,0.188c0.146,0.183,0.276,0.421,0.391,0.715s0.172,0.626,0.172,0.996
		c0,0.839-0.286,1.508-0.859,2.008s-1.359,0.75-2.359,0.75c-0.255,0-0.495-0.021-0.719-0.063c-0.552,0.292-0.828,0.659-0.828,1.102
		c0,0.234,0.097,0.407,0.289,0.52s0.523,0.168,0.992,0.168h1.516c0.927,0,1.64,0.195,2.137,0.586s0.746,0.958,0.746,1.703
		c0,0.948-0.38,1.671-1.141,2.168s-1.87,0.746-3.328,0.746c-1.12,0-1.983-0.208-2.59-0.625s-0.91-1.005-0.91-1.766
		c0-0.521,0.167-0.972,0.5-1.352s0.802-0.638,1.406-0.773c-0.219-0.099-0.402-0.253-0.551-0.461s-0.223-0.45-0.223-0.727
		c0-0.313,0.083-0.586,0.25-0.82s0.43-0.461,0.789-0.68c-0.442-0.183-0.804-0.492-1.082-0.93s-0.418-0.938-0.418-1.5
		c0-0.938,0.281-1.66,0.844-2.168s1.359-0.762,2.391-0.762c0.448,0,0.852,0.052,1.211,0.156H125.156z M118.328,175.438
		c0,0.464,0.195,0.815,0.586,1.055s0.95,0.359,1.68,0.359c1.089,0,1.895-0.163,2.418-0.488s0.785-0.767,0.785-1.324
		c0-0.464-0.144-0.785-0.43-0.965s-0.825-0.27-1.617-0.27h-1.555c-0.589,0-1.047,0.141-1.375,0.422S118.328,174.911,118.328,175.438
		z M119.031,168.18c0,0.599,0.169,1.052,0.508,1.359s0.81,0.461,1.414,0.461c1.266,0,1.898-0.614,1.898-1.844
		c0-1.286-0.641-1.93-1.922-1.93c-0.609,0-1.078,0.164-1.406,0.492S119.031,167.534,119.031,168.18z"/>
	<path fill="#FFFFFF" d="M132.773,174v-5.539c0-0.698-0.159-1.219-0.477-1.563s-0.815-0.516-1.492-0.516
		c-0.896,0-1.552,0.242-1.969,0.727s-0.625,1.284-0.625,2.398V174h-1.297v-8.563h1.055l0.211,1.172h0.063
		c0.266-0.422,0.638-0.749,1.117-0.98s1.013-0.348,1.602-0.348c1.031,0,1.808,0.249,2.328,0.746s0.781,1.293,0.781,2.387V174
		H132.773z"/>
</g>
</svg>
