<?xml version="1.0" encoding="utf-8"?>
<!-- Generator: Adobe Illustrator 15.0.0, SVG Export Plug-In . SVG Version: 6.00 Build 0)  -->
<!DOCTYPE svg PUBLIC "-//W3C//DTD SVG 1.1//EN" "http://www.w3.org/Graphics/SVG/1.1/DTD/svg11.dtd">
<svg version="1.1" id="Layer_1" xmlns="http://www.w3.org/2000/svg" xmlns:xlink="http://www.w3.org/1999/xlink" x="0px" y="0px"
	 width="153px" height="180px" viewBox="0 0 153 180" enable-background="new 0 0 153 180" xml:space="preserve">
<g>
	<g>
		<polygon fill="#FFFFFF" points="52.181,39 52.181,113.341 36.943,113.341 36.943,39 		"/>
		<path fill="#FFFFFF" d="M77.527,102.471c1.117,0.286,3.007,0.286,4.556,0.286c11.944,0.095,19.765-7.091,19.765-22.308
			c0-13.229-7.048-20.223-18.392-20.223c-2.835,0-4.812,0.281-5.929,0.564V102.471L77.527,102.471z M64.467,50.585
			c4.813-0.851,11.086-1.418,17.616-1.418c11.084,0,18.306,2.27,23.806,6.806c6.012,4.912,9.797,12.758,9.797,24.005
			c0,12.191-4.039,20.604-9.541,25.799C100.04,111.354,90.674,114,79.333,114c-6.788,0-11.686-0.473-14.866-0.943V50.585
			L64.467,50.585z"/>
	</g>
	<path fill="none" stroke="#FFFFFF" stroke-width="3" stroke-miterlimit="10" d="M151.5,1.5v125.451
		c0,13.808-11.822,24.549-25.629,24.549H1.5V26.951C1.5,13.145,12.063,1.5,25.871,1.5H151.5z"/>
</g>
</svg>
