<?xml version="1.0" encoding="utf-8"?>
<!-- Generator: Adobe Illustrator 15.0.0, SVG Export Plug-In . SVG Version: 6.00 Build 0)  -->
<!DOCTYPE svg PUBLIC "-//W3C//DTD SVG 1.1//EN" "http://www.w3.org/Graphics/SVG/1.1/DTD/svg11.dtd">
<svg version="1.1" id="Layer_1" xmlns="http://www.w3.org/2000/svg" xmlns:xlink="http://www.w3.org/1999/xlink" x="0px" y="0px"
	 width="100px" height="100px" viewBox="26.5 26.447 100 100" enable-background="new 26.5 26.447 100 100" xml:space="preserve">
<g>
	<g>
		<path fill="#FFFFFF" d="M117.396,72.66L80.284,35.55c-2.136-2.138-5.602-2.138-7.74,0l-7.706,7.707l9.774,9.775
			c2.273-0.766,4.878-0.252,6.689,1.56c1.82,1.822,2.33,4.449,1.543,6.728l9.421,9.422c2.28-0.785,4.91-0.277,6.73,1.546
			c2.545,2.543,2.545,6.666,0,9.211c-2.545,2.546-6.667,2.546-9.213,0c-1.915-1.915-2.388-4.726-1.419-7.083l-8.784-8.787
			L79.578,88.75c0.62,0.306,1.205,0.716,1.724,1.231c2.543,2.542,2.543,6.664,0,9.213c-2.546,2.543-6.672,2.543-9.211,0
			c-2.545-2.549-2.545-6.671,0-9.213c0.628-0.629,1.355-1.104,2.131-1.421V65.222c-0.775-0.317-1.502-0.788-2.131-1.421
			c-1.929-1.926-2.392-4.754-1.405-7.12l-9.635-9.639L35.604,72.489c-2.139,2.14-2.139,5.605,0,7.743l37.112,37.11
			c2.137,2.14,5.604,2.14,7.742,0l36.938-36.939C119.535,78.265,119.535,74.798,117.396,72.66z"/>
	</g>
</g>
</svg>
