<?xml version="1.0" encoding="utf-8"?>
<!-- Generator: Adobe Illustrator 15.0.0, SVG Export Plug-In . SVG Version: 6.00 Build 0)  -->
<!DOCTYPE svg PUBLIC "-//W3C//DTD SVG 1.1//EN" "http://www.w3.org/Graphics/SVG/1.1/DTD/svg11.dtd">
<svg version="1.1" id="Layer_1" xmlns="http://www.w3.org/2000/svg" xmlns:xlink="http://www.w3.org/1999/xlink" x="0px" y="0px"
	 width="98.171px" height="111.396px" viewBox="27.414 20.803 98.171 111.396"
	 enable-background="new 27.414 20.803 98.171 111.396" xml:space="preserve">
<g>
	<g>
		<path fill="#FFFFFF" d="M63.384,68.167H76.5V57.993H62.475L63.384,68.167z M36.842,31.501l7.221,81l32.417,8.999l32.445-8.994
			l7.232-81.005L36.842,31.501L36.842,31.501z M102.737,107.348L76.5,114.622v-10.31l-0.016,0.004l-20.352-5.647l-1.424-15.953
			h9.975l0.738,8.273l11.064,2.986l0.016-0.004V78.101H54.3l-2.681-30.045H76.5v-9.933h32.417L102.737,107.348z"/>
		<path opacity="0.8" fill="#FFFFFF" enable-background="new    " d="M88.729,78.101H76.5v15.876l11.076-2.989L88.729,78.101z
			 M76.5,38.124v9.934h24.882l-0.891,9.936H76.5v10.174h23.088L96.86,98.668l-20.36,5.644v10.311l26.237-7.275l6.18-69.224
			L76.5,38.124L76.5,38.124z"/>
		<g opacity="0.2">
			<polygon fill="#FFFFFF" points="76.5,48.058 51.617,48.058 54.298,78.101 76.5,78.101 76.5,68.167 63.384,68.167 62.475,57.993 
				76.5,57.993 			"/>
			<polygon fill="#FFFFFF" points="76.5,93.975 76.486,93.98 65.423,90.992 64.684,82.716 54.709,82.716 56.132,98.668 
				76.484,104.317 76.5,104.313 			"/>
		</g>
	</g>
</g>
</svg>
