<?xml version="1.0" encoding="utf-8"?>
<!-- Generator: Adobe Illustrator 15.0.0, SVG Export Plug-In . SVG Version: 6.00 Build 0)  -->
<!DOCTYPE svg PUBLIC "-//W3C//DTD SVG 1.1//EN" "http://www.w3.org/Graphics/SVG/1.1/DTD/svg11.dtd">
<svg version="1.1" id="Layer_1" xmlns="http://www.w3.org/2000/svg" xmlns:xlink="http://www.w3.org/1999/xlink" x="0px" y="0px"
	 width="153px" height="180px" viewBox="0 0 153 180" enable-background="new 0 0 153 180" xml:space="preserve">
<path fill="#FFFFFF" d="M25.691,1.5C11.884,1.5,1.5,13.125,1.5,26.932V151.5h124.191c13.807,0,25.809-10.759,25.809-24.568V1.5
	H25.691z M117.15,48.013C96.466,48.269,92.615,67.55,92.615,67.55h13.751v18.71H84.6c0,0-1.801,7.245-12.455,20.282
	c-15.214,18.597-36.295,17.444-36.295,17.444v-20.008c0,0,6.034,0,9.507-0.748c3.475-0.74,8.925-5.545,12.632-11.465
	c8.597-13.725,13.657-40.771,26.224-51.522c12.564-10.746,29.989-11.819,32.938-11.044V48.013L117.15,48.013z"/>
<g>
	<path fill="#FFFFFF" d="M39.656,174l-1.422-3.633h-4.578L32.25,174h-1.344l4.516-11.469h1.117L41.031,174H39.656z M37.82,169.172
		l-1.328-3.539c-0.172-0.448-0.349-0.997-0.531-1.648c-0.115,0.5-0.279,1.05-0.492,1.648l-1.344,3.539H37.82z"/>
	<path fill="#FFFFFF" d="M48.234,172.852h-0.07c-0.599,0.87-1.495,1.305-2.688,1.305c-1.12,0-1.991-0.383-2.613-1.148
		c-0.623-0.766-0.934-1.854-0.934-3.266s0.313-2.508,0.938-3.289s1.495-1.172,2.609-1.172c1.161,0,2.052,0.422,2.672,1.266h0.102
		l-0.055-0.617l-0.031-0.602v-3.484h1.297V174h-1.055L48.234,172.852z M45.641,173.07c0.885,0,1.527-0.241,1.926-0.723
		s0.598-1.259,0.598-2.332v-0.273c0-1.214-0.202-2.079-0.605-2.598c-0.404-0.519-1.048-0.777-1.934-0.777
		c-0.761,0-1.343,0.296-1.746,0.887c-0.404,0.591-0.605,1.426-0.605,2.504c0,1.094,0.2,1.919,0.602,2.477
		C44.276,172.792,44.864,173.07,45.641,173.07z"/>
	<path fill="#FFFFFF" d="M59.602,169.711c0,1.396-0.352,2.485-1.055,3.27s-1.675,1.176-2.914,1.176c-0.766,0-1.445-0.18-2.039-0.539
		s-1.052-0.875-1.375-1.547c-0.323-0.672-0.484-1.458-0.484-2.359c0-1.396,0.349-2.483,1.047-3.262
		c0.698-0.778,1.667-1.168,2.906-1.168c1.198,0,2.149,0.398,2.855,1.195C59.249,167.273,59.602,168.352,59.602,169.711z
		 M53.078,169.711c0,1.094,0.219,1.927,0.656,2.5s1.081,0.859,1.93,0.859c0.849,0,1.493-0.285,1.934-0.855
		c0.44-0.57,0.66-1.405,0.66-2.504c0-1.089-0.22-1.915-0.66-2.48c-0.44-0.565-1.09-0.848-1.949-0.848
		c-0.849,0-1.49,0.278-1.922,0.836C53.294,167.776,53.078,168.606,53.078,169.711z"/>
	<path fill="#FFFFFF" d="M65.859,165.297c1.125,0,1.999,0.384,2.621,1.152c0.622,0.769,0.934,1.855,0.934,3.262
		s-0.314,2.499-0.941,3.277c-0.628,0.778-1.499,1.168-2.613,1.168c-0.558,0-1.066-0.103-1.527-0.309s-0.848-0.522-1.16-0.949h-0.094
		L62.805,174h-0.93v-12.156h1.297v2.953c0,0.661-0.021,1.255-0.063,1.781h0.063C63.776,165.724,64.672,165.297,65.859,165.297z
		 M65.672,166.383c-0.886,0-1.523,0.254-1.914,0.762s-0.586,1.363-0.586,2.566s0.2,2.063,0.602,2.582
		c0.401,0.519,1.044,0.777,1.93,0.777c0.797,0,1.391-0.29,1.781-0.871s0.586-1.415,0.586-2.504c0-1.114-0.195-1.945-0.586-2.492
		S66.489,166.383,65.672,166.383z"/>
	<path fill="#FFFFFF" d="M75.297,174.156c-1.266,0-2.265-0.386-2.996-1.156c-0.732-0.771-1.098-1.841-1.098-3.211
		c0-1.38,0.34-2.477,1.02-3.289s1.593-1.219,2.738-1.219c1.073,0,1.922,0.353,2.547,1.059s0.938,1.637,0.938,2.793v0.82h-5.898
		c0.026,1.005,0.28,1.769,0.762,2.289s1.16,0.781,2.035,0.781c0.922,0,1.833-0.192,2.734-0.578v1.156
		c-0.458,0.198-0.892,0.34-1.301,0.426S75.875,174.156,75.297,174.156z M74.945,166.367c-0.688,0-1.235,0.224-1.645,0.672
		s-0.649,1.067-0.723,1.859h4.477c0-0.817-0.183-1.444-0.547-1.879S75.622,166.367,74.945,166.367z"/>
	<path fill="#FFFFFF" d="M86.336,174h-1.328v-11.422h6.367v1.18h-5.039v4.18h4.734v1.18h-4.734V174z"/>
	<path fill="#FFFFFF" d="M94.367,174H93.07v-12.156h1.297V174z"/>
	<path fill="#FFFFFF" d="M102.383,174l-0.258-1.219h-0.063c-0.427,0.536-0.853,0.899-1.277,1.09s-0.954,0.285-1.59,0.285
		c-0.849,0-1.515-0.219-1.996-0.656s-0.723-1.06-0.723-1.867c0-1.729,1.383-2.636,4.148-2.719l1.453-0.047v-0.531
		c0-0.672-0.145-1.168-0.434-1.488s-0.751-0.48-1.387-0.48c-0.714,0-1.521,0.219-2.422,0.656l-0.398-0.992
		c0.422-0.229,0.884-0.409,1.387-0.539s1.007-0.195,1.512-0.195c1.021,0,1.777,0.227,2.27,0.68s0.738,1.18,0.738,2.18V174H102.383z
		 M99.453,173.086c0.808,0,1.441-0.222,1.902-0.664s0.691-1.063,0.691-1.859v-0.773l-1.297,0.055
		c-1.031,0.036-1.774,0.196-2.23,0.48s-0.684,0.726-0.684,1.324c0,0.469,0.142,0.825,0.426,1.07S98.942,173.086,99.453,173.086z"/>
	<path fill="#FFFFFF" d="M111.539,171.664c0,0.797-0.297,1.411-0.891,1.844s-1.427,0.648-2.5,0.648c-1.136,0-2.021-0.18-2.656-0.539
		v-1.203c0.411,0.208,0.853,0.372,1.324,0.492s0.926,0.18,1.363,0.18c0.677,0,1.198-0.108,1.563-0.324s0.547-0.546,0.547-0.988
		c0-0.333-0.145-0.618-0.434-0.855s-0.853-0.517-1.691-0.84c-0.797-0.297-1.363-0.556-1.699-0.777s-0.586-0.473-0.75-0.754
		s-0.246-0.617-0.246-1.008c0-0.698,0.284-1.249,0.852-1.652s1.347-0.605,2.336-0.605c0.922,0,1.823,0.188,2.703,0.563l-0.461,1.055
		c-0.859-0.354-1.638-0.531-2.336-0.531c-0.614,0-1.078,0.097-1.391,0.289s-0.469,0.458-0.469,0.797
		c0,0.229,0.059,0.425,0.176,0.586s0.306,0.315,0.566,0.461s0.761,0.356,1.5,0.633c1.016,0.37,1.702,0.742,2.059,1.117
		S111.539,171.097,111.539,171.664z"/>
	<path fill="#FFFFFF" d="M119.508,174v-5.539c0-0.698-0.159-1.219-0.477-1.563s-0.815-0.516-1.492-0.516
		c-0.901,0-1.559,0.245-1.973,0.734s-0.621,1.292-0.621,2.406V174h-1.297v-12.156h1.297v3.68c0,0.442-0.021,0.81-0.063,1.102h0.078
		c0.255-0.411,0.618-0.735,1.09-0.973s1.009-0.355,1.613-0.355c1.047,0,1.832,0.249,2.355,0.746s0.785,1.288,0.785,2.371V174
		H119.508z"/>
</g>
</svg>
