<?xml version="1.0" encoding="utf-8"?>
<!-- Generator: Adobe Illustrator 15.0.0, SVG Export Plug-In . SVG Version: 6.00 Build 0)  -->
<!DOCTYPE svg PUBLIC "-//W3C//DTD SVG 1.1//EN" "http://www.w3.org/Graphics/SVG/1.1/DTD/svg11.dtd">
<svg version="1.1" id="Layer_1" xmlns="http://www.w3.org/2000/svg" xmlns:xlink="http://www.w3.org/1999/xlink" x="0px" y="0px"
	 width="153px" height="180px" viewBox="0 0 153 180" enable-background="new 0 0 153 180" xml:space="preserve">
<path fill="#FFFFFF" d="M25.53,1.5C11.723,1.5,1.5,13.509,1.5,27.315V151.5h124.029c13.808,0,25.971-10.376,25.971-24.186V1.5H25.53
	z M87.813,31.312h4.853l-4.853-4.548v-5.205h12.092v5.07h-4.78l4.78,4.816v4.937H87.813V31.312z M70.259,31.312h5.046l-5.046-4.548
	v-5.205h12.093v5.07h-4.588l4.588,4.816v4.937H70.259V31.312z M53.095,21.559h12.093v5.07h-7.022v4.683h7.022v5.07H53.095V21.559z
	 M108.4,122.049l-31.947,9.288l-31.861-9.132L37.491,42h78.018L108.4,122.049z"/>
<polygon fill="#FFFFFF" points="100.895,58 76,58 52.009,58 52.875,68 76,68 76,69.268 53.461,78.643 54.599,88 76,88 88.493,88 
	87.127,101.145 76,104.561 76,104.703 65.389,101.708 64.885,94 55.08,94 56.232,109.254 76,114.805 76,114.723 96.256,108.654 
	99.17,78 76.907,78 99.998,67.756 "/>
<g>
	<path fill="#FFFFFF" d="M64.559,163.602c-1.255,0-2.246,0.418-2.973,1.254s-1.09,1.98-1.09,3.434c0,1.495,0.35,2.649,1.051,3.465
		c0.7,0.815,1.699,1.223,2.996,1.223c0.797,0,1.706-0.144,2.727-0.43v1.164c-0.792,0.297-1.769,0.445-2.93,0.445
		c-1.683,0-2.98-0.511-3.895-1.531s-1.371-2.472-1.371-4.352c0-1.177,0.22-2.208,0.66-3.094c0.44-0.886,1.075-1.567,1.906-2.047
		c0.831-0.479,1.809-0.719,2.934-0.719c1.198,0,2.245,0.219,3.141,0.656l-0.563,1.141C66.288,163.805,65.423,163.602,64.559,163.602
		z"/>
	<path fill="#FFFFFF" d="M76.207,170.961c0,1.005-0.364,1.789-1.094,2.352s-1.719,0.844-2.969,0.844
		c-1.354,0-2.396-0.175-3.125-0.523v-1.281c0.469,0.198,0.979,0.354,1.531,0.469c0.552,0.114,1.099,0.172,1.641,0.172
		c0.886,0,1.552-0.168,2-0.504s0.672-0.804,0.672-1.402c0-0.396-0.079-0.72-0.238-0.973s-0.425-0.485-0.797-0.699
		s-0.938-0.456-1.699-0.727c-1.063-0.38-1.822-0.831-2.277-1.352c-0.456-0.521-0.684-1.2-0.684-2.039
		c0-0.88,0.331-1.581,0.992-2.102c0.661-0.521,1.536-0.781,2.625-0.781c1.136,0,2.18,0.208,3.133,0.625l-0.414,1.156
		c-0.942-0.396-1.859-0.594-2.75-0.594c-0.703,0-1.253,0.151-1.648,0.453c-0.396,0.302-0.594,0.722-0.594,1.258
		c0,0.396,0.073,0.72,0.219,0.973c0.146,0.253,0.392,0.484,0.738,0.695c0.346,0.211,0.876,0.444,1.59,0.699
		c1.198,0.427,2.022,0.886,2.473,1.375S76.207,170.18,76.207,170.961z"/>
	<path fill="#FFFFFF" d="M84.988,170.961c0,1.005-0.364,1.789-1.094,2.352s-1.719,0.844-2.969,0.844
		c-1.354,0-2.396-0.175-3.125-0.523v-1.281c0.469,0.198,0.979,0.354,1.531,0.469s1.099,0.172,1.641,0.172
		c0.886,0,1.552-0.168,2-0.504s0.672-0.804,0.672-1.402c0-0.396-0.079-0.72-0.238-0.973s-0.425-0.485-0.797-0.699
		s-0.938-0.456-1.699-0.727c-1.063-0.38-1.821-0.831-2.277-1.352s-0.684-1.2-0.684-2.039c0-0.88,0.331-1.581,0.992-2.102
		s1.536-0.781,2.625-0.781c1.136,0,2.18,0.208,3.133,0.625l-0.414,1.156c-0.942-0.396-1.859-0.594-2.75-0.594
		c-0.703,0-1.253,0.151-1.648,0.453s-0.594,0.722-0.594,1.258c0,0.396,0.073,0.72,0.219,0.973s0.392,0.484,0.738,0.695
		s0.876,0.444,1.59,0.699c1.198,0.427,2.022,0.886,2.473,1.375S84.988,170.18,84.988,170.961z"/>
	<path fill="#FFFFFF" d="M93.613,165.266c0,0.729-0.204,1.325-0.613,1.789s-0.988,0.773-1.738,0.93v0.063
		c0.917,0.114,1.597,0.406,2.039,0.875s0.664,1.083,0.664,1.844c0,1.089-0.378,1.926-1.133,2.512s-1.828,0.879-3.219,0.879
		c-0.604,0-1.157-0.046-1.66-0.137s-0.991-0.251-1.465-0.48v-1.234c0.495,0.245,1.022,0.431,1.582,0.559s1.09,0.191,1.59,0.191
		c1.974,0,2.961-0.773,2.961-2.32c0-1.386-1.089-2.078-3.266-2.078H88.23v-1.117h1.141c0.891,0,1.597-0.196,2.117-0.59
		s0.781-0.938,0.781-1.637c0-0.558-0.191-0.995-0.574-1.313s-0.902-0.477-1.559-0.477c-0.5,0-0.972,0.067-1.414,0.203
		s-0.948,0.386-1.516,0.75l-0.656-0.875c0.469-0.37,1.009-0.66,1.621-0.871s1.257-0.316,1.934-0.316
		c1.109,0,1.972,0.254,2.586,0.762S93.613,164.38,93.613,165.266z"/>
</g>
</svg>
