<?xml version="1.0" encoding="utf-8"?>
<!-- Generator: Adobe Illustrator 15.0.0, SVG Export Plug-In . SVG Version: 6.00 Build 0)  -->
<!DOCTYPE svg PUBLIC "-//W3C//DTD SVG 1.1//EN" "http://www.w3.org/Graphics/SVG/1.1/DTD/svg11.dtd">
<svg version="1.1" id="Layer_1" xmlns="http://www.w3.org/2000/svg" xmlns:xlink="http://www.w3.org/1999/xlink" x="0px" y="0px"
	 width="153px" height="180px" viewBox="0 0 153 180" enable-background="new 0 0 153 180" xml:space="preserve">
<g>
	<g>
		<path fill="#FFFFFF" d="M72.053,82.775L67.972,67.48c-1.165-4.283-2.336-9.635-3.304-13.911h-0.203
			c-0.963,4.276-1.941,9.735-3.012,13.911l-3.888,15.295H72.053L72.053,82.775z M55.429,94.971l-4.666,18.51H35.499l19.93-72.108
			h19.445l20.415,72.108H79.252l-5.055-18.51H55.429L55.429,94.971z"/>
		<path fill="#FFFFFF" d="M102.882,113.48V61.163h14.78v52.317H102.882L102.882,113.48z M118.143,46.613
			c0,4.493-3.009,8.134-7.971,8.134c-4.664,0-7.676-3.641-7.676-8.134c0-4.602,3.107-8.133,7.875-8.133
			C115.134,38.48,118.048,42.012,118.143,46.613L118.143,46.613z"/>
	</g>
	<path fill="none" stroke="#FFFFFF" stroke-width="3" stroke-miterlimit="10" d="M151.5,1.5v125.432
		c0,13.81-12.002,24.568-25.809,24.568H1.5V26.932C1.5,13.125,11.884,1.5,25.691,1.5H151.5z"/>
</g>
</svg>
