<?xml version="1.0" encoding="utf-8"?>
<!-- Generator: Adobe Illustrator 15.0.0, SVG Export Plug-In . SVG Version: 6.00 Build 0)  -->
<!DOCTYPE svg PUBLIC "-//W3C//DTD SVG 1.1//EN" "http://www.w3.org/Graphics/SVG/1.1/DTD/svg11.dtd">
<svg version="1.1" id="Layer_1" xmlns="http://www.w3.org/2000/svg" xmlns:xlink="http://www.w3.org/1999/xlink" x="0px" y="0px"
	 width="153px" height="153px" viewBox="0 0 153 153" enable-background="new 0 0 153 153" xml:space="preserve">
<g>
	<g>
		<path fill="#FFFFFF" d="M24.621,97.821c2.945,2.107,6.978,3.166,10.54,3.431c3.698,0.274,7.938,0.03,10.753-2.691
			c2.738-2.651,3.562-6.835,3.94-10.474c0.391-3.763,0.466-7.566,0.466-11.347c0-7.093,0-14.179,0-21.27c0-4.19,0-8.379,0-12.57
			c0-1.029,0-2.057,0-3.088c0-0.631,1.092-0.303,1.596-0.303c4.09,0,8.179,0,12.268,0c0.604,0,0.378,0.394,0.378,0.959
			c0,1.331,0,2.662,0,3.996c0,8.972,0,17.947,0,26.918c0,2.74,0.026,5.482-0.028,8.222c-0.151,8.162-0.381,17.329-4.798,24.481
			c-2.966,4.803-7.938,7.81-13.381,8.981c-6.056,1.309-12.867,1.345-18.781-0.629c-0.792-0.268-6.357-2.326-6.113-3.205
			c0.329-1.183,0.655-2.364,0.981-3.547C23.168,103.066,23.893,100.445,24.621,97.821C25.581,98.51,24.621,97.821,24.621,97.821z"/>
		<path fill="#FFFFFF" d="M122.666,58.706c-2.646-2.637-6.657-4.304-10.128-5.481c-4.194-1.421-8.607-2.141-13.023-1.524
			c-3.206,0.452-6.524,1.855-7.732,5.108c-1.44,3.873,0.25,7.415,3.745,9.331c3.482,1.921,7.576,2.774,11.403,3.753
			c4.327,1.1,8.748,2.341,12.826,4.193c3.678,1.669,7.062,4.104,9.224,7.573c2.19,3.515,2.742,7.679,2.524,11.752
			c-0.452,8.416-5.541,14.985-13.377,17.956c-8.538,3.238-18.527,2.769-27.25,0.556c-4.336-1.101-8.553-2.693-12.482-4.835
			c-0.427-0.236-4.86-2.744-4.744-2.976c0.218-0.419,0.434-0.846,0.65-1.27c1.838-3.583,3.675-7.163,5.511-10.747
			c0.043-0.082,0.086-0.17,0.131-0.253c2.624,2.622,6.606,4.388,9.978,5.809c4.111,1.734,8.537,2.909,13.005,3.128
			c5.323,0.259,13.452-0.512,13.452-7.491c0-4.228-3.726-6.428-7.218-7.837c-3.967-1.599-8.21-2.615-12.319-3.769
			c-7.451-2.094-16.422-5.188-19.227-13.22c-2.686-7.685-0.236-17.237,5.762-22.675c6.497-5.894,15.862-7.378,24.322-6.584
			c4.328,0.406,8.456,1.547,12.455,3.232c0.96,0.404,9.142,4.129,8.717,4.907c-1.888,3.465-3.772,6.931-5.661,10.396
			C123.021,58.053,122.841,58.379,122.666,58.706C122.184,58.226,122.666,58.706,122.666,58.706z"/>
	</g>
</g>
</svg>
