<?xml version="1.0" encoding="utf-8"?>
<!-- Generator: Adobe Illustrator 15.0.0, SVG Export Plug-In . SVG Version: 6.00 Build 0)  -->
<!DOCTYPE svg PUBLIC "-//W3C//DTD SVG 1.1//EN" "http://www.w3.org/Graphics/SVG/1.1/DTD/svg11.dtd">
<svg version="1.1" id="Layer_1" xmlns="http://www.w3.org/2000/svg" xmlns:xlink="http://www.w3.org/1999/xlink" x="0px" y="0px"
	 width="153px" height="180px" viewBox="0 0 153 180" enable-background="new 0 0 153 180" xml:space="preserve">
<path fill="#FFFFFF" d="M25.539,1.5C11.732,1.5,1.5,13.125,1.5,26.932V151.5h124.039c13.809,0,25.961-10.759,25.961-24.568V1.5
	H25.539z M83.02,34.4l2.682-3.699c-5.164,9.326,0.184,20.893,8.385,26.467c7.896,5.373,21.148,7.084,27.305-1.762
	c-1.597,2.28-2.724,4.639-4.814,6.578c-3.948,3.662-9.262,4.991-14.549,4.644C87.205,65.656,73.549,48.295,83.02,34.4z
	 M89.779,121.493c-8.366,1.45-17.542,1.014-25.535-1.905c-8.319-3.039-16.111-8.113-22.011-14.753
	c-0.674-1.01-1.665-1.935-2.44-2.874c-0.288-0.389-1.488-1.498-1.488-1.972c-1.427-1.904-2.848-4.044-3.835-6.214
	c-2.253-4.311-3.919-8.926-4.816-13.709c-1.802-9.585-0.355-19.76,5.287-27.865l6.564-8.329c-3.311,6.388-4.533,13.675-3.885,20.814
	c0.888,9.818,5.13,18.875,11.318,26.453c6.298,7.229,13.707,12.407,22.503,16.146c16.635,6.426,38.711,4.316,50.186-10.621
	C116.531,109.798,103.35,119.143,89.779,121.493z M117.49,83.238c-9.951,10.404-27.225,12.113-39.805,5.824
	c-8.181-4.291-14.959-10.819-18.618-19.415c-3.77-8.849-3.62-19.584,1.993-27.637l4.957-7.017
	c-9.496,16.064,0.692,35.361,15.154,44.148c13.514,7.932,33.13,7.623,42.752-6.236C122.689,76.754,120.26,80.342,117.49,83.238z"/>
<g>
	<path fill="#FFFFFF" d="M51.887,177.844c-0.495,0-0.896-0.065-1.203-0.195v-1.055c0.359,0.104,0.714,0.156,1.063,0.156
		c0.406,0,0.704-0.11,0.895-0.332c0.19-0.222,0.285-0.559,0.285-1.012v-9.969h1.297v9.875C54.223,177,53.444,177.844,51.887,177.844
		z M52.816,163.117c0-0.297,0.073-0.515,0.219-0.652c0.146-0.138,0.328-0.207,0.547-0.207c0.208,0,0.388,0.07,0.539,0.211
		c0.151,0.141,0.227,0.356,0.227,0.648s-0.076,0.509-0.227,0.652c-0.151,0.144-0.331,0.215-0.539,0.215
		c-0.219,0-0.401-0.071-0.547-0.215C52.889,163.626,52.816,163.409,52.816,163.117z"/>
	<path fill="#FFFFFF" d="M67.082,168.273c0,1.464-0.294,2.68-0.883,3.648c-0.589,0.969-1.419,1.625-2.492,1.969l2.719,2.828h-1.93
		l-2.227-2.578l-0.43,0.016c-1.683,0-2.98-0.515-3.895-1.543s-1.371-2.48-1.371-4.355c0-1.859,0.458-3.301,1.375-4.324
		c0.917-1.023,2.219-1.535,3.906-1.535c1.641,0,2.922,0.521,3.844,1.563S67.082,166.44,67.082,168.273z M57.98,168.273
		c0,1.547,0.329,2.72,0.988,3.52c0.659,0.8,1.616,1.199,2.871,1.199c1.266,0,2.221-0.398,2.867-1.195
		c0.646-0.797,0.969-1.972,0.969-3.523c0-1.536-0.322-2.702-0.965-3.496c-0.644-0.794-1.595-1.191-2.855-1.191
		c-1.266,0-2.228,0.399-2.887,1.199C58.31,165.585,57.98,166.747,57.98,168.273z"/>
	<path fill="#FFFFFF" d="M70.652,165.438v5.555c0,0.698,0.159,1.219,0.477,1.563c0.317,0.344,0.815,0.516,1.492,0.516
		c0.896,0,1.551-0.245,1.965-0.734s0.621-1.289,0.621-2.398v-4.5h1.297V174h-1.07l-0.188-1.148h-0.07
		c-0.266,0.422-0.634,0.745-1.105,0.969s-1.009,0.336-1.613,0.336c-1.042,0-1.822-0.247-2.34-0.742
		c-0.519-0.495-0.777-1.286-0.777-2.375v-5.602H70.652z"/>
	<path fill="#FFFFFF" d="M82.871,174.156c-1.266,0-2.265-0.386-2.996-1.156s-1.098-1.841-1.098-3.211c0-1.38,0.34-2.477,1.02-3.289
		s1.593-1.219,2.738-1.219c1.073,0,1.922,0.353,2.547,1.059s0.938,1.637,0.938,2.793v0.82h-5.898
		c0.026,1.005,0.28,1.769,0.762,2.289s1.16,0.781,2.035,0.781c0.922,0,1.833-0.192,2.734-0.578v1.156
		c-0.458,0.198-0.892,0.34-1.301,0.426S83.449,174.156,82.871,174.156z M82.52,166.367c-0.688,0-1.235,0.224-1.645,0.672
		s-0.649,1.067-0.723,1.859h4.477c0-0.817-0.183-1.444-0.547-1.879S83.196,166.367,82.52,166.367z"/>
	<path fill="#FFFFFF" d="M92.137,165.281c0.38,0,0.722,0.031,1.023,0.094l-0.18,1.203c-0.354-0.078-0.667-0.117-0.938-0.117
		c-0.692,0-1.285,0.281-1.777,0.844s-0.738,1.263-0.738,2.102V174H88.23v-8.563h1.07l0.148,1.586h0.063
		c0.317-0.558,0.7-0.987,1.148-1.289S91.601,165.281,92.137,165.281z"/>
	<path fill="#FFFFFF" d="M93.402,165.438h1.391l1.875,4.883c0.411,1.114,0.667,1.919,0.766,2.414h0.063
		c0.067-0.266,0.21-0.72,0.426-1.363s0.923-2.621,2.121-5.934h1.391l-3.68,9.75c-0.364,0.964-0.79,1.647-1.277,2.051
		s-1.085,0.605-1.793,0.605c-0.396,0-0.786-0.044-1.172-0.133v-1.039c0.286,0.063,0.606,0.094,0.961,0.094
		c0.891,0,1.526-0.5,1.906-1.5l0.477-1.219L93.402,165.438z"/>
</g>
</svg>
