<?xml version="1.0" encoding="utf-8"?>
<!-- Generator: Adobe Illustrator 15.0.0, SVG Export Plug-In . SVG Version: 6.00 Build 0)  -->
<!DOCTYPE svg PUBLIC "-//W3C//DTD SVG 1.1//EN" "http://www.w3.org/Graphics/SVG/1.1/DTD/svg11.dtd">
<svg version="1.1" id="Layer_1" xmlns="http://www.w3.org/2000/svg" xmlns:xlink="http://www.w3.org/1999/xlink" x="0px" y="0px"
	 width="153px" height="180px" viewBox="0 0 153 180" enable-background="new 0 0 153 180" xml:space="preserve">
<path fill="#FFFFFF" d="M25.691,1.5C11.884,1.5,1.5,13.071,1.5,26.878V151.5h124.191c13.807,0,25.809-10.813,25.809-24.622V1.5
	H25.691z M124.613,81.102l-43.457,43.457c-2.516,2.517-6.594,2.517-9.108,0L28.387,80.9c-2.516-2.517-2.516-6.593,0-9.11
	l29.937-29.936L69.66,53.193c-1.161,2.784-0.616,6.111,1.652,8.377c0.74,0.744,1.595,1.299,2.508,1.672v27.457
	c-0.913,0.373-1.768,0.932-2.508,1.671c-2.993,2.991-2.993,7.841,0,10.839c2.99,2.992,7.842,2.992,10.836,0
	c2.992-2.998,2.992-7.848,0-10.839c-0.609-0.606-1.297-1.089-2.027-1.448l0.002-27.203l10.335,10.336
	c-1.14,2.774-0.584,6.082,1.669,8.333c2.995,2.994,7.846,2.994,10.839,0c2.994-2.994,2.994-7.845,0-10.838
	c-2.142-2.144-5.235-2.742-7.918-1.818L83.964,58.65c0.927-2.682,0.325-5.772-1.815-7.916c-2.131-2.131-5.194-2.736-7.87-1.834
	l-11.5-11.5l9.067-9.067c2.515-2.515,6.593-2.515,9.106,0l43.661,43.659C127.129,74.507,127.129,78.586,124.613,81.102z"/>
<g>
	<path fill="#FFFFFF" d="M75.652,165.438v0.82l-1.586,0.188c0.146,0.183,0.276,0.421,0.391,0.715s0.172,0.626,0.172,0.996
		c0,0.839-0.286,1.508-0.859,2.008s-1.359,0.75-2.359,0.75c-0.255,0-0.495-0.021-0.719-0.063c-0.552,0.292-0.828,0.659-0.828,1.102
		c0,0.234,0.096,0.407,0.289,0.52c0.192,0.112,0.523,0.168,0.992,0.168h1.516c0.927,0,1.64,0.195,2.137,0.586
		s0.746,0.958,0.746,1.703c0,0.948-0.38,1.671-1.141,2.168s-1.87,0.746-3.328,0.746c-1.12,0-1.983-0.208-2.59-0.625
		c-0.607-0.417-0.91-1.005-0.91-1.766c0-0.521,0.167-0.972,0.5-1.352c0.333-0.38,0.802-0.638,1.406-0.773
		c-0.219-0.099-0.402-0.253-0.551-0.461s-0.223-0.45-0.223-0.727c0-0.313,0.083-0.586,0.25-0.82c0.167-0.234,0.43-0.461,0.789-0.68
		c-0.443-0.183-0.804-0.492-1.082-0.93c-0.279-0.438-0.418-0.938-0.418-1.5c0-0.938,0.281-1.66,0.844-2.168s1.359-0.762,2.391-0.762
		c0.448,0,0.852,0.052,1.211,0.156H75.652z M68.824,175.438c0,0.464,0.195,0.815,0.586,1.055s0.95,0.359,1.68,0.359
		c1.088,0,1.895-0.163,2.418-0.488s0.785-0.767,0.785-1.324c0-0.464-0.144-0.785-0.43-0.965s-0.825-0.27-1.617-0.27h-1.555
		c-0.589,0-1.047,0.141-1.375,0.422S68.824,174.911,68.824,175.438z M69.527,168.18c0,0.599,0.169,1.052,0.508,1.359
		c0.338,0.308,0.81,0.461,1.414,0.461c1.266,0,1.898-0.614,1.898-1.844c0-1.286-0.641-1.93-1.922-1.93
		c-0.609,0-1.078,0.164-1.406,0.492S69.527,167.534,69.527,168.18z"/>
	<path fill="#FFFFFF" d="M77.301,163.117c0-0.297,0.073-0.515,0.219-0.652s0.328-0.207,0.547-0.207c0.208,0,0.388,0.07,0.539,0.211
		s0.227,0.356,0.227,0.648s-0.075,0.509-0.227,0.652s-0.331,0.215-0.539,0.215c-0.219,0-0.401-0.071-0.547-0.215
		S77.301,163.409,77.301,163.117z M78.707,174H77.41v-8.563h1.297V174z"/>
	<path fill="#FFFFFF" d="M84.223,173.086c0.229,0,0.45-0.017,0.664-0.051s0.383-0.069,0.508-0.105v0.992
		c-0.141,0.067-0.348,0.124-0.621,0.168s-0.52,0.066-0.738,0.066c-1.656,0-2.484-0.872-2.484-2.617v-5.094h-1.227v-0.625
		l1.227-0.539l0.547-1.828h0.75v1.984h2.484v1.008h-2.484v5.039c0,0.516,0.122,0.911,0.367,1.188S83.796,173.086,84.223,173.086z"/>
</g>
</svg>
