<?xml version="1.0" encoding="utf-8"?>
<!-- Generator: Adobe Illustrator 15.0.0, SVG Export Plug-In . SVG Version: 6.00 Build 0)  -->
<!DOCTYPE svg PUBLIC "-//W3C//DTD SVG 1.1//EN" "http://www.w3.org/Graphics/SVG/1.1/DTD/svg11.dtd">
<svg version="1.1" id="Layer_1" xmlns="http://www.w3.org/2000/svg" xmlns:xlink="http://www.w3.org/1999/xlink" x="0px" y="0px"
	 width="153px" height="153px" viewBox="0 0 153 153" enable-background="new 0 0 153 153" xml:space="preserve">
<g>
	<g>
		<path fill="#FFFFFF" d="M79.35,110.253c-1.622-1.193-1.792-2.982-1.792-2.982l-0.609-5.44H57.577l-0.61,5.44
			c0,0-0.168,1.789-1.79,2.982c-1.619,1.191-2.899,2.215-1.619,2.388c1.232,0.165,12.849,0.017,13.705,0
			c0.859,0.017,12.473,0.165,13.706,0C82.247,112.468,80.968,111.447,79.35,110.253z"/>
		<path fill="#FFFFFF" d="M34.29,77.65c0-1.797-1.458-3.256-3.253-3.256H15.579c-1.796,0-3.255,1.458-3.255,3.256v34.168
			c0,1.798,1.459,3.256,3.255,3.256h15.458c1.795,0,3.254-1.458,3.254-3.256V77.65H34.29z M21.692,78.058h3.255
			c0.225,0,0.405,0.181,0.405,0.402c0,0.226-0.18,0.409-0.405,0.409h-3.255c-0.225,0-0.408-0.184-0.408-0.409
			C21.286,78.237,21.468,78.058,21.692,78.058z M23.185,113.15c-0.901,0-1.629-0.727-1.629-1.628c0-0.899,0.728-1.628,1.629-1.628
			c0.898,0,1.626,0.726,1.626,1.628C24.812,112.42,24.084,113.15,23.185,113.15z M32.257,108.565h-17.9V81.312h17.902
			L32.257,108.565L32.257,108.565z"/>
		<path fill="#FFFFFF" d="M136.063,55.678h-33.478c-2.521,0-4.563,2.042-4.563,4.564v47.913c0,2.521,2.042,4.566,4.563,4.566h33.478
			c2.521,0,4.565-2.045,4.565-4.566V60.241C140.627,57.719,138.585,55.678,136.063,55.678z M112.771,110.18
			c-1.261,0-2.284-1.02-2.284-2.279c0-1.259,1.023-2.281,2.284-2.281c1.258,0,2.279,1.022,2.279,2.281
			C115.05,109.16,114.028,110.18,112.771,110.18z M119.324,110.18c-1.259,0-2.28-1.02-2.28-2.279c0-1.259,1.021-2.281,2.28-2.281
			c1.262,0,2.281,1.022,2.281,2.281C121.605,109.16,120.588,110.18,119.324,110.18z M125.885,110.18
			c-1.264,0-2.283-1.02-2.283-2.279c0-1.259,1.02-2.281,2.283-2.281c1.258,0,2.277,1.022,2.277,2.281
			C128.162,109.16,127.143,110.18,125.885,110.18z M137.774,103.588h-36.898V59.669h36.898V103.588L137.774,103.588z"/>
		<path fill="#FFFFFF" d="M108.411,53.384h5.611V41.667c0-2.069-1.676-3.742-3.742-3.742H24.246c-2.066,0-3.742,1.673-3.742,3.742
			v30.438h5.613V43.537h82.294V53.384L108.411,53.384z"/>
		<path fill="#FFFFFF" d="M36.583,88.425v11.222h59.149V88.425H36.583z M67.262,96.6c-1.415,0-2.566-1.15-2.566-2.565
			s1.151-2.566,2.566-2.566c1.418,0,2.566,1.151,2.566,2.566S68.679,96.6,67.262,96.6z"/>
	</g>
</g>
</svg>
