<?xml version="1.0" encoding="utf-8"?>
<!-- Generator: Adobe Illustrator 15.0.0, SVG Export Plug-In . SVG Version: 6.00 Build 0)  -->
<!DOCTYPE svg PUBLIC "-//W3C//DTD SVG 1.1//EN" "http://www.w3.org/Graphics/SVG/1.1/DTD/svg11.dtd">
<svg version="1.1" id="Layer_1" xmlns="http://www.w3.org/2000/svg" xmlns:xlink="http://www.w3.org/1999/xlink" x="0px" y="0px"
	 width="153px" height="180px" viewBox="0 0 153 180" enable-background="new 0 0 153 180" xml:space="preserve">
<g>
	<path fill="none" stroke="#FFFFFF" stroke-width="3" stroke-miterlimit="10" d="M151.5,1.5v125.814
		c0,13.81-12.163,24.186-25.971,24.186H1.5V27.315C1.5,13.509,11.723,1.5,25.53,1.5H151.5z"/>
	<g>
		<path fill="#FFFFFF" d="M57.172,124.371c2.238,1.602,5.303,2.406,8.01,2.607c2.81,0.209,6.033,0.023,8.172-2.045
			c2.081-2.015,2.707-5.195,2.994-7.961c0.297-2.859,0.354-5.75,0.354-8.623c0-5.39,0-10.775,0-16.164c0-3.184,0-6.367,0-9.552
			c0-0.782,0-1.563,0-2.347c0-0.48,0.83-0.23,1.213-0.23c3.108,0,6.216,0,9.323,0c0.46,0,0.287,0.299,0.287,0.729
			c0,1.012,0,2.023,0,3.037c0,6.818,0,13.639,0,20.457c0,2.082,0.02,4.166-0.021,6.248c-0.116,6.203-0.29,13.17-3.646,18.605
			c-2.254,3.65-6.033,5.936-10.17,6.827c-4.602,0.994-9.779,1.022-14.273-0.479c-0.602-0.203-4.831-1.767-4.646-2.435
			c0.25-0.899,0.498-1.798,0.746-2.696C56.068,128.357,56.619,126.364,57.172,124.371C57.902,124.895,57.172,124.371,57.172,124.371
			z"/>
		<path fill="#FFFFFF" d="M131.684,94.645c-2.011-2.004-5.06-3.271-7.697-4.166c-3.188-1.08-6.541-1.627-9.898-1.158
			c-2.436,0.343-4.958,1.41-5.876,3.882c-1.095,2.944,0.19,5.635,2.845,7.091c2.647,1.46,5.758,2.109,8.666,2.852
			c3.289,0.836,6.649,1.78,9.748,3.187c2.795,1.269,5.367,3.118,7.01,5.755c1.664,2.671,2.084,5.836,1.918,8.932
			c-0.344,6.396-4.211,11.387-10.166,13.646c-6.488,2.461-14.08,2.103-20.709,0.422c-3.295-0.836-6.5-2.047-9.486-3.675
			c-0.324-0.178-3.693-2.086-3.605-2.26c0.166-0.319,0.33-0.643,0.494-0.965c1.396-2.723,2.793-5.444,4.188-8.168
			c0.032-0.063,0.065-0.129,0.1-0.193c1.994,1.994,5.021,3.335,7.582,4.414c3.125,1.32,6.488,2.212,9.884,2.378
			c4.045,0.198,10.223-0.388,10.223-5.693c0-3.213-2.832-4.885-5.486-5.956c-3.014-1.215-6.24-1.988-9.363-2.865
			c-5.662-1.592-12.479-3.943-14.611-10.047c-2.041-5.839-0.18-13.099,4.379-17.232c4.938-4.479,12.055-5.607,18.484-5.004
			c3.289,0.309,6.426,1.176,9.465,2.457c0.73,0.307,6.947,3.138,6.625,3.729c-1.434,2.633-2.867,5.268-4.303,7.9
			C131.953,94.148,131.816,94.396,131.684,94.645C131.316,94.279,131.684,94.645,131.684,94.645z"/>
	</g>
</g>
</svg>
