<?xml version="1.0" encoding="utf-8"?>
<!-- Generator: Adobe Illustrator 15.0.0, SVG Export Plug-In . SVG Version: 6.00 Build 0)  -->
<!DOCTYPE svg PUBLIC "-//W3C//DTD SVG 1.1//EN" "http://www.w3.org/Graphics/SVG/1.1/DTD/svg11.dtd">
<svg version="1.1" id="Layer_1" xmlns="http://www.w3.org/2000/svg" xmlns:xlink="http://www.w3.org/1999/xlink" x="0px" y="0px"
	 width="153px" height="153px" viewBox="0 0 153 153" enable-background="new 0 0 153 153" xml:space="preserve">
<g>
	<g>
		<path fill="#FFFFFF" d="M71.732,83.295L67.651,68c-1.165-4.283-2.336-9.636-3.304-13.911h-0.203
			c-0.963,4.276-1.941,9.735-3.012,13.911l-3.888,15.295H71.732L71.732,83.295z M55.108,95.49L50.442,114H35.178l19.93-72.107
			h19.445L94.969,114H78.932l-5.056-18.51H55.108L55.108,95.49z"/>
		<path fill="#FFFFFF" d="M102.561,114V61.683h14.781V114H102.561L102.561,114z M117.822,47.133c0,4.493-3.01,8.134-7.971,8.134
			c-4.664,0-7.676-3.641-7.676-8.134c0-4.603,3.107-8.133,7.875-8.133C114.813,39,117.727,42.532,117.822,47.133L117.822,47.133z"/>
	</g>
</g>
</svg>
