<?xml version="1.0" encoding="utf-8"?>
<!-- Generator: Adobe Illustrator 15.0.0, SVG Export Plug-In . SVG Version: 6.00 Build 0)  -->
<!DOCTYPE svg PUBLIC "-//W3C//DTD SVG 1.1//EN" "http://www.w3.org/Graphics/SVG/1.1/DTD/svg11.dtd">
<svg version="1.1" id="Layer_1" xmlns="http://www.w3.org/2000/svg" xmlns:xlink="http://www.w3.org/1999/xlink" x="0px" y="0px"
	 width="153px" height="153px" viewBox="0 0 153 153" enable-background="new 0 0 153 153" xml:space="preserve">
<g>
	<g>
		<path fill="#FFFFFF" d="M34.941,52.201c-5.642,8.105-7.089,18.28-5.287,27.865c0.897,4.783,2.563,9.399,4.816,13.709
			c0.987,2.17,2.408,4.31,3.835,6.214c0,0.474,1.2,1.583,1.488,1.972c0.775,0.939,1.766,1.864,2.44,2.874
			c5.9,6.64,13.692,11.714,22.011,14.753c7.994,2.919,17.169,3.355,25.535,1.905c13.57-2.351,26.752-11.695,31.848-24.83
			c-11.475,14.938-33.551,17.047-50.186,10.621c-8.796-3.738-16.205-8.918-22.503-16.146C42.75,83.56,38.508,74.503,37.62,64.685
			c-0.648-7.139,0.574-14.426,3.885-20.814"/>
		<path fill="#FFFFFF" d="M61.062,42.012c-5.613,8.053-5.763,18.788-1.993,27.637c3.657,8.594,10.437,15.123,18.617,19.414
			c12.58,6.289,29.854,4.58,39.806-5.824c2.771-2.896,5.198-6.484,6.435-10.331c-9.621,13.86-29.238,14.168-42.752,6.237
			C66.712,70.356,56.524,51.06,66.02,34.996"/>
		<path fill="#FFFFFF" d="M83.02,34.4c-9.471,13.895,4.187,31.256,19.006,32.228c5.287,0.347,10.602-0.982,14.55-4.644
			c2.092-1.939,3.219-4.298,4.813-6.578c-6.154,8.846-19.406,7.135-27.304,1.762c-8.201-5.574-13.549-17.141-8.385-26.467"/>
	</g>
</g>
</svg>
